<svg width="256" height="256" fill="none" xmlns="http://www.w3.org/2000/svg"><path fill="#FFDF8B" d="M0 0h256v256H0z"/><path d="M71 184.581c26.028-8.498 31.476-27.314 29.055-52.808-1.816-26.1-.605-52.807 1.816-78.908.605-6.677 10.29-16.389 16.948-17.602 15.133-2.428 30.871-.607 48.425-.607 2.421 44.916 4.843 88.012 7.869 131.108.606 7.891 7.869 14.568 9.08 22.459 1.816 10.926 0 21.851 0 32.777h-4.237c-10.291-18.21-24.213-29.135-46.609-27.314-5.448.607-10.29 0-15.738 0-19.37-.607-27.844 7.283-24.212 27.314H71v-36.419zm81.112-5.463c0-38.24.605-75.266-.606-112.292 0-6.677-9.685-12.747-15.133-18.817-6.053 5.463-14.527 9.712-18.159 16.389-3.632 6.07-3.632 14.568-3.632 21.851-.605 30.35 0 61.306 0 92.869h37.53z" fill="#000"/></svg>