<svg width="24" height="24" fill="none" xmlns="http://www.w3.org/2000/svg"><g clip-path="url(#clip0_1249_910)" fill="#000"><path d="M9.052 9.971a.62.62 0 00.883 0 .625.625 0 000-.884L4.938 4.085a.624.624 0 10-.883.884l4.997 5.002zm3.824 2.059l7.054-7.06a.625.625 0 000-.885c-.244-.244-.639-.352-.883-.107l-7.496 7.394h-.185v.217l-7.403 7.502c-.244.244-.198.64.046.884a.675.675 0 00.464.183c.16 0 .332-.06.453-.183l7.06-7.06 7.058 7.06a.624.624 0 00.885 0 .625.625 0 000-.883l-7.053-7.062z"/></g><defs><clipPath id="clip0_1249_910"><path fill="#fff" d="M0 0h24v24H0z"/></clipPath></defs></svg>