<svg width="24" height="24" fill="none" xmlns="http://www.w3.org/2000/svg"><path d="M16.6 15.45a1.945 1.945 0 00-2.755 0l-.94.941A16.955 16.955 0 019.98 14.04a16.98 16.98 0 01-2.348-2.93l.94-.943a1.95 1.95 0 000-2.762L6.738 5.572A1.9 1.9 0 005.37 5a1.942 1.942 0 00-1.381.572l-.882.877a4.141 4.141 0 00-1.063 3.412c.207 2.436 1.802 5.367 4.26 7.836 2.458 2.47 5.415 4.062 7.846 4.296.182.01.364.01.545 0a3.929 3.929 0 002.86-1.066l.875-.884A1.95 1.95 0 0019 18.66a1.91 1.91 0 00-.57-1.371L16.6 15.45zm2.375-10.452a10.262 10.262 0 00-3.342-2.223A10.318 10.318 0 0011.688 2a.69.69 0 00-.487.2.68.68 0 00.486 1.166 8.99 8.99 0 013.438.682 8.94 8.94 0 012.909 1.944 8.872 8.872 0 011.932 2.905 8.823 8.823 0 01.659 3.42.68.68 0 00.2.483.69.69 0 001.175-.483 10.12 10.12 0 00-.768-3.963 10.176 10.176 0 00-2.257-3.356z" fill="#FFDF8B"/><path d="M15.486 8.499a3.934 3.934 0 011.18 2.842c0 .175.07.342.196.466a.67.67 0 00.942 0A.656.656 0 0018 11.34a5.224 5.224 0 00-.387-2.04 5.269 5.269 0 00-1.152-1.733 5.337 5.337 0 00-1.738-1.16A5.384 5.384 0 0012.667 6a.67.67 0 00-.472.193.656.656 0 000 .933.67.67 0 00.472.193 4.038 4.038 0 012.82 1.18z" fill="#FFDF8B"/></svg>