<svg width="48" height="48" fill="none" xmlns="http://www.w3.org/2000/svg"><path d="M5.112 27.075h-.681V7.024c0-1.614 1.193-2.939 2.613-2.939h2.045c1.42 0 2.613 1.325 2.613 2.939v2.074h-.682V7.024c0-1.268-.852-2.247-1.931-2.247H7.044c-1.08 0-1.932 1.037-1.932 2.247v20.05z" fill="#3B3938"/><path d="M37.547 40.96H10.453c-3.352 0-6.306-2.42-6.987-5.761l-1.307-6.223h43.626l-1.25 6.223c-.738 3.342-3.635 5.762-6.986 5.762z" fill="#fff"/><path d="M37.548 41.306H10.452a7.494 7.494 0 01-4.715-1.67c-1.306-1.096-2.272-2.651-2.613-4.322L1.761 28.63h44.478l-1.363 6.684c-.341 1.67-1.307 3.227-2.613 4.321a7.494 7.494 0 01-4.715 1.671zM2.613 29.322l1.193 5.82c.34 1.555 1.136 2.938 2.386 3.917 1.192.98 2.726 1.556 4.26 1.556h27.096c1.533 0 3.067-.519 4.26-1.556a7.019 7.019 0 002.386-3.918l1.193-5.82H2.613z" fill="#3B3938"/><path d="M47.66 27.535H.34v2.824h47.32v-2.824z" fill="#FFDF8B"/><path d="M48 30.704H0V27.19h48v3.514zm-47.318-.69h46.58V27.88H.681v2.132z" fill="#3B3938"/><path d="M10.452 44.59H9.146l.624-3.63h2.557l-1.875 3.63z" fill="#fff"/><path d="M10.68 44.936H8.804l.738-4.321h3.408l-2.272 4.321zm-1.137-.691h.682l1.534-2.939h-1.705l-.51 2.939z" fill="#3B3938"/><path d="M37.548 44.59h1.25l-.568-3.63h-2.557l1.875 3.63z" fill="#fff"/><path d="M39.252 44.936h-1.875l-2.215-4.321h3.408l.682 4.321zm-1.477-.691h.682l-.511-2.939H36.24l1.534 2.939zM13.633 13.016H8.918c-.34 0-.625-.173-.738-.519-.114-.288-.057-.634.17-.922l2.386-2.65c.17-.173.398-.288.625-.288.227 0 .454.115.625.288l2.329 2.65c.227.23.284.577.113.922-.17.288-.454.519-.795.519zm-2.272-3.688s-.057 0-.114.058l-2.385 2.65c-.057.058-.057.116 0 .173 0 .058.056.058.113.058h4.658c.057 0 .114-.058.114-.058 0-.057.056-.115 0-.173l-2.33-2.65c0-.058-.056-.058-.056-.058z" fill="#3B3938"/><path d="M14.599 12.152H8.123v1.152h6.476v-1.152z" fill="#fff"/><path d="M14.94 13.65H7.782v-1.844h7.214v1.844h-.056zm-6.476-.692h5.794v-.46H8.464v.46z" fill="#3B3938"/><path d="M44.478 6.102H30.163v14.635h14.315V6.102z" fill="#fff"/><path d="M44.819 21.082H29.822V5.756H44.82v15.326zm-14.315-.691h13.633V6.447H30.504v13.944z" fill="#3B3938"/><path d="M45.842 5.007H28.516v1.844h17.326V5.007z" fill="#fff"/><path d="M45.842 7.196H28.516c-.17 0-.34-.172-.34-.345V5.007c0-.173.17-.346.34-.346s.341.173.341.346v1.498h16.644V5.007c0-.173.17-.346.34-.346.171 0 .341.173.341.346v1.844c0 .173-.17.345-.34.345z" fill="#3B3938"/><path d="M44.478 6.102H30.163V17.28h14.315V6.102z" fill="#fff"/><path d="M44.819 17.625H29.822V5.756H44.82v11.87zm-14.315-.691h13.633V6.447H30.504v10.487zm16.473-12.1H27.21c-.17 0-.341-.173-.341-.346 0-.172.17-.345.34-.345h19.768c.17 0 .341.173.341.345 0 .173-.17.346-.34.346z" fill="#3B3938"/></svg>