<svg width="48" height="48" fill="none" xmlns="http://www.w3.org/2000/svg"><path d="M41.184 18.481H22.643c-1.502 0-2.715 1.324-2.715 2.964V38.54h23.97V21.51c0-1.704-1.212-3.028-2.714-3.028z" fill="#FFDF8B"/><path d="M44.303 38.98H19.581V21.51c0-1.83 1.386-3.343 3.061-3.343h18.542c1.675 0 3.061 1.513 3.061 3.343v17.47h.058zm-24.029-.757h23.278V21.51c0-1.451-1.097-2.587-2.368-2.587H22.642c-1.328 0-2.368 1.199-2.368 2.587v16.714z" fill="#3B3938"/><path d="M47.653 33.682H16.231v9.209h31.422v-9.209z" fill="#fff"/><path d="M48 43.333H15.884v-10.03H48v10.03zm-31.423-.757h30.73V34.06h-30.73v8.516z" fill="#3B3938"/><path d="M47.653 38.35H16.231v9.208h31.422V38.35z" fill="#fff"/><path d="M48 47.937H15.884V37.908H48v10.029zm-31.423-.757h30.73v-8.452h-30.73v8.452z" fill="#3B3938"/><path d="M47.653 47.306V32.42c0-1.513-1.155-2.775-2.541-2.775h-2.31c-1.387 0-2.542 1.262-2.542 2.775v14.886h7.393z" fill="#fff"/><path d="M48 47.748h-8.145V32.42c0-1.766 1.271-3.153 2.889-3.153h2.31c1.617 0 2.888 1.387 2.888 3.153v15.328H48zm-7.451-.82h6.7V32.42c0-1.324-.982-2.396-2.195-2.396h-2.31c-1.213 0-2.195 1.072-2.195 2.396v14.508z" fill="#3B3938"/><path d="M23.625 47.306V32.42c0-1.513-1.156-2.775-2.542-2.775h-2.31c-1.387 0-2.542 1.262-2.542 2.775v14.886h7.393z" fill="#fff"/><path d="M23.97 47.748h-8.086V32.42c0-1.766 1.271-3.153 2.888-3.153h2.31c1.618 0 2.889 1.387 2.889 3.153v15.328zm-7.393-.82h6.7V32.42c0-1.324-.981-2.396-2.194-2.396h-2.31c-1.214 0-2.196 1.072-2.196 2.396v14.508z" fill="#3B3938"/><path d="M20.274 32.168h-.693v15.39h.693v-15.39z" fill="#3B3938"/><path d="M23.625 31.79H16.23v.757h7.393v-.757zm20.62.378h-.693v15.39h.693v-15.39z" fill="#3B3938"/><path d="M47.596 31.79h-7.394v.757h7.394v-.757z" fill="#3B3938"/><path d="M13.054 46.108H.867v1.45h12.187v-1.45z" fill="#fff"/><path d="M13.4 48H.52v-2.27H13.4V48zm-12.187-.757h11.495v-.694H1.213v.694z" fill="#3B3938"/><path d="M7.336 11.543h-.693v34.565h.693V11.543z" fill="#3B3938"/><path d="M10.512.378h-7.22L.462 13.183H13.4L10.512.378z" fill="#fff"/><path d="M13.863 13.561H0L3.004 0H10.8l3.062 13.561zM.866 12.804H12.94L10.282.757h-6.7L.865 12.804z" fill="#3B3938"/><path d="M3.986 13.183h-.694v9.145h.694v-9.145z" fill="#3B3938"/><path d="M3.639 22.076s-.924 2.523 0 2.523 0-2.523 0-2.523z" fill="#fff"/><path d="M3.639 24.978c-.231 0-.462-.127-.636-.316-.404-.694.116-2.27.29-2.712.057-.126.173-.252.346-.252a.36.36 0 01.346.252c.174.442.694 2.018.29 2.712-.174.19-.347.316-.636.316zm0-.757h.058c.057-.063.057-.442-.058-.883-.058.441-.116.82 0 .883z" fill="#3B3938"/></svg>