<svg width="49" height="48" fill="none" xmlns="http://www.w3.org/2000/svg"><path d="M10.442 37.41V26.787c1.18 0 2.755-.394 2.755 1.967v5.902h2.36c.787 0 1.574.393 1.574 1.18v1.574h-6.689zm30.296 0V26.787c-1.18 0-2.754-.394-2.754 1.967v5.902h-2.361c-.787 0-1.574.393-1.574 1.18v1.574h6.689zM1.787 12.229H49v4.721H1.787z" fill="#fff"/><path fill="#fff" d="M4.147 16.164h3.148v24.393H4.147zm39.345 0h3.148v24.393h-3.148z"/><path fill="#fff" d="M1 39.77h48v3.148H1z"/><path fill="#fff" d="M3.361 42.131h44.066v5.508H3.361zM49 13.016H1.787L25.394 2 49 13.016zm-23.606 5.509c-2.938 0-4.372 2.623-4.722 3.934h9.443c-.35-1.311-1.784-3.934-4.721-3.934z"/><path d="M25.393 24.033c-1.573 0-2.23-1.312-2.36-1.967h4.721c-.131.655-.787 1.967-2.36 1.967z" fill="#FFDF8B"/><rect x="16.738" y="30.328" width="17.311" height="3.148" rx="1.574" fill="#FFDF8B"/><path fill-rule="evenodd" clip-rule="evenodd" d="M32.475 31.115H18.312a.787.787 0 100 1.573h14.163a.787.787 0 100-1.573zm-14.163-.787a1.574 1.574 0 100 3.147h14.163a1.574 1.574 0 100-3.147H18.312z" fill="#3B3938"/><path fill-rule="evenodd" clip-rule="evenodd" d="M1.342 16.95h2.36v24.82H.555v3.148h2.36v2.721h44.066v-2.721h1.574V41.77h-2.361V16.95h2.36v-4.72h-1.686L24.948 2 3.028 12.23H1.342v4.72zm46.426-3.934H2.128v3.148h45.64v-3.148zm-2.76-.787L26.882 3.771l8.459 8.459h9.667zm-19.666 0V3.344l8.886 8.886h-8.886zm-1.59-8.802L4.89 12.23h10.06l8.803-8.803zm-7.69 8.803h8.493V3.736l-8.493 8.492zM6.85 41.77V16.95h17.705v1.59c-2.184.181-3.465 1.846-4.043 3.132-.13.288-.224.558-.285.787h2.06c.117.344.325.749.65 1.102.442.48 1.1.865 2.011.865.91 0 1.569-.384 2.011-.864.325-.354.534-.759.65-1.103h2.06a5.257 5.257 0 00-.285-.787c-.578-1.286-1.859-2.95-4.042-3.131v-1.59h17.705v24.82h-3.541V39.41h.786V26.787c-.145 0-.296-.006-.45-.012-1.093-.043-2.304-.09-2.304 1.98v5.9h-2.36c-.787 0-1.574.394-1.574 1.181v3.574h1.18v2.36h-3.54v-8.688h-.788v3.574H19.44v-3.574h-.787v8.688h-3.147v-2.36h1.18v-3.574c0-.787-.787-1.18-1.574-1.18h-2.36v-5.902c0-2.07-1.21-2.022-2.305-1.98a25.04 25.04 0 01-.45.013V39.41h.787v2.36H6.85zm-5.508.787v1.574h46.426v-1.574H1.342zm13.377-.787H11.57v-2.36h3.148v2.36zm4.72 0h11.017v-5.967H19.44v5.968zm16.132 0h3.148v-2.36H35.57v2.36zM21.388 21.672c.2-.376.465-.774.803-1.134.653-.696 1.55-1.227 2.757-1.227 1.208 0 2.104.531 2.758 1.227.337.36.603.758.803 1.134h-7.122zm2.128 1.357a2.31 2.31 0 01-.38-.57h3.625c-.09.188-.215.389-.381.57-.312.339-.768.61-1.432.61-.663 0-1.12-.271-1.432-.61zM6.063 41.77V16.95H4.489v24.82h1.574zm-2.36 5.082v-1.934h42.491v1.934H3.702zm41.704-5.081V16.95h-1.574v24.82h1.574zM11.965 28.753v6.689h3.147c.277 0 .508.071.646.163.113.075.141.142.141.23v2.787h-5.115V27.55l.077-.001h.065c.285 0 .482.024.622.075a.43.43 0 01.253.212c.076.135.163.405.163.917zm26.36 0v6.689h-3.147c-.277 0-.509.071-.646.163-.114.075-.141.142-.141.23v2.787h5.114V27.55a6.765 6.765 0 00-.14-.002c-.286 0-.483.025-.623.076a.432.432 0 00-.253.212c-.077.135-.164.405-.164.917zm-7.869 8.689v-2.427H19.44v2.427h11.016z" fill="#3B3938"/></svg>