<svg width="48" height="48" fill="none" xmlns="http://www.w3.org/2000/svg"><g clip-path="url(#clip0_827_6084)"><path d="M36.865 30.677c-1.73 0-3.354-.419-4.585-1.172-.027-.028-.053-.14-.053-.223-.026-.112-.052-.168-.052-.195h.026c.026-.028.052-.028.079-.056 1.467-.92 3.039-1.367 4.637-1.367 1.467 0 2.987.39 4.533 1.144.026.028.078.028.105.055 0 0 .026 0 .026.028-.026.056-.026.14-.053.307-.026.112-.026.28-.052.307-1.258.753-2.882 1.172-4.611 1.172z" fill="#fff"/><path d="M36.891 27.692c1.467 0 2.96.39 4.507 1.144.026.027.052.027.078.055-.026.056-.026.14-.052.28a.872.872 0 01-.053.278c-1.205.753-2.83 1.144-4.532 1.144-1.73 0-3.328-.419-4.56-1.144-.026-.028-.026-.14-.052-.195-.026-.084-.026-.14-.052-.167.026 0 .026-.028.052-.028 1.494-.893 3.066-1.367 4.664-1.367zm0-.084c-1.73 0-3.275.53-4.664 1.395-.052.028-.078.056-.13.084.052.027.104.446.156.474 1.284.78 2.935 1.172 4.612 1.172s3.327-.391 4.611-1.172c.053-.028.079-.642.131-.67-.052-.027-.105-.083-.157-.111-1.65-.81-3.144-1.172-4.559-1.172z" fill="#3B3938"/><path d="M35.423 23.145c.21-.028.446-.056.682-.084.21-.028.445-.028.68-.028v4.52c-.235 0-.47 0-.68.027-.236.028-.446.056-.682.084v-4.52z" fill="#3B3938"/><path d="M36.76 23.09v4.407c-.21 0-.42 0-.63.027-.209.028-.418.028-.628.056V23.2l.629-.083c.183 0 .393-.028.629-.028zm.052-.085c-.236 0-.471 0-.707.028l-.734.084v4.603c.236-.028.472-.056.734-.084.236-.028.471-.028.707-.028h.026l-.026-4.603c.026 0 0 0 0 0z" fill="#FFDF8B"/><path d="M33.982 23.508c.21-.084.446-.14.682-.196.21-.056.445-.111.68-.14v4.492a4.954 4.954 0 00-.68.14 6.246 6.246 0 00-.682.195v-4.491z" fill="#3B3938"/><path d="M35.293 23.229v4.407c-.21.028-.446.084-.655.14-.21.055-.42.111-.603.167v-4.408c.21-.083.42-.14.655-.195.183-.056.393-.084.603-.111zm.104-.112a6.787 6.787 0 00-.733.14 7.074 7.074 0 00-.734.223v4.602c.236-.083.472-.167.734-.223.236-.056.471-.111.733-.14v-4.602z" fill="#FFDF8B"/><path d="M31.677 29.45c-.236 0-.576-1.34-.655-2.428-.026-.892.184-1.478.786-2.176.184-.195.393-.39.655-.585v4.519c-.262.195-.524.39-.707.613-.053.028-.079.056-.079.056z" fill="#3B3938"/><path d="M32.41 24.372v4.38c-.261.195-.497.39-.707.614l-.026.027c-.183 0-.498-1.171-.603-2.37-.026-.866.184-1.48.786-2.12.131-.196.341-.363.55-.53zm.08-.167a4.366 4.366 0 00-.734.641c-.603.67-.839 1.311-.813 2.204.079.949.393 2.455.708 2.455.026 0 .078-.028.105-.056.21-.223.445-.446.733-.641v-4.603z" fill="#FFDF8B"/><path d="M32.541 24.233c.079-.056.131-.084.21-.14.157-.083.314-.195.472-.279.21-.111.419-.195.655-.279v4.52a7.748 7.748 0 00-.708.306c-.183.084-.34.168-.498.28-.052.027-.104.083-.157.11v-4.518h.026z" fill="#3B3938"/><path d="M33.852 23.591V28c-.236.083-.472.195-.682.279-.183.083-.34.167-.498.279-.026.027-.078.055-.104.055v-4.351c.052-.056.13-.084.183-.112l.472-.251c.21-.14.419-.223.629-.307zm.078-.111a5.885 5.885 0 00-.733.306c-.158.084-.341.168-.498.28l-.236.167v4.603l.236-.168c.157-.084.314-.195.498-.279.235-.111.471-.223.733-.307V23.48zm4.323 4.184c-.236-.028-.445-.056-.681-.084-.236-.028-.446-.028-.681-.028v-4.519c.235 0 .445 0 .68.028.237.028.473.056.682.084v4.519z" fill="#FFDF8B"/><path d="M36.917 23.09c.21 0 .42 0 .629.027l.629.084v4.407l-.63-.084c-.209-.027-.418-.027-.628-.027v-4.408zm-.079-.085v4.603c.236 0 .472 0 .734.028l.734.084v-4.603a61.144 61.144 0 00-.734-.084c-.262-.028-.498-.028-.734-.028z" fill="#3B3938"/><path d="M39.59 27.999c-.184-.056-.367-.112-.577-.168-.236-.055-.445-.111-.681-.14v-4.518c.236.028.445.083.681.14.21.055.393.11.577.167v4.519z" fill="#FFDF8B"/><path d="M38.385 23.229c.21.027.419.083.602.139l.55.167v4.408a3.32 3.32 0 00-.497-.14 4.57 4.57 0 00-.655-.14V23.23zm-.105-.112v4.603a6.48 6.48 0 011.363.335v-4.603c-.21-.056-.42-.14-.63-.196-.235-.055-.471-.111-.733-.14z" fill="#3B3938"/><path d="M42.577 30.51c-.105-.391-.341-.754-.63-1.089a3.84 3.84 0 00-.707-.613v-4.492l.079.056c.21.14.393.28.576.419 1.258 1.116.917 4.407.681 5.718z" fill="#FFDF8B"/><path d="M41.267 24.4c.21.14.393.28.576.446 1.205 1.06.943 4.101.707 5.496a3.269 3.269 0 00-.576-.949 3.27 3.27 0 00-.707-.613V24.4zm-.079-.195v4.603c.288.195.524.418.734.641.34.39.576.81.68 1.255.158-.753.787-4.658-.68-5.97-.236-.167-.446-.306-.734-.53z" fill="#3B3938"/><path d="M41.136 28.724c-.053-.056-.131-.084-.184-.14l-.471-.25a4.183 4.183 0 00-.813-.335v-4.492c.263.084.525.196.76.335.158.084.315.168.446.251l.235.168v4.463h.027z" fill="#FFDF8B"/><path d="M39.72 23.591c.236.084.472.195.708.307.184.084.315.167.446.251.078.056.157.084.21.14v4.38c-.053-.029-.08-.057-.132-.085a3.861 3.861 0 00-.471-.25l-.787-.335V23.59h.027zm-.078-.14v4.603c.288.112.576.224.838.335l.472.251c.105.056.184.112.262.168v-4.603c-.078-.056-.183-.112-.262-.167l-.471-.252a5.24 5.24 0 00-.839-.334zm-2.044 7.169c.236-.027.446-.027.681-.083.236-.028.446-.083.682-.111v5.02a5.774 5.774 0 01-.682.113c-.21.027-.445.055-.68.083v-5.021z" fill="#3B3938"/><path d="M38.908 30.482v4.91a4.61 4.61 0 01-.655.11c-.21.029-.419.056-.629.056v-4.91c.21-.027.446-.027.655-.055.236-.028.446-.084.63-.111zm.105-.112c-.236.056-.471.084-.733.14-.236.027-.472.055-.734.083v5.105c.236-.028.498-.028.733-.084.236-.028.498-.083.734-.14V30.37z" fill="#FFDF8B"/><path d="M41.947 29.143a4.27 4.27 0 00.708-.67c.314-.363.524-.781.655-1.2v4.436c0 .614-.236 1.227-.708 1.785a3.634 3.634 0 01-.655.614v-4.965z" fill="#3B3938"/><path d="M43.258 27.552v4.157c0 .614-.236 1.2-.682 1.757-.157.196-.34.39-.576.558v-4.881a4.15 4.15 0 00.707-.67 3.67 3.67 0 00.55-.92zm.104-.976c0 .642-.236 1.255-.733 1.841a3.51 3.51 0 01-.734.67v5.105c.288-.224.524-.447.734-.698.471-.558.707-1.2.707-1.813l.026-5.105z" fill="#FFDF8B"/><path d="M39.065 30.398c.21-.056.42-.084.603-.168.262-.083.498-.167.734-.25v4.993a6.201 6.201 0 01-.76.279 4.343 4.343 0 01-.577.14v-4.994z" fill="#3B3938"/><path d="M40.376 30.063v4.91c-.236.083-.498.195-.734.25-.157.057-.34.084-.524.14v-4.91c.21-.055.393-.083.576-.139.21-.084.446-.167.681-.25zm.078-.14a7.026 7.026 0 01-.812.28c-.21.055-.42.111-.655.167v5.105c.21-.056.445-.112.655-.168.288-.083.55-.167.812-.279v-5.104z" fill="#FFDF8B"/><path d="M40.507 29.951l.707-.334c.105-.056.184-.112.288-.168.131-.083.262-.167.367-.25v4.993c-.13.111-.288.195-.445.306a1.196 1.196 0 01-.262.14c-.21.112-.42.223-.655.307V29.95z" fill="#3B3938"/><path d="M41.817 29.282v4.882a2.246 2.246 0 01-.42.279 1.199 1.199 0 01-.261.14 4.042 4.042 0 01-.603.278v-4.91c.236-.111.472-.195.681-.334.105-.056.184-.112.288-.168a.865.865 0 00.315-.167zm.078-.167c-.13.111-.288.195-.445.307a3.028 3.028 0 01-.288.167c-.236.14-.472.25-.734.335v5.105c.262-.112.498-.224.734-.335.078-.056.183-.112.262-.168.157-.111.314-.195.471-.307v-5.104z" fill="#FFDF8B"/><path d="M43.18 27.134v4.575c0 .586-.236 1.172-.656 1.702a5.562 5.562 0 01-.681.67 2.584 2.584 0 01-.445.306 1.196 1.196 0 01-.262.14c-.21.111-.472.223-.708.334a8.814 8.814 0 01-.786.28l-.629.166c-.235.056-.471.084-.707.14l-.707.084-.996-.112.026-4.826 1.1-.084c1.415-.111 2.883-.697 4.297-1.785l.053-.056c.026 0 .026-.027.026-.027l1.074-1.507zm.183-.558l-1.415 1.87-.053.055c-1.257.948-2.672 1.618-4.192 1.757l-1.257.084-.027 5.16 1.18.14c.235-.028.497-.028.733-.083.236-.028.498-.084.734-.14.21-.056.445-.111.655-.167.288-.084.55-.168.812-.28.262-.11.498-.222.734-.334.078-.056.183-.111.262-.167.157-.112.314-.196.471-.307a4.63 4.63 0 00.734-.698c.471-.558.707-1.2.707-1.813l-.078-5.077z" fill="#3B3938"/><path d="M34.611 35.42a27.737 27.737 0 01-.655-.168 20.892 20.892 0 01-.681-.251V29.98c.21.083.445.167.655.223.21.055.445.14.681.195v5.021z" fill="#FFDF8B"/><path d="M33.301 30.035c.21.084.393.14.603.223.21.056.445.112.655.168v4.91c-.21-.056-.42-.112-.603-.168-.236-.056-.445-.14-.655-.223v-4.91zm-.078-.14v5.106c.236.083.471.195.733.25.236.084.472.14.734.196v-5.105c-.236-.056-.498-.111-.734-.195a3.287 3.287 0 01-.733-.251z" fill="#3B3938"/><path d="M36.078 35.614c-.236-.028-.445-.028-.681-.083-.236-.028-.472-.084-.681-.112v-5.021c.21.056.445.084.681.111.236.028.446.056.681.084v5.021z" fill="#FFDF8B"/><path d="M34.742 30.482c.21.055.42.083.629.111.21.028.42.056.655.084v4.91c-.21-.029-.42-.029-.629-.056-.21-.028-.445-.056-.655-.112v-4.937zm-.078-.14v5.133c.235.056.471.084.733.14.236.027.472.055.734.083v-5.105l-.734-.084a27.001 27.001 0 01-.733-.167z" fill="#3B3938"/><path d="M31.73 34.158h.138l-.107-.089-.008-.006v-5.001l-.02-.015a4.096 4.096 0 01-.699-.662h0c-.31-.359-.542-.77-.645-1.18l-.098.013v4.435c0 .656.267 1.308.745 1.873.175.213.397.4.617.584v.048h.077z" fill="#3B3938" stroke="#3B3938" stroke-width=".1"/><path d="M30.42 27.497c.13.334.314.641.576.948.21.223.445.474.707.67v4.881a5.419 5.419 0 01-.576-.558c-.472-.558-.708-1.171-.708-1.785v-4.156zm-.106-.949v5.105c0 .642.236 1.283.734 1.87.21.25.446.473.734.669v-5.105a4.598 4.598 0 01-.734-.698c-.498-.558-.733-1.2-.733-1.84z" fill="#3B3938"/><path d="M33.17 34.945c-.236-.084-.445-.196-.655-.307a1.196 1.196 0 00-.262-.14 2.584 2.584 0 01-.445-.306V29.17c.13.084.262.196.419.28a.801.801 0 00.262.139c.21.111.445.25.707.335v5.02h-.026z" fill="#FFDF8B"/><path d="M31.86 29.254c.105.084.236.167.34.223.08.056.158.112.263.14.21.111.445.223.681.334v4.91c-.21-.084-.393-.195-.603-.279-.078-.056-.183-.084-.262-.14-.157-.083-.288-.195-.419-.278v-4.91zm-.105-.167v5.132c.158.112.289.224.472.307.079.056.183.112.262.14.236.14.472.25.734.335v-5.105a6.087 6.087 0 01-.734-.363c-.079-.056-.157-.084-.236-.14a3.046 3.046 0 01-.498-.306z" fill="#3B3938"/><path d="M36.839 35.642c-.236 0-.446 0-.682-.028v-5.021c.236.028.446.028.682.028.235 0 .471 0 .68-.028v5.021c-.235.028-.445.028-.68.028z" fill="#FFDF8B"/><path d="M36.21 30.649c.21 0 .419.028.629.028h.026c.21 0 .419 0 .602-.028v4.91c-.21 0-.419.027-.628.027-.21 0-.42 0-.63-.027v-4.91zm-.105-.084v5.105c.236.028.472.028.734.028.235 0 .471 0 .707-.028v-5.105c-.236.028-.472.028-.707.028h-.027c-.21 0-.471-.028-.707-.028z" fill="#3B3938"/><path d="M41.423 23.73c-2.541-1.561-6.68-1.561-9.222 0-2.542 1.563-2.516 4.101.026 5.691 2.541 1.563 6.681 1.563 9.223 0 2.541-1.59 2.541-4.128-.027-5.69zm-.471 5.357c-2.253 1.395-5.922 1.395-8.201 0-2.28-1.395-2.28-3.655-.026-5.05 2.253-1.394 5.921-1.394 8.2 0 2.254 1.395 2.28 3.655.027 5.05z" fill="#fff"/><path d="M32.2 29.492h.001c1.293.787 2.98 1.179 4.663 1.179 1.684 0 3.37-.392 4.638-1.18 1.241-.758 1.936-1.804 1.936-2.915 0-1.139-.695-2.157-1.962-2.944h0c-1.28-.787-2.967-1.179-4.65-1.179-1.684 0-3.371.392-4.651 1.18-1.241.758-1.937 1.805-1.937 2.915 0 1.14.696 2.157 1.963 2.944zm.105-.169h0c-1.222-.748-1.888-1.738-1.888-2.775s.64-2 1.836-2.747c1.248-.775 2.915-1.164 4.56-1.164 1.669 0 3.31.389 4.558 1.164h0c1.223.748 1.889 1.739 1.889 2.775 0 1.037-.64 2-1.837 2.747-1.248.775-2.895 1.164-4.549 1.164-1.653 0-3.307-.389-4.569-1.164zm.394-5.384h0-.001c-1.109.703-1.726 1.61-1.726 2.61 0 .999.617 1.905 1.753 2.608 1.136.703 2.639 1.068 4.14 1.068 1.5 0 2.977-.337 4.14-1.068h0c1.109-.703 1.726-1.61 1.726-2.609 0-1-.617-1.906-1.753-2.609h0c-1.15-.703-2.652-1.053-4.15-1.053-1.497 0-2.993.35-4.13 1.053zm.078.169h0c1.09-.691 2.574-1.025 4.035-1.025 1.486 0 2.944.361 4.061 1.025 1.066.665 1.653 1.515 1.653 2.44 0 .926-.562 1.777-1.627 2.44-1.117.692-2.58 1.039-4.048 1.039-1.466 0-2.93-.347-4.047-1.039-1.066-.664-1.654-1.515-1.654-2.44s.562-1.776 1.627-2.44z" fill="#3B3938" stroke="#3B3938" stroke-width=".1"/><path d="M30.317 29.589h0v.001c.026 1.054.695 2.072 1.936 2.831 1.24.759 2.875 1.179 4.611 1.179 1.737 0 3.371-.42 4.612-1.179h0c1.214-.759 1.884-1.749 1.884-2.832v-.586l-.098-.014c-.232.822-.85 1.566-1.813 2.175-1.222.748-2.837 1.164-4.584 1.164-1.749 0-3.39-.416-4.612-1.164h0c-.988-.581-1.607-1.353-1.838-2.175l-.098.014v.586z" fill="#3B3938" stroke="#3B3938" stroke-width=".1"/><path d="M30.42 29.282c.287.753.89 1.423 1.78 1.98 1.259.782 2.91 1.2 4.665 1.2s3.406-.418 4.637-1.2c.865-.53 1.467-1.199 1.756-1.952v.279c0 1.032-.655 2.008-1.86 2.761-1.206.754-2.83 1.172-4.56 1.172-1.729 0-3.353-.418-4.559-1.172-1.205-.753-1.86-1.73-1.886-2.761v-.307h.026zm-.106-.948v1.255c0 1.032.655 2.064 1.913 2.845 1.284.781 2.935 1.172 4.612 1.172 1.676 0 3.327-.39 4.61-1.172 1.259-.78 1.887-1.813 1.887-2.845V28.36c0 1.032-.628 2.037-1.886 2.818-1.258.78-2.935 1.171-4.611 1.171-1.677 0-3.328-.39-4.612-1.171-1.257-.81-1.912-1.841-1.912-2.845z" fill="#3B3938"/><path d="M41.057 34.722v-6.026l1.152-15.956c.105-.307.236-.558.393-.725a1.09 1.09 0 01.813-.335c.367 0 .733.167.97.446 2.017 2.427 2.436 4.352 2.514 4.854-.943-.837-1.703-1.255-2.279-1.255-.865 0-.996.976-.996.976v11.437l-1.467 7.281-1.1-.697zm2.462-21.647c-.183 0-.288.14-.288.334 0 .307.236.698.498.865a.56.56 0 00.262.084c.184 0 .288-.14.288-.335 0-.307-.236-.697-.498-.865a.483.483 0 00-.261-.083z" fill="#FFDF8B"/><path d="M44.292 12.184h0l.002.002c1.727 2.073 2.275 3.781 2.446 4.518a6.726 6.726 0 00-1.127-.8c-.377-.204-.72-.313-1.02-.313-.48 0-.757.265-.91.53a1.547 1.547 0 00-.187.552v11.432l-1.452 7.15-.911-.561v-5.968l1.152-15.948c.103-.298.23-.514.382-.703.199-.211.473-.317.748-.317.326 0 .678.16.877.426zm2.686 4.88l.05-.005h0v-.007l-.003-.019a4.324 4.324 0 00-.064-.36 7.507 7.507 0 00-.323-1.057c-.342-.897-.98-2.15-2.163-3.578h0l-.002-.002c-.296-.316-.676-.49-1.058-.49-.328 0-.63.117-.875.379a2 2 0 00-.43.772h-.002v.011l-1.153 15.984h0v6.058a.05.05 0 00.023.043l1.153.698a.05.05 0 00.075-.033l1.494-7.365h0V16.65l.002-.006a.856.856 0 01.03-.128c.025-.083.066-.194.132-.304a.84.84 0 01.756-.436c.478 0 1.2.322 2.325 1.326a.05.05 0 00.083-.042l-.05.005zm-3.119-3.977h0-.001a.7.7 0 00-.312-.09.366.366 0 00-.287.129.478.478 0 00-.104.311c0 .179.063.369.161.535.099.166.235.312.388.401h0l.002.001c.108.058.195.09.311.09.12 0 .219-.049.288-.13a.477.477 0 00.103-.311 1.08 1.08 0 00-.16-.535 1.135 1.135 0 00-.389-.4zm-.048 1.09h0-.002a1.132 1.132 0 01-.332-.348.839.839 0 01-.143-.42.31.31 0 01.057-.195.161.161 0 01.129-.062c.066 0 .134.024.206.075h0l.003.001c.123.08.243.206.331.347a.839.839 0 01.143.42c0 .105-.024.168-.056.204a.163.163 0 01-.13.053.356.356 0 01-.206-.075z" fill="#3B3938" stroke="#3B3938" stroke-width=".1" stroke-linejoin="round"/><path d="M43.65 16.673V28.11l-1.493 7.365 1.048-.642L44.7 27.47V16.03s.026-.111.078-.278c-.995-.112-1.126.92-1.126.92z" fill="#3B3938"/><path d="M46.955 17.015l.01.078.066-.043.944-.614.025-.017-.003-.03c-.027-.26-.371-2.334-2.553-4.964h0c-.244-.29-.572-.465-.955-.465-.215 0-.404.057-.59.168h-.053l-.012.007-.681.419.042.09a.717.717 0 01.246-.026c.378 0 .73.162.956.455h0v.001c2.117 2.559 2.506 4.559 2.558 4.94z" fill="#3B3938" stroke="#3B3938" stroke-width=".1"/><path d="M44.489 11.066c.34 0 .655.167.89.418 2.097 2.54 2.464 4.52 2.516 4.882l-.865.53c-.078-.53-.524-2.455-2.567-4.91-.262-.306-.63-.502-1.022-.502h-.053l.472-.278.026.027.053-.027c.157-.084.34-.14.55-.14zm0-.084c-.21 0-.42.056-.603.168l-.026-.028-1.048.642.026.027a1.16 1.16 0 01.603-.167c.34 0 .707.167.97.446 2.357 2.846 2.54 4.994 2.54 4.994L48 16.422s-.184-2.148-2.542-4.993c-.262-.28-.602-.447-.97-.447z" fill="#3B3938"/><path d="M3.957 11.094c-.184 0-.367-.167-.367-.39v-2.65c0-1.395.707-2.707 1.834-3.404l3.904-2.399c.21-.14.471-.195.707-.195a1.5 1.5 0 01.708.195c.524.279.786.781.786 1.34v2.705c0 .195-.158.39-.367.39-.21 0-.367-.167-.367-.39V3.59a.76.76 0 00-.367-.67c-.078-.083-.21-.111-.34-.111a.575.575 0 00-.367.112L5.817 5.32c-.917.558-1.494 1.618-1.494 2.733v2.65c0 .224-.157.391-.366.391z" fill="#fff"/><path d="M10.823 2.182a1.25 1.25 0 00-.736-.232c-.273 0-.518.088-.759.23h0l-3.93 2.4c-1.17.707-1.885 2.063-1.885 3.473v2.65c0 .248.203.469.443.469s.443-.22.443-.469v-2.65c0-1.1.543-2.115 1.444-2.663h0l3.903-2.398a.77.77 0 01.315-.105c.098 0 .216.026.31.1h0l.003.003c.196.13.319.338.319.6v2.706c0 .248.202.468.443.468.24 0 .443-.22.443-.468V3.59a1.64 1.64 0 00-.756-1.408zm-.736.521a.751.751 0 00-.419.12L5.738 5.22h0c-.959.596-1.543 1.672-1.543 2.832v2.65c0 .171-.112.285-.265.285-.153 0-.264-.114-.264-.284v-2.65c0-1.379.699-2.645 1.81-3.305h0L9.38 2.35c.258-.137.485-.216.709-.216.227 0 .453.053.68.188.431.27.684.727.684 1.24v2.706c0 .17-.111.285-.264.285-.153 0-.264-.114-.264-.285V3.59a.93.93 0 00-.415-.766h0l-.002-.001a.755.755 0 00-.42-.12z" fill="#3B3938" stroke="#3B3938" stroke-width=".1"/><path d="M17.476 20.83a22.53 22.53 0 001.363-.14c.445-.056.89-.14 1.336-.223V36.73c-.446.084-.891.168-1.363.251-.445.056-.89.112-1.336.14V20.83z" fill="#FFDF8B"/><path d="M20.07 20.578v16.068c-.42.084-.839.168-1.284.224-.393.055-.812.111-1.232.14V20.94c.42-.028.865-.083 1.284-.14.42-.055.839-.139 1.232-.223zm.183-.223a12 12 0 01-1.44.251c-.473.056-.944.112-1.442.14v16.458c.472-.028.97-.083 1.441-.14.472-.055.97-.139 1.441-.25V20.355zm8.384-5.551l-.026 14.562c0 1.2-.471 2.399-1.362 3.459a8.81 8.81 0 01-1.1 1.116V17.984c.523-.418.995-.865 1.388-1.31.498-.615.864-1.228 1.1-1.87zm.184-1.897c0 1.255-.472 2.483-1.415 3.627-.393.474-.865.92-1.441 1.339V34.33a8.858 8.858 0 001.44-1.367c.944-1.116 1.39-2.343 1.416-3.598V12.907zm-8.463 7.533c.42-.085.812-.196 1.205-.308.498-.14.996-.307 1.467-.502v16.263c-.497.196-.995.39-1.52.53-.366.112-.76.224-1.152.307V20.44z" fill="#FFDF8B"/><path d="M22.926 19.742v16.04c-.472.195-.97.362-1.441.502-.34.111-.681.195-1.048.279v-16.04a14.04 14.04 0 001.152-.307c.446-.14.891-.28 1.337-.474zm.183-.251c-.524.223-1.048.39-1.598.558-.42.111-.838.223-1.284.334v16.459c.42-.084.865-.195 1.284-.335.55-.167 1.074-.335 1.598-.558V19.491zm.105.056c.471-.196.943-.419 1.388-.67.184-.112.367-.195.55-.307.263-.167.498-.335.734-.502v16.207c-.262.196-.55.419-.864.586-.158.112-.341.196-.524.307-.42.223-.839.446-1.31.642V19.546h.026z" fill="#FFDF8B"/><path d="M28.664 13.52l-.027 15.874c0 1.2-.471 2.399-1.362 3.459-.393.474-.865.92-1.389 1.339-.288.223-.576.418-.89.613-.158.084-.315.196-.524.307-.446.251-.918.474-1.415.67-.498.223-1.048.39-1.572.558-.393.111-.813.223-1.258.334-.472.112-.943.196-1.415.251-.472.056-.943.112-1.389.14l-2.148-.251.079-16.96 11.318-3.376c.053 0 .079-.028.105-.084l1.887-2.873zm.157-.613l-2.227 3.348-11.45 3.403-.079 17.295 2.332.28c.472-.029.97-.084 1.441-.14.472-.056.97-.14 1.441-.251.42-.084.865-.195 1.284-.335.55-.167 1.075-.335 1.599-.558.497-.195.969-.446 1.44-.697.184-.112.341-.196.525-.307.314-.195.628-.419.917-.614a8.861 8.861 0 001.44-1.367c.944-1.116 1.39-2.343 1.415-3.598l-.078-16.459z" fill="#3B3938"/><path d="M11.58 36.702c-.445-.111-.89-.223-1.31-.334a20.01 20.01 0 01-1.362-.475v-16.29c.42.167.865.334 1.31.473.446.14.891.252 1.363.363v16.263z" fill="#FFDF8B"/><path d="M9.013 19.742c.393.14.786.307 1.205.418.42.14.865.251 1.31.335v16.068a15.366 15.366 0 01-1.205-.307c-.445-.14-.89-.279-1.31-.446V19.742zm-.183-.28V35.95c.471.195.943.363 1.44.502.472.14.944.28 1.442.363v-16.46c-.498-.111-.97-.223-1.441-.362-.524-.168-.996-.363-1.441-.53z" fill="#3B3938"/><path d="M14.437 37.12c-.446-.027-.891-.083-1.337-.139-.445-.056-.917-.14-1.362-.25V20.466c.445.084.89.167 1.336.223.446.056.89.112 1.363.14v16.29z" fill="#FFDF8B"/><path d="M11.869 20.579a18.188 18.188 0 002.515.363v16.095c-.419-.028-.812-.084-1.231-.14-.42-.055-.865-.139-1.284-.223V20.58zm-.184-.252v16.459c.472.112.944.195 1.442.251.471.056.943.112 1.44.14v-16.46a25.042 25.042 0 01-1.44-.14c-.498-.055-.97-.139-1.442-.25z" fill="#3B3938"/><path d="M5.869 34.136c-.472-.39-.917-.781-1.284-1.228-.943-1.115-1.441-2.37-1.441-3.626l.026-15.12c.236.837.655 1.618 1.284 2.372.393.474.865.92 1.415 1.339v16.263z" fill="#FFDF8B"/><path d="M3.142 12.851h-.1 0L3.015 29.31v0c0 1.268.477 2.563 1.453 3.714.396.478.87.927 1.45 1.348l.08.057V17.82l-.02-.015a10.041 10.041 0 01-1.433-1.36c-.911-1.136-1.403-2.38-1.403-3.594zm.157 16.459l.026-14.302a6.57 6.57 0 001.038 1.642c.39.47.858.914 1.377 1.303v15.883a8.667 8.667 0 01-1.038-1.016c-.911-1.08-1.403-2.297-1.403-3.51z" fill="#3B3938" stroke="#3B3938" stroke-width=".1"/><path d="M8.725 35.782c-.445-.196-.89-.39-1.31-.642a3.094 3.094 0 01-.498-.307c-.314-.195-.602-.39-.864-.586V18.012c.262.195.524.363.812.53.157.112.314.195.498.28.445.25.89.473 1.388.669v16.29h-.026z" fill="#FFDF8B"/><path d="M6.131 18.207c.21.168.446.307.681.447.158.083.315.167.498.279.42.223.865.446 1.336.641v16.068a9.072 9.072 0 01-1.152-.586 7.132 7.132 0 01-.498-.279 8.964 8.964 0 01-.839-.558V18.207h-.026zm-.183-.362V34.33c.288.223.602.418.917.614.157.111.34.195.524.307.445.25.943.474 1.44.697V19.463c-.497-.196-.969-.447-1.44-.698-.157-.083-.34-.195-.498-.279-.314-.223-.629-.418-.943-.641z" fill="#3B3938"/><path d="M15.956 37.176c-.445 0-.89-.027-1.336-.055V20.857c.446.028.89.056 1.336.056.472 0 .917 0 1.337-.028V37.15c-.42 0-.865.027-1.337.027z" fill="#FFDF8B"/><path d="M14.725 20.941c.42.028.838.028 1.258.028h.052c.393 0 .812 0 1.205-.028V37.01c-.419.028-.812.028-1.257.028-.42 0-.839 0-1.258-.028V20.941zm-.184-.195v16.458c.472.028.944.056 1.442.056h.026c.471 0 .943-.028 1.415-.056V20.746c-.472.028-.917.056-1.389.056h-.026c-.524 0-.996-.028-1.468-.056zM13.205 6.129c.445-.056.89-.112 1.336-.14.446-.028.891-.056 1.337-.056v1.702c-.446 0-.891.028-1.337.056-.445.028-.89.083-1.336.14V6.128z" fill="#3B3938"/><path d="M15.799 6.017v1.506c-.42 0-.839.028-1.258.056-.42.028-.838.084-1.231.14V6.212c.419-.055.838-.111 1.257-.14.393-.027.813-.055 1.232-.055zm.13-.195c-.47 0-.916.028-1.388.056-.472.027-.97.083-1.44.167v1.897c.47-.084.942-.14 1.44-.168.472-.027.917-.055 1.389-.055h.052V5.822h-.052z" fill="#FFDF8B"/><path d="M10.35 6.826c.444-.14.89-.279 1.362-.39.419-.112.864-.196 1.31-.28v1.702c-.446.084-.917.168-1.363.28-.445.11-.89.25-1.31.39V6.826z" fill="#3B3938"/><path d="M12.917 6.268v1.506c-.445.084-.865.168-1.284.28-.42.111-.812.223-1.205.362V6.938c.42-.14.838-.28 1.284-.391a6.27 6.27 0 011.205-.279zm.183-.223c-.471.084-.97.167-1.44.279-.498.111-.97.25-1.442.418V8.64c.472-.167.944-.307 1.441-.418.472-.112.943-.223 1.441-.28V6.046z" fill="#FFDF8B"/><path d="M4.663 13.354c-.157-1.34.315-2.678 1.363-3.85A7.67 7.67 0 017.31 8.36v1.646c-.55.39-1.022.781-1.415 1.227a5.86 5.86 0 00-1.232 2.12z" fill="#3B3938"/><path d="M7.205 8.556v1.422a7.686 7.686 0 00-1.389 1.228 5.968 5.968 0 00-1.1 1.73c-.026-1.172.445-2.316 1.362-3.348a6.8 6.8 0 011.127-1.032zm.183-.363c-.55.39-1.021.809-1.44 1.255-1.206 1.34-1.651 2.873-1.31 4.352.183-.865.628-1.702 1.31-2.455a7.509 7.509 0 011.44-1.255V8.193z" fill="#FFDF8B"/><path d="M7.493 8.249c.131-.084.289-.196.42-.28.288-.167.602-.362.943-.53.42-.195.838-.39 1.31-.557v1.674c-.472.167-.943.362-1.389.585-.34.168-.68.363-.97.53-.104.084-.235.14-.34.224V8.249h.026z" fill="#3B3938"/><path d="M10.061 7.021V8.5c-.472.167-.917.362-1.336.558-.34.167-.681.362-.97.53-.052.028-.13.083-.183.111V8.277c.13-.084.236-.168.367-.251.288-.168.602-.363.943-.53a20.74 20.74 0 011.179-.475zm.183-.279a9.454 9.454 0 00-1.44.614c-.341.167-.656.335-.97.53-.157.112-.314.195-.472.307v1.897c.158-.112.315-.195.472-.307.314-.195.629-.363.97-.53.445-.223.943-.419 1.44-.614V6.742zm8.489 1.088l-1.336-.167c-.445-.028-.89-.056-1.336-.056V5.906c.445 0 .89.027 1.336.055.446.028.917.084 1.337.168V7.83z" fill="#FFDF8B"/><path d="M16.14 6.017a19.045 19.045 0 012.488.196v1.506a16.693 16.693 0 00-1.23-.14c-.42-.028-.84-.056-1.258-.056V6.017zm-.184-.195v1.897c.472 0 .943.028 1.441.055.472.028.97.084 1.441.168V6.045c-.472-.084-.943-.14-1.44-.167a23.993 23.993 0 00-1.442-.056z" fill="#3B3938"/><path d="M21.406 8.444a61.387 61.387 0 00-1.127-.335 20.22 20.22 0 00-1.362-.279v-1.7c.445.083.89.167 1.31.279.393.111.786.223 1.153.334v1.702h.026z" fill="#FFDF8B"/><path d="M18.996 6.268c.419.084.812.167 1.205.251.367.084.733.195 1.1.307v1.478a10.48 10.48 0 00-.995-.278 17.53 17.53 0 00-1.284-.28V6.269h-.026zm-.158-.223v1.897c.472.084.97.167 1.441.279.42.111.839.223 1.232.362V6.687c-.393-.14-.812-.252-1.232-.363-.497-.112-.969-.195-1.44-.28z" fill="#3B3938"/><path d="M27.275 13.41c-.236-.754-.655-1.451-1.232-2.12a7.062 7.062 0 00-1.415-1.228V8.416c.472.363.917.725 1.284 1.144 1.048 1.171 1.52 2.51 1.363 3.85z" fill="#FFDF8B"/><path d="M24.733 8.583c.42.307.786.67 1.127 1.033.943 1.032 1.415 2.203 1.389 3.375-.236-.614-.63-1.2-1.127-1.757a7.866 7.866 0 00-1.389-1.228V8.583zm-.183-.362v1.897c.55.39 1.048.809 1.44 1.255.708.781 1.128 1.618 1.31 2.483.315-1.479-.13-3.013-1.31-4.352a8.324 8.324 0 00-1.44-1.283z" fill="#3B3938"/><path d="M24.445 9.922l-.393-.25a7.211 7.211 0 00-.917-.503 18.967 18.967 0 00-1.572-.67V6.827c.498.167 1.022.39 1.493.642.367.167.655.334.891.502.158.111.315.195.472.307v1.645h.026z" fill="#FFDF8B"/><path d="M21.668 6.966a11.91 11.91 0 012.253 1.087c.131.084.288.168.42.28v1.422l-.236-.167a7.22 7.22 0 00-.918-.502 11.775 11.775 0 00-1.52-.642V6.966zm-.184-.252v1.897c.577.196 1.1.419 1.625.67.314.167.629.307.917.502.183.112.34.223.524.335V8.22c-.157-.112-.34-.223-.524-.335a29.173 29.173 0 00-.917-.502 14.393 14.393 0 00-1.625-.67z" fill="#3B3938"/><path d="M16.009 20.746c-3.433 0-6.655-.837-9.092-2.315-2.437-1.479-3.773-3.487-3.773-5.58 0-2.092 1.31-4.072 3.72-5.55 2.411-1.507 5.634-2.316 9.066-2.316 3.432 0 6.655.837 9.092 2.315 2.437 1.507 3.773 3.487 3.773 5.58 0 2.091-1.31 4.072-3.72 5.55-2.411 1.507-5.634 2.316-9.066 2.316zm-.079-14.98c-3.065 0-5.948.725-8.096 2.064-2.148 1.34-3.354 3.124-3.354 5.021 0 1.897 1.206 3.71 3.406 5.05 2.175 1.339 5.057 2.064 8.123 2.064 3.065 0 5.947-.725 8.096-2.064 2.148-1.34 3.354-3.125 3.354-5.022 0-1.897-1.206-3.71-3.407-5.049-2.174-1.339-5.056-2.064-8.122-2.064z" fill="#fff"/><path d="M24.97 7.399h0c2.401 1.473 3.722 3.44 3.722 5.508 0 2.041-1.295 4.008-3.67 5.453h0c-2.401 1.473-5.588 2.308-9.013 2.308s-6.612-.807-9.04-2.308h0c-2.401-1.473-3.722-3.44-3.722-5.508 0-2.042 1.295-4.008 3.67-5.453h0C9.318 5.897 12.505 5.09 15.93 5.09s6.612.807 9.04 2.308zM6.811 7.202h0c-2.512 1.568-3.77 3.619-3.76 5.674.01 2.055 1.288 4.099 3.813 5.653 2.525 1.568 5.836 2.323 9.144 2.323s6.593-.783 9.118-2.323h0c2.512-1.554 3.77-3.598 3.76-5.65-.01-2.052-1.288-4.095-3.813-5.65h0c-2.55-1.567-5.862-2.35-9.144-2.35-3.308 0-6.593.783-9.118 2.323zm1.127 10.6h0c-2.23-1.36-3.343-3.146-3.353-4.926-.01-1.78 1.083-3.573 3.3-4.947 2.218-1.361 5.117-2.057 8.044-2.057 2.928 0 5.853.696 8.07 2.057 2.23 1.375 3.343 3.167 3.353 4.95.01 1.784-1.083 3.576-3.3 4.951-2.218 1.361-5.117 2.03-8.044 2.03-2.928 0-5.853-.697-8.07-2.058zm8.07 2.269c3.072 0 5.964-.727 8.148-2.1 2.184-1.345 3.404-3.172 3.404-5.092 0-1.947-1.22-3.775-3.456-5.12C21.92 6.416 19.003 5.66 15.93 5.66c-3.072 0-5.964.727-8.148 2.1-2.184 1.344-3.404 3.143-3.378 5.092 0 1.947 1.22 3.774 3.456 5.12 2.158 1.344 5.076 2.099 8.149 2.099z" fill="#3B3938" stroke="#3B3938" stroke-width=".1"/><path d="M24.105 17.887h0c1.842-1.148 2.927-2.553 3.245-4.049l.003-.01-.003-.01c-.318-1.496-1.43-2.957-3.298-4.106h0c-2.25-1.372-5.187-2.057-8.118-2.057-2.932 0-5.863.685-8.1 2.057h0c-1.842 1.15-2.927 2.554-3.245 4.05l-.002.01.002.01c.318 1.524 1.43 2.957 3.298 4.105 2.25 1.387 5.187 2.08 8.119 2.08 2.931 0 5.862-.693 8.1-2.08z" fill="#fff" stroke="#3B3938" stroke-width=".1"/><path d="M6.865 24.15v.001c2.455 1.49 5.696 2.33 9.144 2.33 3.447 0 6.689-.84 9.118-2.359 2.429-1.517 3.768-3.525 3.768-5.663v-.67a.1.1 0 00-.198-.019c-.334 1.75-1.569 3.347-3.623 4.62-2.418 1.495-5.648 2.329-9.065 2.329-3.444 0-6.674-.834-9.092-2.329h0c-2.08-1.273-3.341-2.898-3.675-4.648a.1.1 0 00-.198.02v.724c0 2.167 1.393 4.175 3.82 5.665z" fill="#fff" stroke="#3B3938" stroke-width=".2" stroke-linejoin="round"/><path d="M6.864 30.929h.001c2.455 1.49 5.696 2.33 9.144 2.33 3.447 0 6.689-.84 9.118-2.358 2.429-1.518 3.768-3.526 3.768-5.664v-.67a.1.1 0 00-.198-.018c-.334 1.75-1.569 3.346-3.623 4.62-2.418 1.495-5.648 2.328-9.065 2.328-3.444 0-6.674-.833-9.092-2.328h0c-2.08-1.274-3.341-2.899-3.675-4.648a.1.1 0 00-.198.019v.725h0v.001c.027 2.138 1.392 4.146 3.82 5.663z" fill="#fff" stroke="#3B3938" stroke-width=".2" stroke-linejoin="round"/><path d="M8.28 13.13a1.788 1.788 0 01.68-1.478c.446-.363 1.049-.39 1.573-.279.524.112 1.022.335 1.52.474.497.14 1.048.168 1.52-.111-.21.167-.472.25-.734.279-.262.027-.55 0-.813-.056-.524-.112-1.021-.335-1.52-.419-.497-.111-1.047-.083-1.467.224-.419.279-.707.809-.76 1.366zm6.183 2.483c.183-.195.42-.335.681-.39a1.86 1.86 0 01.786 0c.524.111.996.39 1.467.613.472.223.97.363 1.468.363s1.022-.112 1.493-.363c-.445.307-.97.474-1.493.502-.524.028-1.075-.111-1.546-.334-.472-.224-.917-.503-1.415-.642-.472-.14-1.048-.112-1.441.251zm4.323-2.79c.105-.223.34-.39.577-.502.235-.083.497-.111.733-.111.262 0 .498.056.734.028s.445-.14.655-.251c.419-.251.864-.558 1.362-.642.498-.112.996-.056 1.467.028-.497-.028-.969-.028-1.44.112-.472.111-.865.39-1.31.67a1.59 1.59 0 01-.708.278c-.262.028-.498-.028-.734-.056-.497-.056-1.021.028-1.336.446zm-9.537 2.372c.183-.363.603-.586.996-.558.393.028.76.223 1.048.474a13.898 13.898 0 01-.524-.167 3.511 3.511 0 00-.524-.112c-.367-.028-.708.112-.996.363zm7.048-4.575c.052-.223.262-.419.471-.502.236-.084.472-.084.682-.056.21.028.419.084.655.14.21.055.419.11.628.195-.445 0-.864-.084-1.31-.168-.21-.028-.419-.056-.602 0-.21.084-.42.196-.524.39zm5.135 6.36c0-.279.262-.53.524-.586.262-.083.55-.028.786.056s.472.167.708.223c.235.028.497.028.707-.14-.157.224-.445.307-.707.28-.262 0-.524-.112-.76-.168a1.548 1.548 0 00-.708-.083c-.21 0-.445.139-.55.418zm-7.126.92c0-.334-.289-.613-.55-.557-.289.055-.525.279-.84.39-.628.195-1.361 0-1.78-.502.497.39 1.152.502 1.729.307.288-.084.524-.335.89-.363.367 0 .655.39.55.726zm-2.908-8.284c.235-.112.497-.168.76-.196.261-.028.523.056.76.084.235.028.47 0 .707-.056.235-.056.471-.167.707-.25-.21.167-.42.306-.681.39-.236.111-.524.14-.786.111-.262-.028-.498-.111-.734-.111-.21-.028-.472 0-.733.028z" fill="#3B3938"/><path d="M20.777 21.415c-.183 0-.366-.167-.366-.39v-2.65c0-1.395.707-2.706 1.834-3.403l3.904-2.4c.21-.139.471-.195.707-.195a1.5 1.5 0 01.707.195c.446.28.734.782.734 1.34v2.705c0 .196-.157.39-.367.39-.183 0-.366-.167-.366-.39v-2.706a.76.76 0 00-.367-.669.814.814 0 00-.367-.112.576.576 0 00-.367.112l-3.904 2.399c-.917.558-1.493 1.618-1.493 2.734v2.65c.052.223-.105.39-.288.39z" fill="#fff"/><path d="M22.664 15.711l3.902-2.398a.77.77 0 01.316-.105c.097 0 .216.026.31.1v.001l.003.003c.196.13.318.338.318.6v2.705c0 .248.203.469.443.469s.443-.22.443-.469v-2.706a1.64 1.64 0 00-.756-1.408 1.396 1.396 0 00-.76-.232c-.274 0-.519.088-.76.23h0v.001l-3.904 2.399s0 0 0 0c-1.17.707-1.885 2.063-1.885 3.474v2.65c0 .248.203.468.443.468s.443-.22.443-.468v-2.65c0-1.1.543-2.115 1.444-2.663h0zm4.218-3.228c.224 0 .45.08.683.19.43.27.682.726.682 1.239v2.705c0 .171-.112.285-.264.285-.153 0-.265-.114-.265-.285v-2.706a.93.93 0 00-.414-.766h0l-.002-.001a.755.755 0 00-.42-.12c-.139 0-.28.03-.42.12l-3.903 2.399h0c-.959.595-1.544 1.671-1.544 2.832v2.65c0 .17-.111.285-.264.285-.153 0-.264-.114-.264-.285v-2.65c0-1.379.699-2.645 1.81-3.305h0l3.903-2.4s0 0 0 0c.228-.134.455-.188.682-.188z" fill="#3B3938" stroke="#3B3938" stroke-width=".1"/><path d="M20.2 41.445l8.778 1.59-8.777-1.59z" fill="#fff"/><path d="M28.978 43.425h-.052l-8.778-1.59c-.21-.028-.34-.223-.288-.446.026-.223.21-.363.42-.307l8.777 1.59c.21.028.34.223.288.446-.026.195-.183.307-.367.307z" fill="#3B3938"/><path d="M20.07 42.895l8.672-2.204-8.673 2.204z" fill="#fff"/><path d="M20.07 43.286a.344.344 0 01-.341-.307.409.409 0 01.262-.474l8.672-2.204c.184-.056.393.083.446.279a.409.409 0 01-.262.474l-8.699 2.232h-.078z" fill="#3B3938"/><path d="M19.572 41.026l8.123 3.877-8.123-3.877z" fill="#fff"/><path d="M27.694 45.294c-.052 0-.104 0-.157-.028l-8.122-3.877c-.183-.084-.262-.307-.183-.503a.347.347 0 01.471-.195l8.122 3.878c.184.083.262.307.184.502a.34.34 0 01-.315.223z" fill="#3B3938"/><path d="M13.677 30.147c.157.78-.027 1.925.13 2.706-1.598-.754-2.122-1.842-3.877-3.432.576.893.602 2.65 1.179 3.543a445.26 445.26 0 01-3.668-2.761c.471.92.498 2.622.97 3.542-1.704.14-2.516-.725-4.927-1.171.289.753 2.463 2.008 2.647 3.04-1.022.307-3.354-.641-4.376-.334l1.808 1.757c-.89.279-1.755.558-2.646.865.76.641 1.493 1.283 2.253 1.952-1.022.502-2.044 1.032-3.066 1.535 1.704.67 2.594 1.31 2.804 1.506A63.234 63.234 0 00.891 44.68c1.572-.083 3.117-.195 4.69-.279-.42.475-.839.949-1.258 1.395 1.52-.307 3.04-.586 4.585-.892-.367 1.004-.734 1.98-1.1 2.984.602-.446 3.091-1.534 4.951-2.761 0 0-.21 1.84-.497 2.315 1.703-.865 2.777-1.255 3.694-1.618 1.153-.446 2.62-.976 3.563-1.339 1.86-.697 1.992-1.283 2.123-2.12.13-.67.628-1.339-.839-2.538-2.882-2.316-5.319-6.333-7.127-9.68z" fill="#FFDF8B"/><mask id="a" maskUnits="userSpaceOnUse" x="-.948" y="28.345" width="23" height="20" fill="#000"><path fill="#fff" d="M-.948 28.345h23v20h-23z"/><path d="M7.782 48c-.027 0-.053 0-.053-.028-.026-.028-.052-.084-.026-.111l1.048-2.818-4.402.865c-.026 0-.078 0-.105-.056-.026-.028 0-.084.027-.112l1.1-1.227-4.454.279c-.026 0-.079-.028-.079-.056-.026-.028 0-.083.026-.111l1.94-1.702c-.263-.195-1.075-.809-2.7-1.423-.026 0-.052-.056-.052-.083 0-.028.026-.084.053-.084l2.96-1.479-2.2-1.869c-.027-.027-.027-.055-.027-.083 0-.028.026-.056.053-.084l2.489-.809-1.703-1.646c-.026-.028-.026-.056-.026-.084 0-.027.026-.055.052-.083.524-.167 1.389 0 2.227.167.76.14 1.572.307 2.07.196-.157-.558-.865-1.172-1.494-1.73-.524-.474-.995-.865-1.126-1.2 0-.027 0-.055.026-.083.026-.028.052-.028.079-.028 1.021.195 1.755.474 2.41.697.812.307 1.467.53 2.358.474-.21-.474-.314-1.06-.42-1.673-.13-.642-.235-1.311-.47-1.758-.027-.028 0-.083.025-.111a.076.076 0 01.105 0l3.354 2.51c-.183-.418-.288-.92-.42-1.422-.156-.642-.287-1.311-.576-1.73-.026-.028-.026-.084.027-.14.026-.027.078-.027.13 0a16.67 16.67 0 011.494 1.507c.707.753 1.284 1.367 2.2 1.841a6.02 6.02 0 01-.025-1.2c0-.474.026-.948-.053-1.338 0-.056.026-.084.053-.112.052-.028.078 0 .104.028 1.782 3.264 4.193 7.309 7.1 9.68 1.259 1.032 1.101 1.73.944 2.315-.026.112-.052.195-.078.307-.131.809-.262 1.45-2.175 2.176-.314.111-.707.25-1.127.418a66.75 66.75 0 00-2.436.92 3.373 3.373 0 00-.472.196 25.53 25.53 0 00-3.223 1.45c-.026.029-.078 0-.104-.027-.027-.028-.027-.084 0-.112.21-.363.392-1.618.445-2.092-1.048.67-2.253 1.283-3.249 1.785-.734.363-1.284.67-1.546.837-.052.056-.078.056-.078.056zm1.1-3.18c.026 0 .052 0 .079.028.026.028.026.056.026.083l-1.022 2.706c.314-.195.76-.418 1.336-.697 1.022-.53 2.306-1.172 3.38-1.897a.076.076 0 01.105 0c.026.028.052.056.052.084 0 .055-.157 1.422-.393 2.12 1.31-.67 2.253-1.032 3.013-1.34.158-.055.315-.11.472-.194.76-.307 1.65-.642 2.437-.921.419-.14.786-.279 1.1-.419 1.834-.697 1.939-1.255 2.07-2.036l.079-.335c.157-.558.314-1.143-.865-2.12-2.804-2.287-5.162-6.137-6.917-9.317.026.28 0 .586 0 .893 0 .474-.026.948.052 1.339 0 .028 0 .084-.026.084-.026.027-.052.027-.105 0-1.048-.503-1.65-1.144-2.41-1.953-.315-.335-.681-.726-1.127-1.144.157.39.262.865.367 1.34.157.64.288 1.31.576 1.729.027.027.027.083 0 .111a.076.076 0 01-.104 0L7.65 30.426c.158.418.263.948.341 1.478.131.642.236 1.311.472 1.758.026.028.026.055 0 .083-.026.028-.053.056-.079.056-.996.084-1.703-.167-2.568-.474-.602-.223-1.257-.474-2.174-.67.183.28.576.614.97.977.68.613 1.466 1.31 1.571 1.925 0 .055-.026.083-.052.111-.524.167-1.389 0-2.227-.167-.734-.14-1.467-.28-1.991-.196l1.676 1.618c.027.028.027.056.027.084 0 .028-.027.056-.053.084l-2.463.809 2.123 1.84c.026.029.026.057.026.085 0 .027-.026.055-.053.083L.314 41.333c1.468.586 2.332 1.172 2.647 1.45.026.028.026.056.026.084 0 .028 0 .056-.026.084l-1.808 1.59 4.428-.28c.026 0 .078.029.078.057.026.028 0 .083-.026.111l-1.074 1.2 4.323-.81z"/></mask><path d="M7.782 48c-.027 0-.053 0-.053-.028-.026-.028-.052-.084-.026-.111l1.048-2.818-4.402.865c-.026 0-.078 0-.105-.056-.026-.028 0-.084.027-.112l1.1-1.227-4.454.279c-.026 0-.079-.028-.079-.056-.026-.028 0-.083.026-.111l1.94-1.702c-.263-.195-1.075-.809-2.7-1.423-.026 0-.052-.056-.052-.083 0-.028.026-.084.053-.084l2.96-1.479-2.2-1.869c-.027-.027-.027-.055-.027-.083 0-.028.026-.056.053-.084l2.489-.809-1.703-1.646c-.026-.028-.026-.056-.026-.084 0-.027.026-.055.052-.083.524-.167 1.389 0 2.227.167.76.14 1.572.307 2.07.196-.157-.558-.865-1.172-1.494-1.73-.524-.474-.995-.865-1.126-1.2 0-.027 0-.055.026-.083.026-.028.052-.028.079-.028 1.021.195 1.755.474 2.41.697.812.307 1.467.53 2.358.474-.21-.474-.314-1.06-.42-1.673-.13-.642-.235-1.311-.47-1.758-.027-.028 0-.083.025-.111a.076.076 0 01.105 0l3.354 2.51c-.183-.418-.288-.92-.42-1.422-.156-.642-.287-1.311-.576-1.73-.026-.028-.026-.084.027-.14.026-.027.078-.027.13 0a16.67 16.67 0 011.494 1.507c.707.753 1.284 1.367 2.2 1.841a6.02 6.02 0 01-.025-1.2c0-.474.026-.948-.053-1.338 0-.056.026-.084.053-.112.052-.028.078 0 .104.028 1.782 3.264 4.193 7.309 7.1 9.68 1.259 1.032 1.101 1.73.944 2.315-.026.112-.052.195-.078.307-.131.809-.262 1.45-2.175 2.176-.314.111-.707.25-1.127.418a66.75 66.75 0 00-2.436.92 3.373 3.373 0 00-.472.196 25.53 25.53 0 00-3.223 1.45c-.026.029-.078 0-.104-.027-.027-.028-.027-.084 0-.112.21-.363.392-1.618.445-2.092-1.048.67-2.253 1.283-3.249 1.785-.734.363-1.284.67-1.546.837-.052.056-.078.056-.078.056zm1.1-3.18c.026 0 .052 0 .079.028.026.028.026.056.026.083l-1.022 2.706c.314-.195.76-.418 1.336-.697 1.022-.53 2.306-1.172 3.38-1.897a.076.076 0 01.105 0c.026.028.052.056.052.084 0 .055-.157 1.422-.393 2.12 1.31-.67 2.253-1.032 3.013-1.34.158-.055.315-.11.472-.194.76-.307 1.65-.642 2.437-.921.419-.14.786-.279 1.1-.419 1.834-.697 1.939-1.255 2.07-2.036l.079-.335c.157-.558.314-1.143-.865-2.12-2.804-2.287-5.162-6.137-6.917-9.317.026.28 0 .586 0 .893 0 .474-.026.948.052 1.339 0 .028 0 .084-.026.084-.026.027-.052.027-.105 0-1.048-.503-1.65-1.144-2.41-1.953-.315-.335-.681-.726-1.127-1.144.157.39.262.865.367 1.34.157.64.288 1.31.576 1.729.027.027.027.083 0 .111a.076.076 0 01-.104 0L7.65 30.426c.158.418.263.948.341 1.478.131.642.236 1.311.472 1.758.026.028.026.055 0 .083-.026.028-.053.056-.079.056-.996.084-1.703-.167-2.568-.474-.602-.223-1.257-.474-2.174-.67.183.28.576.614.97.977.68.613 1.466 1.31 1.571 1.925 0 .055-.026.083-.052.111-.524.167-1.389 0-2.227-.167-.734-.14-1.467-.28-1.991-.196l1.676 1.618c.027.028.027.056.027.084 0 .028-.027.056-.053.084l-2.463.809 2.123 1.84c.026.029.026.057.026.085 0 .027-.026.055-.053.083L.314 41.333c1.468.586 2.332 1.172 2.647 1.45.026.028.026.056.026.084 0 .028 0 .056-.026.084l-1.808 1.59 4.428-.28c.026 0 .078.029.078.057.026.028 0 .083-.026.111l-1.074 1.2 4.323-.81z" fill="#3B3938"/><path d="M7.782 48c-.027 0-.053 0-.053-.028-.026-.028-.052-.084-.026-.111l1.048-2.818-4.402.865c-.026 0-.078 0-.105-.056-.026-.028 0-.084.027-.112l1.1-1.227-4.454.279c-.026 0-.079-.028-.079-.056-.026-.028 0-.083.026-.111l1.94-1.702c-.263-.195-1.075-.809-2.7-1.423-.026 0-.052-.056-.052-.083 0-.028.026-.084.053-.084l2.96-1.479-2.2-1.869c-.027-.027-.027-.055-.027-.083 0-.028.026-.056.053-.084l2.489-.809-1.703-1.646c-.026-.028-.026-.056-.026-.084 0-.027.026-.055.052-.083.524-.167 1.389 0 2.227.167.76.14 1.572.307 2.07.196-.157-.558-.865-1.172-1.494-1.73-.524-.474-.995-.865-1.126-1.2 0-.027 0-.055.026-.083.026-.028.052-.028.079-.028 1.021.195 1.755.474 2.41.697.812.307 1.467.53 2.358.474-.21-.474-.314-1.06-.42-1.673-.13-.642-.235-1.311-.47-1.758-.027-.028 0-.083.025-.111a.076.076 0 01.105 0l3.354 2.51c-.183-.418-.288-.92-.42-1.422-.156-.642-.287-1.311-.576-1.73-.026-.028-.026-.084.027-.14.026-.027.078-.027.13 0a16.67 16.67 0 011.494 1.507c.707.753 1.284 1.367 2.2 1.841a6.02 6.02 0 01-.025-1.2c0-.474.026-.948-.053-1.338 0-.056.026-.084.053-.112.052-.028.078 0 .104.028 1.782 3.264 4.193 7.309 7.1 9.68 1.259 1.032 1.101 1.73.944 2.315-.026.112-.052.195-.078.307-.131.809-.262 1.45-2.175 2.176-.314.111-.707.25-1.127.418a66.75 66.75 0 00-2.436.92 3.373 3.373 0 00-.472.196 25.53 25.53 0 00-3.223 1.45c-.026.029-.078 0-.104-.027-.027-.028-.027-.084 0-.112.21-.363.392-1.618.445-2.092-1.048.67-2.253 1.283-3.249 1.785-.734.363-1.284.67-1.546.837-.052.056-.078.056-.078.056zm1.1-3.18c.026 0 .052 0 .079.028.026.028.026.056.026.083l-1.022 2.706c.314-.195.76-.418 1.336-.697 1.022-.53 2.306-1.172 3.38-1.897a.076.076 0 01.105 0c.026.028.052.056.052.084 0 .055-.157 1.422-.393 2.12 1.31-.67 2.253-1.032 3.013-1.34.158-.055.315-.11.472-.194.76-.307 1.65-.642 2.437-.921.419-.14.786-.279 1.1-.419 1.834-.697 1.939-1.255 2.07-2.036l.079-.335c.157-.558.314-1.143-.865-2.12-2.804-2.287-5.162-6.137-6.917-9.317.026.28 0 .586 0 .893 0 .474-.026.948.052 1.339 0 .028 0 .084-.026.084-.026.027-.052.027-.105 0-1.048-.503-1.65-1.144-2.41-1.953-.315-.335-.681-.726-1.127-1.144.157.39.262.865.367 1.34.157.64.288 1.31.576 1.729.027.027.027.083 0 .111a.076.076 0 01-.104 0L7.65 30.426c.158.418.263.948.341 1.478.131.642.236 1.311.472 1.758.026.028.026.055 0 .083-.026.028-.053.056-.079.056-.996.084-1.703-.167-2.568-.474-.602-.223-1.257-.474-2.174-.67.183.28.576.614.97.977.68.613 1.466 1.31 1.571 1.925 0 .055-.026.083-.052.111-.524.167-1.389 0-2.227-.167-.734-.14-1.467-.28-1.991-.196l1.676 1.618c.027.028.027.056.027.084 0 .028-.027.056-.053.084l-2.463.809 2.123 1.84c.026.029.026.057.026.085 0 .027-.026.055-.053.083L.314 41.333c1.468.586 2.332 1.172 2.647 1.45.026.028.026.056.026.084 0 .028 0 .056-.026.084l-1.808 1.59 4.428-.28c.026 0 .078.029.078.057.026.028 0 .083-.026.111l-1.074 1.2 4.323-.81z" stroke="#3B3938" stroke-width=".2" mask="url(#a)"/><path d="M7.755 40.635a63.438 63.438 0 01-3.065-.892c-.053 0-.079-.056-.053-.112 0-.028.026-.028.026-.056A6.677 6.677 0 017.1 38.487l-.026.14c-.21-.167-.446-.363-.655-.53-.026-.028-.026-.056 0-.084 0-.028.026-.028.052-.028l1.782.084c-.603.028-1.205.056-1.782.056l.026-.112c.236.168.446.335.682.502.026.028.052.084.026.112 0 .028-.026.028-.052.028a8.397 8.397 0 00-2.385 1.06l-.026-.168c1.022.363 2.018.726 3.013 1.088zm4.323-4.742c-.471-.167-.917-.335-1.388-.502l.078-.084c.21.419.393.837.603 1.284.21.418.393.864.576 1.283.027.056 0 .084-.026.111h-.052c-.367-.055-.734-.111-1.127-.167l.052-.084.393 1.172a14.82 14.82 0 01-.497-1.144c0-.028 0-.056.026-.084h.026c.367.028.76.056 1.127.112l-.079.112c-.21-.419-.393-.837-.576-1.284-.184-.418-.393-.864-.577-1.283-.026-.028 0-.083.027-.083h.052c.472.195.917.418 1.362.641zm1.652 7.225l-1.468.753c-.026 0-.052 0-.052-.028v-.055l.707-.92.053.11a8.123 8.123 0 01-2.725.029c-.053 0-.079-.056-.079-.112 0-.028.026-.056.026-.056l1.363-.976c.445-.335.917-.67 1.362-.977l.026.14-1.388-.223c-.027 0-.053-.028-.053-.056s.026-.056.053-.056l2.174-.362-2.148.474v-.112l1.389.168c.026 0 .052.027.052.083 0 .028 0 .028-.026.056l-1.337 1.004-1.362 1.005-.026-.168c.89.14 1.781.14 2.672.028.027 0 .079.028.079.056s0 .028-.026.056l-.734.892-.052-.083 1.52-.67zm2.147-3.682c-.288-.697-.524-1.423-.76-2.148-.026-.056 0-.084.053-.112.026 0 .053 0 .079.028.262.224.524.419.812.586.288.168.576.335.89.447l-.104.083c0-.502-.026-1.004 0-1.534a29.2 29.2 0 01.131 1.506c0 .028-.026.084-.052.084h-.027a5.495 5.495 0 01-.917-.418 5.959 5.959 0 01-.838-.614l.13-.084c.237.698.42 1.45.604 2.176zm.027 1.562c-.315.335-.655.67-.97 1.004l-.026-.111c.42.084.838.14 1.258.223.052 0 .078.056.052.112v.028a53.867 53.867 0 01-.996 2.175l-.104-.111c.76-.195 1.545-.39 2.305-.558 0 0 .027 0 .027.028v.474l-.053-.474.026.028c-.76.25-1.52.474-2.28.67-.052 0-.078-.029-.104-.057v-.056c.314-.725.655-1.45.996-2.175l.052.111c-.42-.083-.838-.195-1.231-.279-.027 0-.053-.028-.053-.056 0 0 0-.027.026-.027.367-.335.708-.642 1.075-.949z" fill="#3B3938"/></g><defs><clipPath id="clip0_827_6084"><path fill="#fff" d="M0 0h48v48H0z"/></clipPath></defs></svg>