<svg width="31" height="32" fill="none" xmlns="http://www.w3.org/2000/svg"><path d="M28.417 21.198v7.038c-.216.411-.573.529-1.032.529-7.806-.007-15.606-.007-23.413-.007H3.42c-.532-.013-.836-.313-.836-.829v-6.45c0-.464.169-.686.62-.823 1.227-.36 2.454-.725 3.681-1.078.182-.052.25-.123.25-.313-.014-1.417-.007-2.833-.007-4.25v-.242H6.81c-.89 0-1.78.007-2.676-.006-.486-.007-.81-.327-.796-.764.007-.412.35-.718.823-.718h2.952v-3.67H4.128a.763.763 0 01-.6-.26c-.195-.223-.25-.477-.135-.752a.71.71 0 01.674-.463c.917-.007 1.834-.007 2.751-.007h.31V5.267c0-.28.094-.516.33-.672.25-.17.52-.19.79-.053.296.15.424.405.424.725v2.86h6.067v-.281c0-.849.02-1.698-.006-2.54-.014-.509.364-.849.775-.842.404.007.775.333.761.855-.027.85-.006 1.691-.006 2.54v.274h6.067v-.28c0-.856-.007-1.711 0-2.566 0-.483.33-.83.775-.823.445 0 .769.346.769.83v2.859h.296c.91 0 1.814-.007 2.724.006.465.007.782.333.769.758-.014.411-.344.711-.796.711h-2.973v3.67h.29c.897 0 1.8-.007 2.697 0 .492 0 .842.391.782.848-.054.373-.378.627-.83.634-.883.006-1.766 0-2.649 0h-.303c0 .946 0 1.86.006 2.775 0 .058.088.143.155.176a9.899 9.899 0 012.71 1.671c.62.53 1.234 1.084 1.666 1.796zM4.114 27.244H26.9v-.288c0-1.475-.04-2.95.02-4.42.027-.672-.202-1.136-.68-1.593-1.693-1.606-3.695-2.474-6.075-2.48-1.793-.008-3.54.312-5.278.659-2.792.561-5.535 1.299-8.266 2.082-.835.235-1.665.49-2.5.731-.007 1.77-.007 3.526-.007 5.309zM8.69 9.622v3.643h6.034V9.622H8.69zm13.618 3.656V9.635h-6.027v3.643h6.027zm-7.57 1.508H8.69v4.264c2.022-.49 4.031-.967 6.047-1.45v-2.814zm1.536 2.56c2.016-.32 4.018-.581 6.04-.157v-2.403h-6.04v2.56z" fill="#3B3938"/><path d="M8.678 23.979c-.243 0-.486.006-.728 0-.459-.013-.803-.326-.816-.738-.007-.411.344-.75.809-.757a49.1 49.1 0 011.436 0c.472.006.822.346.816.757-.007.412-.351.725-.816.738h-.701zm14.035.731c-.242 0-.485.007-.728 0-.438-.013-.768-.32-.775-.712-.014-.424.283-.75.735-.77.519-.02 1.045-.02 1.564 0 .451.02.748.353.741.77-.013.405-.343.706-.795.719-.256 0-.499-.007-.742-.007zm-8.359 1.47c-.25 0-.506.006-.755 0-.418-.014-.755-.334-.769-.726a.734.734 0 01.708-.75c.553-.02 1.106-.02 1.659 0 .41.02.714.385.694.757a.777.777 0 01-.755.712c-.263.013-.52.006-.782.006zm3.026-4.055c-.249 0-.505.006-.754 0-.418-.007-.755-.346-.755-.738 0-.385.317-.718.728-.731.54-.013 1.078-.013 1.611 0a.734.734 0 01.715.737c-.007.386-.337.712-.742.725-.263.013-.532.007-.802.007z" fill="#3B3938"/></svg>