<svg width="34" height="35" fill="none" xmlns="http://www.w3.org/2000/svg"><g clip-path="url(#clip0_1043_9117)" fill="#C4C4C4"><path d="M17.005.726c.804 0 1.523.268 2.167.756.672.507 1.343 1.013 2.006 1.53a3.832 3.832 0 002.29.822c.852.019 1.694.076 2.545.143 1.609.125 2.849 1.215 3.237 2.85.208.88.416 1.768.615 2.648.16.698.51 1.281 1.022 1.769.624.602 1.258 1.186 1.883 1.788 1.306 1.252 1.58 2.85.776 4.474-.294.603-.568 1.215-.9 1.788-.624 1.052-.747 2.161-.548 3.347.114.67.18 1.348.246 2.027.16 1.558-.625 2.983-2.025 3.652-.823.392-1.656.746-2.498 1.09a3.739 3.739 0 00-1.76 1.492c-.445.707-.9 1.405-1.354 2.103-.984 1.511-2.507 2.066-4.22 1.54-.842-.258-1.694-.517-2.536-.765a3.383 3.383 0 00-1.95.01c-1.002.296-1.996.66-3.018.87-1.457.306-2.659-.23-3.53-1.435-.539-.736-1.012-1.53-1.504-2.304a3.746 3.746 0 00-1.78-1.52c-.766-.316-1.513-.66-2.27-.985-1.637-.708-2.451-2.19-2.215-3.977.114-.842.209-1.683.303-2.525a3.663 3.663 0 00-.378-2.122c-.388-.765-.776-1.53-1.155-2.305-.795-1.625-.52-3.222.786-4.465a153.27 153.27 0 011.807-1.711 3.75 3.75 0 001.136-2.018c.18-.822.378-1.654.567-2.476.407-1.702 1.732-2.792 3.454-2.859.88-.038 1.77-.086 2.65-.153a3.378 3.378 0 001.855-.717c.68-.516 1.362-1.033 2.034-1.549.672-.516 1.41-.813 2.262-.813zm11.582 16.99c-.019-6.482-5.176-11.702-11.573-11.721-6.387-.01-11.61 5.278-11.601 11.741.019 6.492 5.252 11.77 11.61 11.722 6.426-.057 11.583-5.287 11.564-11.741z"/><path d="M27.452 17.746c-.02 5.851-4.722 10.594-10.466 10.565-5.782-.029-10.466-4.78-10.438-10.594.029-5.861 4.722-10.594 10.466-10.565 5.791.019 10.466 4.77 10.438 10.594zm-11.876.88c-.748-.766-1.514-1.56-2.3-2.334-.634-.621-1.59-.612-2.195 0a1.564 1.564 0 000 2.218 299.925 299.925 0 003.454 3.5c.624.621 1.552.631 2.167.01 2.091-2.123 4.182-4.246 6.236-6.407.236-.239.369-.64.416-.994.085-.631-.312-1.224-.88-1.501-.596-.277-1.249-.182-1.731.306-.758.755-1.496 1.53-2.243 2.285-.965.985-1.94 1.941-2.924 2.916z"/></g><defs><clipPath id="clip0_1043_9117"><path fill="#fff" transform="translate(0 .726)" d="M0 0h34v34H0z"/></clipPath></defs></svg>