<svg width="25" height="24" fill="none" xmlns="http://www.w3.org/2000/svg"><g clip-path="url(#clip0_513_2005)"><path d="M12.703 24c-6.627 0-12-5.374-12-12s5.373-12 12-12c6.626 0 12 5.374 12 12s-5.374 12-12 12z" fill="url(#paint0_linear_513_2005)"/><path d="M12.703 5.285c2.186 0 2.445.007 3.31.048.798.036 1.233.17 1.52.283.383.149.656.326.942.612.285.286.463.56.612.94.113.289.244.723.283 1.522.038.864.048 1.124.048 3.31s-.007 2.446-.048 3.31c-.036.799-.17 1.233-.283 1.521a2.545 2.545 0 01-.612.941c-.286.286-.56.463-.941.612-.288.113-.723.245-1.522.283-.864.039-1.123.048-3.31.048-2.186 0-2.445-.007-3.309-.048-.8-.036-1.234-.17-1.522-.283a2.545 2.545 0 01-.94-.612 2.545 2.545 0 01-.612-.94c-.113-.289-.245-.723-.284-1.522-.038-.864-.048-1.124-.048-3.31s.008-2.446.048-3.31c.036-.799.17-1.233.284-1.521.148-.382.326-.655.612-.941a2.54 2.54 0 01.94-.612c.288-.113.723-.245 1.522-.283.864-.041 1.123-.048 3.31-.048zm0-1.476c-2.225 0-2.504.01-3.377.05-.871.041-1.467.178-1.99.382a3.954 3.954 0 00-1.45.943 4.032 4.032 0 00-.945 1.452c-.202.52-.34 1.116-.382 1.99-.04.873-.05 1.152-.05 3.376 0 2.225.01 2.504.05 3.377.041.871.178 1.467.382 1.99.209.535.49.993.946 1.447.456.456.912.734 1.452.946.52.201 1.116.34 1.99.381.873.041 1.151.05 3.376.05 2.225 0 2.503-.009 3.377-.05.871-.04 1.466-.177 1.99-.381.535-.21.993-.49 1.447-.946.456-.456.734-.912.945-1.452.202-.52.341-1.116.382-1.99.04-.873.05-1.152.05-3.376 0-2.225-.01-2.504-.05-3.377-.04-.871-.178-1.467-.382-1.99a4.004 4.004 0 00-.945-1.447 4.032 4.032 0 00-1.452-.946c-.521-.201-1.116-.34-1.99-.381-.871-.039-1.15-.048-3.374-.048z" fill="#fff"/><path d="M12.703 7.793a4.208 4.208 0 100 8.415 4.208 4.208 0 000-8.415zm0 6.938a2.731 2.731 0 110-5.462 2.731 2.731 0 010 5.462zm4.373-6.12a.984.984 0 100-1.968.984.984 0 000 1.968z" fill="#fff"/></g><defs><linearGradient id="paint0_linear_513_2005" x1="4.217" y1="20.485" x2="21.188" y2="3.515" gradientUnits="userSpaceOnUse"><stop stop-color="#FFD521"/><stop offset=".055" stop-color="#FFD020"/><stop offset=".124" stop-color="#FEC01E"/><stop offset=".2" stop-color="#FCA71B"/><stop offset=".282" stop-color="#FA8316"/><stop offset=".368" stop-color="#F85510"/><stop offset=".456" stop-color="#F51E09"/><stop offset=".5" stop-color="#F30005"/><stop offset=".503" stop-color="#F20007"/><stop offset=".597" stop-color="#E1003B"/><stop offset=".688" stop-color="#D30067"/><stop offset=".776" stop-color="#C70088"/><stop offset=".859" stop-color="#BF00A0"/><stop offset=".936" stop-color="#BB00AF"/><stop offset="1" stop-color="#B900B4"/></linearGradient><clipPath id="clip0_513_2005"><path fill="#fff" transform="translate(.703)" d="M0 0h24v24H0z"/></clipPath></defs></svg>