<svg width="302" height="72" fill="none" xmlns="http://www.w3.org/2000/svg"><g clip-path="url(#clip0_513_2485)" fill="#000"><path d="M230.103 0c6.981 3.93 7.854 6.55 6.108 14.703-.436 1.746.146 3.784.728 5.531 2.618 6.842 3.054 13.684-.146 20.525-1.745 3.494-12.799 5.969-15.563 3.494-.727-.582-1.018-1.892-1.018-2.911-.146-2.475-.436-5.095 0-7.57.727-4.804-.436-8.006-5.091-10.335-4.509-2.184-3.927-4.804-.727-8.443 3.927-4.513 6.982-9.9 10.327-14.848C226.466 0 228.212 0 230.103 0zm6.69 32.753c-.145-2.475-.291-3.93-.436-5.386-.436-3.64-2.182-6.987-5.964-6.26-2.472.437-5.09 3.349-6.545 5.678-1.309 2.183-1.018 5.24-1.309 7.86-.291 3.057.146 5.969 3.927 6.551 3.637.582 7.127.437 8.873-3.348 1.018-1.747 1.163-3.93 1.454-5.095zm-13.09-23.291c3.054 2.766 4.654 4.95 6.69 5.532 1.019.29 3.782-2.33 4.219-4.076.727-2.62.145-5.969-3.637-5.677-1.891 0-3.781 2.037-7.272 4.221zM0 38.14c6.254-2.039 7.563-6.551 6.982-12.665-.437-6.26-.146-12.665.436-18.924.145-1.602 2.473-3.93 4.073-4.222 3.636-.582 7.418-.145 11.636-.145.581 10.772 1.163 21.107 1.89 31.443.146 1.892 1.891 3.493 2.182 5.386.437 2.62 0 5.24 0 7.86h-1.018c-2.473-4.367-5.818-6.987-11.2-6.55-1.309.145-2.472 0-3.781 0-4.655-.146-6.691 1.747-5.818 6.55H0V38.14zm19.49-1.31c0-9.172.146-18.051-.145-26.931 0-1.601-2.327-3.057-3.636-4.513-1.455 1.31-3.491 2.33-4.364 3.93-.873 1.456-.873 3.494-.873 5.241-.145 7.278 0 14.702 0 22.272h9.018zm35.054 9.898c-1.891-4.659-2.764-8.88 3.054-11.791 1.455-.728 2.182-3.93 2.182-6.114.29-6.842.29-13.684 0-20.526-.145-4.658 1.454-6.696 6.254-6.26 3.055.292 6.11 0 9.746 0 .436 8.59.872 17.178 1.6 25.767.29 4.221-1.31 9.025 3.636 12.228.727.436-1.018 4.367-1.6 6.696h-1.018c-1.6-4.222-4.218-6.696-9.018-6.405-1.455.145-2.91 0-4.364-.146-4.654-.291-7.854 1.165-7.418 6.55h-3.054zm8.727-10.044h9.018c0-9.171.145-17.906-.146-26.64 0-1.601-2.181-3.057-3.345-4.512-1.6 1.164-3.49 2.183-4.509 3.639-.873 1.456-.873 3.494-.873 5.24-.29 7.279-.145 14.703-.145 22.273zm238.83-32.317c-4.073 4.804-8.436 9.462-11.927 14.557-1.018 1.601-.728 4.95.145 6.842 1.746 3.494 4.509 6.55 6.4 10.044 1.164 2.038 1.6 4.367 1.745 6.987-7.127-1.6-9.454-7.132-11.345-12.955h-1.454v14.702c-.728.146-1.309.291-2.037.437-.727-1.165-1.89-2.33-1.89-3.348 0-12.228 0-24.601.145-36.83 0-.873.873-1.746 1.745-3.493 3.928 5.532.146 11.064 2.182 17.469 2.327-2.912 3.927-5.095 5.818-6.988 3.346-3.348 6.982-6.405 10.473-9.607v2.183zM39.272 0c4.363 1.019 8.581 1.892 12.945 2.911.145.437.29 1.02.436 1.456-2.472.582-4.945 1.747-7.418 1.747-2.763 0-6.254-1.892-6.69 2.62-.437 4.222-3.928 9.462 2.617 12.228.728.291 1.455 1.019 3.346 2.475-3.055 1.31-5.236 2.329-8 3.493-.145 1.165-.436 2.62-.436 4.222-.146 6.987.436 7.424 7.563 8.006 2.618.146 6.255-1.601 7.564 4.076-5.237 0-10.036.291-14.836-.145-1.019-.146-2.618-2.766-2.618-4.367-.146-8.59 0-17.323.145-26.058V0h5.382zm147.341 24.892c1.454-6.113 2.472-12.227 4.509-18.05 1.6-4.513 5.818-5.532 10.472-4.658 4.655.873 6.109 4.512 6.545 8.443.873 10.044-.872 19.943-5.672 28.822-1.455 2.62-5.527 4.95-8.436 4.95-1.746.145-4.655-4.076-5.382-6.842-1.164-3.93-.727-8.152-1.018-12.373-.436-.146-.727-.292-1.018-.292zm6.691 5.969c0 1.019-.291 2.329 0 3.202.727 1.893 1.89 3.494 2.909 5.386 1.454-1.31 3.636-2.329 3.927-3.784 1.454-6.405 2.472-12.956 3.345-19.507.145-1.164-1.454-3.202-2.473-3.493-1.018-.291-3.2 1.164-3.636 2.183-1.891 5.095-4.509 15.867-4.072 16.013zm70.107-10.773c-2.909 5.823-5.818 11.646-9.018 17.469-1.309 2.474-3.2 4.804-4.946 7.133-.727-2.766-1.89-5.532-2.036-8.152 0-10.336.291-20.671.582-30.86 0-1.165.291-2.184 1.164-3.349 3.345 4.222 1.309 9.025 1.454 13.538.291 4.804 0 9.608 0 14.411.582.292 1.018.583 1.6.874 1.309-1.747 3.054-3.494 3.927-5.532 3.055-6.55 5.673-13.247 8.727-19.797.727-1.602 2.473-2.62 3.636-3.93.582.29 1.019.582 1.6.873v41.05c-6.109-1.164-5.236-5.968-5.236-10.044 0-4.221.437-8.443.727-12.664-.581-.437-1.309-.728-2.181-1.02zM158.25 26.785c1.309-5.969 2.036-12.082 3.927-17.905 1.891-5.677 13.527-9.608 18.472-6.405 1.019.728 1.891 3.348 1.455 4.512-.727 1.893-2.327 4.513-3.927 4.95-11.491 2.62-13.818 5.095-14.254 17.031-.146 2.475-.291 5.095.29 7.57 1.019 4.804 4.219 5.823 7.709 2.475.437-.437.582-1.02 1.019-1.31 1.745-1.02 3.636-1.893 5.527-2.766-.582 2.329-.437 5.095-1.746 6.696-3.054 3.785-8 4.658-11.927 2.329-2.618-1.456-4.509-5.24-5.527-8.443-.873-2.62-.145-5.677-.145-8.589-.437-.145-.728-.145-.873-.145zM102.834 2.33c4.509 0 9.454-.146 14.545.145.872 0 2.472 2.038 2.472 3.202a1154.222 1154.222 0 011.309 32.026c0 1.6-1.454 3.202-2.327 4.803-1.018-1.601-2.909-3.057-3.054-4.658-.291-8.443 0-17.032 0-25.475 0-2.62.291-6.26-3.637-5.822-1.745.29-4.072 3.348-4.363 5.386-.873 6.26-.582 12.664-1.164 18.924-.291 3.348-1.018 6.841-2.327 9.898-.582 1.31-3.2 1.893-4.945 2.33-.437.145-1.891-1.31-1.891-1.456.873-1.31 1.89-2.33 2.763-3.64 1.31-2.037 3.2-4.075 3.491-6.259.728-5.968.873-11.937.728-17.905.145-3.785-1.019-7.424-1.6-11.5zm39.271 24.31c-6.69 1.6-8.581 4.657-6.545 10.917.436 1.456 3.345 2.475 5.382 3.202 2.327.874 4.945 1.31 7.272 1.893-.145.728-.145 1.601-.291 2.329-4.218 0-8.436.291-12.654-.146-1.018-.145-2.473-2.765-2.618-4.221-.291-6.696 0-13.392-.145-20.089 0-4.367-.582-8.588-.437-12.955 0-1.747 1.455-4.95 2.182-4.95 6.836.291 13.818 1.165 20.654 2.038 0 .582.145 1.31.145 1.893-1.454.436-2.909.873-4.363 1.455-3.345 1.456-7.273 2.33-9.891 4.659-5.818 5.24-5.527 7.278.582 12.518.291-.145.291.437.727 1.456z"/><path opacity=".5" d="M3.055 65.78c-.51 0-.978-.09-1.402-.272a3.492 3.492 0 01-1.09-.78A3.735 3.735 0 01-.151 63.6a3.701 3.701 0 01-.247-1.35c0-.64.143-1.225.428-1.753a3.245 3.245 0 011.208-1.259c.519-.32 1.12-.48 1.804-.48.666 0 1.246.151 1.739.454a2.75 2.75 0 011.116 1.194l-1.116.351a1.814 1.814 0 00-.727-.74 2.023 2.023 0 00-1.038-.273c-.416 0-.796.109-1.142.325a2.31 2.31 0 00-.805.896c-.2.372-.299.8-.299 1.285 0 .476.1.908.299 1.298.207.38.48.683.818.908a2.05 2.05 0 001.142.338c.268 0 .523-.048.766-.143.25-.095.467-.22.649-.376a1.3 1.3 0 00.389-.533l1.116.338a2.49 2.49 0 01-.636.883c-.277.25-.61.45-1 .597-.38.147-.8.22-1.258.22zm9.73-.13v-5.763H10.45v-1.012h5.815v1.012h-2.337v5.763h-1.142zm12.168.13a2.685 2.685 0 01-1.48-.415 3.13 3.13 0 01-1.025-1.051v4.101h-1.142v-9.54h1.012v1.272a3.061 3.061 0 011.052-1 2.7 2.7 0 011.415-.389c.467 0 .895.095 1.285.286.389.19.726.45 1.012.778.286.33.506.706.662 1.13.164.415.247.852.247 1.31 0 .641-.13 1.23-.39 1.766a3.17 3.17 0 01-1.064 1.285 2.75 2.75 0 01-1.584.467zm-.35-.986c.337 0 .64-.07.908-.208.277-.147.511-.337.701-.571.2-.242.35-.515.455-.818a2.86 2.86 0 00.155-.934c0-.338-.06-.658-.181-.96a2.403 2.403 0 00-.494-.806 2.192 2.192 0 00-.74-.545 2.002 2.002 0 00-1.557-.09c-.216.077-.424.19-.623.337-.2.138-.368.298-.506.48-.139.182-.23.377-.273.584v1.934c.13.294.303.563.52.805.216.242.467.437.752.584a2 2 0 00.883.208zm11.643.986c-.51 0-.973-.09-1.388-.272a3.437 3.437 0 01-1.078-.766 3.54 3.54 0 01-.7-1.13 3.665 3.665 0 01-.247-1.336c0-.476.082-.926.246-1.35a3.41 3.41 0 01.701-1.117 3.18 3.18 0 011.078-.765c.424-.19.887-.286 1.388-.286.511 0 .974.095 1.39.286a3.18 3.18 0 011.077.765c.311.32.55.693.713 1.117.165.424.247.874.247 1.35a3.65 3.65 0 01-.947 2.466c-.303.32-.667.575-1.09.766a3.43 3.43 0 01-1.39.272zm-2.245-3.491c0 .467.1.89.299 1.272.207.38.48.683.817.908.338.217.714.325 1.13.325.415 0 .791-.113 1.129-.338.346-.225.618-.528.817-.908.208-.39.312-.818.312-1.285 0-.468-.104-.892-.312-1.272a2.372 2.372 0 00-.817-.909 1.991 1.991 0 00-1.13-.337c-.415 0-.791.116-1.129.35-.337.225-.61.528-.817.909-.2.38-.3.809-.3 1.285zm10.937 3.361v-6.762h1.142v5.23l3.79-5.243h1.039v6.775h-1.142v-5.127l-3.738 5.127h-1.09zm13.339 0v-5.763H55.94v-1.012h5.815v1.012H59.42v5.763h-1.142zm11.518.13c-.51 0-.978-.09-1.402-.272a3.597 3.597 0 01-1.09-.766 3.734 3.734 0 01-.714-1.13 3.7 3.7 0 01-.247-1.35c0-.64.147-1.224.442-1.752a3.44 3.44 0 011.22-1.272c.528-.32 1.129-.48 1.804-.48.683 0 1.276.164 1.778.493.51.32.904.745 1.181 1.272a3.445 3.445 0 01.416 1.947.974.974 0 01-.013.182h-5.62c.034.441.155.835.363 1.181.216.338.493.606.83.805.338.19.702.285 1.09.285a2.32 2.32 0 001.17-.311c.371-.208.626-.48.765-.818l.986.273a2.577 2.577 0 01-.662.883c-.285.26-.627.462-1.025.61-.39.147-.813.22-1.272.22zm-2.285-3.92h4.621a2.488 2.488 0 00-.376-1.168 2.344 2.344 0 00-.83-.792 2.233 2.233 0 00-1.117-.285c-.398 0-.766.095-1.103.285a2.34 2.34 0 00-.831.792 2.578 2.578 0 00-.364 1.168zm10.252 3.842v-1.025c.225 0 .424-.056.597-.169.182-.121.342-.32.48-.597.14-.285.247-.675.325-1.168.087-.502.143-1.138.169-1.908l.078-1.96h4.608v6.775h-1.143v-5.763h-2.453l-.026 1.052c-.034.926-.112 1.696-.233 2.31-.122.614-.29 1.1-.507 1.454-.216.355-.484.61-.804.766a2.41 2.41 0 01-1.09.233zm11.982-.052v-6.775h1.143v2.31h1.687c.796 0 1.398.204 1.804.61.416.398.623.922.623 1.57 0 .434-.09.823-.272 1.17a1.918 1.918 0 01-.78.817c-.345.199-.778.298-1.297.298h-2.908zm1.143-.895h1.61c.32 0 .575-.06.765-.182.199-.13.346-.298.441-.506a1.6 1.6 0 00.143-.675c0-.234-.043-.45-.13-.65a1.043 1.043 0 00-.428-.48c-.2-.12-.472-.181-.818-.181h-1.583v2.674zm12.253 1.025c-.511 0-.978-.09-1.402-.272a3.489 3.489 0 01-1.09-.78 3.738 3.738 0 01-.714-1.128 3.7 3.7 0 01-.247-1.35c0-.64.143-1.225.428-1.753a3.244 3.244 0 011.208-1.259c.519-.32 1.12-.48 1.804-.48.666 0 1.246.151 1.739.454.502.295.874.693 1.116 1.194l-1.116.351a1.811 1.811 0 00-.727-.74 2.02 2.02 0 00-1.038-.273 2.11 2.11 0 00-1.142.325 2.306 2.306 0 00-.805.896c-.199.372-.299.8-.299 1.285 0 .476.1.908.299 1.298.207.38.48.683.818.908a2.05 2.05 0 001.142.338c.268 0 .523-.048.766-.143a2.17 2.17 0 00.649-.376 1.3 1.3 0 00.389-.533l1.116.338a2.49 2.49 0 01-.636.883c-.277.25-.61.45-.999.597a3.47 3.47 0 01-1.259.22zm9.731-.13v-5.763h-2.336v-1.012h5.815v1.012h-2.337v5.763h-1.142zm8.507 0v-6.775h3.505c.406 0 .744.082 1.012.246a1.5 1.5 0 01.597.61c.138.252.208.52.208.805 0 .364-.087.693-.26.987a1.632 1.632 0 01-.753.649c.39.112.706.316.948.61.242.285.363.64.363 1.064 0 .38-.091.705-.272.974a1.774 1.774 0 01-.766.623c-.329.138-.71.207-1.142.207h-3.44zm1.09-.804h2.324c.207 0 .393-.052.558-.156a1.117 1.117 0 00.545-.96 1.1 1.1 0 00-.143-.559.939.939 0 00-.376-.402.962.962 0 00-.545-.156h-2.363v2.233zm0-2.986h2.116a.96.96 0 00.545-.155 1.21 1.21 0 00.493-.974 1.06 1.06 0 00-.285-.74.904.904 0 00-.714-.311h-2.155v2.18zm12.837 3.92c-.511 0-.974-.09-1.389-.272a3.42 3.42 0 01-1.077-.766 3.53 3.53 0 01-.701-1.13 3.653 3.653 0 01-.247-1.336c0-.476.082-.926.247-1.35.164-.424.398-.796.701-1.117a3.165 3.165 0 011.077-.765c.424-.19.887-.286 1.389-.286.51 0 .973.095 1.389.286.415.181.774.437 1.077.765.311.32.549.693.714 1.117.164.424.246.874.246 1.35 0 .467-.082.912-.246 1.336a3.543 3.543 0 01-.701 1.13 3.41 3.41 0 01-1.09.766 3.434 3.434 0 01-1.389.272zm-2.246-3.491c0 .467.1.89.299 1.272.207.38.48.683.817.908.338.217.714.325 1.13.325.415 0 .791-.113 1.129-.338.346-.225.619-.528.818-.908.207-.39.311-.818.311-1.285a2.62 2.62 0 00-.311-1.272 2.373 2.373 0 00-.818-.909 1.992 1.992 0 00-1.129-.337 1.94 1.94 0 00-1.13.35c-.337.225-.61.528-.817.909a2.73 2.73 0 00-.299 1.285zm17.375 4.958v-2.609h.142a.868.868 0 00.52-.169c.164-.112.307-.307.428-.584.13-.285.234-.675.311-1.168.078-.493.13-1.12.156-1.882l.065-1.96h4.608v5.763h.922v2.609h-1.013V65.65h-5.127v1.597h-1.012zm1.739-2.609h3.349v-4.75h-2.453l-.039 1.05a16.078 16.078 0 01-.156 1.857c-.069.493-.165.887-.286 1.181-.112.294-.251.515-.415.662zm13.536 1.142c-.511 0-.974-.09-1.389-.272a3.42 3.42 0 01-1.077-.766 3.53 3.53 0 01-.701-1.13 3.653 3.653 0 01-.247-1.336c0-.476.082-.926.247-1.35.164-.424.398-.796.701-1.117a3.165 3.165 0 011.077-.765c.424-.19.887-.286 1.389-.286.51 0 .973.095 1.389.286.415.181.774.437 1.077.765.311.32.549.693.714 1.117.164.424.246.874.246 1.35 0 .467-.082.912-.246 1.336a3.543 3.543 0 01-.701 1.13 3.41 3.41 0 01-1.09.766 3.434 3.434 0 01-1.389.272zm-2.246-3.491c0 .467.1.89.299 1.272.207.38.48.683.817.908.338.217.714.325 1.13.325.415 0 .791-.113 1.129-.338.346-.225.619-.528.818-.908.207-.39.311-.818.311-1.285a2.62 2.62 0 00-.311-1.272 2.373 2.373 0 00-.818-.909 1.992 1.992 0 00-1.129-.337 1.94 1.94 0 00-1.13.35c-.337.225-.61.528-.817.909a2.73 2.73 0 00-.299 1.285zM174.4 65.65v-6.775h1.182l2.518 4.439 2.531-4.44h1.155v6.776h-1.09v-5.127l-2.233 3.92h-.727l-2.245-3.92v5.127H174.4zm16.082.13c-.51 0-.973-.09-1.389-.272a3.442 3.442 0 01-1.077-.766 3.53 3.53 0 01-.701-1.13 3.674 3.674 0 01-.247-1.336c0-.476.083-.926.247-1.35.164-.424.398-.796.701-1.117a3.185 3.185 0 011.077-.765c.424-.19.887-.286 1.389-.286.511 0 .974.095 1.389.286.415.181.774.437 1.077.765.312.32.55.693.714 1.117.165.424.247.874.247 1.35 0 .467-.082.912-.247 1.336a3.53 3.53 0 01-.701 1.13 3.41 3.41 0 01-1.09.766 3.428 3.428 0 01-1.389.272zm-2.245-3.491c0 .467.099.89.298 1.272.208.38.48.683.818.908.337.217.714.325 1.129.325a1.99 1.99 0 001.129-.338 2.37 2.37 0 00.818-.908c.208-.39.312-.818.312-1.285 0-.468-.104-.892-.312-1.272a2.366 2.366 0 00-.818-.909 1.99 1.99 0 00-1.129-.337c-.415 0-.792.116-1.129.35-.338.225-.61.528-.818.909a2.73 2.73 0 00-.298 1.285zm10.937 3.361v-6.775h3.505c.406 0 .744.082 1.012.246a1.5 1.5 0 01.597.61c.138.252.208.52.208.805 0 .364-.087.693-.26.987a1.632 1.632 0 01-.753.649c.39.112.706.316.948.61.242.285.363.64.363 1.064 0 .38-.091.705-.272.974a1.774 1.774 0 01-.766.623c-.329.138-.71.207-1.142.207h-3.44zm1.09-.804h2.324c.207 0 .393-.052.558-.156a1.117 1.117 0 00.545-.96 1.1 1.1 0 00-.143-.559.939.939 0 00-.376-.402.962.962 0 00-.545-.156h-2.363v2.233zm0-2.986h2.116a.96.96 0 00.545-.155 1.21 1.21 0 00.493-.974 1.06 1.06 0 00-.285-.74.904.904 0 00-.714-.311h-2.155v2.18zm17.041 3.79v-6.762h1.143v5.23l3.79-5.243h1.038v6.775h-1.142v-5.127l-3.738 5.127h-1.091zm13.806.091c-.658 0-1.216-.12-1.675-.363a2.603 2.603 0 01-1.038-1.039l.935-.415c.155.277.376.493.662.65.294.155.649.233 1.064.233.493 0 .883-.109 1.168-.325.286-.216.428-.506.428-.87a.986.986 0 00-.35-.791c-.225-.208-.545-.316-.96-.325h-.688v-.753h.726a.89.89 0 00.481-.13.944.944 0 00.337-.376c.087-.156.13-.329.13-.519a.9.9 0 00-.325-.727c-.216-.19-.54-.285-.973-.285-.355 0-.653.069-.896.207a1.544 1.544 0 00-.571.623l-.869-.467c.216-.407.527-.723.934-.948.416-.233.9-.35 1.454-.35.441 0 .831.074 1.168.22.346.14.614.343.805.61.199.269.298.593.298.974 0 .32-.077.619-.233.896a1.42 1.42 0 01-.662.61c.406.121.718.333.934.636.217.294.325.645.325 1.051 0 .416-.113.77-.338 1.065a2.12 2.12 0 01-.921.675c-.39.155-.84.233-1.35.233zm18.245.04c-1.116 0-1.96-.338-2.531-1.013-.571-.675-.857-1.627-.857-2.856 0-.84.07-1.544.208-2.116.139-.58.346-1.055.623-1.427a3.269 3.269 0 011.026-.922 6.097 6.097 0 011.401-.597l2.869-.87.065.987-2.791.843a4.052 4.052 0 00-1.194.598 2.5 2.5 0 00-.753.934c-.182.38-.303.87-.363 1.467a2.406 2.406 0 011.012-1.064c.45-.26.974-.39 1.571-.39.64 0 1.19.134 1.648.403.467.26.822.627 1.065 1.103.251.467.376 1.008.376 1.622 0 .658-.13 1.233-.389 1.727-.26.493-.641.878-1.143 1.155s-1.116.415-1.843.415zm0-.987c.701 0 1.242-.204 1.623-.61.389-.416.584-.965.584-1.649 0-.666-.191-1.207-.571-1.622-.381-.416-.926-.623-1.636-.623-.415 0-.792.086-1.129.26a1.978 1.978 0 00-.792.765c-.19.329-.285.736-.285 1.22 0 .433.082.822.246 1.168.173.338.424.606.753.805.329.19.731.286 1.207.286zm12.309.986a2.687 2.687 0 01-1.48-.415 3.127 3.127 0 01-1.025-1.051v4.101h-1.143v-9.54h1.013v1.272a3.064 3.064 0 011.051-1c.433-.26.905-.389 1.415-.389.467 0 .896.095 1.285.286.39.19.727.45 1.013.778.285.33.506.706.662 1.13.164.415.246.852.246 1.31 0 .641-.13 1.23-.389 1.766a3.17 3.17 0 01-1.065 1.285 2.748 2.748 0 01-1.583.467zm-.351-.986c.338 0 .641-.07.909-.208.277-.147.511-.337.701-.571a2.61 2.61 0 00.454-.818c.104-.303.156-.614.156-.934 0-.338-.061-.658-.182-.96a2.4 2.4 0 00-.493-.806 2.192 2.192 0 00-.74-.545 2.003 2.003 0 00-1.557-.09c-.217.077-.424.19-.623.337a2.23 2.23 0 00-.507.48 1.443 1.443 0 00-.272.584v1.934c.13.294.303.563.519.805.216.242.467.437.753.584.285.139.58.208.882.208zm9.3 3.699c-.147 0-.298-.022-.454-.065a2.23 2.23 0 01-.454-.195l.389-.778a.908.908 0 00.221.09.693.693 0 00.22.04c.208 0 .403-.1.584-.3.191-.19.368-.484.533-.882l.324-.818-2.972-6.71h1.207l2.284 5.62 2.064-5.62h1.129l-3.167 7.879a3.84 3.84 0 01-.532.96c-.199.26-.415.454-.649.584-.234.13-.476.195-.727.195zm12.881-2.713c-.511 0-.978-.09-1.402-.272a3.489 3.489 0 01-1.09-.78 3.731 3.731 0 01-.714-1.128 3.71 3.71 0 01-.247-1.35c0-.64.143-1.225.429-1.753a3.242 3.242 0 011.207-1.259c.519-.32 1.12-.48 1.804-.48.666 0 1.246.151 1.739.454.502.295.874.693 1.117 1.194l-1.117.351a1.811 1.811 0 00-.727-.74 2.02 2.02 0 00-1.038-.273c-.415 0-.796.109-1.142.325a2.306 2.306 0 00-.805.896c-.199.372-.298.8-.298 1.285 0 .476.099.908.298 1.298.208.38.48.683.818.908.346.225.727.338 1.142.338.268 0 .524-.048.766-.143a2.17 2.17 0 00.649-.376 1.3 1.3 0 00.389-.533l1.117.338a2.502 2.502 0 01-.637.883c-.276.25-.61.45-.999.597-.381.147-.8.22-1.259.22zm7.551-2.09c0-.432.121-.804.363-1.116.251-.32.593-.567 1.025-.74.433-.173.935-.26 1.506-.26.303 0 .623.027.961.079.337.043.636.112.895.207v-.493c0-.52-.156-.926-.467-1.22-.312-.303-.753-.454-1.324-.454-.372 0-.731.069-1.077.207-.338.13-.697.32-1.078.571l-.415-.804a5.326 5.326 0 011.324-.675c.441-.156.9-.234 1.376-.234.865 0 1.549.242 2.051.727.502.476.752 1.142.752 1.999v2.868c0 .139.026.243.078.312.061.06.156.095.286.104v.882c-.113.018-.212.03-.299.04a1.798 1.798 0 01-.194.012c-.269 0-.472-.073-.61-.22a.832.832 0 01-.221-.468l-.026-.428c-.294.38-.679.675-1.155.883a3.518 3.518 0 01-1.415.311c-.45 0-.852-.09-1.207-.272a2.19 2.19 0 01-.831-.753 1.976 1.976 0 01-.298-1.065zm4.413.48c.104-.12.186-.242.246-.363a.8.8 0 00.091-.324v-.844a4.489 4.489 0 00-.843-.234 4.316 4.316 0 00-.87-.09c-.58 0-1.052.116-1.415.35-.355.225-.532.537-.532.935 0 .216.056.428.169.636.121.199.294.363.519.493.233.13.519.195.856.195.355 0 .693-.07 1.013-.208.32-.147.575-.329.766-.545z"/></g><defs><clipPath id="clip0_513_2485"><path fill="#fff" d="M0 0h302v71.822H0z"/></clipPath></defs></svg>