<svg width="24" height="24" fill="none" xmlns="http://www.w3.org/2000/svg"><path d="M11.535 12.135a.75.75 0 00.945 0l6.968-6A2.25 2.25 0 0018.75 6H5.25a2.25 2.25 0 00-.697.12l6.982 6.015zM21 8.25a2.25 2.25 0 00-.346-1.185l-6.09 5.25 6.21 5.16A2.25 2.25 0 0021 16.5V8.25zM3.345 7.065A2.25 2.25 0 003 8.25v8.25c.002.335.079.666.225.967l6.21-5.16-6.09-5.242zm10.065 6.232A2.25 2.25 0 0112 13.8a2.25 2.25 0 01-1.41-.503l-6.3 5.25c.3.138.628.207.96.203h13.5c.332-.003.66-.08.96-.225l-6.3-5.227z" fill="#FFDF8B"/></svg>