<svg width="48" height="48" fill="none" xmlns="http://www.w3.org/2000/svg"><g clip-path="url(#clip0_1908_7510)"><path d="M36.865 30.677c-1.73 0-3.354-.419-4.586-1.172-.026-.028-.052-.14-.052-.223-.026-.112-.052-.167-.052-.195h.026c.026-.028.052-.028.078-.056 1.468-.92 3.04-1.367 4.638-1.367 1.467 0 2.987.39 4.533 1.144.026.028.078.028.105.056 0 0 .026 0 .026.027-.027.056-.027.14-.053.307-.026.112-.026.28-.052.307-1.258.753-2.882 1.172-4.611 1.172z" fill="#fff"/><path d="M36.89 27.692c1.468 0 2.962.39 4.507 1.144.026.028.053.028.079.056-.026.055-.026.139-.053.278a.872.872 0 01-.052.28c-1.205.753-2.83 1.143-4.533 1.143-1.729 0-3.327-.418-4.559-1.144-.026-.027-.026-.14-.052-.195-.026-.084-.026-.14-.052-.167.026 0 .026-.028.052-.028 1.494-.893 3.066-1.367 4.664-1.367zm0-.084c-1.729 0-3.274.53-4.663 1.395-.052.028-.079.056-.131.084.052.028.105.446.157.474 1.284.781 2.935 1.172 4.612 1.172 1.676 0 3.327-.391 4.61-1.172.053-.028.08-.642.132-.67-.053-.027-.105-.083-.157-.111-1.65-.81-3.144-1.172-4.56-1.172z" fill="#3B3938"/><path d="M35.423 23.145c.21-.028.446-.056.682-.084.21-.028.445-.028.681-.028v4.52c-.236 0-.472 0-.681.027-.236.028-.446.056-.681.084v-4.519z" fill="#3B3938"/><path d="M36.76 23.09v4.407c-.21 0-.42 0-.63.028-.209.027-.418.027-.628.055V23.2l.629-.083c.183 0 .393-.028.629-.028zm.052-.084a6 6 0 00-.707.027l-.734.084v4.603c.236-.028.472-.056.734-.084.236-.028.471-.028.707-.028h.026l-.026-4.602c.026 0 0 0 0 0z" fill="#FFDF8B"/><path d="M33.983 23.508c.21-.084.445-.14.68-.196a4.95 4.95 0 01.682-.14v4.492a4.964 4.964 0 00-.681.14 6.246 6.246 0 00-.681.195v-4.491z" fill="#3B3938"/><path d="M35.292 23.229v4.407a5.41 5.41 0 00-.654.14c-.21.055-.42.111-.603.167v-4.408c.21-.083.42-.139.655-.195.183-.056.393-.084.602-.111zm.105-.112a6.81 6.81 0 00-.733.14 7.074 7.074 0 00-.734.223v4.602c.236-.083.472-.167.734-.223.236-.056.471-.111.733-.14v-4.602z" fill="#FFDF8B"/><path d="M31.677 29.45c-.236 0-.577-1.34-.655-2.427-.026-.893.183-1.479.786-2.176a4.91 4.91 0 01.655-.586v4.519c-.262.195-.524.39-.708.614a.34.34 0 00-.078.055z" fill="#3B3938"/><path d="M32.41 24.372v4.38a5.23 5.23 0 00-.707.614l-.026.028c-.184 0-.498-1.172-.603-2.371-.026-.865.184-1.479.786-2.12.131-.196.34-.363.55-.53zm.079-.167a4.362 4.362 0 00-.734.642c-.602.67-.838 1.31-.812 2.203.079.949.393 2.455.708 2.455.026 0 .078-.028.104-.056.21-.223.446-.446.734-.641v-4.603z" fill="#FFDF8B"/><path d="M32.541 24.233c.079-.056.131-.084.21-.14.157-.083.315-.195.472-.279.21-.111.419-.195.655-.279v4.52c-.236.083-.472.195-.708.306-.183.084-.34.168-.498.28-.052.027-.104.083-.157.111v-4.52h.026z" fill="#3B3938"/><path d="M33.852 23.591V28c-.236.084-.472.195-.682.279a2.97 2.97 0 00-.498.279c-.026.028-.078.056-.104.056V24.26c.052-.056.13-.084.183-.112l.472-.25c.21-.14.419-.224.629-.308zm.078-.111a5.885 5.885 0 00-.733.307c-.158.083-.341.167-.498.279l-.236.167v4.603l.236-.168c.157-.083.314-.195.498-.279.235-.111.471-.223.733-.306V23.48zm4.323 4.184c-.236-.028-.445-.056-.681-.084-.236-.027-.445-.027-.681-.027v-4.52c.236 0 .445 0 .681.028.236.028.472.056.681.084v4.52z" fill="#FFDF8B"/><path d="M36.917 23.09c.21 0 .42 0 .629.027l.629.084v4.407l-.63-.083c-.209-.028-.418-.028-.628-.028v-4.408zm-.079-.084v4.602c.236 0 .472 0 .734.028l.734.084v-4.603a61.503 61.503 0 00-.734-.084c-.262-.027-.498-.027-.734-.027z" fill="#3B3938"/><path d="M39.59 27.999a16.427 16.427 0 00-.577-.168c-.236-.055-.445-.111-.681-.139v-4.52c.236.029.445.084.681.14.21.056.393.112.577.168v4.519z" fill="#FFDF8B"/><path d="M38.384 23.229c.21.027.42.083.603.14l.55.166v4.408a3.32 3.32 0 00-.498-.14c-.21-.055-.419-.111-.655-.139V23.23zm-.105-.112v4.603c.236.028.498.084.734.14.21.055.42.11.629.195v-4.603c-.21-.056-.42-.14-.629-.196-.236-.055-.472-.111-.734-.139z" fill="#3B3938"/><path d="M42.576 30.51c-.105-.391-.34-.754-.629-1.088a3.836 3.836 0 00-.707-.614v-4.491l.079.055c.21.14.393.28.576.419 1.258 1.116.917 4.407.681 5.718z" fill="#FFDF8B"/><path d="M41.266 24.4c.21.14.393.28.577.447 1.205 1.06.943 4.1.707 5.495a3.268 3.268 0 00-.576-.948 3.266 3.266 0 00-.708-.614V24.4zm-.078-.195v4.603c.288.195.524.418.733.641.34.39.577.81.681 1.256.158-.753.787-4.659-.68-5.97-.236-.167-.446-.307-.734-.53z" fill="#3B3938"/><path d="M41.135 28.724c-.052-.056-.13-.084-.183-.14l-.472-.25a4.19 4.19 0 00-.812-.335v-4.491c.262.083.524.195.76.334.157.084.314.168.445.251l.236.168v4.463h.026z" fill="#FFDF8B"/><path d="M39.72 23.591c.236.084.472.196.708.307.183.084.314.168.445.251.079.056.158.084.21.14v4.38c-.052-.029-.079-.056-.131-.084a3.839 3.839 0 00-.472-.251l-.786-.335V23.59h.026zm-.078-.14v4.604c.288.111.576.223.838.334l.472.251c.105.056.183.112.262.168v-4.603c-.079-.056-.183-.112-.262-.167l-.472-.251a5.248 5.248 0 00-.838-.335zm-2.044 7.17c.236-.028.446-.028.681-.084.236-.028.446-.083.682-.111v5.021a5.774 5.774 0 01-.682.112c-.21.028-.445.055-.68.083v-5.021z" fill="#3B3938"/><path d="M38.908 30.482v4.91a4.62 4.62 0 01-.655.11 4.61 4.61 0 01-.629.057v-4.91c.21-.028.446-.028.655-.056.236-.028.446-.084.63-.111zm.105-.112c-.236.056-.472.084-.734.14-.235.027-.471.055-.733.083v5.105c.236-.028.498-.028.733-.084.236-.027.498-.083.734-.14V30.37z" fill="#FFDF8B"/><path d="M41.947 29.142a4.25 4.25 0 00.708-.669 3.35 3.35 0 00.655-1.2v4.436c0 .614-.236 1.227-.707 1.785a3.639 3.639 0 01-.656.614v-4.965z" fill="#3B3938"/><path d="M43.258 27.552v4.157c0 .614-.236 1.2-.682 1.757-.157.196-.34.39-.576.558v-4.882a4.11 4.11 0 00.707-.669 3.67 3.67 0 00.55-.92zm.104-.976c0 .642-.235 1.255-.733 1.841-.21.251-.446.474-.734.67v5.105c.288-.224.524-.447.734-.698.471-.558.707-1.2.707-1.813l.026-5.105z" fill="#FFDF8B"/><path d="M39.066 30.398c.21-.056.419-.084.602-.168.262-.083.498-.167.734-.25v4.993c-.236.111-.498.195-.76.279a4.328 4.328 0 01-.577.14v-4.994z" fill="#3B3938"/><path d="M40.376 30.063v4.91c-.236.084-.498.195-.734.25-.157.057-.34.084-.524.14v-4.91c.21-.055.393-.083.576-.139.21-.084.446-.167.681-.25zm.078-.14a7.05 7.05 0 01-.812.28c-.21.055-.42.111-.655.167v5.105c.21-.056.445-.112.655-.168.288-.083.55-.167.812-.278v-5.105z" fill="#FFDF8B"/><path d="M40.507 29.951l.707-.334c.105-.056.183-.112.288-.168.131-.083.262-.167.367-.25v4.993c-.131.111-.288.195-.446.306a1.196 1.196 0 01-.262.14 4.8 4.8 0 01-.654.307V29.95z" fill="#3B3938"/><path d="M41.817 29.282v4.882a2.243 2.243 0 01-.42.279 1.196 1.196 0 01-.262.14 4.052 4.052 0 01-.602.278v-4.91c.236-.111.471-.195.68-.334.106-.056.184-.112.29-.168a.865.865 0 00.314-.167zm.078-.167c-.13.111-.288.195-.445.307a2.809 2.809 0 01-.289.167c-.235.14-.471.25-.733.335v5.105c.262-.112.498-.224.733-.335.08-.056.184-.112.262-.168.158-.111.315-.195.472-.306v-5.105z" fill="#FFDF8B"/><path d="M43.179 27.134v4.575c0 .586-.236 1.172-.655 1.702a5.52 5.52 0 01-.681.67 2.578 2.578 0 01-.446.306 1.196 1.196 0 01-.262.14c-.21.111-.471.223-.707.334-.262.112-.524.195-.786.28l-.629.166c-.236.056-.472.084-.707.14l-.708.084-.995-.112.026-4.826 1.1-.084c1.415-.111 2.882-.697 4.297-1.785l.052-.056c.027 0 .027-.028.027-.028l1.074-1.506zm.183-.558l-1.415 1.87-.052.055c-1.258.948-2.672 1.618-4.192 1.757l-1.258.084-.026 5.16 1.18.14c.235-.028.497-.028.733-.083.236-.028.498-.084.733-.14.21-.056.446-.111.656-.167.288-.084.55-.168.812-.28.262-.11.498-.222.733-.334.079-.056.184-.112.262-.167.157-.112.315-.196.472-.307a4.63 4.63 0 00.734-.698c.471-.558.707-1.2.707-1.813l-.079-5.077z" fill="#3B3938"/><path d="M34.611 35.42c-.235-.057-.445-.113-.655-.168a20.808 20.808 0 01-.68-.251v-5.022c.209.084.444.168.654.224.21.055.446.14.681.195v5.021z" fill="#FFDF8B"/><path d="M33.301 30.035c.21.084.393.14.603.223.21.056.445.112.655.168v4.91c-.21-.056-.42-.112-.603-.168-.236-.056-.445-.14-.655-.223v-4.91zm-.078-.14v5.106c.236.083.471.195.733.25.236.084.472.14.734.196v-5.105c-.236-.056-.498-.111-.734-.195a3.284 3.284 0 01-.733-.251z" fill="#3B3938"/><path d="M36.078 35.614c-.235-.027-.445-.027-.68-.083-.237-.028-.472-.084-.682-.112v-5.021c.21.056.445.084.681.111.236.028.446.056.681.084v5.021z" fill="#FFDF8B"/><path d="M34.742 30.482c.21.055.42.083.63.111.209.028.418.056.654.084v4.91c-.21-.028-.42-.028-.629-.056-.21-.028-.445-.056-.655-.112v-4.937zm-.078-.14v5.133c.236.056.471.084.733.14.236.027.472.055.734.083v-5.105l-.734-.084c-.262-.055-.497-.111-.733-.167z" fill="#3B3938"/><path d="M31.73 34.158h.138l-.107-.089a.478.478 0 00-.008-.006v-5.001l-.02-.015a4.096 4.096 0 01-.699-.662h0c-.311-.359-.542-.77-.645-1.18l-.098.013v4.435c0 .656.267 1.308.745 1.873.175.213.396.4.617.584v.048h.076z" fill="#3B3938" stroke="#3B3938" stroke-width=".1"/><path d="M30.42 27.497c.13.334.314.641.576.948.21.223.445.474.707.67v4.881a5.419 5.419 0 01-.576-.558c-.472-.557-.708-1.171-.708-1.785v-4.156zm-.106-.949v5.105c0 .642.236 1.283.734 1.87.21.25.445.473.734.669v-5.105a4.607 4.607 0 01-.734-.698c-.498-.558-.734-1.2-.734-1.84z" fill="#3B3938"/><path d="M33.17 34.945a4.796 4.796 0 01-.655-.307 1.196 1.196 0 00-.262-.14 2.584 2.584 0 01-.445-.306V29.17c.13.083.262.195.419.278.079.056.157.112.262.14.21.112.445.251.708.335v5.02h-.027z" fill="#FFDF8B"/><path d="M31.86 29.254c.105.084.236.168.34.223.08.056.158.112.263.14.21.111.445.223.681.334v4.91c-.21-.083-.393-.195-.603-.279-.078-.056-.183-.084-.262-.14-.157-.083-.288-.194-.419-.278v-4.91zm-.105-.167v5.133c.158.111.289.223.472.306.079.056.183.112.262.14.236.14.472.251.734.335v-5.105a6.087 6.087 0 01-.734-.363c-.079-.056-.157-.084-.236-.14-.183-.083-.34-.195-.498-.306z" fill="#3B3938"/><path d="M36.838 35.642c-.235 0-.445 0-.68-.028v-5.02c.235.027.445.027.68.027.236 0 .472 0 .682-.028v5.021a5.556 5.556 0 01-.682.028z" fill="#FFDF8B"/><path d="M36.21 30.649c.21 0 .419.028.628.028h.027c.21 0 .419 0 .602-.028v4.91c-.21 0-.419.028-.629.028-.21 0-.419 0-.628-.028v-4.91zm-.105-.084v5.105c.236.028.471.028.733.028.236 0 .472 0 .708-.028v-5.105c-.236.028-.472.028-.708.028h-.026c-.21 0-.471-.028-.707-.028z" fill="#3B3938"/><path d="M41.423 23.73c-2.541-1.561-6.68-1.561-9.222 0-2.542 1.563-2.515 4.101.026 5.692 2.542 1.562 6.681 1.562 9.223 0 2.541-1.59 2.541-4.13-.027-5.691zm-.471 5.357c-2.253 1.395-5.921 1.395-8.201 0-2.28-1.395-2.28-3.655-.026-5.05 2.253-1.394 5.921-1.394 8.2 0 2.254 1.395 2.28 3.655.027 5.05z" fill="#fff"/><path d="M32.2 29.492h.001c1.293.787 2.98 1.179 4.664 1.179 1.683 0 3.37-.392 4.637-1.179 1.241-.76 1.937-1.805 1.937-2.916 0-1.139-.696-2.157-1.963-2.944h0c-1.28-.787-2.967-1.179-4.65-1.179-1.684 0-3.37.392-4.651 1.18-1.241.758-1.937 1.805-1.937 2.915 0 1.14.696 2.157 1.963 2.944zm.106-.169h0c-1.223-.748-1.89-1.738-1.89-2.775s.641-2 1.837-2.747c1.248-.775 2.915-1.164 4.56-1.164 1.67 0 3.31.39 4.558 1.164h0c1.223.748 1.889 1.739 1.889 2.775 0 1.037-.64 2-1.837 2.747-1.248.775-2.895 1.164-4.549 1.164-1.653 0-3.307-.389-4.568-1.164zm.393-5.384h0c-1.11.703-1.727 1.61-1.727 2.61 0 .999.617 1.905 1.753 2.608 1.136.703 2.639 1.068 4.14 1.068 1.5 0 2.977-.337 4.14-1.068h0c1.109-.703 1.726-1.61 1.726-2.609 0-1-.617-1.906-1.753-2.609h0c-1.15-.703-2.652-1.053-4.15-1.053-1.497 0-2.993.35-4.13 1.053zm.079.169h0c1.09-.691 2.573-1.025 4.034-1.025 1.486 0 2.944.361 4.062 1.025 1.065.665 1.652 1.515 1.652 2.44 0 .926-.562 1.777-1.627 2.44-1.117.692-2.58 1.04-4.047 1.04-1.467 0-2.931-.348-4.048-1.04-1.066-.664-1.654-1.515-1.654-2.44s.562-1.776 1.628-2.44z" fill="#3B3938" stroke="#3B3938" stroke-width=".1"/><path d="M30.317 29.589h0v.001c.026 1.054.695 2.072 1.936 2.831 1.241.759 2.875 1.18 4.612 1.18 1.736 0 3.37-.421 4.61-1.18h.001c1.214-.759 1.884-1.749 1.884-2.832v-.586l-.098-.014c-.232.822-.85 1.566-1.813 2.175-1.222.748-2.837 1.164-4.584 1.164-1.749 0-3.39-.416-4.612-1.164h0c-.988-.581-1.607-1.353-1.838-2.175l-.098.014v.586z" fill="#3B3938" stroke="#3B3938" stroke-width=".1"/><path d="M30.42 29.282c.287.753.89 1.423 1.78 1.98 1.258.782 2.91 1.2 4.665 1.2s3.406-.418 4.637-1.2c.865-.53 1.467-1.199 1.756-1.952v.279c0 1.032-.655 2.008-1.86 2.761-1.206.754-2.83 1.172-4.56 1.172-1.729 0-3.353-.418-4.559-1.172-1.205-.753-1.86-1.729-1.886-2.761v-.307h.026zm-.106-.948v1.255c0 1.032.655 2.064 1.913 2.845 1.284.781 2.934 1.172 4.611 1.172 1.677 0 3.328-.39 4.612-1.172 1.257-.78 1.886-1.813 1.886-2.845v-1.227c0 1.032-.629 2.036-1.886 2.817-1.258.781-2.935 1.171-4.612 1.171s-3.327-.39-4.611-1.171c-1.258-.81-1.913-1.841-1.913-2.845z" fill="#3B3938"/><path d="M41.057 34.722v-6.026L42.21 12.74c.104-.307.235-.558.393-.725a1.09 1.09 0 01.812-.335c.367 0 .733.167.97.446 2.017 2.427 2.436 4.352 2.515 4.854-.944-.837-1.703-1.255-2.28-1.255-.865 0-.996.976-.996.976v11.437l-1.467 7.281-1.1-.697zm2.463-21.647c-.184 0-.289.14-.289.334 0 .307.236.698.498.865a.56.56 0 00.262.084c.184 0 .288-.14.288-.335 0-.307-.235-.697-.497-.865a.483.483 0 00-.262-.083z" fill="#FFDF8B"/><path d="M44.292 12.184h0l.001.002c1.728 2.073 2.276 3.781 2.447 4.518a6.727 6.727 0 00-1.127-.8c-.377-.204-.72-.313-1.02-.313-.48 0-.757.265-.91.53a1.544 1.544 0 00-.187.552v11.432l-1.452 7.15-.911-.561v-5.968l1.152-15.948c.102-.298.23-.514.382-.703.199-.211.473-.317.748-.317.326 0 .678.16.877.426zm2.686 4.88l.05-.005h0v-.007l-.003-.019a4.377 4.377 0 00-.064-.36 7.535 7.535 0 00-.323-1.057c-.342-.897-.98-2.15-2.163-3.577h0l-.002-.003c-.296-.315-.676-.49-1.058-.49-.328 0-.63.117-.875.379a2 2 0 00-.43.772h-.002v.011l-1.153 15.985h0v6.057a.05.05 0 00.023.042l1.153.698a.05.05 0 00.075-.033l1.494-7.364h0V16.649l.002-.006a.854.854 0 01.03-.128c.025-.083.066-.194.132-.304a.84.84 0 01.756-.436c.478 0 1.2.323 2.325 1.326a.05.05 0 00.083-.041l-.05.004zm-3.119-3.977h0-.002a.699.699 0 00-.311-.09.366.366 0 00-.287.129.478.478 0 00-.104.311c0 .179.063.369.161.535.098.166.235.312.388.401h0l.002.001a.62.62 0 00.311.09c.12 0 .219-.049.287-.13a.477.477 0 00.104-.31 1.08 1.08 0 00-.16-.535 1.132 1.132 0 00-.389-.402zm-.048 1.09h0-.002a1.135 1.135 0 01-.332-.348.839.839 0 01-.143-.42.31.31 0 01.057-.195.161.161 0 01.129-.062c.066 0 .134.024.206.075h0l.002.001c.124.08.244.206.332.347a.838.838 0 01.143.42c0 .105-.024.168-.056.204a.163.163 0 01-.13.053.356.356 0 01-.206-.074z" fill="#3B3938" stroke="#3B3938" stroke-width=".1" stroke-linejoin="round"/><path d="M43.65 16.673V28.11l-1.493 7.365 1.048-.642L44.7 27.47V16.032s.026-.112.078-.28c-.995-.111-1.126.921-1.126.921z" fill="#3B3938"/><path d="M46.955 17.015l.01.078.067-.043.943-.614.026-.017-.004-.03c-.027-.26-.371-2.334-2.552-4.964h0c-.245-.29-.572-.465-.956-.465-.215 0-.404.057-.59.168h-.053l-.012.007-.681.418.043.09a.717.717 0 01.245-.025c.379 0 .73.161.956.455h0l.001.001c2.116 2.559 2.505 4.559 2.557 4.94z" fill="#3B3938" stroke="#3B3938" stroke-width=".1"/><path d="M44.49 11.066c.34 0 .654.167.89.419 2.096 2.538 2.463 4.519 2.515 4.881l-.864.53c-.08-.53-.524-2.455-2.568-4.91-.262-.306-.629-.501-1.022-.501h-.052l.471-.28.026.028.053-.027c.157-.084.34-.14.55-.14zm0-.084c-.21 0-.42.056-.604.168l-.026-.028-1.048.642.026.027a1.16 1.16 0 01.603-.167c.34 0 .707.167.97.446 2.358 2.846 2.54 4.994 2.54 4.994L48 16.422s-.183-2.148-2.541-4.993c-.263-.28-.603-.447-.97-.447z" fill="#3B3938"/><path d="M3.956 11.094c-.183 0-.367-.167-.367-.39v-2.65c0-1.395.708-2.706 1.835-3.404l3.903-2.399c.21-.14.472-.195.708-.195a1.5 1.5 0 01.707.195c.524.28.786.781.786 1.34v2.705c0 .195-.157.39-.367.39s-.366-.167-.366-.39V3.59a.76.76 0 00-.367-.67c-.079-.083-.21-.111-.34-.111a.575.575 0 00-.368.112L5.817 5.32c-.918.558-1.494 1.618-1.494 2.733v2.65c0 .224-.157.391-.367.391z" fill="#fff"/><path d="M10.823 2.182a1.25 1.25 0 00-.736-.232c-.273 0-.518.088-.759.23h0l-3.93 2.4c-1.17.707-1.885 2.063-1.885 3.473v2.65c0 .248.203.469.443.469s.443-.22.443-.469v-2.65c0-1.1.542-2.115 1.444-2.663h0l3.902-2.398a.77.77 0 01.316-.105c.097 0 .216.026.31.1h0l.003.003c.196.13.318.338.318.6v2.706c0 .248.203.468.443.468s.443-.22.443-.468V3.59c0-.602-.296-1.12-.755-1.408zm-.736.521a.756.756 0 00-.42.12L5.739 5.22h0c-.959.596-1.544 1.672-1.544 2.832v2.65c0 .171-.111.285-.264.285-.153 0-.264-.114-.264-.284v-2.65c0-1.379.699-2.645 1.81-3.305h0L9.379 2.35c.258-.137.485-.216.708-.216.227 0 .454.053.682.188.43.27.683.727.683 1.24v2.706c0 .17-.111.285-.264.285-.153 0-.265-.114-.265-.285V3.59a.93.93 0 00-.414-.766h0l-.002-.001a.755.755 0 00-.42-.12z" fill="#3B3938" stroke="#3B3938" stroke-width=".1"/><path d="M17.476 20.83a22.44 22.44 0 001.362-.14c.446-.056.891-.14 1.337-.223V36.73c-.446.084-.891.168-1.363.251-.445.056-.89.112-1.336.14V20.83z" fill="#FFDF8B"/><path d="M20.07 20.579v16.068c-.42.083-.839.167-1.284.223-.393.055-.812.111-1.232.14V20.94c.42-.028.865-.083 1.284-.14.42-.055.839-.139 1.232-.222zm.183-.224c-.471.112-.943.196-1.44.252-.473.055-.944.111-1.442.139v16.458c.472-.028.97-.083 1.441-.14.472-.055.97-.139 1.441-.25V20.355zm8.384-5.551l-.026 14.562c0 1.2-.471 2.399-1.362 3.459a8.81 8.81 0 01-1.1 1.116V17.984c.523-.418.995-.865 1.388-1.31.498-.614.865-1.228 1.1-1.87zm.184-1.897c0 1.255-.472 2.483-1.415 3.627-.393.474-.865.92-1.441 1.339V34.33a8.87 8.87 0 001.441-1.367c.943-1.116 1.389-2.343 1.415-3.598V12.907zm-8.463 7.533c.42-.085.812-.196 1.205-.308.498-.14.996-.307 1.468-.502v16.263c-.498.196-.996.39-1.52.53-.367.112-.76.224-1.153.307V20.44z" fill="#FFDF8B"/><path d="M22.926 19.742v16.04c-.472.195-.97.362-1.441.502-.341.111-.682.195-1.048.279v-16.04c.393-.084.786-.195 1.152-.307.446-.14.891-.279 1.337-.474zm.183-.251c-.524.223-1.048.39-1.598.558-.42.111-.839.223-1.284.334v16.459c.42-.084.865-.195 1.284-.335.55-.167 1.074-.335 1.598-.558V19.491zm.105.055c.472-.195.943-.418 1.389-.67.183-.11.366-.194.55-.306.262-.167.498-.335.733-.502v16.207c-.262.196-.55.419-.864.586-.157.112-.34.195-.524.307-.42.223-.839.446-1.31.642V19.546h.026z" fill="#FFDF8B"/><path d="M28.664 13.52l-.027 15.874c0 1.2-.471 2.399-1.362 3.459-.393.474-.865.92-1.389 1.339-.288.223-.576.418-.89.613-.158.084-.315.196-.524.307-.446.251-.918.474-1.415.67-.498.223-1.048.39-1.572.558-.393.111-.813.223-1.258.334-.472.112-.943.196-1.415.251-.472.056-.943.112-1.389.14l-2.148-.251.079-16.96 11.318-3.376c.053 0 .079-.028.105-.084l1.887-2.873zm.157-.613l-2.227 3.348-11.45 3.403-.079 17.295 2.332.28c.472-.029.97-.084 1.441-.14.472-.056.97-.14 1.441-.251.42-.084.865-.195 1.284-.335.55-.167 1.075-.335 1.599-.558.497-.195.969-.446 1.44-.697.184-.112.341-.196.525-.307.314-.195.628-.419.917-.614a8.861 8.861 0 001.44-1.367c.944-1.116 1.39-2.343 1.415-3.598l-.078-16.459z" fill="#3B3938"/><path d="M11.58 36.702c-.445-.111-.89-.223-1.31-.334a20.01 20.01 0 01-1.362-.475v-16.29c.42.167.865.334 1.31.473.446.14.891.252 1.363.363v16.263z" fill="#FFDF8B"/><path d="M9.013 19.742c.393.14.786.306 1.205.418.42.14.865.251 1.31.335v16.068c-.419-.084-.812-.196-1.205-.307-.445-.14-.89-.279-1.31-.446V19.742zm-.183-.28V35.95c.471.195.943.363 1.44.502.472.14.944.28 1.442.363v-16.46c-.498-.111-.97-.223-1.441-.362-.524-.168-.996-.363-1.441-.53z" fill="#3B3938"/><path d="M14.437 37.12c-.446-.027-.891-.083-1.337-.139-.445-.056-.917-.14-1.362-.25V20.466c.445.084.89.167 1.336.223.446.056.891.112 1.363.14v16.29z" fill="#FFDF8B"/><path d="M11.869 20.579a18.188 18.188 0 002.515.363v16.095c-.419-.028-.812-.084-1.231-.14-.42-.055-.865-.139-1.284-.223V20.58zm-.184-.252v16.459c.472.111.944.195 1.442.251.471.056.943.112 1.44.14v-16.46a25.042 25.042 0 01-1.44-.14 12 12 0 01-1.442-.25z" fill="#3B3938"/><path d="M5.869 34.136c-.472-.39-.917-.781-1.284-1.228-.943-1.115-1.441-2.37-1.441-3.626l.026-15.12c.236.837.655 1.618 1.284 2.372.393.474.865.92 1.415 1.339v16.263z" fill="#FFDF8B"/><path d="M3.142 12.851h-.1 0L3.015 29.31v0c0 1.268.477 2.563 1.453 3.714.396.478.87.927 1.45 1.348l.08.057V17.82l-.02-.015a10.035 10.035 0 01-1.433-1.36c-.911-1.136-1.403-2.38-1.403-3.594zm.157 16.459l.026-14.302a6.57 6.57 0 001.038 1.642c.39.47.858.914 1.377 1.303v15.883a8.674 8.674 0 01-1.038-1.016c-.911-1.08-1.403-2.297-1.403-3.51z" fill="#3B3938" stroke="#3B3938" stroke-width=".1"/><path d="M8.725 35.782c-.446-.196-.891-.39-1.31-.642-.184-.084-.34-.195-.498-.307-.314-.195-.603-.39-.865-.585V18.012c.262.195.524.363.813.53.157.112.314.195.497.28.446.25.891.473 1.389.669v16.29h-.026z" fill="#FFDF8B"/><path d="M6.13 18.207c.21.168.446.307.682.447.157.083.315.167.498.279.42.223.865.446 1.336.641v16.068a9.045 9.045 0 01-1.153-.586 7.563 7.563 0 01-.497-.278 8.984 8.984 0 01-.839-.558V18.207h-.026zm-.182-.362V34.33c.288.223.602.419.917.614.157.111.34.195.524.307.445.25.943.474 1.44.697V19.463c-.497-.196-.969-.447-1.44-.698-.158-.083-.341-.195-.498-.279-.315-.223-.63-.418-.943-.641z" fill="#3B3938"/><path d="M15.956 37.176c-.445 0-.89-.027-1.336-.055V20.857c.445.028.89.056 1.336.056.472 0 .917 0 1.337-.028V37.15c-.42 0-.865.027-1.337.027z" fill="#FFDF8B"/><path d="M14.725 20.941c.419.028.838.028 1.258.028h.052c.393 0 .812 0 1.205-.028V37.01c-.42.028-.812.028-1.257.028-.42 0-.839 0-1.258-.028V20.941zm-.184-.195v16.458c.472.028.944.056 1.441.056h.027c.471 0 .943-.028 1.415-.056V20.746c-.472.028-.918.056-1.39.056h-.025c-.524 0-.996-.028-1.468-.056zM13.205 6.129c.446-.056.891-.112 1.336-.14.446-.028.891-.056 1.337-.056v1.702a21.396 21.396 0 00-2.673.195v-1.7z" fill="#3B3938"/><path d="M15.8 6.017v1.506c-.42 0-.84.028-1.259.056-.419.028-.838.084-1.231.14V6.212c.42-.056.838-.111 1.258-.14.393-.027.812-.055 1.231-.055zm.13-.195c-.471 0-.917.028-1.389.056-.471.027-.969.083-1.44.167v1.897c.471-.084.943-.14 1.44-.168.472-.027.918-.055 1.39-.055h.052V5.822h-.053z" fill="#FFDF8B"/><path d="M10.35 6.826c.445-.14.89-.279 1.362-.39.419-.112.864-.196 1.31-.28v1.702c-.446.084-.917.167-1.363.28-.445.11-.89.25-1.31.39V6.826z" fill="#3B3938"/><path d="M12.917 6.268v1.506c-.445.084-.865.168-1.284.28-.42.111-.812.223-1.205.362V6.938c.42-.14.838-.28 1.284-.391.393-.14.812-.223 1.205-.279zm.183-.223c-.471.084-.97.167-1.44.279-.498.111-.97.25-1.442.418V8.64c.472-.167.944-.307 1.441-.418.472-.112.944-.223 1.441-.28V6.046z" fill="#FFDF8B"/><path d="M4.664 13.354c-.158-1.34.314-2.678 1.362-3.85A7.67 7.67 0 017.31 8.36v1.646c-.55.39-1.022.781-1.415 1.227a5.86 5.86 0 00-1.231 2.12z" fill="#3B3938"/><path d="M7.205 8.556v1.422a7.685 7.685 0 00-1.388 1.228 5.968 5.968 0 00-1.1 1.73c-.027-1.172.445-2.316 1.362-3.348.34-.39.707-.726 1.126-1.032zm.184-.363c-.55.39-1.022.809-1.441 1.255-1.206 1.34-1.651 2.873-1.31 4.352.183-.865.628-1.702 1.31-2.455a7.509 7.509 0 011.44-1.255V8.193z" fill="#FFDF8B"/><path d="M7.493 8.249c.131-.084.289-.196.42-.28.288-.167.602-.362.943-.53.419-.195.838-.39 1.31-.557v1.674c-.472.167-.943.362-1.389.585-.34.168-.681.363-.97.53-.104.084-.235.14-.34.224V8.249h.026z" fill="#3B3938"/><path d="M10.061 7.021V8.5c-.472.167-.917.362-1.336.558-.34.167-.681.362-.97.53-.052.028-.13.083-.183.111V8.277c.131-.084.236-.168.367-.252.288-.167.602-.362.943-.53.393-.167.786-.334 1.18-.474zm.184-.279c-.498.168-.97.363-1.442.614-.34.167-.655.335-.969.53-.157.112-.314.195-.472.307v1.897c.158-.112.315-.195.472-.307.314-.195.629-.363.97-.53a17.7 17.7 0 011.44-.614V6.742zm8.489 1.088l-1.337-.167c-.445-.028-.89-.056-1.336-.056V5.905c.445 0 .89.028 1.336.056.446.028.917.084 1.337.168V7.83z" fill="#FFDF8B"/><path d="M16.14 6.017c.419 0 .838.028 1.231.056.42.028.838.083 1.258.14v1.506a16.702 16.702 0 00-1.232-.14 18.871 18.871 0 00-1.257-.056V6.017zm-.184-.195v1.897c.472 0 .944.028 1.441.055.472.028.97.084 1.441.168V6.045a12.02 12.02 0 00-1.44-.167 23.993 23.993 0 00-1.442-.056z" fill="#3B3938"/><path d="M21.406 8.444a61.606 61.606 0 00-1.127-.335 20.22 20.22 0 00-1.362-.279v-1.7c.445.083.89.167 1.31.279.393.111.786.223 1.153.334v1.702h.026z" fill="#FFDF8B"/><path d="M18.996 6.268c.419.084.812.167 1.205.251.367.084.733.195 1.1.307v1.478a10.506 10.506 0 00-.995-.279 17.53 17.53 0 00-1.284-.278V6.268h-.026zm-.158-.223v1.897c.472.083.97.167 1.441.279.42.111.839.223 1.232.362V6.687c-.393-.14-.812-.252-1.232-.363-.497-.112-.969-.195-1.44-.28z" fill="#3B3938"/><path d="M27.275 13.41c-.236-.754-.655-1.451-1.231-2.12a7.061 7.061 0 00-1.415-1.228V8.416c.471.363.917.725 1.284 1.144 1.048 1.171 1.52 2.51 1.362 3.85z" fill="#FFDF8B"/><path d="M24.734 8.583c.419.307.786.67 1.126 1.033.943 1.032 1.415 2.203 1.389 3.375-.236-.614-.629-1.2-1.127-1.758a7.865 7.865 0 00-1.388-1.227V8.583zm-.184-.362v1.897c.55.39 1.048.809 1.441 1.255.708.781 1.127 1.618 1.31 2.483.315-1.479-.13-3.013-1.31-4.352a8.32 8.32 0 00-1.44-1.283z" fill="#3B3938"/><path d="M24.445 9.922l-.393-.25a7.217 7.217 0 00-.917-.503 18.954 18.954 0 00-1.572-.67V6.827c.498.167 1.022.39 1.494.642.367.167.655.334.89.502.158.111.315.195.472.307v1.645h.026z" fill="#FFDF8B"/><path d="M21.668 6.965a11.914 11.914 0 012.253 1.088c.131.084.288.168.42.28v1.422l-.236-.167a7.215 7.215 0 00-.917-.502 11.775 11.775 0 00-1.52-.642V6.965zm-.183-.25V8.61c.576.196 1.1.419 1.624.67.314.167.629.307.917.502.183.112.34.223.524.335V8.22a9.172 9.172 0 00-.524-.335 28.948 28.948 0 00-.917-.502 14.387 14.387 0 00-1.624-.67z" fill="#3B3938"/><path d="M16.009 20.746c-3.433 0-6.655-.837-9.092-2.315-2.437-1.479-3.773-3.487-3.773-5.58 0-2.092 1.31-4.072 3.72-5.55 2.411-1.507 5.634-2.316 9.066-2.316 3.432 0 6.655.837 9.092 2.315 2.436 1.507 3.773 3.487 3.773 5.58 0 2.091-1.31 4.072-3.72 5.55-2.411 1.507-5.634 2.316-9.066 2.316zm-.079-14.98c-3.065 0-5.948.725-8.096 2.064-2.148 1.34-3.354 3.124-3.354 5.021 0 1.897 1.206 3.71 3.406 5.05 2.175 1.339 5.057 2.064 8.123 2.064 3.065 0 5.947-.725 8.096-2.064 2.148-1.34 3.353-3.125 3.353-5.022 0-1.897-1.205-3.71-3.406-5.049-2.174-1.339-5.056-2.064-8.122-2.064z" fill="#fff"/><path d="M24.97 7.399h0c2.4 1.473 3.722 3.44 3.722 5.508 0 2.041-1.295 4.008-3.67 5.453h0c-2.401 1.473-5.589 2.308-9.013 2.308-3.425 0-6.612-.807-9.04-2.308h0c-2.401-1.473-3.723-3.44-3.723-5.508 0-2.042 1.296-4.008 3.67-5.453h.001C9.318 5.897 12.505 5.09 15.93 5.09s6.612.807 9.04 2.308zM6.811 7.202h0c-2.512 1.568-3.77 3.619-3.76 5.674.01 2.055 1.288 4.099 3.813 5.653 2.525 1.568 5.836 2.323 9.144 2.323s6.593-.783 9.117-2.323h0c2.513-1.554 3.771-3.598 3.761-5.65-.01-2.052-1.288-4.095-3.813-5.65h0c-2.55-1.567-5.862-2.35-9.144-2.35-3.308 0-6.593.783-9.118 2.323zm1.127 10.6h0c-2.23-1.36-3.343-3.146-3.353-4.926-.01-1.78 1.083-3.573 3.3-4.947 2.218-1.361 5.117-2.057 8.044-2.057 2.928 0 5.852.696 8.07 2.057 2.23 1.375 3.343 3.167 3.353 4.95.01 1.784-1.084 3.576-3.3 4.951-2.218 1.361-5.117 2.03-8.044 2.03-2.928 0-5.853-.697-8.07-2.058zm8.07 2.269c3.072 0 5.964-.727 8.148-2.1 2.184-1.345 3.404-3.172 3.404-5.092 0-1.947-1.22-3.775-3.456-5.12C21.92 6.416 19.003 5.66 15.93 5.66c-3.073 0-5.964.727-8.149 2.1-2.183 1.344-3.403 3.143-3.377 5.092 0 1.947 1.22 3.774 3.456 5.12 2.158 1.344 5.076 2.099 8.149 2.099z" fill="#3B3938" stroke="#3B3938" stroke-width=".1"/><path d="M24.105 17.887h0c1.842-1.148 2.927-2.553 3.245-4.049l.002-.01-.002-.01c-.318-1.496-1.43-2.957-3.298-4.106h0c-2.25-1.372-5.187-2.057-8.119-2.057-2.931 0-5.862.685-8.099 2.057h0c-1.842 1.15-2.927 2.554-3.245 4.05l-.003.01.003.01c.318 1.524 1.43 2.957 3.297 4.105 2.25 1.387 5.188 2.079 8.12 2.079 2.931 0 5.862-.692 8.099-2.079z" fill="#fff" stroke="#3B3938" stroke-width=".1"/><path d="M6.865 24.15v.001c2.455 1.49 5.696 2.33 9.144 2.33 3.447 0 6.689-.84 9.118-2.359 2.429-1.517 3.768-3.525 3.768-5.663v-.67a.1.1 0 00-.198-.019c-.334 1.75-1.569 3.347-3.623 4.62-2.418 1.495-5.648 2.329-9.065 2.329-3.444 0-6.674-.834-9.092-2.329h0c-2.08-1.273-3.341-2.898-3.675-4.648a.1.1 0 00-.198.02v.724c0 2.167 1.393 4.175 3.82 5.665z" fill="#fff" stroke="#3B3938" stroke-width=".2" stroke-linejoin="round"/><path d="M6.864 30.929h.001c2.455 1.49 5.696 2.33 9.144 2.33 3.447 0 6.689-.84 9.118-2.358 2.429-1.517 3.768-3.526 3.768-5.664v-.67a.1.1 0 00-.198-.018c-.334 1.75-1.569 3.347-3.623 4.62-2.418 1.495-5.648 2.328-9.065 2.328-3.444 0-6.674-.833-9.092-2.328h0c-2.08-1.274-3.341-2.899-3.675-4.648a.1.1 0 00-.198.019v.725h0v.001c.027 2.138 1.392 4.146 3.82 5.663z" fill="#fff" stroke="#3B3938" stroke-width=".2" stroke-linejoin="round"/><path d="M8.28 13.13a1.788 1.788 0 01.68-1.478c.446-.363 1.049-.39 1.573-.279.524.112 1.022.335 1.52.474.497.14 1.047.168 1.519-.111-.21.167-.472.25-.734.279-.262.027-.55 0-.812-.056-.524-.112-1.022-.335-1.52-.419-.497-.111-1.048-.083-1.467.224-.419.279-.707.809-.76 1.366zm6.183 2.483c.183-.195.419-.335.681-.39a1.86 1.86 0 01.786 0c.524.111.996.39 1.467.613.472.223.97.363 1.468.363.497 0 1.021-.112 1.493-.363-.445.307-.97.475-1.493.502-.524.028-1.075-.111-1.546-.334-.472-.224-.917-.503-1.415-.642-.472-.14-1.048-.111-1.441.251zm4.323-2.789c.105-.224.34-.391.576-.503.236-.083.498-.111.734-.111.262 0 .498.056.734.028.235-.028.445-.14.655-.251.419-.251.864-.558 1.362-.642.498-.112.996-.056 1.467.028-.497-.028-.97-.028-1.44.112-.472.111-.865.39-1.31.67a1.59 1.59 0 01-.708.278c-.262.028-.498-.028-.734-.056-.498-.056-1.022.028-1.336.447zm-9.537 2.371a1.06 1.06 0 01.995-.558c.393.028.76.223 1.049.474a13.898 13.898 0 01-.524-.167 3.523 3.523 0 00-.524-.112c-.367-.028-.708.112-.996.363zm7.048-4.575c.052-.223.262-.419.471-.502.236-.084.472-.084.682-.056.21.028.419.084.655.14.21.055.419.111.628.195-.445 0-.864-.084-1.31-.168-.21-.028-.419-.055-.602 0-.21.084-.42.196-.524.39zm5.135 6.36c0-.279.262-.53.524-.586.262-.083.55-.028.786.056s.472.167.708.223c.236.028.498.028.707-.14-.157.224-.445.307-.707.28-.262 0-.524-.112-.76-.168a1.547 1.547 0 00-.707-.083c-.21 0-.446.14-.55.418zm-7.126.92c0-.334-.289-.613-.55-.557-.289.055-.525.279-.839.39-.629.195-1.362 0-1.782-.502.498.39 1.153.502 1.73.307.288-.084.524-.335.89-.363.367 0 .655.39.55.726zm-2.909-8.284c.236-.112.498-.168.76-.196.262-.028.524.056.76.084.236.028.472 0 .707-.056.236-.056.472-.167.708-.25-.21.166-.42.306-.681.39-.236.111-.524.14-.786.111-.263-.028-.498-.111-.734-.111-.21-.028-.472 0-.734.028z" fill="#3B3938"/><path d="M20.777 21.415c-.183 0-.367-.167-.367-.39v-2.65c0-1.395.708-2.706 1.834-3.403l3.904-2.4c.21-.139.472-.195.708-.195a1.5 1.5 0 01.707.195c.446.28.734.782.734 1.34v2.705c0 .196-.157.39-.367.39-.183 0-.367-.167-.367-.39v-2.706a.76.76 0 00-.367-.669.814.814 0 00-.366-.112.575.575 0 00-.367.112l-3.904 2.399c-.917.558-1.494 1.618-1.494 2.734v2.65c.053.223-.104.39-.288.39z" fill="#fff"/><path d="M22.664 15.711l3.902-2.398a.768.768 0 01.316-.105c.097 0 .216.026.31.101h0l.003.003c.196.13.318.338.318.6v2.705c0 .248.203.469.443.469s.443-.22.443-.469v-2.706a1.64 1.64 0 00-.756-1.408 1.396 1.396 0 00-.761-.232c-.274 0-.518.088-.76.23h0v.001l-3.903 2.399s0 0 0 0c-1.17.707-1.885 2.063-1.885 3.474v2.65c0 .248.203.468.443.468s.443-.22.443-.468v-2.65c0-1.1.543-2.115 1.444-2.663h0zm4.218-3.228c.224 0 .45.08.683.19.43.27.682.727.682 1.239v2.705c0 .171-.112.285-.264.285-.153 0-.265-.114-.265-.285v-2.706a.93.93 0 00-.414-.766h0-.002a.755.755 0 00-.42-.12c-.139 0-.28.03-.42.119l-3.903 2.399h0c-.959.595-1.544 1.672-1.544 2.832v2.65c0 .17-.111.285-.264.285-.153 0-.264-.114-.264-.285v-2.65c0-1.378.699-2.645 1.81-3.305h0l3.903-2.4s0 0 0 0c.228-.134.455-.188.682-.188z" fill="#3B3938" stroke="#3B3938" stroke-width=".1"/><path d="M20.2 41.444l8.778 1.59-8.777-1.59z" fill="#fff"/><path d="M28.978 43.425h-.052l-8.778-1.59c-.21-.028-.34-.223-.288-.446.026-.223.21-.363.42-.307l8.777 1.59c.21.028.34.223.288.446-.026.196-.183.307-.367.307z" fill="#3B3938"/><path d="M20.07 42.895l8.672-2.204-8.672 2.204z" fill="#fff"/><path d="M20.07 43.286a.344.344 0 01-.34-.307.409.409 0 01.261-.474l8.673-2.204c.183-.056.393.084.445.279a.409.409 0 01-.262.474l-8.699 2.232h-.078z" fill="#3B3938"/><path d="M19.572 41.026l8.122 3.878-8.122-3.878z" fill="#fff"/><path d="M27.694 45.294c-.052 0-.104 0-.157-.028l-8.122-3.877c-.184-.084-.262-.307-.184-.502a.347.347 0 01.472-.196l8.122 3.878c.184.084.262.307.184.502a.34.34 0 01-.315.223z" fill="#3B3938"/><path d="M13.677 30.147c.157.78-.026 1.925.13 2.706-1.598-.754-2.122-1.841-3.877-3.431.577.892.603 2.65 1.18 3.542a445.931 445.931 0 01-3.669-2.761c.472.92.498 2.622.97 3.542-1.704.14-2.516-.725-4.926-1.171.288.753 2.463 2.008 2.646 3.04-1.022.307-3.354-.641-4.376-.334l1.808 1.757c-.89.279-1.755.558-2.646.865.76.641 1.493 1.283 2.253 1.953-1.022.502-2.043 1.032-3.065 1.534 1.703.67 2.594 1.31 2.803 1.506-.681.586-1.362 1.172-2.017 1.785 1.572-.083 3.118-.195 4.69-.279-.42.475-.839.949-1.258 1.395 1.52-.307 3.04-.585 4.585-.892-.367 1.004-.733 1.98-1.1 2.984.602-.446 3.091-1.534 4.952-2.761 0 0-.21 1.84-.498 2.315 1.703-.865 2.777-1.255 3.694-1.618 1.153-.446 2.62-.976 3.564-1.339 1.86-.697 1.99-1.283 2.122-2.12.13-.67.629-1.339-.839-2.538-2.882-2.316-5.318-6.333-7.126-9.68z" fill="#FFDF8B"/><mask id="a" maskUnits="userSpaceOnUse" x="-.948" y="28.345" width="23" height="20" fill="#000"><path fill="#fff" d="M-.948 28.345h23v20h-23z"/><path d="M7.782 48c-.027 0-.053 0-.053-.028-.026-.028-.052-.084-.026-.111l1.048-2.818-4.402.865c-.026 0-.078 0-.105-.056-.026-.028 0-.084.027-.111l1.1-1.228-4.454.279c-.026 0-.079-.028-.079-.056-.026-.028 0-.083.027-.111l1.938-1.702c-.262-.195-1.074-.809-2.698-1.423-.026 0-.053-.055-.053-.083 0-.028.027-.084.053-.084l2.96-1.478-2.2-1.87c-.027-.027-.027-.055-.027-.083 0-.028.027-.056.053-.084l2.489-.809-1.703-1.646c-.026-.028-.026-.056-.026-.083 0-.028.026-.056.052-.084.524-.167 1.389 0 2.227.167.76.14 1.572.307 2.07.196-.157-.558-.865-1.172-1.494-1.73-.524-.474-.995-.865-1.126-1.2 0-.027 0-.055.026-.083.026-.028.052-.028.079-.028 1.021.195 1.755.474 2.41.697.812.307 1.467.53 2.358.475-.21-.475-.314-1.06-.419-1.674-.131-.642-.236-1.311-.472-1.758-.026-.027 0-.083.027-.111a.076.076 0 01.104 0l3.354 2.51c-.183-.418-.288-.92-.42-1.422-.156-.642-.287-1.311-.576-1.73-.026-.028-.026-.083.027-.14.026-.027.078-.027.13 0a16.67 16.67 0 011.494 1.507c.707.753 1.284 1.367 2.201 1.841a6.021 6.021 0 01-.026-1.2c0-.474.026-.948-.053-1.338 0-.056.027-.084.053-.112.052-.028.078 0 .105.028 1.781 3.264 4.192 7.309 7.1 9.68 1.258 1.032 1.1 1.73.943 2.315-.026.112-.052.195-.078.307-.131.809-.262 1.45-2.175 2.176-.314.111-.707.25-1.127.418a66.75 66.75 0 00-2.436.92 3.36 3.36 0 00-.472.196 25.53 25.53 0 00-3.223 1.45c-.026.029-.078 0-.104-.027-.027-.028-.027-.084 0-.112.21-.362.393-1.618.445-2.092-1.048.67-2.253 1.283-3.249 1.785-.734.363-1.284.67-1.546.837-.052.056-.078.056-.078.056zm1.1-3.18c.026 0 .052 0 .079.028.026.028.026.056.026.084l-1.022 2.705c.314-.195.76-.418 1.336-.697 1.022-.53 2.306-1.172 3.38-1.897a.076.076 0 01.105 0c.026.028.052.056.052.084 0 .056-.157 1.422-.393 2.12 1.31-.67 2.254-1.032 3.014-1.34.157-.055.314-.11.471-.194.76-.307 1.65-.642 2.437-.921.419-.14.786-.279 1.1-.418 1.834-.698 1.94-1.256 2.07-2.037l.079-.335c.157-.558.314-1.143-.865-2.12-2.803-2.287-5.162-6.137-6.917-9.317.026.28 0 .586 0 .893 0 .474-.026.948.052 1.339 0 .028 0 .084-.026.084-.026.027-.052.027-.105 0-1.048-.502-1.65-1.144-2.41-1.953a24.67 24.67 0 00-1.127-1.144c.158.39.262.865.367 1.34.157.64.288 1.31.576 1.729a.086.086 0 010 .111.076.076 0 01-.104 0L7.65 30.426c.157.418.262.948.34 1.478.131.642.236 1.311.472 1.758.026.028.026.056 0 .083-.026.028-.053.056-.079.056-.995.084-1.703-.167-2.567-.474-.603-.223-1.258-.474-2.175-.67.183.28.576.614.97.977.68.614 1.467 1.31 1.571 1.925 0 .055-.026.083-.052.111-.524.167-1.389 0-2.227-.167-.734-.14-1.467-.28-1.991-.196l1.676 1.618c.027.028.027.056.027.084 0 .028-.027.056-.053.084l-2.463.809 2.123 1.84c.026.029.026.057.026.085 0 .028-.026.055-.053.083L.314 41.333c1.468.586 2.332 1.172 2.647 1.45.026.028.026.056.026.084 0 .028 0 .056-.026.084l-1.808 1.59 4.428-.279c.026 0 .078.028.078.056.027.028 0 .084-.026.111l-1.074 1.2 4.323-.81z"/></mask><path d="M7.782 48c-.027 0-.053 0-.053-.028-.026-.028-.052-.084-.026-.111l1.048-2.818-4.402.865c-.026 0-.078 0-.105-.056-.026-.028 0-.084.027-.111l1.1-1.228-4.454.279c-.026 0-.079-.028-.079-.056-.026-.028 0-.083.027-.111l1.938-1.702c-.262-.195-1.074-.809-2.698-1.423-.026 0-.053-.055-.053-.083 0-.028.027-.084.053-.084l2.96-1.478-2.2-1.87c-.027-.027-.027-.055-.027-.083 0-.028.027-.056.053-.084l2.489-.809-1.703-1.646c-.026-.028-.026-.056-.026-.083 0-.028.026-.056.052-.084.524-.167 1.389 0 2.227.167.76.14 1.572.307 2.07.196-.157-.558-.865-1.172-1.494-1.73-.524-.474-.995-.865-1.126-1.2 0-.027 0-.055.026-.083.026-.028.052-.028.079-.028 1.021.195 1.755.474 2.41.697.812.307 1.467.53 2.358.475-.21-.475-.314-1.06-.419-1.674-.131-.642-.236-1.311-.472-1.758-.026-.027 0-.083.027-.111a.076.076 0 01.104 0l3.354 2.51c-.183-.418-.288-.92-.42-1.422-.156-.642-.287-1.311-.576-1.73-.026-.028-.026-.083.027-.14.026-.027.078-.027.13 0a16.67 16.67 0 011.494 1.507c.707.753 1.284 1.367 2.201 1.841a6.021 6.021 0 01-.026-1.2c0-.474.026-.948-.053-1.338 0-.056.027-.084.053-.112.052-.028.078 0 .105.028 1.781 3.264 4.192 7.309 7.1 9.68 1.258 1.032 1.1 1.73.943 2.315-.026.112-.052.195-.078.307-.131.809-.262 1.45-2.175 2.176-.314.111-.707.25-1.127.418a66.75 66.75 0 00-2.436.92 3.36 3.36 0 00-.472.196 25.53 25.53 0 00-3.223 1.45c-.026.029-.078 0-.104-.027-.027-.028-.027-.084 0-.112.21-.362.393-1.618.445-2.092-1.048.67-2.253 1.283-3.249 1.785-.734.363-1.284.67-1.546.837-.052.056-.078.056-.078.056zm1.1-3.18c.026 0 .052 0 .079.028.026.028.026.056.026.084l-1.022 2.705c.314-.195.76-.418 1.336-.697 1.022-.53 2.306-1.172 3.38-1.897a.076.076 0 01.105 0c.026.028.052.056.052.084 0 .056-.157 1.422-.393 2.12 1.31-.67 2.254-1.032 3.014-1.34.157-.055.314-.11.471-.194.76-.307 1.65-.642 2.437-.921.419-.14.786-.279 1.1-.418 1.834-.698 1.94-1.256 2.07-2.037l.079-.335c.157-.558.314-1.143-.865-2.12-2.803-2.287-5.162-6.137-6.917-9.317.026.28 0 .586 0 .893 0 .474-.026.948.052 1.339 0 .028 0 .084-.026.084-.026.027-.052.027-.105 0-1.048-.502-1.65-1.144-2.41-1.953a24.67 24.67 0 00-1.127-1.144c.158.39.262.865.367 1.34.157.64.288 1.31.576 1.729a.086.086 0 010 .111.076.076 0 01-.104 0L7.65 30.426c.157.418.262.948.34 1.478.131.642.236 1.311.472 1.758.026.028.026.056 0 .083-.026.028-.053.056-.079.056-.995.084-1.703-.167-2.567-.474-.603-.223-1.258-.474-2.175-.67.183.28.576.614.97.977.68.614 1.467 1.31 1.571 1.925 0 .055-.026.083-.052.111-.524.167-1.389 0-2.227-.167-.734-.14-1.467-.28-1.991-.196l1.676 1.618c.027.028.027.056.027.084 0 .028-.027.056-.053.084l-2.463.809 2.123 1.84c.026.029.026.057.026.085 0 .028-.026.055-.053.083L.314 41.333c1.468.586 2.332 1.172 2.647 1.45.026.028.026.056.026.084 0 .028 0 .056-.026.084l-1.808 1.59 4.428-.279c.026 0 .078.028.078.056.027.028 0 .084-.026.111l-1.074 1.2 4.323-.81z" fill="#3B3938"/><path d="M7.782 48c-.027 0-.053 0-.053-.028-.026-.028-.052-.084-.026-.111l1.048-2.818-4.402.865c-.026 0-.078 0-.105-.056-.026-.028 0-.084.027-.111l1.1-1.228-4.454.279c-.026 0-.079-.028-.079-.056-.026-.028 0-.083.027-.111l1.938-1.702c-.262-.195-1.074-.809-2.698-1.423-.026 0-.053-.055-.053-.083 0-.028.027-.084.053-.084l2.96-1.478-2.2-1.87c-.027-.027-.027-.055-.027-.083 0-.028.027-.056.053-.084l2.489-.809-1.703-1.646c-.026-.028-.026-.056-.026-.083 0-.028.026-.056.052-.084.524-.167 1.389 0 2.227.167.76.14 1.572.307 2.07.196-.157-.558-.865-1.172-1.494-1.73-.524-.474-.995-.865-1.126-1.2 0-.027 0-.055.026-.083.026-.028.052-.028.079-.028 1.021.195 1.755.474 2.41.697.812.307 1.467.53 2.358.475-.21-.475-.314-1.06-.419-1.674-.131-.642-.236-1.311-.472-1.758-.026-.027 0-.083.027-.111a.076.076 0 01.104 0l3.354 2.51c-.183-.418-.288-.92-.42-1.422-.156-.642-.287-1.311-.576-1.73-.026-.028-.026-.083.027-.14.026-.027.078-.027.13 0a16.67 16.67 0 011.494 1.507c.707.753 1.284 1.367 2.201 1.841a6.021 6.021 0 01-.026-1.2c0-.474.026-.948-.053-1.338 0-.056.027-.084.053-.112.052-.028.078 0 .105.028 1.781 3.264 4.192 7.309 7.1 9.68 1.258 1.032 1.1 1.73.943 2.315-.026.112-.052.195-.078.307-.131.809-.262 1.45-2.175 2.176-.314.111-.707.25-1.127.418a66.75 66.75 0 00-2.436.92 3.36 3.36 0 00-.472.196 25.53 25.53 0 00-3.223 1.45c-.026.029-.078 0-.104-.027-.027-.028-.027-.084 0-.112.21-.362.393-1.618.445-2.092-1.048.67-2.253 1.283-3.249 1.785-.734.363-1.284.67-1.546.837-.052.056-.078.056-.078.056zm1.1-3.18c.026 0 .052 0 .079.028.026.028.026.056.026.084l-1.022 2.705c.314-.195.76-.418 1.336-.697 1.022-.53 2.306-1.172 3.38-1.897a.076.076 0 01.105 0c.026.028.052.056.052.084 0 .056-.157 1.422-.393 2.12 1.31-.67 2.254-1.032 3.014-1.34.157-.055.314-.11.471-.194.76-.307 1.65-.642 2.437-.921.419-.14.786-.279 1.1-.418 1.834-.698 1.94-1.256 2.07-2.037l.079-.335c.157-.558.314-1.143-.865-2.12-2.803-2.287-5.162-6.137-6.917-9.317.026.28 0 .586 0 .893 0 .474-.026.948.052 1.339 0 .028 0 .084-.026.084-.026.027-.052.027-.105 0-1.048-.502-1.65-1.144-2.41-1.953a24.67 24.67 0 00-1.127-1.144c.158.39.262.865.367 1.34.157.64.288 1.31.576 1.729a.086.086 0 010 .111.076.076 0 01-.104 0L7.65 30.426c.157.418.262.948.34 1.478.131.642.236 1.311.472 1.758.026.028.026.056 0 .083-.026.028-.053.056-.079.056-.995.084-1.703-.167-2.567-.474-.603-.223-1.258-.474-2.175-.67.183.28.576.614.97.977.68.614 1.467 1.31 1.571 1.925 0 .055-.026.083-.052.111-.524.167-1.389 0-2.227-.167-.734-.14-1.467-.28-1.991-.196l1.676 1.618c.027.028.027.056.027.084 0 .028-.027.056-.053.084l-2.463.809 2.123 1.84c.026.029.026.057.026.085 0 .028-.026.055-.053.083L.314 41.333c1.468.586 2.332 1.172 2.647 1.45.026.028.026.056.026.084 0 .028 0 .056-.026.084l-1.808 1.59 4.428-.279c.026 0 .078.028.078.056.027.028 0 .084-.026.111l-1.074 1.2 4.323-.81z" stroke="#3B3938" stroke-width=".2" mask="url(#a)"/><path d="M7.755 40.636c-1.021-.28-2.043-.558-3.065-.893-.053 0-.079-.056-.053-.112 0-.028.027-.028.027-.056A6.678 6.678 0 017.1 38.488l-.026.14c-.21-.168-.445-.364-.655-.53-.026-.029-.026-.057 0-.085 0-.027.026-.027.053-.027.602.027 1.205.055 1.781.083-.602.028-1.205.056-1.781.056l.026-.112c.236.168.445.335.681.503.026.027.052.083.026.111 0 .028-.026.028-.052.028a8.394 8.394 0 00-2.384 1.06l-.027-.167c1.022.362 2.018.725 3.013 1.088zm4.324-4.743c-.472-.167-.918-.334-1.39-.502l.08-.084c.21.419.393.837.602 1.284.21.418.393.864.576 1.283.027.056 0 .084-.026.111h-.052c-.367-.055-.734-.111-1.127-.167l.053-.084c.13.391.262.782.393 1.172-.184-.363-.34-.753-.498-1.144 0-.028 0-.056.026-.083h.026c.367.027.76.055 1.127.111l-.079.112c-.21-.419-.393-.837-.576-1.283-.184-.419-.393-.865-.577-1.284-.026-.028 0-.083.027-.083h.052c.472.195.917.418 1.363.641zm1.651 7.225l-1.468.753c-.026 0-.053 0-.053-.027v-.056l.708-.92.052.11a8.123 8.123 0 01-2.724.029c-.053 0-.08-.056-.08-.112 0-.028.027-.056.027-.056l1.363-.976c.445-.335.917-.67 1.362-.976l.026.14-1.388-.224c-.027 0-.053-.028-.053-.056s.026-.056.053-.056l2.174-.362-2.148.474v-.112l1.388.168c.027 0 .053.028.053.083 0 .028 0 .028-.026.056l-1.337 1.005-1.362 1.004-.026-.168c.89.14 1.781.14 2.672.028.026 0 .079.028.079.056s0 .028-.026.056l-.734.892-.053-.083 1.52-.67zm2.148-3.682c-.289-.697-.524-1.423-.76-2.148-.026-.056 0-.084.052-.111.026 0 .053 0 .079.027.262.224.524.419.812.586.288.168.576.335.89.447l-.104.083c0-.502-.026-1.004 0-1.534a29.2 29.2 0 01.131 1.506c0 .028-.026.084-.052.084H16.9a5.505 5.505 0 01-.917-.418 5.96 5.96 0 01-.839-.614l.131-.084c.236.698.42 1.45.603 2.176zm.026 1.562c-.315.335-.655.67-.97 1.005l-.026-.112c.42.084.839.14 1.258.223.052 0 .078.056.052.112v.028a53.871 53.871 0 01-.995 2.175l-.105-.111a69.24 69.24 0 012.306-.558s.026 0 .026.028v.474l-.053-.474.027.028c-.76.25-1.52.474-2.28.67-.052 0-.079-.029-.105-.057v-.055c.315-.726.655-1.451.996-2.176l.052.111c-.419-.083-.838-.195-1.231-.279-.026 0-.053-.028-.053-.055 0 0 0-.028.027-.028a32.63 32.63 0 011.074-.949z" fill="#3B3938"/></g><defs><clipPath id="clip0_1908_7510"><path fill="#fff" d="M0 0h48v48H0z"/></clipPath></defs></svg>