<svg width="150" height="36" fill="none" xmlns="http://www.w3.org/2000/svg"><g clip-path="url(#clip0_1908_7478)" fill="#E2E2E2"><path d="M114.289 0c3.468 1.946 3.902 3.244 3.035 7.28-.217.866.072 1.875.361 2.74 1.3 3.388 1.517 6.776-.072 10.164-.867 1.73-6.358 2.956-7.73 1.73-.362-.288-.506-.937-.506-1.441-.072-1.226-.217-2.523 0-3.749.361-2.379-.217-3.965-2.529-5.118-2.239-1.081-1.95-2.379-.361-4.181 1.951-2.235 3.468-4.902 5.129-7.353C112.483 0 113.35 0 114.289 0zm3.324 16.22a58.616 58.616 0 00-.217-2.668c-.217-1.802-1.084-3.46-2.962-3.1-1.228.217-2.529 1.659-3.251 2.812-.65 1.081-.506 2.595-.65 3.893-.145 1.514.072 2.955 1.95 3.244 1.806.288 3.54.216 4.407-1.658.506-.865.578-1.947.723-2.523zm-6.502-11.534c1.517 1.37 2.311 2.45 3.323 2.739.506.144 1.878-1.153 2.095-2.018.361-1.298.072-2.956-1.806-2.812-.939 0-1.878 1.01-3.612 2.09zM0 18.887c3.106-1.01 3.757-3.244 3.468-6.272-.217-3.1-.073-6.271.216-9.371.073-.793 1.229-1.946 2.023-2.09 1.806-.289 3.685-.073 5.78-.073.289 5.335.578 10.453.939 15.571.072.937.94 1.73 1.084 2.667.216 1.298 0 2.596 0 3.893h-.506c-1.228-2.163-2.89-3.46-5.563-3.244-.65.072-1.228 0-1.878 0-2.312-.072-3.323.865-2.89 3.244H0v-4.325zm9.68-.649c0-4.541.073-8.939-.072-13.336 0-.793-1.155-1.514-1.806-2.235-.722.649-1.734 1.154-2.167 1.947-.433.72-.433 1.73-.433 2.595-.073 3.604 0 7.28 0 11.029H9.68zm17.411 4.902c-.939-2.307-1.372-4.397 1.517-5.84.723-.36 1.084-1.945 1.084-3.027.145-3.388.145-6.776 0-10.164-.072-2.307.723-3.316 3.107-3.1 1.517.144 3.034 0 4.84 0 .217 4.253.433 8.507.795 12.76.144 2.09-.65 4.47 1.806 6.055.36.216-.506 2.163-.795 3.316h-.506c-.794-2.09-2.095-3.316-4.479-3.172-.722.072-1.445 0-2.167-.072-2.312-.144-3.901.577-3.684 3.244H27.09zm4.335-4.974h4.48c0-4.542.071-8.867-.073-13.192 0-.793-1.084-1.514-1.662-2.235-.794.577-1.734 1.082-2.24 1.803-.433.72-.433 1.73-.433 2.595-.144 3.604-.072 7.28-.072 11.029zM150.05 2.163c-2.023 2.379-4.19 4.685-5.924 7.208-.506.793-.361 2.451.072 3.388.867 1.73 2.24 3.244 3.179 4.974.578 1.01.795 2.163.867 3.46-3.54-.792-4.696-3.532-5.635-6.415h-.723v7.28c-.361.073-.65.145-1.011.217-.361-.577-.939-1.153-.939-1.658 0-6.055 0-12.183.072-18.238 0-.433.434-.865.867-1.73 1.951 2.74.072 5.478 1.084 8.65 1.156-1.441 1.95-2.523 2.889-3.46 1.662-1.658 3.468-3.172 5.202-4.758v1.082zM19.506 0c2.167.505 4.262.937 6.43 1.442.072.216.144.504.216.72-1.228.289-2.456.866-3.684.866-1.373 0-3.107-.937-3.323 1.297-.217 2.09-1.951 4.686 1.3 6.056.361.144.722.504 1.662 1.225-1.518.649-2.601 1.153-3.974 1.73-.072.577-.217 1.298-.217 2.09-.072 3.46.217 3.677 3.757 3.966 1.3.072 3.107-.793 3.757 2.018-2.601 0-4.985.144-7.37-.072-.505-.072-1.3-1.37-1.3-2.163-.072-4.253 0-8.578.073-12.903V0h2.673zm73.183 12.327c.722-3.028 1.228-6.055 2.24-8.939.794-2.235 2.889-2.74 5.201-2.307 2.311.433 3.034 2.235 3.251 4.181.433 4.974-.434 9.876-2.818 14.274-.722 1.297-2.745 2.45-4.19 2.45-.867.073-2.312-2.018-2.673-3.387-.578-1.947-.361-4.037-.506-6.128-.216-.072-.361-.144-.505-.144zm3.323 2.956c0 .504-.145 1.153 0 1.585.361.938.939 1.73 1.445 2.668.722-.65 1.806-1.154 1.95-1.875.723-3.172 1.228-6.415 1.662-9.66.072-.576-.723-1.585-1.228-1.73-.506-.144-1.59.577-1.806 1.082-.94 2.523-2.24 7.857-2.023 7.93zm34.821-5.335c-1.445 2.883-2.89 5.767-4.479 8.65-.65 1.226-1.589 2.38-2.456 3.533-.361-1.37-.939-2.74-1.012-4.037 0-5.118.145-10.237.289-15.283 0-.576.145-1.08.578-1.658 1.662 2.09.65 4.47.723 6.705.144 2.378 0 4.757 0 7.136.289.144.505.289.794.433.651-.865 1.518-1.73 1.951-2.74 1.517-3.244 2.818-6.56 4.335-9.804.361-.792 1.228-1.297 1.806-1.946.289.144.505.288.794.433v20.328c-3.034-.576-2.6-2.955-2.6-4.974 0-2.09.216-4.18.361-6.271-.289-.217-.65-.36-1.084-.505zm-52.232 3.316c.65-2.955 1.011-5.983 1.95-8.867.94-2.811 6.72-4.757 9.176-3.172.505.36.939 1.658.722 2.235-.361.937-1.156 2.235-1.95 2.451-5.708 1.298-6.864 2.523-7.08 8.434-.073 1.226-.145 2.523.144 3.749.506 2.379 2.095 2.883 3.829 1.225.217-.216.289-.504.506-.648.867-.505 1.806-.938 2.745-1.37-.29 1.153-.217 2.523-.867 3.316-1.517 1.874-3.973 2.307-5.924 1.153-1.3-.72-2.24-2.595-2.745-4.18-.434-1.298-.073-2.812-.073-4.254-.216-.072-.36-.072-.433-.072zM51.076 1.153c2.24 0 4.696-.072 7.225.072.433 0 1.228 1.01 1.228 1.586.289 5.263.505 10.525.65 15.86 0 .793-.723 1.585-1.156 2.378-.506-.793-1.445-1.513-1.517-2.306-.145-4.181 0-8.434 0-12.616 0-1.297.144-3.1-1.806-2.883-.867.144-2.023 1.658-2.168 2.667-.433 3.1-.288 6.272-.577 9.372-.145 1.658-.506 3.388-1.156 4.901-.29.65-1.59.938-2.457 1.154-.216.072-.939-.649-.939-.721.434-.649.94-1.154 1.373-1.802.65-1.01 1.59-2.019 1.734-3.1.36-2.956.433-5.911.36-8.867.073-1.874-.505-3.676-.794-5.695zm19.506 12.039c-3.323.793-4.262 2.307-3.251 5.407.217.72 1.662 1.225 2.673 1.585 1.156.433 2.456.65 3.612.938-.072.36-.072.793-.144 1.153-2.095 0-4.19.144-6.285-.072-.506-.072-1.229-1.37-1.3-2.09-.145-3.317 0-6.633-.073-9.949 0-2.162-.289-4.253-.217-6.415 0-.866.723-2.451 1.084-2.451 3.395.144 6.863.576 10.258 1.009 0 .288.073.649.073.937-.723.216-1.445.432-2.168.72-1.661.722-3.612 1.154-4.912 2.308-2.89 2.595-2.745 3.604.289 6.2.144-.073.144.215.361.72z"/></g><defs><clipPath id="clip0_1908_7478"><path fill="#fff" d="M0 0h150v35.567H0z"/></clipPath></defs></svg>