<svg width="24" height="25" fill="none" xmlns="http://www.w3.org/2000/svg"><g clip-path="url(#clip0_850_6695)" fill="#3B3938"><path d="M23.179 6.823L17.065.47a.462.462 0 00-.333-.141H7.619c-1.02 0-1.85.829-1.85 1.848v6.46H2.076c-.763 0-1.384.62-1.384 1.383v6.925c0 .763.621 1.384 1.384 1.384H5.77v4.154a1.85 1.85 0 001.85 1.846h13.84a1.85 1.85 0 001.849-1.845V7.144a.462.462 0 00-.13-.32zm-6.333-5.248l5.02 5.215h-5.02V1.575zm-14.77 15.83a.461.461 0 01-.46-.46V10.02a.46.46 0 01.46-.46H14.54a.46.46 0 01.461.46v6.925a.46.46 0 01-.46.46H2.075zm20.309 5.079a.925.925 0 01-.927.922H7.618a.926.926 0 01-.926-.923V18.33h7.847c.763 0 1.384-.621 1.384-1.384V10.02c0-.763-.62-1.384-1.384-1.384H6.692V2.177c0-.51.416-.925.927-.925h8.304v6c0 .255.207.461.462.461h6v14.771z"/><path d="M6.21 12.042a1.04 1.04 0 00-.57-.388c-.149-.04-.466-.06-.953-.06H3.403v3.965h.8v-1.495h.522c.363 0 .64-.019.83-.057.141-.03.28-.093.416-.188a1.09 1.09 0 00.336-.39 1.29 1.29 0 00.133-.614c0-.316-.077-.573-.23-.773zm-.686 1.092a.525.525 0 01-.25.194c-.106.042-.317.063-.633.063h-.438v-1.126h.387c.288 0 .48.01.576.028.13.023.237.082.322.175a.512.512 0 01.127.357c0 .118-.03.22-.09.309zm4.764-.456a1.733 1.733 0 00-.379-.642 1.326 1.326 0 00-.597-.365c-.173-.05-.425-.076-.755-.076H7.094v3.964h1.507c.295 0 .531-.027.708-.083.236-.076.424-.182.563-.317.184-.178.325-.412.424-.7a2.61 2.61 0 00.122-.844c0-.371-.043-.684-.13-.937zm-.779 1.628c-.054.178-.124.305-.21.383a.74.74 0 01-.323.165c-.099.025-.26.037-.484.037h-.597v-2.626h.36c.326 0 .545.013.657.038.15.033.273.095.37.187a.91.91 0 01.227.384c.054.164.081.4.081.706 0 .306-.027.548-.08.726zm4.311-2.041v-.67h-2.718v3.964h.8v-1.684h1.656v-.671h-1.655v-.939h1.917z"/></g><defs><clipPath id="clip0_850_6695"><path fill="#fff" transform="translate(0 .329)" d="M0 0h24v24H0z"/></clipPath></defs></svg>