<svg width="34" height="35" fill="none" xmlns="http://www.w3.org/2000/svg"><g clip-path="url(#clip0_1043_9114)" fill="#C4C4C4"><path d="M30.267.726c.47.16.966.258 1.4.48 1.455.77 2.289 2.003 2.306 3.652.045 3.227.018 6.463.018 9.69 0 .044-.009.089-.009.16a12.02 12.02 0 01-.283-.08c-.737-.248-1.464-.505-2.2-.745-.266-.08-.354-.195-.354-.479.008-2.73.008-5.46.008-8.192 0-.195 0-.398-.044-.594a1.36 1.36 0 00-1.33-1.046c-3.352-.009-6.704-.009-10.056 0-.807 0-1.464.373-2.014.949-2.27 2.367-4.549 4.734-6.828 7.101-2.51 2.607-5.01 5.213-7.52 7.82-.71.736-.71 1.516.018 2.243 3.21 3.218 6.429 6.428 9.648 9.646.736.736 1.543.745 2.297 0 .24-.23.443-.497.665-.754.63.807 1.197 1.543 1.765 2.279-1.818 2.376-4.816 2.376-6.58.611l-8.168-8.165c-.558-.558-1.108-1.117-1.667-1.667-.683-.673-1.126-1.462-1.277-2.42-.009-.044-.035-.08-.053-.115v-1.064c.018-.036.044-.08.053-.115.133-.931.55-1.711 1.197-2.385.515-.532 1.029-1.064 1.543-1.605 4.257-4.433 8.523-8.857 12.78-13.29.655-.682 1.383-1.24 2.278-1.551.453-.16.931-.248 1.401-.372 3.663.008 7.334.008 11.006.008z"/><path d="M16.991 21.614V18.6c0-.62.24-.949.843-1.153 2.394-.816 4.788-1.631 7.174-2.447.328-.115.638-.115.966 0 2.395.816 4.79 1.631 7.175 2.447.594.204.833.541.833 1.162 0 1.746-.026 3.493.01 5.24.044 2.623-.896 4.858-2.608 6.79-1.49 1.694-3.308 2.953-5.33 3.928-.39.186-.753.186-1.144-.009-2.536-1.232-4.744-2.864-6.332-5.24-1.055-1.578-1.596-3.306-1.587-5.213.009-.833 0-1.666 0-2.49zm7.946 3.271c-.24-.203-.47-.398-.692-.594-.23-.195-.452-.39-.683-.576-.611-.487-1.463-.416-1.968.16-.506.585-.48 1.445.115 1.968a84.756 84.756 0 002.545 2.181c.62.514 1.481.425 1.978-.204a361.722 361.722 0 003.928-5.01 1.384 1.384 0 00-.257-1.95c-.612-.47-1.445-.38-1.96.213-.24.275-.452.568-.683.86-.771.976-1.543 1.96-2.323 2.953zm1.978-14.255c-1.57 0-2.82-1.25-2.83-2.811a2.829 2.829 0 012.803-2.846 2.844 2.844 0 012.855 2.837 2.829 2.829 0 01-2.828 2.82z"/></g><defs><clipPath id="clip0_1043_9114"><path fill="#fff" transform="translate(0 .726)" d="M0 0h34v34H0z"/></clipPath></defs></svg>