<svg width="26" height="34" fill="none" xmlns="http://www.w3.org/2000/svg"><circle cx="13" cy="20.727" r="13" fill="#FFDF8B"/><path d="M11.065 16.414c0-.859.14-1.61.419-2.255.3-.665.656-1.224 1.064-1.675.43-.45.99-.988 1.678-1.61.86-.752 1.494-1.396 1.903-1.933.409-.559.613-1.224.613-1.997 0-1.053-.409-1.89-1.226-2.513-.817-.644-1.946-.966-3.387-.966-2.516 0-4.44.848-5.774 2.544L4 4.334c.903-1.16 2.054-2.05 3.452-2.673 1.419-.623 3.053-.934 4.903-.934 2.344 0 4.204.515 5.58 1.546C19.313 3.283 20 4.678 20 6.46c0 .88-.15 1.665-.452 2.352-.28.666-.623 1.224-1.032 1.675-.408.451-.957.988-1.645 1.61-.882.795-1.538 1.493-1.968 2.095-.408.6-.613 1.342-.613 2.222h-3.225zm1.645 7.313c-.603 0-1.108-.194-1.517-.58a2.075 2.075 0 01-.58-1.482c0-.58.194-1.063.58-1.45.41-.408.915-.612 1.517-.612.602 0 1.096.204 1.483.612.388.387.581.87.581 1.45s-.204 1.074-.613 1.482c-.387.386-.87.58-1.451.58z" fill="#000"/></svg>