<svg width="97" height="97" fill="none" xmlns="http://www.w3.org/2000/svg"><circle cx="48.5" cy="48.5" r="48.5" fill="#EDEFEA"/><path d="M78.625 76.766H97V58.694H86.549c.096-10.219 9.424-12.149 9.424-12.149s.05-.342 0-6.545C80.421 43.045 78.765 54.986 78.63 58.694h-.004v.102c-.02.635 0 1.032 0 1.032v16.938zM49.01 59.83v16.936h18.373V58.694H56.93c.097-10.219 9.425-12.149 9.425-12.149s.05-.342 0-6.545c-15.552 3.045-17.208 14.986-17.343 18.694h-.004v.102c-.02.635.001 1.033.001 1.033z" fill="#3B3938"/></svg>