<svg width="32" height="31" fill="none" xmlns="http://www.w3.org/2000/svg"><path d="M5.279 18.213c-.247.008-.494-.187-.46-.442.068-.45-.179-.704-.468-.967-.264-.238-.468-.56-.919-.527-.221.017-.374-.195-.357-.441.017-.246.161-.416.4-.399.298.026.476-.119.646-.314.137-.153.281-.289.426-.425.162-.144.264-.297.255-.543-.008-.288.187-.475.443-.467.255 0 .434.187.425.484a.577.577 0 00.221.492c.162.145.307.29.451.45.179.196.358.357.672.331.247-.025.383.162.4.4.009.246-.136.458-.357.44-.434-.025-.63.281-.893.51-.307.272-.562.543-.502 1.019.05.238-.17.357-.383.399zm.553-2.343c-.196-.204-.383-.39-.579-.586-.187.204-.374.4-.553.586l.553.577.579-.577zm8.994-1.995c-.026.238-.145.433-.409.416-.289-.017-.476.11-.646.314a4.01 4.01 0 01-.426.425c-.179.152-.28.314-.264.568.026.263-.144.416-.4.442-.246.017-.46-.128-.45-.348.034-.476-.315-.68-.58-.96-.22-.237-.425-.475-.816-.441-.221.017-.357-.178-.357-.408-.009-.263.161-.44.4-.44.68 0 .867-.638 1.293-.96.06-.043.017-.204.034-.306.025-.288.204-.475.46-.475.255 0 .39.195.433.484.026.161.102.33.196.458.128.17.298.297.443.458.178.196.357.357.672.34.238-.025.4.153.417.433zm-2.136-.543c-.204.178-.417.356-.579.5.188.213.366.408.528.586.196-.186.383-.373.562-.551-.18-.196-.366-.383-.511-.535zm-2.663-7.258c.042-.28.187-.467.434-.45.314.017.493-.145.672-.34.119-.136.247-.263.383-.382.17-.144.264-.305.255-.543-.009-.297.196-.484.442-.484.247 0 .392.195.443.484.025.17.11.348.221.492.128.179.315.314.468.476.162.178.323.305.596.288.263-.017.434.162.46.433.016.246-.197.4-.477.45-.17.026-.35.11-.494.212-.187.136-.323.331-.502.484-.187.162-.298.331-.28.603.016.263-.162.424-.409.433-.272.008-.443-.161-.46-.433-.025-.662-.638-.866-.987-1.273-.05-.06-.22-.026-.34-.034-.272-.026-.383-.204-.425-.416zm2.22-.578c-.212.204-.408.382-.561.527.179.212.357.416.502.585.204-.195.4-.382.595-.577-.178-.187-.365-.365-.535-.535zm9.113.594c-.042.221-.17.408-.433.391-.264-.017-.434.102-.604.28-.145.162-.29.306-.451.45-.162.145-.264.306-.264.543.008.29-.204.484-.443.484-.238 0-.391-.203-.442-.492a1.119 1.119 0 00-.221-.492c-.128-.179-.315-.314-.468-.476-.17-.186-.35-.314-.63-.297-.264.017-.417-.17-.425-.416-.009-.254.153-.433.408-.441.68-.026.893-.645 1.302-1.002.06-.05.025-.204.025-.306.017-.263.162-.416.417-.432.239-.009.443.127.443.365 0 .679.621.882.953 1.307.05.068.221.042.332.05.323.035.51.213.502.485zm-2.152-.594c-.221.196-.417.374-.587.527.204.203.391.399.553.569.179-.187.366-.374.544-.552-.161-.179-.348-.374-.51-.544zm-11.402 6.63c-.221-.025-.392-.186-.375-.45.017-.271-.102-.433-.289-.594a4.515 4.515 0 01-.45-.45.611.611 0 00-.52-.229c-.298.008-.476-.178-.476-.433 0-.28.17-.407.502-.45a.942.942 0 00.434-.187c.161-.118.289-.28.434-.416.212-.195.39-.382.374-.721-.017-.246.179-.4.442-.4.247.01.434.154.417.391-.025.323.145.51.35.697.135.127.28.263.408.407.144.17.297.272.544.246.255-.025.417.119.451.39.009.238-.162.485-.417.468-.34-.026-.527.16-.723.373-.12.127-.23.246-.357.357-.18.152-.273.322-.264.568.017.272-.179.442-.485.433zm.076-2.716c-.187.195-.383.382-.553.56.17.187.35.382.494.535.221-.187.425-.365.612-.518a19.93 19.93 0 00-.553-.577zm10.424 1.375c-.026.22-.187.382-.451.374-.255-.009-.417.084-.57.263a4.62 4.62 0 01-.409.407c-.187.17-.314.34-.306.62.017.28-.213.467-.468.441-.272-.034-.383-.195-.417-.467-.017-.17-.11-.34-.213-.483-.102-.145-.246-.255-.374-.383-.204-.203-.383-.424-.749-.39-.238.026-.4-.178-.391-.441.008-.264.162-.433.425-.416.264.017.434-.094.596-.272.128-.153.28-.289.425-.424.188-.17.315-.34.298-.62-.017-.263.153-.408.417-.416.264-.009.443.153.443.399.017.688.655.883.995 1.307.043.051.204.017.306.026.281 0 .451.17.443.475zm-2.178.484c.195-.178.391-.357.527-.484a29.37 29.37 0 00-.502-.628c-.213.204-.4.39-.587.56.196.187.383.365.562.552zm12.167-1.876c-.093-.297-.357-.314-.62-.314-.886.008-1.762-.009-2.647.008a1.16 1.16 0 00-.604.196A39574.31 39574.31 0 004.657 23.85c-.195.144-.331.297-.246.56.085.255.289.305.527.305.936-.008 1.872.009 2.8-.008a.955.955 0 00.519-.178c.723-.51 1.438-1.044 2.212-1.622v2.318c0 .687-.017 1.375.017 2.063.008.152.153.348.298.424.102.051.349-.017.442-.119.102-.102.128-.305.136-.467a416.62 416.62 0 000-4.61c0-.186.043-.305.205-.424 2.85-2.096 5.7-4.193 8.551-6.298 2.621-1.927 5.242-3.863 7.854-5.79.204-.144.417-.306.323-.611zm-.379 9.982h-4.842c-.493 0-.616.125-.616.619v7.177c0 .047 0 .086.008.125 0 .032-.008.063-.008.102 0 .564.447 1.019 1 1.019.555 0 1.002-.455 1.002-1.019 0-.055-.008-.102-.016-.157v-5.828h3.334c.046.007.092.007.138.007.554 0 1-.455 1-1.019 0-.564-.446-1.026-1-1.026z" fill="#3B3938"/></svg>