<svg width="48" height="49" fill="none" xmlns="http://www.w3.org/2000/svg"><path d="M17.385 42.128h-2.49a.75.75 0 110-1.5h2.49a.75.75 0 110 1.5zm23.302 0H20.032a.75.75 0 110-1.5h19.905V8.753H14.092a.75.75 0 110-1.5h26.595a.75.75 0 01.75.75v33.375a.75.75 0 01-.75.75zm-29.49 0H7.313a.75.75 0 01-.75-.75V8.003a.75.75 0 01.75-.75H9.51a.75.75 0 110 1.5H8.063v31.875h3.134a.75.75 0 110 1.5z" fill="#FFDF8B"/><path d="M15.966 33.709a.75.75 0 01-.495-1.297l5.115-4.826-5.577-.162a.75.75 0 01.043-1.5l7.407.216a.75.75 0 01.495 1.298l-6.427 6.07a.75.75 0 01-.561.201zm-5.748 5.422a.75.75 0 01-.526-.24.75.75 0 01.03-1.057l3.272-3.079a.75.75 0 011.019 1.088l-3.257 3.086a.75.75 0 01-.538.202z" fill="#FFDF8B"/><path d="M22.674 35.233a.75.75 0 01-.729-.727l-.274-7.586a.752.752 0 011.502-.054l.282 7.587a.748.748 0 01-.728.774l-.053.006zm-5.289 6.895h-2.49a.75.75 0 110-1.5h2.49a.75.75 0 110 1.5zM32.25 23.385h-6.855a.75.75 0 01-.525-1.282L35.82 11.19a.75.75 0 111.057 1.065l-9.667 9.63h5.04a.75.75 0 010 1.5z" fill="#FFDF8B"/><path d="M25.395 23.385a.75.75 0 01-.75-.697l-.457-6.998a.752.752 0 011.5-.097l.457 7.012a.75.75 0 01-.697.795l-.053-.015z" fill="#FFDF8B"/></svg>