<svg width="31" height="32" fill="none" xmlns="http://www.w3.org/2000/svg"><path d="M3.577 28.917s-.142 0-.142-.142c-.568-.142-.852-.568-.852-1.136v-2.555c0-.851.568-1.42 1.42-1.42H6.7v-2.696c0-.852.567-1.42 1.42-1.42h2.695v-2.554c0-.284 0-.426.142-.71.142-.71.568-.852 1.135-.852h6.814c.851 0 1.277.568 1.277 1.42v2.697h2.698c.852 0 1.42.567 1.42 1.419v2.697h2.98c.568 0 .994.426 1.136.852v3.406c-.142.568-.568.852-.994.994H3.577zm8.516-12.207v2.555c0 .142.142.142.284.142h6.388c.142 0 .284 0 .284-.284v-2.555c-2.413.142-4.684.142-6.956.142zm6.814 10.93v-2.698h-6.814v2.697h6.814zm-4.117-6.814H7.977v2.697h6.813v-2.697zm1.42 2.697h6.813v-2.697H16.21v2.697zm-5.536 4.116v-2.697H3.861v2.697h6.813zm9.652-2.697v2.697h6.813v-2.697h-6.813z" fill="#3B3938"/><path d="M13.939 11.174l-.852.852c-.142.284-.426.284-.852.284-.851-.142-1.561-.284-2.413-.426-.142 0-.142 0-.283.142-.284.142-.426.284-.71.567.284.426.426.852.284 1.278 0 .142-.142.426-.284.568-.994.993-1.987 2.129-2.981 3.122a1.372 1.372 0 01-1.987 0l-.852-.851c-.568-.568-.568-1.278 0-1.846.994-1.135 2.13-2.129 3.123-3.122.568-.568 1.135-.568 1.845 0 .284-.426.568-.71.852-.994.142-.142.426-.284.71-.284l2.554.426c.142 0 .284 0 .284-.142l.568-.568h-.142a8.135 8.135 0 00-1.561-1.561c-.71-.852-.568-1.845.426-2.271 2.555-.994 5.11-2.13 7.523-3.123.993-.426 1.845.284 1.845 1.278 0 .142 0 .284-.142.426-.994 2.555-2.13 4.968-3.123 7.522-.426.994-1.42 1.278-2.271.426-.426-.568-.994-1.135-1.561-1.703zm5.82-6.671s0-.142 0 0c-2.556.993-5.11 1.987-7.666 3.122.71.568 1.278 1.136 1.846 1.704l.142-.142c.426-.426.851-.71 1.135-1.136.142-.142.426-.284.71-.142s.426.284.426.568 0 .426-.284.568c-.284.426-.852.852-1.136 1.277l1.845 1.846 2.981-7.665zm-12.634 8.09l-3.122 3.123.851.852 3.123-3.123-.852-.852z" fill="#3B3938"/></svg>