<svg width="24" height="24" fill="none" xmlns="http://www.w3.org/2000/svg"><g clip-path="url(#clip0_1393_7024)"><path d="M0 12c0 6.627 5.373 12 12 12s12-5.373 12-12S18.627 0 12 0 0 5.373 0 12z" fill="#08C"/><path d="M5.894 11.736c3.49-1.553 5.816-2.576 6.98-3.07C16.2 7.252 16.89 7.007 17.34 7c.099-.002.32.023.464.142.12.1.154.236.17.331.016.095.036.312.02.481-.18 1.933-.96 6.623-1.356 8.787-.168.916-.498 1.224-.818 1.253-.695.066-1.223-.468-1.896-.92-1.054-.704-1.65-1.143-2.672-1.831-1.182-.796-.416-1.233.258-1.947.176-.187 3.24-3.031 3.298-3.29.008-.032.015-.152-.055-.215-.07-.064-.174-.042-.248-.025-.106.025-1.789 1.16-5.05 3.408-.477.335-.91.498-1.297.49-.428-.01-1.25-.248-1.861-.45-.75-.25-1.346-.38-1.294-.803.027-.22.324-.445.89-.675z" fill="#fff"/></g><defs><clipPath id="clip0_1393_7024"><path fill="#fff" d="M0 0h24v24H0z"/></clipPath></defs></svg>