<svg width="24" height="24" fill="none" xmlns="http://www.w3.org/2000/svg"><path fill-rule="evenodd" clip-rule="evenodd" d="M3 12a9 9 0 009 9 9 9 0 009-9 9 9 0 00-9-9 9 9 0 00-9 9zm8.043-6.128a.958.958 0 111.915.001.958.958 0 01-1.915 0zM4.915 12a.958.958 0 111.916 0 .958.958 0 01-1.916 0zm12.255 0a.958.958 0 111.916 0 .958.958 0 01-1.916 0zm-6.127 6.128a.958.958 0 111.915 0 .958.958 0 01-1.915 0zm-.448-5.672c-.204-.2-2.78-2.823-2.78-2.823A.744.744 0 118.866 8.58l2.528 2.535a.588.588 0 00.82 0l3.684-3.684a.745.745 0 111.053 1.053l-3.937 3.984a1.73 1.73 0 01-1.207.49 1.71 1.71 0 01-1.213-.502z" fill="#FFDF8B"/></svg>