<svg width="39" height="53" fill="none" xmlns="http://www.w3.org/2000/svg"><g clip-path="url(#clip0_1043_9150)" fill="#fff" fill-opacity=".46"><path d="M16.555 53c-1.099-.415-1.886-1.121-1.913-2.38-.027-.9 0-1.8.109-2.686.339-2.685.746-5.357 1.112-8.042.014-.07.041-.125.068-.263.502.069 1.018.152 1.574.235-.176 1.232-.353 2.422-.502 3.613-.271 2.242-.543 4.485-.746 6.727-.082.872.244 1.135 1.099 1.135h4.37c.732 0 1.072-.29 1.004-1.024-.15-1.8-.34-3.6-.557-5.399-.19-1.536-.434-3.072-.637-4.609-.014-.138-.014-.263-.028-.443.516-.083 1.005-.152 1.56-.235.123.872.259 1.716.367 2.574.285 2.063.597 4.125.855 6.201.095.803.109 1.62.04 2.423-.08.941-.623 1.62-1.492 1.993a5.4 5.4 0 00-.407.194C20.477 53 18.523 53 16.555 53z"/><path d="M13.72 7.24c-.435-.291-.815-.527-1.168-.79-.312-.235-.461-.553-.325-.955.135-.387.42-.567.814-.567 1.343-.028 2.483-.596 3.392-1.537.814-.844 1.52-1.8 2.185-2.768.57-.817 1.208-.858 1.71.014.8 1.384 1.777 2.602 3.12 3.488.747.484 1.548.775 2.43.803.42.013.733.166.868.581.136.415-.04.747-.366.983-.34.249-.706.47-1.1.733 1.086.997 2.267 1.73 3.746 1.841.923.07 1.235.582.828 1.426-.489 1.024-1.249 1.744-2.253 2.228l-.407.208c-.013 0-.013.028-.04.055.854.582 1.764.983 2.808 1.094.285.028.652.263.774.512.108.222.027.706-.163.872-1.683 1.509-3.61 2.284-5.89 1.717-1.003-.25-1.79-.873-2.428-1.69-.055-.068-.109-.124-.163-.193-1.67 3.087-4.003 2.478-5.252-.014a51.09 51.09 0 00-.298.346 4.817 4.817 0 01-2.728 1.675 1.27 1.27 0 00-.651.415c-1.52 1.966-3.27 3.585-5.713 4.402.122.11.203.194.312.263 2.66 1.73 6.242.554 7.41-2.436.108-.29.162-.595.216-.9.082-.512.367-.83.815-.83.46 0 .787.332.814.872.04 1.093.325 2.104.936 3.017.95 1.412 2.063 1.412 3.013.014.583-.858.868-1.827.936-2.865.04-.678.312-1.038.814-1.038.475 0 .746.318.828.969.217 1.702 2.008 3.515 3.867 3.89 1.466.29 2.81-.029 4.058-.9-.815-.43-1.642-.776-2.375-1.26-.733-.485-1.384-1.08-2.063-1.62.421-.47.774-.858 1.127-1.245.488.429.936.83 1.397 1.19 1.1.858 2.307 1.412 3.718 1.481.258.014.625.263.733.498.095.236.014.665-.149.886-.868 1.177-2.035 1.952-3.406 2.409-.15.055-.312.097-.53.166 1.724 1.98 3.719 3.322 6.338 3.46.448.028.855.056 1.045.554.176.47-.055.817-.367 1.093-.95.845-1.927 1.661-2.89 2.492a1.302 1.302 0 00-.15-.07c.11.153.218.319.34.471 1.126 1.426 2.483 2.589 3.962 3.613.136.097.285.18.421.29.312.236.461.554.34.942-.123.388-.408.581-.815.581-3.162-.027-6.283-.263-9.309-1.315a.595.595 0 00-.42-.014c.407.471.8.97 1.234 1.412.299.305.516.61.34 1.038-.163.43-.516.54-.95.54-1.846-.027-3.678-.194-5.469-.733-1.547-.471-2.958-1.19-4.03-2.464-.041 0-.095 0-.109.014-1.737 1.938-4.044 2.63-6.473 2.962-.99.138-1.995.152-2.985.221-.448.028-.814-.083-.99-.54-.164-.442.054-.733.352-1.038.434-.443.841-.94 1.316-1.48-1.153.29-2.17.594-3.202.816-2.144.457-4.329.581-6.514.595-.434 0-.773-.152-.909-.581-.15-.47.095-.79.462-1.038 1.546-1.038 2.971-2.215 4.165-3.682.123-.153.231-.305.34-.457.027-.042.04-.083.013-.028-1.004-.844-1.967-1.675-2.93-2.491a1.809 1.809 0 01-.3-.346c-.366-.568-.067-1.274.584-1.301 2.334-.111 4.329-.997 5.97-2.672.38.374.747.734 1.14 1.135-1.438 1.523-3.161 2.464-5.21 3.004.8.72 1.67 1.176 2.619 1.48 3.718 1.219 7.41-1.328 7.721-5.328.054-.623.367-.97.842-.955.488.014.76.373.787 1.01a8.265 8.265 0 001.438 4.305c.109.152.23.305.353.443 1.004 1.149 1.954 1.149 2.931-.028 1.1-1.315 1.628-2.879 1.764-4.595.014-.097 0-.208.014-.305.04-.498.366-.83.8-.83.448 0 .774.318.814.816.123 1.565.787 2.88 1.805 4.015 1.656 1.854 3.976 2.283 6.473 1.231.407-.166.8-.387 1.167-.609.285-.166.556-.387.896-.636-.136-.056-.19-.083-.272-.111-2.605-.678-4.6-2.256-6.228-4.388-.122-.166-.312-.346-.502-.374-1.968-.276-3.529-1.232-4.736-2.865-.787 1.467-1.656 2.88-3.488 2.88s-2.714-1.399-3.5-2.88c-.964 1.315-2.172 2.2-3.692 2.644-2.592.747-5.631-.277-7.205-2.478-.163-.221-.231-.637-.136-.886.081-.221.434-.484.678-.484 1.697-.07 3.08-.845 4.33-1.938.528-.47 1.03-.983 1.641-1.55-1.248-.36-2.225-.845-3.067-1.592-.312-.263-.515-.554-.393-.983.136-.443.461-.581.895-.609 1.032-.055 1.914-.498 2.728-1.052-.53-.346-1.113-.623-1.56-1.052a9.272 9.272 0 01-1.1-1.578c-.38-.692-.013-1.26.774-1.315 1.52-.083 2.727-.83 3.867-1.827zm14.098 3.349c-.068-.042-.108-.083-.149-.097a10.228 10.228 0 01-3.976-2.505c-.108-.111-.366-.139-.543-.111-2.442.47-4.871.47-7.314 0-.19-.042-.448.07-.61.194-.611.456-1.168.996-1.805 1.412-.692.429-1.452.747-2.199 1.12.53.513 1.18.804 1.887.9.23.028.502-.096.705-.235.394-.277.733-.595 1.14-.941.285.235.679.567 1.1.9-1.358 1.757-3.027 3.03-4.967 4.014 2.266 1.218 4.858-.166 5.156-2.7.082-.664.34-.982.814-.982.503 0 .706.373.842 1.024.163.803.366 1.62.732 2.34.53 1.037 1.14 1.01 1.751.027.461-.72.692-1.536.746-2.395.041-.636.313-.996.788-1.01.474-.014.773.318.84.955.286 2.547 3 4.014 5.144 2.727-1.927-.97-3.596-2.256-4.967-3.987.434-.36.841-.692 1.127-.927.42.374.787.706 1.167 1.024.122.097.285.208.434.194.814-.055 1.547-.346 2.157-.941zM11.67 38.009c1.642-.138 3.135-.401 4.533-1.066 1.126-.54 2.09-1.245 2.591-2.491.095-.235.503-.47.747-.457.258.014.529.29.719.526.326.416.516.955.882 1.301 1.723 1.592 3.881 1.952 6.12 2.201-.027-.11-.027-.166-.054-.207-1.276-1.98-1.94-4.153-2.022-6.52 0-.11-.04-.235-.109-.332a82.094 82.094 0 00-1.384-1.786c-.068.166-.15.346-.23.526-.462 1.01-1.059 1.924-1.928 2.63-1.194.97-2.537 1.121-3.69.236-.693-.526-1.249-1.246-1.792-1.938-.339-.43-.529-.97-.787-1.468-.325.471-.597.942-.963 1.343-.367.388-.516.79-.53 1.329-.013.568-.122 1.135-.23 1.689-.299 1.564-.936 3.017-1.873 4.484zm.407-5.647c-2.388.747-2.388.733-5.238.47-.122-.013-.271.139-.38.25a489.12 489.12 0 00-2.7 2.99 5.762 5.762 0 01-.217.262c2.374-.193 4.64-.526 6.798-1.411 1.018-.416 1.683-1.025 1.67-2.201.013-.097.04-.194.067-.36zm14.86.055c.054.319.149.65.176.983.054.581.366.914.855 1.163 1.452.775 3.026 1.176 4.627 1.44.923.152 1.86.235 2.822.36-.04-.125-.04-.167-.054-.18a16.384 16.384 0 01-2.89-3.184c-.068-.097-.299-.125-.462-.125-.95.042-1.913.18-2.863.11-.732-.04-1.452-.36-2.212-.567zM15.51 6.021c2.05.803 6.677.692 7.925-.041-1.614-.845-2.904-2.049-3.935-3.6-1.045 1.606-2.348 2.77-3.99 3.641z"/></g><defs><clipPath id="clip0_1043_9150"><path fill="#fff" d="M0 0h39v53H0z"/></clipPath></defs></svg>