<svg width="24" height="24" fill="none" xmlns="http://www.w3.org/2000/svg"><g clip-path="url(#clip0_1393_7018)"><path d="M0 12c0 6.627 5.373 12 12 12s12-5.373 12-12S18.627 0 12 0 0 5.373 0 12z" fill="#07F"/><path fill-rule="evenodd" clip-rule="evenodd" d="M19.39 8.186c-.2-.152-.917-.152-1.628-.152-.724.015-1.45.015-1.62.084-.155.06-.503.924-.954 1.81-.518 1.002-1.147 1.971-1.546 1.956-.525 0-.4-1.645-.362-2.864.007-.796-.119-1.054-.23-1.122-.274-.197-1.028-.386-1.028-.386s-2.264-.175-2.582.825c.436.061 1.176-.076.888 3.024-.022.152-.348 1.425-1.399-.296-.266-.431-1.272-3.016-1.627-3.03-1.162-.024-2.315-.077-2.715.15-.377.228.503 2.001 1.99 4.381 1.206 1.955 2.486 3.471 4.705 3.85.422.046 1.502.09 1.85-.076.229-.113-.06-1.796.732-1.963.348-.068 1.701 1.759 2.211 1.963.312.13.992.182 1.688.152.754-.023 1.612.076 1.693-.455.186-1.16-2.285-2.675-2.352-3.388-.06-.515.903-1.462 1.39-2.19.607-.879 1.273-1.94.896-2.273z" fill="#fff"/></g><defs><clipPath id="clip0_1393_7018"><path fill="#fff" d="M0 0h24v24H0z"/></clipPath></defs></svg>