<svg width="24" height="24" fill="none" xmlns="http://www.w3.org/2000/svg"><path d="M12 24C5.374 24 0 18.626 0 12S5.374 0 12 0s12 5.374 12 12-5.374 12-12 12z" fill="red"/><path d="M19.636 8.138a1.999 1.999 0 00-1.409-1.418c-1.243-.336-6.225-.336-6.225-.336s-4.985 0-6.226.336a1.999 1.999 0 00-1.409 1.418C4.031 9.388 4.031 12 4.031 12s0 2.611.334 3.862a1.999 1.999 0 001.409 1.418c1.243.336 6.225.336 6.225.336s4.985 0 6.226-.336a1.999 1.999 0 001.409-1.418c.333-1.25.333-3.862.333-3.862s0-2.611-.33-3.862zm-9.266 6.23V9.632L14.534 12l-4.164 2.369z" fill="#fff"/></svg>