<svg width="18" height="18" viewBox="0 0 18 18" fill="none" xmlns="http://www.w3.org/2000/svg">
<path d="M6.74869 3.9352C6.82272 3.93477 6.89611 3.94896 6.96464 3.97695C7.03317 4.00494 7.09551 4.04619 7.14807 4.09832L11.6481 8.59832C11.7008 8.65061 11.7426 8.71283 11.7712 8.78137C11.7998 8.84992 11.8145 8.92344 11.8145 8.9977C11.8145 9.07195 11.7998 9.14548 11.7712 9.21402C11.7426 9.28257 11.7008 9.34478 11.6481 9.39707L7.14807 13.8971C7.04215 14.003 6.89849 14.0625 6.74869 14.0625C6.5989 14.0625 6.45524 14.003 6.34932 13.8971C6.2434 13.7912 6.18389 13.6475 6.18389 13.4977C6.18389 13.3479 6.2434 13.2042 6.34932 13.0983L10.4556 8.9977L6.34932 4.89707C6.2966 4.84478 6.25475 4.78257 6.22619 4.71402C6.19763 4.64547 6.18293 4.57195 6.18293 4.4977C6.18293 4.42344 6.19763 4.34992 6.22619 4.28137C6.25475 4.21283 6.2966 4.15061 6.34932 4.09832C6.40188 4.04619 6.46421 4.00494 6.53274 3.97695C6.60128 3.94896 6.67466 3.93477 6.74869 3.9352Z" fill="#F1F1F1"/>
</svg>
