<svg width="6" height="12" viewBox="0 0 6 12" fill="none" xmlns="http://www.w3.org/2000/svg">
<path d="M0.750157 0.935196C0.824186 0.934768 0.897572 0.948957 0.966105 0.97695C1.03464 1.00494 1.09697 1.04619 1.14953 1.09832L5.64953 5.59832C5.70225 5.65061 5.7441 5.71283 5.77266 5.78137C5.80122 5.84992 5.81592 5.92344 5.81592 5.9977C5.81592 6.07195 5.80122 6.14548 5.77266 6.21402C5.7441 6.28257 5.70225 6.34478 5.64953 6.39707L1.14953 10.8971C1.04361 11.003 0.899951 11.0625 0.750156 11.0625C0.600362 11.0625 0.456703 11.003 0.350782 10.8971C0.244861 10.7912 0.185355 10.6475 0.185355 10.4977C0.185355 10.3479 0.244861 10.2042 0.350782 10.0983L4.45703 5.9977L0.350783 1.89707C0.29806 1.84478 0.256213 1.78257 0.227655 1.71402C0.199098 1.64547 0.184396 1.57195 0.184396 1.4977C0.184396 1.42344 0.199098 1.34992 0.227655 1.28137C0.256213 1.21283 0.298061 1.15061 0.350783 1.09832C0.403343 1.04619 0.465676 1.00494 0.534209 0.976949C0.602743 0.948957 0.676129 0.934768 0.750157 0.935196Z" fill="black"/>
</svg>
