<svg width="24" height="24" viewBox="0 0 24 24" fill="none" xmlns="http://www.w3.org/2000/svg">
<g clip-path="url(#clip0_1249_910)">
<path d="M9.05203 9.97103C9.17374 10.0934 9.33372 10.1542 9.49369 10.1542C9.65367 10.1542 9.81365 10.0934 9.93535 9.97103C10.1794 9.72699 10.1794 9.33112 9.93535 9.08708L4.93843 4.08513C4.69438 3.84109 4.29915 3.84109 4.0551 4.08513C3.81106 4.32918 3.81106 4.72504 4.0551 4.96908L9.05203 9.97103Z" fill="black"/>
<path d="M12.8757 12.03L19.9304 4.96907C20.1744 4.72503 20.1744 4.32916 19.9304 4.08512C19.6863 3.84108 19.2911 3.73317 19.0471 3.97784L11.5513 11.3725H11.3657V11.589L3.96279 19.091C3.71875 19.335 3.76518 19.7309 4.00859 19.9749C4.1303 20.0972 4.31349 20.1581 4.47347 20.1581C4.63344 20.1581 4.80471 20.0972 4.92642 19.9749L11.9867 12.9146L19.0439 19.9755C19.1656 20.0979 19.3275 20.1587 19.4868 20.1587C19.6462 20.1587 19.8074 20.0979 19.9291 19.9755C20.1732 19.7315 20.1738 19.3356 19.9298 19.0916L12.8757 12.03Z" fill="black"/>
</g>
<defs>
<clipPath id="clip0_1249_910">
<rect width="24" height="24" fill="white"/>
</clipPath>
</defs>
</svg>
