<svg width="24" height="24" viewBox="0 0 24 24" fill="none" xmlns="http://www.w3.org/2000/svg">
<path d="M16.6006 15.4491C16.4199 15.2673 16.2051 15.1231 15.9687 15.0247C15.7322 14.9263 15.4787 14.8757 15.2226 14.8757C14.9666 14.8757 14.7131 14.9263 14.4766 15.0247C14.2401 15.1231 14.0254 15.2673 13.8447 15.4491L12.9044 16.3913C11.8457 15.718 10.8648 14.9291 9.97978 14.039C9.09154 13.1521 8.30423 12.1692 7.63233 11.1083L8.57261 10.1661C8.75397 9.98496 8.89787 9.76975 8.99606 9.53279C9.09425 9.29583 9.14479 9.04178 9.14479 8.78521C9.14479 8.52863 9.09425 8.27458 8.99606 8.03762C8.89787 7.80066 8.75397 7.58546 8.57261 7.40435L6.73744 5.57187C6.55926 5.38953 6.34631 5.24494 6.11126 5.14671C5.87621 5.04847 5.62385 4.99859 5.36917 5.00003V5.00003C5.11269 4.9994 4.85862 5.0496 4.62157 5.14774C4.38453 5.24588 4.16918 5.39002 3.98794 5.57187L3.10602 6.44912C2.68567 6.90202 2.37194 7.44356 2.1879 8.03394C2.00386 8.62431 1.95419 9.24851 2.04253 9.86065C2.25004 12.2975 3.84528 15.2281 6.30297 17.6974C8.76066 20.1667 11.7177 21.7588 14.1494 21.9927C14.3309 22.0024 14.5127 22.0024 14.6941 21.9927C15.2176 22.0147 15.7402 21.9318 16.2312 21.7488C16.7223 21.5658 17.172 21.2864 17.5539 20.927L18.4293 20.0433C18.6108 19.8616 18.7546 19.6459 18.8526 19.4083C18.9505 19.1708 19.0006 18.9162 19 18.6592C19.0014 18.404 18.9516 18.1511 18.8536 17.9155C18.7556 17.68 18.6113 17.4666 18.4293 17.288L16.6006 15.4491Z" fill="#FFDF8B"/>
<path d="M18.9747 4.99753C18.0193 4.045 16.8835 3.28973 15.6328 2.77526C14.3821 2.2608 13.0412 1.99732 11.6875 2.00002C11.5051 2.00002 11.3303 2.07196 11.2014 2.20001C11.0724 2.32806 11 2.50173 11 2.68282C11 2.86392 11.0724 3.03759 11.2014 3.16564C11.3303 3.29369 11.5051 3.36563 11.6875 3.36563C12.8675 3.36559 14.0359 3.59765 15.1251 4.04842C16.2144 4.49919 17.203 5.15975 18.0339 5.99198C18.8647 6.82421 19.5215 7.81163 19.9661 8.89725C20.4108 9.98288 20.6346 11.1452 20.6246 12.3172C20.6246 12.4983 20.697 12.672 20.8259 12.8C20.9549 12.9281 21.1297 13 21.3121 13C21.4944 13 21.6692 12.9281 21.7982 12.8C21.9271 12.672 21.9995 12.4983 21.9995 12.3172C22.0127 10.9584 21.7518 9.61068 21.2323 8.35356C20.7128 7.09644 19.9452 5.95534 18.9747 4.99753V4.99753Z" fill="#FFDF8B"/>
<path d="M15.4864 8.4989C15.8647 8.87083 16.164 9.31384 16.3667 9.80187C16.5693 10.2899 16.6712 10.8131 16.6663 11.3407C16.6663 11.5155 16.7366 11.6832 16.8616 11.8069C16.9866 11.9305 17.1562 12 17.333 12C17.5098 12 17.6793 11.9305 17.8043 11.8069C17.9293 11.6832 17.9996 11.5155 17.9996 11.3407C18.0084 10.6424 17.877 9.94944 17.6129 9.30186C17.3489 8.65427 16.9575 8.06498 16.4614 7.56817C15.9653 7.07136 15.3744 6.67692 14.723 6.40773C14.0716 6.13853 13.3726 5.99995 12.6666 6C12.4898 6 12.3203 6.06947 12.1952 6.19312C12.0702 6.31677 12 6.48447 12 6.65934C12 6.83421 12.0702 7.00191 12.1952 7.12557C12.3203 7.24922 12.4898 7.31868 12.6666 7.31868C13.192 7.3226 13.7114 7.42884 14.1952 7.63134C14.6791 7.83385 15.1178 8.12865 15.4864 8.4989Z" fill="#FFDF8B"/>
</svg>
