<svg width="49" height="48" viewBox="0 0 49 48" fill="none" xmlns="http://www.w3.org/2000/svg">
<path d="M10.4424 37.4097V26.7868C11.6227 26.7868 13.1965 26.3934 13.1965 28.754V34.6556H15.5571C16.344 34.6556 17.1309 35.0491 17.1309 35.836V37.4097H10.4424Z" fill="white"/>
<path d="M40.7378 37.4097V26.7868C39.5575 26.7868 37.9837 26.3934 37.9837 28.754V34.6556H35.623C34.8362 34.6556 34.0493 35.0491 34.0493 35.836V37.4097H40.7378Z" fill="white"/>
<rect x="1.78711" y="12.2295" width="47.2131" height="4.72131" fill="white"/>
<rect x="4.14746" y="16.1639" width="3.14754" height="24.3934" fill="white"/>
<rect x="43.4917" y="16.1639" width="3.14754" height="24.3934" fill="white"/>
<rect x="1" y="39.7705" width="48" height="3.14754" fill="white"/>
<rect x="3.36084" y="42.1311" width="44.0656" height="5.50819" fill="white"/>
<path d="M49.0002 13.0164H1.78711L25.3937 2L49.0002 13.0164Z" fill="white"/>
<path d="M25.3937 18.5247C22.456 18.5247 21.0221 21.1476 20.6724 22.4591H30.115C29.7653 21.1476 28.3314 18.5247 25.3937 18.5247Z" fill="white"/>
<path d="M25.3934 24.0328C23.8196 24.0328 23.1639 22.7213 23.0327 22.0656H27.754C27.6229 22.7213 26.9671 24.0328 25.3934 24.0328Z" fill="#FFDF8B"/>
<rect x="16.7378" y="30.3279" width="17.3115" height="3.14754" rx="1.57377" fill="#FFDF8B"/>
<path fill-rule="evenodd" clip-rule="evenodd" d="M32.4755 31.1148H18.3116C17.877 31.1148 17.5247 31.4671 17.5247 31.9017C17.5247 32.3362 17.877 32.6885 18.3116 32.6885H32.4755C32.9101 32.6885 33.2624 32.3362 33.2624 31.9017C33.2624 31.4671 32.9101 31.1148 32.4755 31.1148ZM18.3116 30.3279C17.4424 30.3279 16.7378 31.0325 16.7378 31.9017C16.7378 32.7708 17.4424 33.4754 18.3116 33.4754H32.4755C33.3447 33.4754 34.0493 32.7708 34.0493 31.9017C34.0493 31.0325 33.3447 30.3279 32.4755 30.3279H18.3116Z" fill="#3B3938"/>
<path fill-rule="evenodd" clip-rule="evenodd" d="M1.34157 16.9508H3.70223V41.7705H0.554688V44.918H2.91534V47.6393H46.9809V44.918H48.5547V41.7705H46.194V16.9508H48.5547V12.2295H46.8685L24.9481 2L3.02778 12.2295H1.34157V16.9508ZM47.7678 13.0164H2.12846V16.1639H47.7678V13.0164ZM45.0078 12.2295L26.8819 3.77077L35.3406 12.2295H45.0078ZM25.3416 12.2295V3.34329L34.2278 12.2295H25.3416ZM23.7521 3.42651L4.88851 12.2295H14.9491L23.7521 3.42651ZM16.0619 12.2295H24.5547V3.73673L16.0619 12.2295ZM6.84977 41.7705V16.9508H24.5547V18.5407C22.3712 18.7212 21.0898 20.3862 20.5118 21.6721C20.3822 21.9605 20.2879 22.2298 20.2268 22.459H22.2875C22.4037 22.8032 22.6119 23.2079 22.9373 23.5615C23.3793 24.0419 24.0379 24.4262 24.9481 24.4262C25.8584 24.4262 26.5169 24.0419 26.959 23.5615C27.2843 23.2079 27.4925 22.8032 27.6087 22.459H29.6694C29.6083 22.2298 29.5141 21.9605 29.3845 21.6721C28.8064 20.3862 27.525 18.7211 25.3416 18.5407V16.9508H43.0465V41.7705H39.5055V39.4098H40.2924V26.7869C40.1471 26.7869 39.9958 26.7809 39.8423 26.7749C38.7485 26.7317 37.5383 26.6841 37.5383 28.7541V34.6557H35.1776C34.3908 34.6557 33.6039 35.0492 33.6039 35.8361V39.4098H34.7842V41.7705H31.2432V33.082H30.4563V36.6557H19.4399V33.082H18.6531V41.7705H15.5055V39.4098H16.6858V35.8361C16.6858 35.0492 15.899 34.6557 15.1121 34.6557H12.7514V28.7541C12.7514 26.6841 11.5413 26.7317 10.4474 26.7749C10.3848 26.7774 10.3227 26.7798 10.2611 26.7818C10.1716 26.7848 10.0834 26.7869 9.99731 26.7869V39.4098H10.7842V41.7705H6.84977ZM1.34157 42.5574V44.1311H47.7678V42.5574H1.34157ZM14.7186 41.7705H11.5711V39.4098H14.7186V41.7705ZM19.4399 41.7705H30.4563V35.8033H19.4399V41.7705ZM35.5711 41.7705H38.7186V39.4098H35.5711V41.7705ZM21.3875 21.6721C21.5872 21.2957 21.8534 20.8979 22.1907 20.5385C22.8444 19.8421 23.7406 19.3115 24.9481 19.3115C26.1556 19.3115 27.0518 19.8421 27.7056 20.5385C28.0428 20.8979 28.309 21.2957 28.5088 21.6721H21.3875ZM23.5163 23.0287C23.35 22.8479 23.2248 22.6474 23.1353 22.459H26.761C26.6714 22.6474 26.5462 22.8479 26.3799 23.0287C26.0678 23.3679 25.6116 23.6393 24.9481 23.6393C24.2846 23.6393 23.8284 23.3679 23.5163 23.0287ZM6.06288 41.7705V16.9508H4.48911V41.7705H6.06288ZM3.70223 46.8525V44.918H46.194V46.8525H3.70223ZM45.4072 41.7705V16.9508H43.8334V41.7705H45.4072ZM11.9645 28.7541V35.4426H15.1121C15.3888 35.4426 15.6205 35.5142 15.7576 35.6056C15.8713 35.6814 15.899 35.7479 15.899 35.8361V38.6229H10.7842V27.5508C10.81 27.5503 10.8356 27.5498 10.861 27.5496L10.8845 27.5493L10.9256 27.5492C11.2108 27.5492 11.4081 27.5738 11.5481 27.6248C11.6622 27.6663 11.7376 27.7235 11.8012 27.8366C11.8775 27.9723 11.9645 28.2416 11.9645 28.7541ZM38.3252 28.7541V35.4426H35.1776C34.9009 35.4426 34.6692 35.5142 34.5322 35.6056C34.4184 35.6814 34.3908 35.7479 34.3908 35.8361V38.6229H39.5055V27.5508C39.4576 27.5498 39.4107 27.5492 39.3641 27.5492C39.0789 27.5492 38.8816 27.5738 38.7416 27.6248C38.6275 27.6663 38.5521 27.7235 38.4885 27.8366C38.4122 27.9723 38.3252 28.2416 38.3252 28.7541ZM30.4563 37.4426V35.0164H19.4399V37.4426H30.4563Z" fill="#3B3938"/>
</svg>
