<svg width="48" height="48" viewBox="0 0 48 48" fill="none" xmlns="http://www.w3.org/2000/svg">
<path d="M41.1841 18.481H22.6425C21.1407 18.481 19.9277 19.8055 19.9277 21.4455V38.5388H43.8989V21.5086C43.8989 19.8055 42.6859 18.481 41.1841 18.481Z" fill="#FFDF8B"/>
<path d="M44.3031 38.9802H19.5811V21.5085C19.5811 19.6793 20.9673 18.1655 22.6424 18.1655H41.1839C42.859 18.1655 44.2453 19.6793 44.2453 21.5085V38.9802H44.3031ZM20.2742 38.2233H43.5522V21.5085C43.5522 20.0578 42.4547 18.9224 41.1839 18.9224H22.6424C21.3139 18.9224 20.2742 20.1208 20.2742 21.5085V38.2233Z" fill="#3B3938"/>
<path d="M47.6533 33.682H16.231V42.8909H47.6533V33.682Z" fill="white"/>
<path d="M47.9998 43.3325H15.8843V33.3036H47.9998V43.3325ZM16.5774 42.5756H47.3067V34.0605H16.5774V42.5756Z" fill="#3B3938"/>
<path d="M47.6533 38.3495H16.231V47.5584H47.6533V38.3495Z" fill="white"/>
<path d="M47.9998 47.9369H15.8843V37.908H47.9998V47.9369ZM16.5774 47.18H47.3067V38.7279H16.5774V47.18Z" fill="#3B3938"/>
<path d="M47.6533 47.3061V32.4204C47.6533 30.9066 46.498 29.6451 45.1118 29.6451H42.8013C41.415 29.6451 40.2598 30.9066 40.2598 32.4204V47.3061H47.6533Z" fill="white"/>
<path d="M47.9999 47.7477H39.8555V32.4205C39.8555 30.6544 41.1262 29.2667 42.7436 29.2667H45.054C46.6714 29.2667 47.9421 30.6544 47.9421 32.4205V47.7477H47.9999ZM40.5486 46.9277H47.249V32.4205C47.249 31.0959 46.267 30.0236 45.054 30.0236H42.7436C41.5306 30.0236 40.5486 31.0959 40.5486 32.4205V46.9277Z" fill="#3B3938"/>
<path d="M23.6245 47.3061V32.4204C23.6245 30.9066 22.4692 29.6451 21.0829 29.6451H18.7725C17.3862 29.6451 16.231 30.9066 16.231 32.4204V47.3061H23.6245Z" fill="white"/>
<path d="M23.9709 47.7477H15.8843V32.4205C15.8843 30.6544 17.155 29.2667 18.7724 29.2667H21.0828C22.7002 29.2667 23.9709 30.6544 23.9709 32.4205V47.7477ZM16.5774 46.9277H23.2778V32.4205C23.2778 31.0959 22.2958 30.0236 21.0828 30.0236H18.7724C17.5594 30.0236 16.5774 31.0959 16.5774 32.4205V46.9277Z" fill="#3B3938"/>
<path d="M20.2742 32.1682H19.5811V47.5585H20.2742V32.1682Z" fill="#3B3938"/>
<path d="M23.6245 31.7898H16.231V32.5467H23.6245V31.7898Z" fill="#3B3938"/>
<path d="M44.2454 32.1682H43.5522V47.5585H44.2454V32.1682Z" fill="#3B3938"/>
<path d="M47.5957 31.7898H40.2021V32.5467H47.5957V31.7898Z" fill="#3B3938"/>
<path d="M13.0544 46.1077H0.866699V47.5584H13.0544V46.1077Z" fill="white"/>
<path d="M13.4009 47.9999H0.52002V45.7292H13.4009V47.9999ZM1.21316 47.243H12.7077V46.5492H1.21316V47.243Z" fill="#3B3938"/>
<path d="M7.33572 11.5427H6.64258V46.1078H7.33572V11.5427Z" fill="#3B3938"/>
<path d="M10.5125 0.378418H6.93123H3.29224L0.461914 13.1826H6.93123H13.4005L10.5125 0.378418Z" fill="white"/>
<path d="M13.8628 13.5611H0L3.00361 0H10.8014L13.8628 13.5611ZM0.866426 12.8042H12.9386L10.2816 0.756899H3.58123L0.866426 12.8042Z" fill="#3B3938"/>
<path d="M3.98562 13.1826H3.29248V22.3285H3.98562V13.1826Z" fill="#3B3938"/>
<path d="M3.63878 22.0762C3.63878 22.0762 2.71459 24.5992 3.63878 24.5992C4.56297 24.5992 3.63878 22.0762 3.63878 22.0762Z" fill="white"/>
<path d="M3.63881 24.9776C3.40777 24.9776 3.17672 24.8515 3.00343 24.6623C2.5991 23.9685 3.11896 22.3916 3.29224 21.9501C3.35001 21.8239 3.46553 21.6978 3.63881 21.6978C3.75434 21.6978 3.92762 21.7608 3.98538 21.9501C4.15867 22.3916 4.67853 23.9685 4.27419 24.6623C4.10091 24.8515 3.92762 24.9776 3.63881 24.9776ZM3.63881 24.2208C3.69658 24.2208 3.69658 24.2208 3.69658 24.2208C3.75434 24.1577 3.75434 23.7792 3.63881 23.3377C3.58105 23.7792 3.52329 24.1577 3.63881 24.2208Z" fill="#3B3938"/>
</svg>
