<svg width="48" height="48" viewBox="0 0 48 48" fill="none" xmlns="http://www.w3.org/2000/svg">
<g clip-path="url(#clip0_827_6084)">
<path d="M36.8648 30.6767C35.1355 30.6767 33.511 30.2583 32.2796 29.5051C32.2534 29.4772 32.2272 29.3656 32.2272 29.2819C32.201 29.1703 32.1748 29.1145 32.1748 29.0866H32.201C32.2272 29.0587 32.2534 29.0587 32.2796 29.0308C33.7469 28.1103 35.3189 27.6639 36.9172 27.6639C38.3844 27.6639 39.9041 28.0545 41.4499 28.8077C41.4761 28.8356 41.5285 28.8356 41.5547 28.8635C41.5547 28.8635 41.5809 28.8635 41.5809 28.8914C41.5547 28.9471 41.5547 29.0308 41.5285 29.1982C41.5023 29.3098 41.5023 29.4772 41.4761 29.5051C40.2185 30.2583 38.594 30.6767 36.8648 30.6767Z" fill="white"/>
<path d="M36.891 27.6918C38.3582 27.6918 39.8516 28.0824 41.3975 28.8356C41.4237 28.8635 41.4499 28.8635 41.4761 28.8913C41.4499 28.9471 41.4499 29.0308 41.4237 29.1703C41.4237 29.254 41.3975 29.3935 41.3713 29.4493C40.1661 30.2024 38.5416 30.593 36.8386 30.593C35.1093 30.593 33.511 30.1745 32.2796 29.4493C32.2534 29.4214 32.2534 29.3098 32.2272 29.254C32.201 29.1703 32.201 29.1145 32.1748 29.0866C32.201 29.0866 32.201 29.0587 32.2272 29.0587C33.7206 28.1661 35.2927 27.6918 36.891 27.6918ZM36.891 27.6082C35.1617 27.6082 33.6158 28.1382 32.2272 29.0029C32.1748 29.0308 32.1486 29.0587 32.0962 29.0866C32.1486 29.1145 32.201 29.5329 32.2534 29.5608C33.5372 30.3419 35.1879 30.7325 36.8647 30.7325C38.5416 30.7325 40.1923 30.3419 41.4761 29.5608C41.5285 29.5329 41.5547 28.9192 41.6071 28.8913C41.5547 28.8635 41.5023 28.8077 41.4499 28.7798C39.7992 27.9708 38.3058 27.6082 36.891 27.6082Z" fill="#3B3938"/>
<path d="M35.4233 23.1449C35.6329 23.117 35.8688 23.0891 36.1046 23.0612C36.3142 23.0333 36.55 23.0333 36.7858 23.0333V27.5524C36.55 27.5524 36.3142 27.5524 36.1046 27.5803C35.8688 27.6082 35.6591 27.6361 35.4233 27.664V23.1449Z" fill="#3B3938"/>
<path d="M36.7597 23.0891V27.4966C36.5501 27.4966 36.3405 27.4966 36.1309 27.5245C35.9213 27.5524 35.7117 27.5524 35.5021 27.5803V23.2006C35.7117 23.1727 35.9213 23.1448 36.1309 23.117C36.3143 23.117 36.5239 23.0891 36.7597 23.0891ZM36.8121 23.0054C36.5763 23.0054 36.3405 23.0054 36.1047 23.0333C35.8689 23.0612 35.6069 23.0891 35.3711 23.117V27.7197C35.6069 27.6918 35.8427 27.664 36.1047 27.6361C36.3405 27.6082 36.5763 27.6082 36.8121 27.6082H36.8383L36.8121 23.0054C36.8383 23.0054 36.8121 23.0054 36.8121 23.0054Z" fill="#FFDF8B"/>
<path d="M33.9824 23.5075C34.192 23.4238 34.4278 23.368 34.6636 23.3122C34.8733 23.2564 35.1091 23.2006 35.3449 23.1727V27.6639C35.1091 27.6918 34.8733 27.7476 34.6636 27.8034C34.4278 27.8592 34.2182 27.915 33.9824 27.9987V23.5075Z" fill="#3B3938"/>
<path d="M35.2926 23.2285V27.636C35.083 27.6639 34.8472 27.7197 34.6376 27.7755C34.428 27.8313 34.2184 27.8871 34.035 27.9429V23.5354C34.2446 23.4517 34.4542 23.3959 34.69 23.3401C34.8734 23.2843 35.083 23.2564 35.2926 23.2285ZM35.3974 23.1169C35.1616 23.1448 34.8996 23.2006 34.6638 23.2564C34.428 23.3122 34.166 23.3959 33.9302 23.4796V28.0824C34.166 27.9987 34.4018 27.915 34.6638 27.8592C34.8996 27.8034 35.1354 27.7476 35.3974 27.7197V23.1169Z" fill="#FFDF8B"/>
<path d="M31.6772 29.4492C31.4414 29.4492 31.1008 28.1102 31.0222 27.0223C30.996 26.1296 31.2056 25.5438 31.8082 24.8464C31.9916 24.6512 32.2012 24.4559 32.4632 24.2606V28.7797C32.2012 28.975 31.9392 29.1702 31.7558 29.3934C31.7034 29.4213 31.6772 29.4492 31.6772 29.4492Z" fill="#3B3938"/>
<path d="M32.4106 24.3722V28.7518C32.1486 28.9471 31.9128 29.1424 31.7032 29.3655C31.677 29.3934 31.677 29.3934 31.677 29.3934C31.4936 29.3934 31.1792 28.2218 31.0744 27.0223C31.0482 26.1575 31.2578 25.5438 31.8604 24.9022C31.9914 24.707 32.201 24.5396 32.4106 24.3722ZM32.4892 24.2048C32.201 24.4001 31.9652 24.6233 31.7556 24.8464C31.153 25.5159 30.9172 26.1575 30.9434 27.0502C31.022 27.9987 31.3364 29.505 31.6508 29.505C31.677 29.505 31.7294 29.4771 31.7556 29.4492C31.9652 29.2261 32.201 29.0029 32.4892 28.8076V24.2048Z" fill="#FFDF8B"/>
<path d="M32.5413 24.2328C32.6199 24.177 32.6723 24.1491 32.7509 24.0933C32.9082 24.0096 33.0654 23.898 33.2226 23.8144C33.4322 23.7028 33.6418 23.6191 33.8776 23.5354V28.0545C33.6418 28.1382 33.406 28.2498 33.1702 28.3614C32.9868 28.445 32.8295 28.5287 32.6723 28.6403C32.6199 28.6682 32.5675 28.724 32.5151 28.7519V24.2328H32.5413Z" fill="#3B3938"/>
<path d="M33.8515 23.5912V27.9987C33.6157 28.0824 33.3799 28.194 33.1703 28.2777C32.9869 28.3614 32.8297 28.445 32.6725 28.5566C32.6463 28.5845 32.5939 28.6124 32.5677 28.6124V24.2607C32.6201 24.2049 32.6987 24.177 32.7511 24.1491C32.9083 24.0654 33.0655 23.9817 33.2227 23.898C33.4323 23.7586 33.6419 23.6749 33.8515 23.5912ZM33.9301 23.4796C33.6681 23.5633 33.4323 23.6749 33.1965 23.7865C33.0393 23.8702 32.8559 23.9538 32.6987 24.0654C32.6201 24.1212 32.5415 24.177 32.4629 24.2328V28.8356C32.5415 28.7798 32.6201 28.724 32.6987 28.6682C32.8559 28.5845 33.0131 28.4729 33.1965 28.3893C33.4323 28.2777 33.6681 28.1661 33.9301 28.0824V23.4796Z" fill="#FFDF8B"/>
<path d="M38.2531 27.664C38.0173 27.6361 37.8077 27.6082 37.5718 27.5803C37.336 27.5524 37.1264 27.5524 36.8906 27.5524V23.0333C37.1264 23.0333 37.336 23.0333 37.5718 23.0612C37.8077 23.0891 38.0435 23.117 38.2531 23.1449V27.664Z" fill="#FFDF8B"/>
<path d="M36.917 23.0891C37.1266 23.0891 37.3362 23.0891 37.5458 23.117C37.7554 23.1448 37.965 23.1727 38.1746 23.2006V27.6082C37.965 27.5803 37.7554 27.5524 37.5458 27.5245C37.3362 27.4966 37.1266 27.4966 36.917 27.4966V23.0891ZM36.8384 23.0054V27.6082C37.0742 27.6082 37.31 27.6082 37.572 27.6361C37.8078 27.664 38.0698 27.6918 38.3056 27.7197V23.117C38.0698 23.0891 37.834 23.0612 37.572 23.0333C37.31 23.0054 37.0742 23.0054 36.8384 23.0054Z" fill="#3B3938"/>
<path d="M39.5897 27.9987C39.4063 27.9429 39.2229 27.8871 39.0133 27.8313C38.7774 27.7755 38.5678 27.7197 38.332 27.6918V23.1727C38.5678 23.2006 38.7774 23.2564 39.0133 23.3122C39.2229 23.368 39.4063 23.4238 39.5897 23.4796V27.9987Z" fill="#FFDF8B"/>
<path d="M38.3846 23.2285C38.5942 23.2564 38.8038 23.3122 38.9872 23.368C39.1706 23.4238 39.354 23.4796 39.5374 23.5354V27.9429C39.3802 27.8871 39.1968 27.8313 39.0396 27.8034C38.83 27.7476 38.6204 27.6918 38.3846 27.6639V23.2285ZM38.2798 23.1169V27.7197C38.5156 27.7476 38.7776 27.8034 39.0134 27.8592C39.223 27.915 39.4326 27.9708 39.6422 28.0545V23.4517C39.4326 23.3959 39.223 23.3122 39.0134 23.2564C38.7776 23.2006 38.5418 23.1448 38.2798 23.1169Z" fill="#3B3938"/>
<path d="M42.5765 30.5092C42.4717 30.1187 42.2359 29.7561 41.9477 29.4213C41.7381 29.1982 41.5022 28.975 41.2402 28.8076V24.3164L41.3188 24.3722C41.5284 24.5117 41.7118 24.6512 41.8953 24.7906C43.1529 25.9065 42.8123 29.1982 42.5765 30.5092Z" fill="#FFDF8B"/>
<path d="M41.2666 24.4001C41.4762 24.5396 41.6596 24.6791 41.843 24.8464C43.0482 25.9065 42.7862 28.9471 42.5504 30.3419C42.4194 30.0071 42.236 29.7003 41.974 29.3934C41.7906 29.1703 41.5548 28.975 41.2666 28.7797V24.4001ZM41.188 24.2048V28.8076C41.4762 29.0029 41.712 29.226 41.9216 29.4492C42.2622 29.8398 42.498 30.2582 42.6028 30.7045C42.76 29.9513 43.3888 26.0459 41.9216 24.7349C41.6858 24.5675 41.4762 24.428 41.188 24.2048Z" fill="#3B3938"/>
<path d="M41.1357 28.7239C41.0833 28.6682 41.0047 28.6403 40.9523 28.5845C40.7951 28.5008 40.6379 28.4171 40.4807 28.3334C40.2187 28.1939 39.9567 28.0823 39.6685 27.9987V23.5074C39.9305 23.5911 40.1925 23.7027 40.4283 23.8422C40.5855 23.9259 40.7427 24.0096 40.8737 24.0933C40.9523 24.149 41.0309 24.2048 41.1095 24.2606V28.7239H41.1357Z" fill="#FFDF8B"/>
<path d="M39.7207 23.5911C39.9565 23.6748 40.1923 23.7864 40.4281 23.898C40.6115 23.9817 40.7425 24.0654 40.8736 24.1491C40.9522 24.2048 41.0308 24.2327 41.0832 24.2885V28.6682C41.0308 28.6403 41.0046 28.6124 40.9522 28.5845C40.8211 28.5008 40.6639 28.4171 40.4805 28.3334C40.2185 28.2218 39.9565 28.1102 39.6945 27.9987V23.5911H39.7207ZM39.6421 23.4517V28.0544C39.9303 28.166 40.2185 28.2776 40.4805 28.3892C40.6377 28.4729 40.7949 28.5566 40.9522 28.6403C41.057 28.696 41.1356 28.7518 41.2142 28.8076V24.2048C41.1356 24.1491 41.0308 24.0933 40.9522 24.0375C40.7949 23.9538 40.6377 23.8701 40.4805 23.7864C40.1923 23.6469 39.9303 23.5353 39.6421 23.4517Z" fill="#3B3938"/>
<path d="M37.5981 30.6209C37.834 30.593 38.0436 30.593 38.2794 30.5372C38.5152 30.5093 38.7248 30.4536 38.9606 30.4257V35.4469C38.7248 35.5027 38.5152 35.5306 38.2794 35.5585C38.0698 35.5864 37.834 35.6143 37.5981 35.6422V30.6209Z" fill="#3B3938"/>
<path d="M38.9083 30.4815V35.3911C38.6987 35.4469 38.4891 35.4748 38.2533 35.5027C38.0437 35.5306 37.8341 35.5585 37.6245 35.5585V30.6488C37.8341 30.6209 38.0699 30.6209 38.2795 30.593C38.5153 30.5651 38.7249 30.5094 38.9083 30.4815ZM39.0131 30.3699C38.7773 30.4257 38.5415 30.4536 38.2795 30.5094C38.0437 30.5372 37.8079 30.5651 37.5459 30.593V35.698C37.7817 35.6701 38.0437 35.6701 38.2795 35.6143C38.5153 35.5864 38.7773 35.5306 39.0131 35.4748V30.3699Z" fill="#FFDF8B"/>
<path d="M41.9473 29.1426C42.2093 28.9473 42.4713 28.6962 42.6547 28.4731C42.9691 28.1104 43.1787 27.692 43.3097 27.2736V31.709C43.3097 32.3227 43.0739 32.9364 42.6023 33.4943C42.4189 33.7175 42.2093 33.9127 41.9473 34.108V29.1426Z" fill="#3B3938"/>
<path d="M43.2575 27.5525V31.709C43.2575 32.3227 43.0217 32.9085 42.5762 33.4664C42.419 33.6617 42.2356 33.8569 41.9998 34.0243V29.1426C42.2618 28.9473 42.4976 28.7241 42.7072 28.4731C42.9431 28.1941 43.1265 27.8594 43.2575 27.5525ZM43.3623 26.5762C43.3623 27.2178 43.1265 27.8315 42.6286 28.4173C42.419 28.6683 42.1832 28.8915 41.895 29.0868V34.1917C42.1832 33.9685 42.419 33.7454 42.6286 33.4943C43.1003 32.9364 43.3361 32.2948 43.3361 31.6811L43.3623 26.5762Z" fill="#FFDF8B"/>
<path d="M39.0654 30.3978C39.275 30.342 39.4846 30.3141 39.668 30.2304C39.9301 30.1467 40.1659 30.0631 40.4017 29.9794V34.9727C40.1659 35.0843 39.9039 35.168 39.6418 35.2517C39.4584 35.3074 39.2488 35.3632 39.0654 35.3911V30.3978Z" fill="#3B3938"/>
<path d="M40.3755 30.0631V34.9727C40.1397 35.0564 39.8776 35.168 39.6418 35.2238C39.4846 35.2796 39.3012 35.3075 39.1178 35.3633V30.4536C39.3274 30.3978 39.5108 30.3699 39.6942 30.3141C39.9038 30.2304 40.1397 30.1468 40.3755 30.0631ZM40.4541 29.9236C40.1921 30.0352 39.9301 30.1189 39.6418 30.2025C39.4322 30.2583 39.2226 30.3141 38.9868 30.3699V35.4748C39.1964 35.4191 39.4322 35.3633 39.6418 35.3075C39.9301 35.2238 40.1921 35.1401 40.4541 35.0285V29.9236Z" fill="#FFDF8B"/>
<path d="M40.5068 29.9515C40.7426 29.84 40.9785 29.7284 41.2143 29.6168C41.3191 29.561 41.3977 29.5052 41.5025 29.4494C41.6335 29.3657 41.7645 29.2821 41.8693 29.1984V34.1917C41.7383 34.3033 41.5811 34.387 41.4239 34.4985C41.3453 34.5543 41.2405 34.6101 41.1619 34.638C40.9523 34.7496 40.7426 34.8612 40.5068 34.9449V29.9515Z" fill="#3B3938"/>
<path d="M41.8169 29.282V34.1637C41.6859 34.2753 41.5549 34.359 41.3977 34.4427C41.319 34.4985 41.2142 34.5543 41.1356 34.5822C40.9522 34.6938 40.7426 34.7775 40.533 34.8611V29.9515C40.7688 29.8399 41.0046 29.7562 41.2142 29.6167C41.3191 29.561 41.3977 29.5052 41.5025 29.4494C41.6073 29.4215 41.7121 29.3657 41.8169 29.282ZM41.8955 29.1146C41.7645 29.2262 41.6073 29.3099 41.4501 29.4215C41.3715 29.4773 41.2666 29.5331 41.1618 29.5889C40.926 29.7283 40.6902 29.8399 40.4282 29.9236V35.0285C40.6902 34.9169 40.926 34.8053 41.1618 34.6938C41.2404 34.638 41.3453 34.5822 41.4239 34.5264C41.5811 34.4148 41.7383 34.3311 41.8955 34.2195V29.1146Z" fill="#FFDF8B"/>
<path d="M43.1793 27.1341V31.709C43.1793 32.2948 42.9435 32.8806 42.5242 33.4106C42.3408 33.6338 42.105 33.857 41.843 34.0801C41.712 34.1917 41.5548 34.3033 41.3976 34.387C41.319 34.4428 41.2142 34.4986 41.1356 34.5265C40.926 34.638 40.664 34.7496 40.4282 34.8612C40.1662 34.9728 39.9042 35.0565 39.6421 35.1402C39.4325 35.196 39.2229 35.2517 39.0133 35.3075C38.7775 35.3633 38.5417 35.3912 38.3059 35.447C38.0701 35.4749 37.8343 35.5028 37.5985 35.5307L36.6028 35.4191L36.629 30.5932L37.7295 30.5095C39.1443 30.3979 40.6116 29.8121 42.0264 28.7241L42.0788 28.6684C42.105 28.6684 42.105 28.6405 42.105 28.6405L43.1793 27.1341ZM43.3627 26.5762L41.9478 28.4452L41.8954 28.501C40.6378 29.4494 39.2229 30.1189 37.7033 30.2584L36.4456 30.3421L36.4194 35.5028L37.5985 35.6423C37.8343 35.6144 38.0963 35.6144 38.3321 35.5586C38.5679 35.5307 38.8299 35.4749 39.0657 35.4191C39.2753 35.3633 39.5111 35.3075 39.7207 35.2517C40.009 35.1681 40.271 35.0844 40.533 34.9728C40.795 34.8612 41.0308 34.7496 41.2666 34.638C41.3452 34.5823 41.45 34.5265 41.5286 34.4707C41.6858 34.3591 41.843 34.2754 42.0002 34.1638C42.2884 33.9406 42.5242 33.7175 42.7338 33.4664C43.2055 32.9085 43.4413 32.2669 43.4413 31.6532L43.3627 26.5762Z" fill="#3B3938"/>
<path d="M34.6112 35.4192C34.3753 35.3634 34.1657 35.3076 33.9561 35.2518C33.7203 35.1681 33.4845 35.0844 33.2749 35.0007V29.9795C33.4845 30.0632 33.7203 30.1469 33.9299 30.2027C34.1395 30.2584 34.3753 30.3421 34.6112 30.3979V35.4192Z" fill="#FFDF8B"/>
<path d="M33.3013 30.0352C33.5109 30.1189 33.6943 30.1747 33.9039 30.2584C34.1135 30.3142 34.3493 30.37 34.5589 30.4258V35.3354C34.3493 35.2796 34.1397 35.2238 33.9563 35.1681C33.7205 35.1123 33.5109 35.0286 33.3013 34.9449V30.0352ZM33.2227 29.8958V35.0007C33.4585 35.0844 33.6943 35.1959 33.9563 35.2517C34.1921 35.3354 34.4279 35.3912 34.6899 35.447V30.3421C34.4541 30.2863 34.1921 30.2305 33.9563 30.1468C33.6943 30.091 33.4585 30.0073 33.2227 29.8958Z" fill="#3B3938"/>
<path d="M36.0783 35.6143C35.8425 35.5864 35.6329 35.5864 35.397 35.5306C35.1612 35.5027 34.9254 35.4469 34.7158 35.4191V30.3978C34.9254 30.4536 35.1612 30.4815 35.397 30.5094C35.6329 30.5373 35.8425 30.5652 36.0783 30.5931V35.6143Z" fill="#FFDF8B"/>
<path d="M34.7422 30.4815C34.9518 30.5373 35.1614 30.5652 35.371 30.5931C35.5806 30.621 35.7902 30.6489 36.026 30.6768V35.5864C35.8164 35.5585 35.6068 35.5585 35.3972 35.5306C35.1876 35.5027 34.9518 35.4749 34.7422 35.4191V30.4815ZM34.6636 30.342V35.4749C34.8994 35.5306 35.1352 35.5585 35.3972 35.6143C35.633 35.6422 35.8688 35.6701 36.1308 35.698V30.5931C35.895 30.5652 35.633 30.5373 35.3972 30.5094C35.1352 30.4536 34.8994 30.3978 34.6636 30.342Z" fill="#3B3938"/>
<path d="M31.7295 34.158H31.8682L31.7613 34.0695C31.7586 34.0672 31.7559 34.065 31.7533 34.0628V29.0868V29.0617L31.7331 29.0467C31.4743 28.8538 31.2413 28.6333 31.0342 28.3852L31.0342 28.3852L31.0336 28.3845C30.7232 28.0265 30.4918 27.615 30.3893 27.2056L30.2908 27.2178V31.6532C30.2908 32.3086 30.5584 32.9612 31.036 33.5263C31.2113 33.7394 31.4327 33.9269 31.6533 34.1098V34.158H31.7033H31.7295Z" fill="#3B3938" stroke="#3B3938" stroke-width="0.1"/>
<path d="M30.4193 27.4967C30.5503 27.8314 30.7337 28.1383 30.9957 28.4451C31.2053 28.6683 31.4411 28.9193 31.7031 29.1146V33.9964C31.4935 33.829 31.3101 33.6337 31.1267 33.4384C30.6551 32.8805 30.4193 32.2668 30.4193 31.6531V27.4967ZM30.3145 26.5482V31.6531C30.3145 32.2947 30.5503 32.9363 31.0481 33.5221C31.2577 33.7732 31.4935 33.9964 31.7817 34.1916V29.0867C31.4935 28.8636 31.2577 28.6404 31.0481 28.3893C30.5503 27.8314 30.3145 27.1898 30.3145 26.5482Z" fill="#3B3938"/>
<path d="M33.1701 34.9448C32.9343 34.8611 32.7247 34.7495 32.515 34.638C32.4364 34.5822 32.3316 34.5264 32.253 34.4985C32.0958 34.4148 31.9386 34.3032 31.8076 34.1916V29.1704C31.9386 29.2541 32.0696 29.3657 32.2268 29.4494C32.3054 29.5052 32.384 29.5609 32.4888 29.5888C32.6985 29.7004 32.9343 29.8399 33.1963 29.9236V34.9448H33.1701Z" fill="#FFDF8B"/>
<path d="M31.8602 29.254C31.965 29.3377 32.096 29.4214 32.2008 29.4772C32.2794 29.533 32.358 29.5888 32.4628 29.6167C32.6724 29.7283 32.9082 29.8399 33.144 29.9514V34.8611C32.9344 34.7774 32.751 34.6658 32.5414 34.5821C32.4628 34.5263 32.358 34.4984 32.2794 34.4426C32.1222 34.359 31.9912 34.2474 31.8602 34.1637V29.254ZM31.7554 29.0867V34.2195C31.9126 34.3311 32.0436 34.4426 32.227 34.5263C32.3056 34.5821 32.4104 34.6379 32.489 34.6658C32.7248 34.8053 32.9606 34.9169 33.2226 35.0006V29.8956C32.9606 29.7841 32.7248 29.6725 32.489 29.533C32.4104 29.4772 32.3318 29.4493 32.2532 29.3935C32.0698 29.3098 31.9126 29.1983 31.7554 29.0867Z" fill="#3B3938"/>
<path d="M36.8385 35.6422C36.6026 35.6422 36.393 35.6422 36.1572 35.6143V30.593C36.393 30.6209 36.6026 30.6209 36.8385 30.6209C37.0743 30.6209 37.3101 30.6209 37.5197 30.593V35.6143C37.2839 35.6422 37.0743 35.6422 36.8385 35.6422Z" fill="#FFDF8B"/>
<path d="M36.2098 30.6489C36.4194 30.6489 36.629 30.6768 36.8386 30.6768H36.8648C37.0744 30.6768 37.284 30.6768 37.4674 30.6489V35.5585C37.2578 35.5585 37.0482 35.5864 36.8386 35.5864C36.629 35.5864 36.4194 35.5864 36.2098 35.5585V30.6489ZM36.105 30.5652V35.6701C36.3408 35.698 36.5766 35.698 36.8386 35.698C37.0744 35.698 37.3102 35.698 37.546 35.6701V30.5652C37.3102 30.5931 37.0744 30.5931 36.8386 30.5931H36.8124C36.6028 30.5931 36.3408 30.5652 36.105 30.5652Z" fill="#3B3938"/>
<path d="M41.4234 23.7307C38.8819 22.1685 34.7422 22.1685 32.2007 23.7307C29.6592 25.2929 29.6854 27.8314 32.2269 29.4214C34.7684 30.9836 38.9081 30.9836 41.4496 29.4214C43.9911 27.8314 43.9911 25.2929 41.4234 23.7307ZM40.9518 29.0867C38.6985 30.4815 35.0304 30.4815 32.7509 29.0867C30.4714 27.6919 30.4714 25.4323 32.7247 24.0376C34.978 22.6428 38.6461 22.6428 40.9256 24.0376C43.1788 25.4323 43.2051 27.6919 40.9518 29.0867Z" fill="white"/>
<path d="M32.2006 29.4918L32.201 29.492C33.4944 30.2789 35.1807 30.671 36.8645 30.671C38.5481 30.671 40.2347 30.279 41.5021 29.4919C42.7431 28.7328 43.4385 27.6867 43.4385 26.5761C43.4385 25.4371 42.7426 24.419 41.4761 23.6324L41.4759 23.6323C40.1954 22.8453 38.5089 22.4533 36.8252 22.4533C35.1415 22.4533 33.455 22.8453 32.1746 23.6323C30.9336 24.3914 30.2381 25.4375 30.2381 26.5482C30.2381 27.6872 30.934 28.7052 32.2006 29.4918ZM32.3055 29.323L32.3054 29.323C31.0829 28.5752 30.4167 27.5848 30.4167 26.5482C30.4167 25.5112 31.0571 24.5487 32.2534 23.8011C33.5012 23.0261 35.1683 22.637 36.8121 22.637C38.482 22.637 40.123 23.026 41.3709 23.8011L41.3712 23.8013C42.5938 24.549 43.2599 25.5395 43.2599 26.5761C43.2599 27.613 42.6195 28.5756 41.4232 29.3232C40.1753 30.0982 38.5278 30.4873 36.8743 30.4873C35.2208 30.4873 33.5667 30.0982 32.3055 29.323ZM32.6985 23.9393L32.6985 23.9393L32.698 23.9395C31.589 24.6424 30.9717 25.5487 30.9717 26.5482C30.9717 27.5478 31.5892 28.4543 32.7247 29.1571C33.8608 29.8604 35.3638 30.2246 36.8645 30.2246C38.3647 30.2246 39.8419 29.8885 41.0047 29.1569L41.0048 29.1568C42.1138 28.454 42.7311 27.5476 42.7311 26.5482C42.7311 25.5485 42.1136 24.6421 40.9782 23.9393L40.978 23.9391C39.8286 23.2359 38.3256 22.8857 36.8285 22.8857C35.3314 22.8857 33.8348 23.2358 32.6985 23.9393ZM32.7774 24.1079L32.7777 24.1077C33.8679 23.4168 35.3513 23.0833 36.8121 23.0833C38.298 23.0833 39.7559 23.4442 40.8734 24.1082C41.9391 24.7725 42.5263 25.6235 42.5263 26.5482C42.5263 27.4737 41.9644 28.3246 40.8993 28.9884C39.7823 29.6798 38.3181 30.027 36.8514 30.027C35.3847 30.027 33.9205 29.6798 32.8035 28.9884C31.7376 28.3241 31.1503 27.473 31.1503 26.5482C31.1503 25.6227 31.7123 24.7717 32.7774 24.1079Z" fill="#3B3938" stroke="#3B3938" stroke-width="0.1"/>
<path d="M30.3167 29.5889H30.3167L30.3167 29.5901C30.3435 30.6443 31.0123 31.6621 32.2533 32.4211C33.4939 33.1799 35.1278 33.6 36.8645 33.6C38.6013 33.6 40.2351 33.1799 41.4758 32.4211L41.4762 32.4208C42.6903 31.6621 43.3599 30.672 43.3599 29.5889V29.0031L43.2618 28.9895C43.0304 29.8109 42.4118 30.5551 41.4495 31.1644C40.2273 31.9118 38.6124 32.3284 36.8645 32.3284C35.1163 32.3284 33.4751 31.9116 32.2531 31.1642L32.2531 31.1641L32.2523 31.1637C31.2653 30.583 30.6464 29.8114 30.4148 28.9895L30.3167 29.0031V29.5889Z" fill="#3B3938" stroke="#3B3938" stroke-width="0.1"/>
<path d="M30.4193 29.282C30.7075 30.0351 31.3101 30.7046 32.2009 31.2626C33.4586 32.0436 35.1092 32.4621 36.8647 32.4621C38.6201 32.4621 40.2708 32.0436 41.5022 31.2626C42.3669 30.7325 42.9695 30.063 43.2577 29.3098V29.5888C43.2577 30.6209 42.6027 31.5973 41.3974 32.3505C40.1922 33.1037 38.5677 33.5221 36.8385 33.5221C35.1092 33.5221 33.4848 33.1037 32.2795 32.3505C31.0743 31.5973 30.4193 30.6209 30.3931 29.5888V29.282H30.4193ZM30.3145 28.3335V29.5888C30.3145 30.6209 30.9695 31.6531 32.2271 32.4342C33.511 33.2153 35.1616 33.6058 36.8385 33.6058C38.5153 33.6058 40.166 33.2153 41.4498 32.4342C42.7075 31.6531 43.3363 30.6209 43.3363 29.5888V28.3614C43.3363 29.3935 42.7075 30.3978 41.4498 31.1789C40.1922 31.9599 38.5153 32.3505 36.8385 32.3505C35.1616 32.3505 33.511 31.9599 32.2271 31.1789C30.9695 30.3699 30.3145 29.3377 30.3145 28.3335Z" fill="#3B3938"/>
<path d="M41.0566 34.7216V28.6962L42.2095 12.7398C42.3143 12.433 42.4453 12.1819 42.6025 12.0146C42.8121 11.7914 43.1003 11.6798 43.4147 11.6798C43.7815 11.6798 44.1483 11.8472 44.3842 12.1261C46.4016 14.5531 46.8208 16.4779 46.8994 16.98C45.9562 16.1431 45.1964 15.7247 44.62 15.7247C43.7553 15.7247 43.6243 16.701 43.6243 16.701V28.1383L42.1571 35.419L41.0566 34.7216ZM43.5195 13.0746C43.3361 13.0746 43.2313 13.2141 43.2313 13.4093C43.2313 13.7162 43.4671 14.1067 43.7291 14.2741C43.8339 14.3299 43.9125 14.3578 43.9911 14.3578C44.1745 14.3578 44.2794 14.2183 44.2794 14.023C44.2794 13.7162 44.0435 13.3257 43.7815 13.1583C43.7029 13.1025 43.5981 13.0746 43.5195 13.0746Z" fill="#FFDF8B"/>
<path d="M44.2919 12.184L44.2919 12.1841L44.2935 12.186C46.0211 14.2586 46.5685 15.9673 46.74 16.7043C46.336 16.3598 45.9588 16.0909 45.6134 15.9038C45.2361 15.6995 44.8936 15.5909 44.5939 15.5909C44.1127 15.5909 43.8363 15.8562 43.6827 16.1215C43.6063 16.2535 43.5598 16.386 43.5324 16.487C43.5187 16.5375 43.5097 16.5805 43.5041 16.612C43.5013 16.6277 43.4993 16.6406 43.498 16.6503C43.4969 16.6585 43.4959 16.6674 43.4959 16.6731V28.1053L42.0439 35.2552L41.133 34.6937V28.7258L42.2852 12.7778C42.3875 12.4804 42.5146 12.2644 42.6666 12.0753C42.8659 11.8638 43.14 11.7577 43.4149 11.7577C43.7411 11.7577 44.0925 11.9186 44.2919 12.184ZM46.9782 17.0636L47.028 17.0593L47.028 17.0592L47.028 17.0588L47.0278 17.0574L47.0273 17.0524L47.0252 17.033C47.0232 17.0161 47.02 16.9911 47.0152 16.9584C47.0054 16.893 46.9888 16.7969 46.9615 16.6728C46.907 16.4247 46.8097 16.0649 46.6384 15.6161C46.296 14.7186 45.6579 13.4654 44.4752 12.0384L44.4753 12.0383L44.4732 12.0361C44.1767 11.7205 43.7972 11.5461 43.4149 11.5461C43.0874 11.5461 42.7857 11.6628 42.54 11.9245C42.3773 12.0977 42.2164 12.3555 42.1095 12.697L42.1082 12.6965L42.1074 12.7083L40.9545 28.6925L40.9544 28.6925V28.6961V34.7495C40.9544 34.767 40.9635 34.7832 40.9785 34.7923L42.1314 35.4897C42.1453 35.4981 42.1624 35.4992 42.1773 35.4927C42.1922 35.4862 42.203 35.4728 42.2062 35.4568L43.6997 28.0924L43.7007 28.0926V28.0824V16.6491L43.7016 16.6434C43.7027 16.6371 43.7044 16.6278 43.7069 16.6158C43.7119 16.5918 43.72 16.5571 43.7322 16.5155C43.7568 16.4319 43.7979 16.321 43.8639 16.2106C43.9953 15.9907 44.2235 15.7746 44.6201 15.7746C45.0979 15.7746 45.8192 16.0975 46.9449 17.101C46.9602 17.1146 46.9823 17.1175 47.0006 17.1083C47.0189 17.0992 47.0298 17.0798 47.028 17.0594L46.9782 17.0636ZM43.8592 13.0871L43.8592 13.0871L43.8576 13.0862C43.7476 13.0277 43.6347 12.9966 43.5459 12.9966C43.4267 12.9966 43.3274 13.0448 43.2588 13.1259C43.1908 13.2064 43.1553 13.3161 43.1553 13.4372C43.1553 13.6156 43.2178 13.8056 43.3162 13.9718C43.4146 14.1379 43.5512 14.2843 43.7042 14.3731L43.7042 14.3731L43.7058 14.374C43.8144 14.4318 43.9014 14.4635 44.0175 14.4635C44.1367 14.4635 44.2359 14.4154 44.3046 14.3342C44.3726 14.2538 44.4081 14.144 44.4081 14.023C44.4081 13.8446 44.3456 13.6545 44.2472 13.4884C44.1488 13.3223 44.0121 13.1759 43.8592 13.0871ZM43.8106 14.1775L43.8107 14.1774L43.8086 14.1761C43.6849 14.0971 43.5654 13.9705 43.4769 13.8291C43.3881 13.6872 43.3339 13.5361 43.3339 13.4093C43.3339 13.3203 43.3577 13.2556 43.3914 13.2142C43.4246 13.1734 43.4694 13.1524 43.5197 13.1524C43.5858 13.1524 43.6545 13.1757 43.7265 13.2269L43.7265 13.2269L43.7286 13.2283C43.8522 13.3073 43.9718 13.4339 44.0603 13.5753C44.1491 13.7172 44.2033 13.8683 44.2033 13.9951C44.2033 14.0996 44.1787 14.1628 44.1468 14.1993C44.1158 14.2349 44.072 14.252 44.0175 14.252C43.9514 14.252 43.8827 14.2287 43.8106 14.1775Z" fill="#3B3938" stroke="#3B3938" stroke-width="0.1" stroke-linejoin="round"/>
<path d="M43.6507 16.6731V28.1104L42.1572 35.4748L43.2053 34.8332L44.6987 27.4688V16.0315C44.6987 16.0315 44.7249 15.92 44.7773 15.7526C43.7817 15.641 43.6507 16.6731 43.6507 16.6731Z" fill="#3B3938"/>
<path d="M46.9545 17.0146L46.965 17.093L47.0313 17.0499L47.9745 16.4362L48.0002 16.4195L47.997 16.3891C47.9698 16.1287 47.6256 14.055 45.4443 11.4248L45.4443 11.4248L45.444 11.4244C45.2 11.1358 44.8723 10.9604 44.4888 10.9604C44.2738 10.9604 44.085 11.0167 43.8985 11.1278H43.8599H43.8458L43.8338 11.1351L43.1525 11.5536L43.1954 11.6433C43.2645 11.6188 43.3341 11.6183 43.4407 11.6183C43.8195 11.6183 44.1712 11.7795 44.3967 12.073L44.3967 12.073L44.3978 12.0744C46.5137 14.633 46.9032 16.6326 46.9545 17.0146Z" fill="#3B3938" stroke="#3B3938" stroke-width="0.1"/>
<path d="M44.4889 11.0661C44.8295 11.0661 45.1439 11.2335 45.3797 11.4845C47.4758 14.0231 47.8426 16.0036 47.895 16.3663L47.0304 16.8963C46.9518 16.3663 46.5063 14.4415 44.4627 11.9867C44.2007 11.6798 43.8338 11.4845 43.4408 11.4845C43.4146 11.4845 43.4146 11.4845 43.3884 11.4845L43.86 11.2056L43.8862 11.2335L43.9387 11.2056C44.0959 11.1219 44.2793 11.0661 44.4889 11.0661ZM44.4889 10.9824C44.2793 10.9824 44.0697 11.0382 43.8862 11.1498L43.86 11.1219L42.812 11.7635L42.8382 11.7914C43.0216 11.6798 43.2312 11.624 43.4408 11.624C43.7814 11.624 44.1483 11.7914 44.4103 12.0704C46.7683 14.9157 46.9518 17.0637 46.9518 17.0637L47.9998 16.4221C47.9998 16.4221 47.8164 14.2741 45.4583 11.4288C45.1963 11.1498 44.8557 10.9824 44.4889 10.9824Z" fill="#3B3938"/>
<path d="M3.95666 11.094C3.77325 11.094 3.58984 10.9266 3.58984 10.7034V8.05336C3.58984 6.65858 4.29727 5.34748 5.42391 4.65009L9.32784 2.25106C9.53745 2.11158 9.79946 2.05579 10.0353 2.05579C10.2973 2.05579 10.5331 2.13947 10.7427 2.25106C11.2667 2.53001 11.5287 3.03214 11.5287 3.59005V6.29593C11.5287 6.4912 11.3715 6.68647 11.1619 6.68647C10.9523 6.68647 10.7951 6.5191 10.7951 6.29593V3.59005C10.7951 3.31109 10.6641 3.06003 10.4283 2.92055C10.3497 2.83687 10.2187 2.80897 10.0877 2.80897C9.95666 2.80897 9.82566 2.83687 9.72085 2.92055L5.81692 5.31958C4.89989 5.8775 4.32347 6.93753 4.32347 8.05336V10.7034C4.32347 10.9266 4.16626 11.094 3.95666 11.094Z" fill="white"/>
<path d="M10.8234 2.18199C10.6304 2.03596 10.3582 1.95 10.0875 1.95C9.814 1.95 9.56941 2.03758 9.32841 2.18013L9.32841 2.18013L9.32782 2.18049L5.39786 4.57941C4.22879 5.28663 3.51348 6.64261 3.51348 8.05337V10.7035C3.51348 10.9512 3.71636 11.1719 3.95649 11.1719C4.19662 11.1719 4.3995 10.9512 4.3995 10.7035V8.05337C4.3995 6.95366 4.94173 5.93837 5.84274 5.3902L5.84293 5.39008L9.74553 2.99187C9.84976 2.93651 9.97041 2.88687 10.0613 2.88687C10.1585 2.88687 10.2773 2.91293 10.3707 2.98753L10.3706 2.98767L10.3742 2.99008C10.5704 3.1206 10.6925 3.32839 10.6925 3.59005V6.29594C10.6925 6.54372 10.8954 6.76437 11.1355 6.76437C11.3757 6.76437 11.5785 6.54372 11.5785 6.29594V3.59005C11.5785 2.98826 11.2826 2.47054 10.8234 2.18199ZM10.0875 2.70318C9.94884 2.70318 9.80825 2.73288 9.668 2.82235L5.7383 5.22112L5.73797 5.22132C4.77948 5.81661 4.1947 6.89304 4.1947 8.05337V10.7035C4.1947 10.8741 4.08317 10.9882 3.93029 10.9882C3.7774 10.9882 3.66588 10.8741 3.66588 10.7035V8.05337C3.66588 6.67503 4.36501 5.40876 5.47548 4.74887L5.47548 4.74887L5.47612 4.74848L9.37873 2.35026C9.63716 2.21283 9.864 2.13369 10.0875 2.13369C10.3146 2.13369 10.5414 2.18723 10.7689 2.32167C11.1993 2.59146 11.4523 3.04946 11.4523 3.56216V6.26804C11.4523 6.4387 11.3408 6.55279 11.1879 6.55279C11.035 6.55279 10.9235 6.4387 10.9235 6.26804V3.59005C10.9235 3.26437 10.7562 2.99911 10.5094 2.82399L10.5095 2.82394L10.5074 2.82263C10.367 2.73294 10.2263 2.70318 10.0875 2.70318Z" fill="#3B3938" stroke="#3B3938" stroke-width="0.1"/>
<path d="M17.4761 20.8296C17.9215 20.8017 18.3931 20.7459 18.8385 20.6901C19.2839 20.6343 19.7293 20.5506 20.1748 20.4669V36.7301C19.7293 36.8138 19.2839 36.8975 18.8123 36.9812C18.3669 37.037 17.9215 37.0928 17.4761 37.1207V20.8296Z" fill="#FFDF8B"/>
<path d="M20.0698 20.5785V36.6464C19.6506 36.7301 19.2314 36.8138 18.7859 36.8696C18.3929 36.9254 17.9737 36.9812 17.5545 37.0091V20.9412C17.9737 20.9133 18.4191 20.8575 18.8383 20.8017C19.2576 20.7459 19.6768 20.6622 20.0698 20.5785ZM20.2532 20.3553C19.7816 20.4669 19.31 20.5506 18.8121 20.6064C18.3405 20.6622 17.8689 20.718 17.3711 20.7459V37.2043C17.8427 37.1764 18.3405 37.1207 18.8121 37.0649C19.2838 37.0091 19.7816 36.9254 20.2532 36.8138V20.3553Z" fill="#FFDF8B"/>
<path d="M28.6373 14.8041L28.6111 29.3657C28.6111 30.5652 28.1395 31.7647 27.2487 32.8248C26.9343 33.2153 26.5675 33.578 26.1483 33.9406V17.9842C26.6723 17.5658 27.1439 17.1195 27.5369 16.6731C28.0347 16.0594 28.4015 15.4457 28.6373 14.8041ZM28.8207 12.9072C28.8207 14.1625 28.3491 15.3899 27.4059 16.5337C27.0129 17.0079 26.5413 17.4542 25.9648 17.8727V34.3311C26.5151 33.9127 27.0129 33.4385 27.4059 32.9642C28.3491 31.8484 28.7945 30.621 28.8207 29.3657V12.9072Z" fill="#FFDF8B"/>
<path d="M20.3579 20.4391C20.7771 20.3554 21.1701 20.2438 21.5632 20.1322C22.061 19.9928 22.5588 19.8254 23.0304 19.6301V35.8933C22.5326 36.0886 22.0348 36.2839 21.5107 36.4234C21.1439 36.5349 20.7509 36.6465 20.3579 36.7302V20.4391Z" fill="#FFDF8B"/>
<path d="M22.9257 19.7417V35.7817C22.4541 35.977 21.9563 36.1443 21.4847 36.2838C21.1441 36.3954 20.8035 36.4791 20.4367 36.5628V20.5227C20.8297 20.4391 21.2227 20.3275 21.5895 20.2159C22.0349 20.0764 22.4803 19.9369 22.9257 19.7417ZM23.1091 19.4906C22.5851 19.7138 22.0611 19.8811 21.5109 20.0485C21.0917 20.1601 20.6725 20.2717 20.2271 20.3833V36.8417C20.6463 36.758 21.0917 36.6465 21.5109 36.507C22.0611 36.3396 22.5851 36.1722 23.1091 35.9491V19.4906Z" fill="#FFDF8B"/>
<path d="M23.2137 19.5465C23.6853 19.3512 24.1569 19.128 24.6023 18.877C24.7858 18.7654 24.9692 18.6817 25.1526 18.5701C25.4146 18.4027 25.6504 18.2354 25.8862 18.068V34.2754C25.6242 34.4707 25.336 34.6938 25.0216 34.8612C24.8644 34.9728 24.681 35.0565 24.4975 35.1681C24.0783 35.3912 23.6591 35.6144 23.1875 35.8097V19.5465H23.2137Z" fill="#FFDF8B"/>
<path d="M28.6637 13.5209L28.6375 29.3936C28.6375 30.5931 28.1659 31.7926 27.275 32.8526C26.882 33.3269 26.4104 33.7732 25.8864 34.1916C25.5982 34.4148 25.31 34.6101 24.9956 34.8053C24.8384 34.889 24.6811 35.0006 24.4715 35.1122C24.0261 35.3633 23.5545 35.5864 23.0567 35.7817C22.5589 36.0049 22.0087 36.1722 21.4846 36.3396C21.0916 36.4512 20.6724 36.5628 20.227 36.6744C19.7554 36.7859 19.2838 36.8696 18.8122 36.9254C18.3405 36.9812 17.8689 37.037 17.4235 37.0649L15.275 36.8138L15.3536 19.8533L26.6724 16.4779C26.7248 16.4779 26.751 16.45 26.7772 16.3942L28.6637 13.5209ZM28.8209 12.9072L26.5938 16.2547L15.144 19.658L15.0654 36.9533L17.3973 37.2323C17.8689 37.2044 18.3667 37.1486 18.8384 37.0928C19.31 37.037 19.8078 36.9533 20.2794 36.8417C20.6986 36.758 21.144 36.6465 21.5632 36.507C22.1135 36.3396 22.6375 36.1722 23.1615 35.9491C23.6593 35.7538 24.1309 35.5027 24.6025 35.2517C24.786 35.1401 24.9432 35.0564 25.1266 34.9448C25.441 34.7496 25.7554 34.5264 26.0436 34.3311C26.5938 33.9127 27.0916 33.4385 27.4846 32.9642C28.4279 31.8484 28.8733 30.621 28.8995 29.3657L28.8209 12.9072Z" fill="#3B3938"/>
<path d="M11.5807 36.7024C11.1353 36.5908 10.6899 36.4792 10.2706 36.3676C9.79903 36.2281 9.35362 36.0608 8.9082 35.8934V19.6023C9.32742 19.7697 9.77283 19.937 10.2182 20.0765C10.6637 20.216 11.1091 20.3276 11.5807 20.4392V36.7024Z" fill="#FFDF8B"/>
<path d="M9.013 19.7417C9.40601 19.8812 9.79902 20.0486 10.2182 20.1602C10.6375 20.2996 11.0829 20.4112 11.5283 20.4949V36.5628C11.1091 36.4791 10.7161 36.3676 10.323 36.256C9.87763 36.1165 9.43221 35.977 9.013 35.8096V19.7417ZM8.82959 19.4628V35.9491C9.30121 36.1444 9.77282 36.3118 10.2706 36.4512C10.7423 36.5907 11.2139 36.7302 11.7117 36.8139V20.3554C11.2139 20.2438 10.7423 20.1323 10.2706 19.9928C9.74662 19.8254 9.275 19.6301 8.82959 19.4628Z" fill="#3B3938"/>
<path d="M14.4365 37.1208C13.9911 37.0929 13.5457 37.0371 13.1002 36.9813C12.6548 36.9255 12.1832 36.8418 11.7378 36.7302V20.467C12.1832 20.5507 12.6286 20.6344 13.074 20.6902C13.5195 20.746 13.9649 20.8018 14.4365 20.8297V37.1208Z" fill="#FFDF8B"/>
<path d="M11.869 20.5786C12.262 20.6623 12.6812 20.746 13.1004 20.8017C13.5196 20.8575 13.9388 20.9133 14.3842 20.9412V37.037C13.965 37.0091 13.572 36.9534 13.1528 36.8976C12.7336 36.8418 12.2882 36.7581 11.869 36.6744V20.5786ZM11.6855 20.3275V36.786C12.1572 36.8976 12.6288 36.9812 13.1266 37.037C13.5982 37.0928 14.0698 37.1486 14.5676 37.1765V20.7181C14.096 20.6902 13.5982 20.6344 13.1266 20.5786C12.6288 20.5228 12.1572 20.4391 11.6855 20.3275Z" fill="#3B3938"/>
<path d="M5.86893 34.1359C5.39732 33.7454 4.9519 33.3548 4.58509 32.9085C3.64186 31.7927 3.14404 30.5374 3.14404 29.2821L3.17024 14.1626C3.40605 14.9995 3.82527 15.7805 4.45409 16.5337C4.8471 17.008 5.31872 17.4543 5.86893 17.8727V34.1359Z" fill="#FFDF8B"/>
<path d="M3.14163 12.8514L3.04163 12.8514L3.04163 12.8514L3.01543 29.3098V29.3099C3.01543 30.5781 3.49195 31.8725 4.46818 33.0243C4.86393 33.5018 5.33858 33.9509 5.91815 34.3716L5.99753 34.4292V34.3311V17.8448V17.82L5.97779 17.805C5.4314 17.3894 4.96244 16.9181 4.54474 16.4457C3.63365 15.309 3.14163 14.0648 3.14163 12.8514ZM3.29884 29.3099L3.32457 15.0081C3.56682 15.5741 3.92508 16.1337 4.36337 16.6495C4.75395 17.1208 5.22139 17.5644 5.74032 17.9535V33.8358C5.35746 33.5217 5.01834 33.1832 4.70166 32.8201C3.79091 31.7395 3.29884 30.5233 3.29884 29.3099Z" fill="#3B3938" stroke="#3B3938" stroke-width="0.1"/>
<path d="M8.72522 35.7816C8.27981 35.5864 7.83439 35.3911 7.41518 35.14C7.23177 35.0564 7.07457 34.9448 6.91736 34.8332C6.60295 34.6379 6.31474 34.4426 6.05273 34.2474V18.0121C6.31474 18.2074 6.57675 18.3747 6.86496 18.5421C7.02217 18.6537 7.17937 18.7374 7.36278 18.8211C7.80819 19.0721 8.25361 19.2953 8.75143 19.4906V35.7816H8.72522Z" fill="#FFDF8B"/>
<path d="M6.13116 18.2074C6.34077 18.3747 6.57657 18.5142 6.81238 18.6537C6.96959 18.7374 7.12679 18.8211 7.3102 18.9327C7.72941 19.1558 8.17483 19.379 8.64644 19.5743V35.6422C8.25343 35.4748 7.86042 35.2795 7.4936 35.0564C7.284 34.9448 7.12679 34.8611 6.99579 34.7774C6.70758 34.61 6.41937 34.4148 6.15736 34.2195V18.2074H6.13116ZM5.94775 17.8447V34.3311C6.23596 34.5542 6.55037 34.7495 6.86478 34.9448C7.02199 35.0564 7.2054 35.14 7.3888 35.2516C7.83422 35.5027 8.33203 35.7259 8.82985 35.949V19.4627C8.33203 19.2674 7.86042 19.0163 7.3888 18.7653C7.2316 18.6816 7.04819 18.57 6.89098 18.4863C6.57657 18.2632 6.26216 18.0679 5.94775 17.8447Z" fill="#3B3938"/>
<path d="M15.9564 37.1765C15.5109 37.1765 15.0655 37.1486 14.6201 37.1207V20.8575C15.0655 20.8854 15.5109 20.9133 15.9564 20.9133C16.428 20.9133 16.8734 20.9133 17.2926 20.8854V37.1486C16.8734 37.1486 16.428 37.1765 15.9564 37.1765Z" fill="#FFDF8B"/>
<path d="M14.7249 20.9412C15.1441 20.9691 15.5633 20.9691 15.9826 20.9691H16.035C16.428 20.9691 16.8472 20.9691 17.2402 20.9412V37.0092C16.821 37.0371 16.428 37.0371 15.9826 37.0371C15.5633 37.0371 15.1441 37.0371 14.7249 37.0092V20.9412ZM14.5415 20.746V37.2044C15.0131 37.2323 15.4847 37.2602 15.9826 37.2602C15.9826 37.2602 15.9826 37.2602 16.0088 37.2602C16.4804 37.2602 16.952 37.2323 17.4236 37.2044V20.746C16.952 20.7739 16.5066 20.8018 16.035 20.8018H16.0088C15.4847 20.8018 15.0131 20.7739 14.5415 20.746Z" fill="#3B3938"/>
<path d="M13.2051 6.12862C13.6505 6.07283 14.0959 6.01704 14.5413 5.98914C14.9867 5.96125 15.4321 5.93335 15.8776 5.93335V7.63499C15.4321 7.63499 14.9867 7.66288 14.5413 7.69078C14.0959 7.71867 13.6505 7.77447 13.2051 7.83026V6.12862Z" fill="#3B3938"/>
<path d="M15.7988 6.01705V7.52341C15.3796 7.52341 14.9604 7.55131 14.5412 7.57921C14.1219 7.6071 13.7027 7.66289 13.3097 7.71868V6.21232C13.7289 6.15653 14.1481 6.10073 14.5674 6.07284C14.9604 6.04494 15.3796 6.01705 15.7988 6.01705ZM15.9298 5.82178C15.4582 5.82178 15.0128 5.84967 14.5412 5.87757C14.0695 5.90546 13.5717 5.96126 13.1001 6.04494V7.94185C13.5717 7.85816 14.0433 7.80237 14.5412 7.77448C15.0128 7.74658 15.4582 7.71868 15.9298 7.71868C15.956 7.71868 15.956 7.71868 15.9822 7.71868V5.82178C15.956 5.82178 15.9298 5.82178 15.9298 5.82178Z" fill="#FFDF8B"/>
<path d="M10.3491 6.82599C10.7945 6.68651 11.24 6.54703 11.7116 6.43545C12.1308 6.32387 12.5762 6.24018 13.0216 6.15649V7.85813C12.5762 7.94182 12.1046 8.02551 11.6592 8.13709C11.2137 8.24867 10.7683 8.38815 10.3491 8.52763V6.82599Z" fill="#3B3938"/>
<path d="M12.917 6.26809V7.77446C12.4715 7.85814 12.0523 7.94183 11.6331 8.05341C11.2139 8.165 10.8209 8.27658 10.4279 8.41606V6.93758C10.8471 6.79811 11.2663 6.65863 11.7117 6.54704C12.1047 6.40757 12.5239 6.32388 12.917 6.26809ZM13.1004 6.04492C12.6287 6.12861 12.1309 6.2123 11.6593 6.32388C11.1615 6.43546 10.6899 6.57494 10.2183 6.74231V8.63922C10.6899 8.47185 11.1615 8.33237 11.6593 8.22079C12.1309 8.1092 12.6025 7.99762 13.1004 7.94183V6.04492Z" fill="#FFDF8B"/>
<path d="M4.66337 13.3536C4.50616 12.0146 4.97778 10.6756 6.02581 9.50395C6.39263 9.08552 6.81184 8.72287 7.30966 8.36023V10.0061C6.75944 10.3966 6.28782 10.7872 5.89481 11.2335C5.29219 11.903 4.89918 12.6283 4.66337 13.3536Z" fill="#3B3938"/>
<path d="M7.20502 8.55551V9.9782C6.681 10.3408 6.20939 10.7593 5.81637 11.2056C5.31856 11.7635 4.95174 12.3493 4.71594 12.9351C4.68974 11.7635 5.16135 10.6198 6.07838 9.58766C6.41899 9.19712 6.78581 8.86237 7.20502 8.55551ZM7.38843 8.19287C6.83821 8.58341 6.36659 9.00185 5.94738 9.44818C4.74214 10.7872 4.29672 12.3214 4.63733 13.7999C4.82074 12.9351 5.26615 12.0983 5.94738 11.3451C6.34039 10.8988 6.81201 10.4803 7.38843 10.0898V8.19287Z" fill="#FFDF8B"/>
<path d="M7.49349 8.24873C7.62449 8.16504 7.7817 8.05346 7.9127 7.96977C8.20091 7.80239 8.51532 7.60712 8.85593 7.43975C9.27514 7.24448 9.69436 7.04921 10.166 6.88184V8.55558C9.69436 8.72295 9.22274 8.91822 8.77733 9.14139C8.43672 9.30876 8.09611 9.50403 7.8079 9.67141C7.70309 9.75509 7.57209 9.81088 7.46729 9.89457V8.24873H7.49349Z" fill="#3B3938"/>
<path d="M10.061 7.02127V8.49974C9.58938 8.66711 9.14396 8.86238 8.72475 9.05765C8.38414 9.22503 8.04353 9.4203 7.75532 9.58767C7.70292 9.61557 7.62431 9.67136 7.57191 9.69926V8.27657C7.70292 8.19289 7.80772 8.1092 7.93872 8.02551C8.22693 7.85814 8.54134 7.66287 8.88196 7.49549C9.27497 7.32812 9.66798 7.16075 10.061 7.02127ZM10.2444 6.74231C9.74658 6.90968 9.27497 7.10495 8.80335 7.35602C8.46274 7.52339 8.14833 7.69076 7.83392 7.88603C7.67671 7.99762 7.51951 8.0813 7.3623 8.19289V10.0898C7.51951 9.97821 7.67671 9.89453 7.83392 9.78294C8.14833 9.58767 8.46274 9.4203 8.80335 9.25292C9.24877 9.02976 9.74658 8.83449 10.2444 8.63922V6.74231Z" fill="#FFDF8B"/>
<path d="M18.7335 7.83032C18.2881 7.77453 17.8427 7.71874 17.3973 7.66294C16.9519 7.63505 16.5064 7.60715 16.061 7.60715V5.90552C16.5064 5.90552 16.9519 5.93341 17.3973 5.96131C17.8427 5.9892 18.3143 6.045 18.7335 6.12868V7.83032Z" fill="#FFDF8B"/>
<path d="M16.1395 6.01705C16.5587 6.01705 16.9779 6.04494 17.3709 6.07284C17.7901 6.10073 18.2093 6.15653 18.6285 6.21232V7.71868C18.2355 7.66289 17.8163 7.6071 17.3971 7.57921C16.9779 7.55131 16.5587 7.52341 16.1395 7.52341V6.01705ZM15.9561 5.82178V7.71868C16.4277 7.71868 16.8993 7.74658 17.3971 7.77448C17.8687 7.80237 18.3665 7.85816 18.8382 7.94185V6.04494C18.3665 5.96126 17.8949 5.90546 17.3971 5.87757C16.9255 5.84967 16.4539 5.82178 15.9561 5.82178Z" fill="#3B3938"/>
<path d="M21.4061 8.44401C21.0393 8.33242 20.6725 8.22084 20.2794 8.10926C19.834 7.99767 19.3886 7.91399 18.917 7.8303V6.12866C19.3624 6.21235 19.8078 6.29604 20.227 6.40762C20.62 6.5192 21.0131 6.63078 21.3799 6.74237V8.44401H21.4061Z" fill="#FFDF8B"/>
<path d="M18.9956 6.26809C19.4148 6.35177 19.8078 6.43546 20.2008 6.51915C20.5676 6.60283 20.9344 6.71442 21.3013 6.826V8.30447C20.9869 8.19289 20.6462 8.1092 20.3056 8.02551C19.8864 7.91393 19.4672 7.83024 19.0218 7.74656V6.26809H18.9956ZM18.8384 6.04492V7.94183C19.31 8.02551 19.8078 8.1092 20.2794 8.22078C20.6986 8.33236 21.1179 8.44395 21.5109 8.58343V6.68652C21.1179 6.54704 20.6986 6.43546 20.2794 6.32388C19.7816 6.2123 19.31 6.12861 18.8384 6.04492Z" fill="#3B3938"/>
<path d="M27.2747 13.4095C27.0389 12.6563 26.6197 11.9589 26.0433 11.2894C25.6503 10.8431 25.1786 10.4246 24.6284 10.062V8.41614C25.1 8.77878 25.5454 9.14143 25.9123 9.55986C26.9603 10.7315 27.4319 12.0705 27.2747 13.4095Z" fill="#FFDF8B"/>
<path d="M24.7332 8.58347C25.1524 8.89032 25.5192 9.25297 25.8598 9.61561C26.8031 10.6478 27.2747 11.8194 27.2485 12.991C27.0127 12.3773 26.6197 11.7915 26.1219 11.2336C25.7288 10.7872 25.2834 10.3967 24.7332 10.0062V8.58347ZM24.5498 8.22083V10.1177C25.1 10.5083 25.5978 10.9267 25.9909 11.373C26.6983 12.1541 27.1175 12.991 27.3009 13.8558C27.6153 12.3773 27.1699 10.843 25.9909 9.50403C25.5716 9.0298 25.1 8.61136 24.5498 8.22083Z" fill="#3B3938"/>
<path d="M24.4451 9.92247C24.3141 9.83878 24.1831 9.7551 24.0521 9.67141C23.7901 9.50404 23.5019 9.33666 23.135 9.16929C22.611 8.91823 22.087 8.69506 21.563 8.49979V6.82605C22.0608 6.99342 22.5848 7.21659 23.0564 7.46765C23.4233 7.63503 23.7115 7.8024 23.9473 7.96977C24.1045 8.08136 24.2617 8.16504 24.4189 8.27663V9.92247H24.4451Z" fill="#FFDF8B"/>
<path d="M21.6678 6.96554C22.1394 7.13291 22.5848 7.32818 23.0302 7.55135C23.3708 7.71872 23.659 7.8861 23.9211 8.05347C24.0521 8.13716 24.2093 8.22085 24.3403 8.33243V9.75511C24.2617 9.69932 24.1831 9.64353 24.1045 9.58773C23.8425 9.42036 23.5542 9.25299 23.1874 9.08561C22.6896 8.83455 22.1656 8.61138 21.6678 8.44401V6.96554ZM21.4844 6.71448V8.61138C22.0608 8.80665 22.5848 9.02982 23.1088 9.28088C23.4232 9.44826 23.7376 9.58773 24.0259 9.783C24.2093 9.89459 24.3665 10.0062 24.5499 10.1178V8.22084C24.3927 8.10926 24.2093 7.99768 24.0259 7.8861C23.7376 7.71872 23.4232 7.55135 23.1088 7.38397C22.5848 7.13291 22.0608 6.90975 21.4844 6.71448Z" fill="#3B3938"/>
<path d="M16.0087 20.7459C12.5764 20.7459 9.35365 19.9091 6.91697 18.4306C4.48029 16.9521 3.14404 14.9436 3.14404 12.8514C3.14404 10.7593 4.45409 8.77868 6.86457 7.30021C9.27505 5.79384 12.4978 4.98486 15.9301 4.98486C19.3624 4.98486 22.5851 5.82173 25.0218 7.30021C27.4585 8.80657 28.7947 10.7872 28.7947 12.8793C28.7947 14.9715 27.4847 16.9521 25.0742 18.4306C22.6637 19.937 19.441 20.7459 16.0087 20.7459ZM15.9301 5.76594C12.8646 5.76594 9.98247 6.49123 7.834 7.83022C5.68553 9.16922 4.48029 10.9545 4.48029 12.8514C4.48029 14.7484 5.68553 16.5616 7.8864 17.9006C10.0611 19.2396 12.9432 19.9649 16.0087 19.9649C19.0742 19.9649 21.9563 19.2396 24.1047 17.9006C26.2532 16.5616 27.4585 14.7763 27.4585 12.8793C27.4585 10.9824 26.2532 9.16922 24.0523 7.83022C21.8777 6.49123 18.9956 5.76594 15.9301 5.76594Z" fill="white"/>
<path d="M24.9694 7.39853L24.9696 7.39862C27.3711 8.87158 28.6924 10.8383 28.6924 12.9072C28.6924 14.9485 27.3969 16.9152 25.0221 18.36L25.022 18.3601C22.6207 19.8329 19.4336 20.668 16.0088 20.668C12.5838 20.668 9.39686 19.8607 6.96962 18.3602L6.96947 18.3601C4.56798 16.8871 3.2466 14.9204 3.2466 12.8515C3.2466 10.8102 4.54211 8.84352 6.91691 7.39872L6.91691 7.39872L6.91742 7.3984C9.31832 5.89802 12.5051 5.09066 15.9302 5.09066C19.3552 5.09066 22.5422 5.898 24.9694 7.39853ZM6.81248 7.20173L6.81248 7.20173L6.81204 7.20201C4.30013 8.77024 3.04169 10.8207 3.05162 12.8761C3.06155 14.9314 4.33972 16.9748 6.86471 18.529C9.38986 20.0972 12.7009 20.8517 16.0088 20.8517C19.3172 20.8517 22.6018 20.0691 25.1266 18.5291L25.1268 18.5289C27.6388 16.9746 28.8974 14.9311 28.8874 12.8791C28.8775 10.8272 27.5993 8.78391 25.0743 7.22974L25.0743 7.22972C22.5233 5.66172 19.2125 4.87908 15.9302 4.87908C12.6218 4.87908 9.33721 5.66171 6.81248 7.20173ZM7.93891 17.8022L7.9388 17.8021C5.70836 16.4412 4.59582 14.6558 4.58612 12.8756C4.57642 11.0954 5.66937 9.30333 7.88663 7.92856C10.1042 6.56754 13.0029 5.87174 15.9302 5.87174C18.8577 5.87174 21.7826 6.5676 24.0001 7.92863C26.2306 9.30352 27.3432 11.0958 27.3529 12.8796C27.3626 14.6633 26.2697 16.4553 24.0525 17.8301C21.8352 19.191 18.9365 19.8591 16.0088 19.8591C13.0814 19.8591 10.1564 19.1632 7.93891 17.8022ZM16.0088 20.0706C19.0815 20.0706 21.9732 19.3438 24.1575 17.9709C26.3413 16.6263 27.561 14.7992 27.561 12.8794C27.561 10.9315 26.3412 9.10437 24.1047 7.75962C21.9208 6.41502 19.0031 5.66016 15.9302 5.66016C12.8576 5.66016 9.96583 6.38701 7.78154 7.75988C5.59813 9.10431 4.37786 10.9035 4.40424 12.8518C4.40438 14.7995 5.62413 16.6265 7.86045 17.9711C10.0183 19.3158 12.936 20.0706 16.0088 20.0706Z" fill="#3B3938" stroke="#3B3938" stroke-width="0.1"/>
<path d="M24.1051 17.8873L24.1052 17.8872C25.9469 16.7388 27.0323 15.3339 27.3504 13.8382L27.3526 13.8278L27.3504 13.8174C27.0323 12.3219 25.9208 10.8611 24.0525 9.71245L24.0524 9.71236C21.8026 8.33964 18.8652 7.65471 15.9335 7.65471C13.0019 7.65471 10.0709 8.33963 7.83425 9.71243L7.83394 9.71262C5.99229 10.8611 4.90686 12.2659 4.58879 13.7616L4.5866 13.7719L4.58875 13.7822C4.9068 15.306 6.01859 16.7389 7.88662 17.8874C10.1364 19.2741 13.0739 19.9661 16.0056 19.9661C18.9373 19.9661 21.8684 19.2741 24.1051 17.8873Z" fill="white" stroke="#3B3938" stroke-width="0.1"/>
<path d="M6.86468 24.1508L6.86509 24.151C9.31993 25.6405 12.5612 26.4809 16.0087 26.4809C19.4559 26.4809 22.6979 25.6406 25.1272 24.1224C27.5557 22.6048 28.8947 20.5966 28.8947 18.4585V17.789C28.8947 17.7374 28.8555 17.6943 28.8041 17.6894C28.7528 17.6846 28.7061 17.7196 28.6965 17.7703C28.3627 19.52 27.1281 21.117 25.074 22.3904C22.6559 23.8853 19.4261 24.7187 16.0087 24.7187C12.565 24.7187 9.33514 23.8852 6.91715 22.3904L6.91678 22.3902C4.83654 21.1167 3.57604 19.4918 3.24227 17.7424C3.2326 17.6917 3.18598 17.6567 3.13463 17.6616C3.08328 17.6664 3.04404 17.7095 3.04404 17.7611V18.4864C3.04404 20.6534 4.43666 22.6615 6.86468 24.1508Z" fill="white" stroke="#3B3938" stroke-width="0.2" stroke-linejoin="round"/>
<path d="M6.86397 30.9289L6.86397 30.9289L6.86509 30.9296C9.31993 32.4191 12.5612 33.2594 16.0087 33.2594C19.4559 33.2594 22.6979 32.4191 25.1272 30.901C27.5557 29.3834 28.8947 27.3752 28.8947 25.2371V24.5676C28.8947 24.516 28.8555 24.4729 28.8041 24.468C28.7528 24.4632 28.7061 24.4982 28.6965 24.5488C28.3627 26.2985 27.1281 27.8955 25.074 29.169C22.6559 30.6638 19.4261 31.4973 16.0087 31.4973C12.565 31.4973 9.33514 30.6638 6.91715 29.169L6.91678 29.1687C4.83654 27.8952 3.57604 26.2704 3.24227 24.5209C3.2326 24.4703 3.18598 24.4353 3.13463 24.4401C3.08328 24.445 3.04404 24.4881 3.04404 24.5397V25.265H3.04404L3.04405 25.2662C3.07082 27.4039 4.43597 29.4116 6.86397 30.9289Z" fill="white" stroke="#3B3938" stroke-width="0.2" stroke-linejoin="round"/>
<path d="M8.27963 13.1304C8.25343 12.5725 8.51544 11.9867 8.96085 11.6519C9.40627 11.2893 10.0089 11.2614 10.5329 11.373C11.0569 11.4845 11.5547 11.7077 12.0526 11.8472C12.5504 11.9867 13.1006 12.0146 13.5722 11.7356C13.3626 11.903 13.1006 11.9867 12.8386 12.0146C12.5766 12.0425 12.2884 12.0146 12.0264 11.9588C11.5023 11.8472 11.0045 11.624 10.5067 11.5403C10.0089 11.4287 9.45867 11.4566 9.03945 11.7635C8.62024 12.0425 8.33203 12.5725 8.27963 13.1304Z" fill="#3B3938"/>
<path d="M14.4629 15.613C14.6463 15.4178 14.8821 15.2783 15.1441 15.2225C15.4061 15.1667 15.6681 15.1667 15.9301 15.2225C16.4542 15.3341 16.9258 15.613 17.3974 15.8362C17.869 16.0594 18.3668 16.1989 18.8646 16.1989C19.3625 16.1989 19.8865 16.0873 20.3581 15.8362C19.9127 16.1431 19.3887 16.3104 18.8646 16.3383C18.3406 16.3662 17.7904 16.2268 17.3188 16.0036C16.8472 15.7804 16.4018 15.5015 15.9039 15.362C15.4323 15.2225 14.8559 15.2504 14.4629 15.613Z" fill="#3B3938"/>
<path d="M18.7861 12.8235C18.8909 12.6004 19.1267 12.433 19.3626 12.3214C19.5984 12.2377 19.8604 12.2098 20.0962 12.2098C20.3582 12.2098 20.594 12.2656 20.8298 12.2377C21.0656 12.2098 21.2752 12.0983 21.4848 11.9867C21.904 11.7356 22.3495 11.4288 22.8473 11.3451C23.3451 11.2335 23.8429 11.2893 24.3145 11.373C23.8167 11.3451 23.3451 11.3451 22.8735 11.4846C22.4019 11.5961 22.0088 11.8751 21.5634 12.1541C21.3538 12.2935 21.118 12.4051 20.856 12.433C20.594 12.4609 20.3582 12.4051 20.1224 12.3772C19.6246 12.3214 19.1005 12.4051 18.7861 12.8235Z" fill="#3B3938"/>
<path d="M9.24902 15.1947C9.43243 14.832 9.85164 14.6088 10.2447 14.6367C10.6377 14.6646 11.0045 14.8599 11.2927 15.111C11.1093 15.0552 10.9259 14.9994 10.7687 14.9436C10.5853 14.8878 10.4281 14.8599 10.2447 14.832C9.87784 14.8041 9.53723 14.9436 9.24902 15.1947Z" fill="#3B3938"/>
<path d="M16.2969 10.6198C16.3493 10.3966 16.5589 10.2013 16.7685 10.1176C17.0043 10.034 17.2401 10.034 17.4497 10.0618C17.6593 10.0897 17.8689 10.1455 18.1047 10.2013C18.3143 10.2571 18.5239 10.3129 18.7335 10.3966C18.2881 10.3966 17.8689 10.3129 17.4235 10.2292C17.2139 10.2013 17.0043 10.1734 16.8209 10.2292C16.6113 10.3129 16.4017 10.4245 16.2969 10.6198Z" fill="#3B3938"/>
<path d="M21.4321 16.98C21.4321 16.701 21.6941 16.45 21.9561 16.3942C22.2182 16.3105 22.5064 16.3663 22.7422 16.45C22.978 16.5337 23.2138 16.6173 23.4496 16.6731C23.6854 16.701 23.9474 16.701 24.157 16.5337C23.9998 16.7568 23.7116 16.8405 23.4496 16.8126C23.1876 16.8126 22.9256 16.701 22.6898 16.6452C22.454 16.5616 22.2182 16.5337 21.9823 16.5616C21.7727 16.5616 21.5369 16.701 21.4321 16.98Z" fill="#3B3938"/>
<path d="M14.3056 17.9006C14.3056 17.5658 14.0174 17.2869 13.7553 17.3427C13.4671 17.3985 13.2313 17.6216 12.9169 17.7332C12.2881 17.9285 11.5545 17.7332 11.1353 17.2311C11.6331 17.6216 12.2881 17.7332 12.8645 17.5379C13.1527 17.4543 13.3885 17.2032 13.7553 17.1753C14.1222 17.1753 14.4104 17.5658 14.3056 17.9006Z" fill="#3B3938"/>
<path d="M11.3975 9.61558C11.6333 9.504 11.8953 9.44821 12.1573 9.42031C12.4193 9.39241 12.6813 9.4761 12.9171 9.504C13.1529 9.53189 13.3887 9.504 13.6245 9.44821C13.8603 9.39241 14.0962 9.28083 14.332 9.19714C14.1224 9.36452 13.9127 9.504 13.6507 9.58769C13.4149 9.69927 13.1267 9.72716 12.8647 9.69927C12.6027 9.67137 12.3669 9.58769 12.1311 9.58769C11.9215 9.55979 11.6595 9.58769 11.3975 9.61558Z" fill="#3B3938"/>
<path d="M20.7775 21.4154C20.5941 21.4154 20.4106 21.248 20.4106 21.0249V18.3748C20.4106 16.98 21.1181 15.6689 22.2447 14.9715L26.1486 12.5725C26.3582 12.433 26.6203 12.3772 26.8561 12.3772C27.1181 12.3772 27.3539 12.4609 27.5635 12.5725C28.0089 12.8514 28.2971 13.3535 28.2971 13.9115V16.6173C28.2971 16.8126 28.1399 17.0079 27.9303 17.0079C27.7469 17.0079 27.5635 16.8405 27.5635 16.6173V13.9115C27.5635 13.6325 27.4325 13.3814 27.1967 13.242C27.0919 13.1862 26.9609 13.1304 26.8299 13.1304C26.6989 13.1304 26.5679 13.1583 26.463 13.242L22.5591 15.641C21.6421 16.1989 21.0657 17.2589 21.0657 18.3748V21.0249C21.1181 21.248 20.9609 21.4154 20.7775 21.4154Z" fill="white"/>
<path d="M22.6637 15.7115L26.5663 13.3133C26.6706 13.2579 26.7912 13.2083 26.8821 13.2083C26.9793 13.2083 27.0981 13.2343 27.1915 13.3089L27.1914 13.3091L27.195 13.3115C27.3912 13.442 27.5133 13.6498 27.5133 13.9115V16.6173C27.5133 16.8651 27.7162 17.0858 27.9563 17.0858C28.1965 17.0858 28.3994 16.8651 28.3994 16.6173V13.9115C28.3994 13.3091 28.1029 12.791 27.6429 12.5026C27.4255 12.3581 27.1541 12.2714 26.8821 12.2714C26.6086 12.2714 26.364 12.359 26.123 12.5015L26.123 12.5015L26.1223 12.502L22.2187 14.9008C22.2186 14.9009 22.2186 14.9009 22.2185 14.9009C21.0495 15.6081 20.3343 16.9641 20.3343 18.3748V21.0249C20.3343 21.2726 20.5372 21.4933 20.7773 21.4933C21.0174 21.4933 21.2203 21.2726 21.2203 21.0249V18.3748C21.2203 17.2751 21.7625 16.2598 22.6635 15.7116L22.6637 15.7115ZM26.8821 12.483C27.1058 12.483 27.3326 12.5622 27.5655 12.6722C27.9947 12.9422 28.247 13.3995 28.247 13.9115V16.6173C28.247 16.788 28.1354 16.9021 27.9825 16.9021C27.8297 16.9021 27.7181 16.788 27.7181 16.6173V13.9115C27.7181 13.5858 27.5508 13.3205 27.3041 13.1454L27.3041 13.1454L27.302 13.144C27.1616 13.0544 27.0209 13.0246 26.8821 13.0246C26.7434 13.0246 26.6028 13.0543 26.4625 13.1438L22.559 15.5426L22.5588 15.5427C21.6003 16.138 21.0155 17.2144 21.0155 18.3748V21.0249C21.0155 21.1955 20.904 21.3096 20.7511 21.3096C20.5982 21.3096 20.4867 21.1955 20.4867 21.0249V18.3748C20.4867 16.9964 21.1858 15.7302 22.2963 15.0703L22.2963 15.0703L22.2969 15.0699L26.2001 12.6713C26.2003 12.6712 26.2004 12.6712 26.2005 12.6711C26.4281 12.5366 26.6549 12.483 26.8821 12.483Z" fill="#3B3938" stroke="#3B3938" stroke-width="0.1"/>
<path d="M20.2007 41.4446L28.978 43.0346L20.2007 41.4446Z" fill="white"/>
<path d="M28.9781 43.4251C28.9519 43.4251 28.9257 43.4251 28.9257 43.4251L20.1484 41.8351C19.9388 41.8072 19.8078 41.6119 19.8602 41.3887C19.8864 41.1656 20.0698 41.0261 20.2794 41.0819L29.0567 42.6719C29.2663 42.6998 29.3973 42.8951 29.3449 43.1183C29.3187 43.3135 29.1615 43.4251 28.9781 43.4251Z" fill="#3B3938"/>
<path d="M20.0693 42.895L28.7418 40.6913L20.0693 42.895Z" fill="white"/>
<path d="M20.0695 43.2856C19.9123 43.2856 19.7551 43.174 19.7289 42.9787C19.6765 42.7834 19.8075 42.5603 19.9909 42.5045L28.6634 40.3007C28.8468 40.2449 29.0564 40.3844 29.1088 40.5797C29.1612 40.775 29.0302 40.9981 28.8468 41.0539L20.1481 43.2856C20.1219 43.2856 20.0957 43.2856 20.0695 43.2856Z" fill="#3B3938"/>
<path d="M19.5723 41.026L27.6945 44.9035L19.5723 41.026Z" fill="white"/>
<path d="M27.6944 45.294C27.642 45.294 27.5896 45.294 27.5372 45.2661L19.4149 41.3886C19.2315 41.305 19.1529 41.0818 19.2315 40.8865C19.3101 40.6912 19.5197 40.6076 19.7031 40.6912L27.8254 44.5687C28.0088 44.6524 28.0874 44.8756 28.0088 45.0709C27.9564 45.2103 27.8254 45.294 27.6944 45.294Z" fill="#3B3938"/>
<path d="M13.6765 30.1467C13.8337 30.9278 13.6503 32.0715 13.8075 32.8526C12.2093 32.0994 11.6853 31.0114 9.92982 29.4214C10.5062 30.314 10.5324 32.0715 11.1089 32.9641C9.87742 32.0436 8.64598 31.123 7.44074 30.2025C7.91235 31.123 7.93855 32.8247 8.41017 33.7452C6.70711 33.8847 5.89488 33.0199 3.4844 32.5736C3.77261 33.3268 5.94729 34.5821 6.13069 35.6142C5.10886 35.9211 2.77698 34.9726 1.75515 35.2795C2.35777 35.8653 2.96039 36.4511 3.56301 37.0369C2.67218 37.3159 1.80755 37.5948 0.916719 37.9017C1.67654 38.5433 2.41017 39.1849 3.16999 39.8544C2.14816 40.3565 1.12633 40.8865 0.104492 41.3886C1.80755 42.0581 2.69838 42.6997 2.90799 42.895C2.22676 43.4808 1.54554 44.0666 0.890518 44.6803C2.46257 44.5967 4.00842 44.4851 5.58047 44.4014C5.16126 44.8756 4.74205 45.3498 4.32283 45.7962C5.84248 45.4893 7.36213 45.2104 8.90798 44.9035C8.54117 45.9078 8.17436 46.8841 7.80755 47.8884C8.41017 47.442 10.8993 46.3541 12.7595 45.1267C12.7595 45.1267 12.5499 46.9678 12.2617 47.442C13.9648 46.5773 15.039 46.1867 15.956 45.8241C17.1089 45.3777 18.5761 44.8477 19.5193 44.4851C21.3796 43.7877 21.5106 43.2019 21.6416 42.365C21.7726 41.6955 22.2704 41.026 20.8032 39.8265C17.9211 37.5111 15.4844 33.4942 13.6765 30.1467Z" fill="#FFDF8B"/>
<mask id="path-104-outside-1_827_6084" maskUnits="userSpaceOnUse" x="-0.947754" y="28.3447" width="23" height="20" fill="black">
<rect fill="white" x="-0.947754" y="28.3447" width="23" height="20"/>
<path d="M7.78151 48C7.75531 48 7.7291 48 7.7291 47.9721C7.7029 47.9442 7.6767 47.8884 7.7029 47.8605L8.75094 45.043L4.34919 45.9078C4.32299 45.9078 4.27059 45.9078 4.24439 45.852C4.21819 45.8241 4.24439 45.7683 4.27059 45.7404L5.37103 44.513L0.916875 44.792C0.890674 44.792 0.838273 44.7641 0.838273 44.7362C0.812072 44.7083 0.838273 44.6525 0.864473 44.6246L2.80334 42.9229C2.54133 42.7277 1.7291 42.114 0.104648 41.5003C0.078447 41.5003 0.0522461 41.4445 0.0522461 41.4166C0.0522461 41.3887 0.078447 41.3329 0.104648 41.3329L3.06535 39.8544L0.864473 37.9854C0.838273 37.9575 0.838273 37.9296 0.838273 37.9017C0.838273 37.8738 0.864473 37.8459 0.890674 37.818L3.37976 37.0091L1.6767 35.3632C1.6505 35.3353 1.6505 35.3074 1.6505 35.2795C1.6505 35.2516 1.6767 35.2237 1.7029 35.1958C2.22692 35.0285 3.09155 35.1958 3.92998 35.3632C4.6898 35.5027 5.50203 35.6701 5.99985 35.5585C5.84264 35.0006 5.13522 34.3869 4.5064 33.829C3.98238 33.3547 3.51076 32.9642 3.37976 32.6294C3.37976 32.6015 3.37976 32.5737 3.40596 32.5458C3.43216 32.5179 3.45836 32.5179 3.48456 32.5179C4.5064 32.7131 5.24002 32.9921 5.89504 33.2153C6.70727 33.5221 7.36229 33.7453 8.25312 33.6895C8.04351 33.2153 7.93871 32.6294 7.83391 32.0157C7.7029 31.3741 7.5981 30.7046 7.36229 30.2583C7.33609 30.2304 7.36229 30.1746 7.38849 30.1467C7.41469 30.1188 7.4671 30.1188 7.4933 30.1467L10.847 32.6573C10.6636 32.2389 10.5588 31.7368 10.4278 31.2347C10.2706 30.5931 10.1396 29.9236 9.85138 29.5051C9.82517 29.4772 9.82518 29.4214 9.87758 29.3656C9.90378 29.3378 9.95618 29.3378 10.0086 29.3656C10.6374 29.9236 11.109 30.4257 11.502 30.872C12.2095 31.6252 12.7859 32.2389 13.7029 32.7131C13.6505 32.3505 13.6505 31.9321 13.6767 31.5136C13.6767 31.0394 13.7029 30.5652 13.6243 30.1746C13.6243 30.1188 13.6505 30.0909 13.6767 30.063C13.7291 30.0351 13.7553 30.063 13.7815 30.0909C15.5632 33.3547 17.9736 37.3996 20.8819 39.7707C22.1396 40.8029 21.9824 41.5003 21.8252 42.0861C21.799 42.1977 21.7728 42.2813 21.7466 42.3929C21.6156 43.2019 21.4846 43.8435 19.5719 44.5688C19.2575 44.6804 18.8645 44.8199 18.4453 44.9872C17.6592 45.2662 16.7684 45.6009 16.0086 45.9078C15.8514 45.9636 15.6942 46.0194 15.537 46.1031C14.7247 46.4099 13.7291 46.8004 12.3143 47.5536C12.2881 47.5815 12.2357 47.5536 12.2095 47.5257C12.1833 47.4978 12.1833 47.442 12.2095 47.4141C12.4191 47.0515 12.6025 45.7962 12.6549 45.322C11.6068 45.9915 10.4016 46.6052 9.40596 47.1073C8.67234 47.4699 8.12212 47.7768 7.86011 47.9442C7.80771 48 7.78151 48 7.78151 48ZM8.88194 44.8199C8.90814 44.8199 8.93435 44.8199 8.96055 44.8477C8.98675 44.8756 8.98675 44.9035 8.98675 44.9314L7.96491 47.6373C8.27932 47.442 8.72474 47.2189 9.30116 46.9399C10.323 46.4099 11.6068 45.7683 12.6811 45.043C12.7073 45.0151 12.7597 45.0151 12.7859 45.043C12.8121 45.0709 12.8383 45.0988 12.8383 45.1267C12.8383 45.1825 12.6811 46.5494 12.4453 47.2468C13.7553 46.5773 14.6985 46.2146 15.4584 45.9078C15.6156 45.852 15.7728 45.7962 15.93 45.7125C16.6898 45.4057 17.5806 45.0709 18.3667 44.792C18.7859 44.6525 19.1527 44.513 19.4671 44.3735C21.3012 43.6761 21.406 43.1182 21.537 42.3371C21.5632 42.2256 21.5894 42.114 21.6156 42.0024C21.7728 41.4445 21.93 40.8587 20.7509 39.8823C17.9474 37.5949 15.5894 33.7453 13.8339 30.5652C13.8601 30.8441 13.8339 31.151 13.8339 31.4578C13.8339 31.932 13.8077 32.4063 13.8863 32.7968C13.8863 32.8247 13.8863 32.8805 13.8601 32.8805C13.8339 32.9084 13.8077 32.9084 13.7553 32.8805C12.7073 32.3784 12.1047 31.7368 11.3448 30.9278C11.0304 30.5931 10.6636 30.2025 10.2182 29.7841C10.3754 30.1746 10.4802 30.6488 10.585 31.1231C10.7422 31.7647 10.8732 32.4342 11.1614 32.8526C11.1876 32.8805 11.1876 32.9363 11.1614 32.9642C11.1352 32.9921 11.0828 32.9921 11.0566 32.9642L7.6505 30.4257C7.80771 30.8441 7.91251 31.3741 7.99111 31.9042C8.12212 32.5458 8.22692 33.2153 8.46273 33.6616C8.48893 33.6895 8.48893 33.7174 8.46273 33.7453C8.43653 33.7732 8.41033 33.8011 8.38413 33.8011C7.38849 33.8847 6.68107 33.6337 5.81644 33.3268C5.21382 33.1037 4.5588 32.8526 3.64177 32.6573C3.82517 32.9363 4.21819 33.271 4.6112 33.6337C5.29242 34.2474 6.07845 34.9448 6.18325 35.5585C6.18325 35.6143 6.15705 35.6422 6.13085 35.6701C5.60683 35.8374 4.7422 35.6701 3.90378 35.5027C3.17015 35.3632 2.43653 35.2237 1.91251 35.3074L3.58937 36.9254C3.61557 36.9533 3.61557 36.9812 3.61557 37.0091C3.61557 37.037 3.58937 37.0649 3.56316 37.0928L1.10028 37.9017L3.22255 39.7428C3.24875 39.7707 3.24875 39.7986 3.24875 39.8265C3.24875 39.8544 3.22255 39.8823 3.19635 39.9102L0.314255 41.3329C1.7815 41.9187 2.64613 42.5045 2.96054 42.7835C2.98674 42.8114 2.98674 42.8393 2.98674 42.8672C2.98674 42.895 2.98674 42.9229 2.96054 42.9508L1.15268 44.5409L5.58063 44.2619C5.60683 44.2619 5.65923 44.2898 5.65923 44.3177C5.68544 44.3456 5.65923 44.4014 5.63303 44.4293L4.5588 45.6288L8.88194 44.8199Z"/>
</mask>
<path d="M7.78151 48C7.75531 48 7.7291 48 7.7291 47.9721C7.7029 47.9442 7.6767 47.8884 7.7029 47.8605L8.75094 45.043L4.34919 45.9078C4.32299 45.9078 4.27059 45.9078 4.24439 45.852C4.21819 45.8241 4.24439 45.7683 4.27059 45.7404L5.37103 44.513L0.916875 44.792C0.890674 44.792 0.838273 44.7641 0.838273 44.7362C0.812072 44.7083 0.838273 44.6525 0.864473 44.6246L2.80334 42.9229C2.54133 42.7277 1.7291 42.114 0.104648 41.5003C0.078447 41.5003 0.0522461 41.4445 0.0522461 41.4166C0.0522461 41.3887 0.078447 41.3329 0.104648 41.3329L3.06535 39.8544L0.864473 37.9854C0.838273 37.9575 0.838273 37.9296 0.838273 37.9017C0.838273 37.8738 0.864473 37.8459 0.890674 37.818L3.37976 37.0091L1.6767 35.3632C1.6505 35.3353 1.6505 35.3074 1.6505 35.2795C1.6505 35.2516 1.6767 35.2237 1.7029 35.1958C2.22692 35.0285 3.09155 35.1958 3.92998 35.3632C4.6898 35.5027 5.50203 35.6701 5.99985 35.5585C5.84264 35.0006 5.13522 34.3869 4.5064 33.829C3.98238 33.3547 3.51076 32.9642 3.37976 32.6294C3.37976 32.6015 3.37976 32.5737 3.40596 32.5458C3.43216 32.5179 3.45836 32.5179 3.48456 32.5179C4.5064 32.7131 5.24002 32.9921 5.89504 33.2153C6.70727 33.5221 7.36229 33.7453 8.25312 33.6895C8.04351 33.2153 7.93871 32.6294 7.83391 32.0157C7.7029 31.3741 7.5981 30.7046 7.36229 30.2583C7.33609 30.2304 7.36229 30.1746 7.38849 30.1467C7.41469 30.1188 7.4671 30.1188 7.4933 30.1467L10.847 32.6573C10.6636 32.2389 10.5588 31.7368 10.4278 31.2347C10.2706 30.5931 10.1396 29.9236 9.85138 29.5051C9.82517 29.4772 9.82518 29.4214 9.87758 29.3656C9.90378 29.3378 9.95618 29.3378 10.0086 29.3656C10.6374 29.9236 11.109 30.4257 11.502 30.872C12.2095 31.6252 12.7859 32.2389 13.7029 32.7131C13.6505 32.3505 13.6505 31.9321 13.6767 31.5136C13.6767 31.0394 13.7029 30.5652 13.6243 30.1746C13.6243 30.1188 13.6505 30.0909 13.6767 30.063C13.7291 30.0351 13.7553 30.063 13.7815 30.0909C15.5632 33.3547 17.9736 37.3996 20.8819 39.7707C22.1396 40.8029 21.9824 41.5003 21.8252 42.0861C21.799 42.1977 21.7728 42.2813 21.7466 42.3929C21.6156 43.2019 21.4846 43.8435 19.5719 44.5688C19.2575 44.6804 18.8645 44.8199 18.4453 44.9872C17.6592 45.2662 16.7684 45.6009 16.0086 45.9078C15.8514 45.9636 15.6942 46.0194 15.537 46.1031C14.7247 46.4099 13.7291 46.8004 12.3143 47.5536C12.2881 47.5815 12.2357 47.5536 12.2095 47.5257C12.1833 47.4978 12.1833 47.442 12.2095 47.4141C12.4191 47.0515 12.6025 45.7962 12.6549 45.322C11.6068 45.9915 10.4016 46.6052 9.40596 47.1073C8.67234 47.4699 8.12212 47.7768 7.86011 47.9442C7.80771 48 7.78151 48 7.78151 48ZM8.88194 44.8199C8.90814 44.8199 8.93435 44.8199 8.96055 44.8477C8.98675 44.8756 8.98675 44.9035 8.98675 44.9314L7.96491 47.6373C8.27932 47.442 8.72474 47.2189 9.30116 46.9399C10.323 46.4099 11.6068 45.7683 12.6811 45.043C12.7073 45.0151 12.7597 45.0151 12.7859 45.043C12.8121 45.0709 12.8383 45.0988 12.8383 45.1267C12.8383 45.1825 12.6811 46.5494 12.4453 47.2468C13.7553 46.5773 14.6985 46.2146 15.4584 45.9078C15.6156 45.852 15.7728 45.7962 15.93 45.7125C16.6898 45.4057 17.5806 45.0709 18.3667 44.792C18.7859 44.6525 19.1527 44.513 19.4671 44.3735C21.3012 43.6761 21.406 43.1182 21.537 42.3371C21.5632 42.2256 21.5894 42.114 21.6156 42.0024C21.7728 41.4445 21.93 40.8587 20.7509 39.8823C17.9474 37.5949 15.5894 33.7453 13.8339 30.5652C13.8601 30.8441 13.8339 31.151 13.8339 31.4578C13.8339 31.932 13.8077 32.4063 13.8863 32.7968C13.8863 32.8247 13.8863 32.8805 13.8601 32.8805C13.8339 32.9084 13.8077 32.9084 13.7553 32.8805C12.7073 32.3784 12.1047 31.7368 11.3448 30.9278C11.0304 30.5931 10.6636 30.2025 10.2182 29.7841C10.3754 30.1746 10.4802 30.6488 10.585 31.1231C10.7422 31.7647 10.8732 32.4342 11.1614 32.8526C11.1876 32.8805 11.1876 32.9363 11.1614 32.9642C11.1352 32.9921 11.0828 32.9921 11.0566 32.9642L7.6505 30.4257C7.80771 30.8441 7.91251 31.3741 7.99111 31.9042C8.12212 32.5458 8.22692 33.2153 8.46273 33.6616C8.48893 33.6895 8.48893 33.7174 8.46273 33.7453C8.43653 33.7732 8.41033 33.8011 8.38413 33.8011C7.38849 33.8847 6.68107 33.6337 5.81644 33.3268C5.21382 33.1037 4.5588 32.8526 3.64177 32.6573C3.82517 32.9363 4.21819 33.271 4.6112 33.6337C5.29242 34.2474 6.07845 34.9448 6.18325 35.5585C6.18325 35.6143 6.15705 35.6422 6.13085 35.6701C5.60683 35.8374 4.7422 35.6701 3.90378 35.5027C3.17015 35.3632 2.43653 35.2237 1.91251 35.3074L3.58937 36.9254C3.61557 36.9533 3.61557 36.9812 3.61557 37.0091C3.61557 37.037 3.58937 37.0649 3.56316 37.0928L1.10028 37.9017L3.22255 39.7428C3.24875 39.7707 3.24875 39.7986 3.24875 39.8265C3.24875 39.8544 3.22255 39.8823 3.19635 39.9102L0.314255 41.3329C1.7815 41.9187 2.64613 42.5045 2.96054 42.7835C2.98674 42.8114 2.98674 42.8393 2.98674 42.8672C2.98674 42.895 2.98674 42.9229 2.96054 42.9508L1.15268 44.5409L5.58063 44.2619C5.60683 44.2619 5.65923 44.2898 5.65923 44.3177C5.68544 44.3456 5.65923 44.4014 5.63303 44.4293L4.5588 45.6288L8.88194 44.8199Z" fill="#3B3938"/>
<path d="M7.78151 48C7.75531 48 7.7291 48 7.7291 47.9721C7.7029 47.9442 7.6767 47.8884 7.7029 47.8605L8.75094 45.043L4.34919 45.9078C4.32299 45.9078 4.27059 45.9078 4.24439 45.852C4.21819 45.8241 4.24439 45.7683 4.27059 45.7404L5.37103 44.513L0.916875 44.792C0.890674 44.792 0.838273 44.7641 0.838273 44.7362C0.812072 44.7083 0.838273 44.6525 0.864473 44.6246L2.80334 42.9229C2.54133 42.7277 1.7291 42.114 0.104648 41.5003C0.078447 41.5003 0.0522461 41.4445 0.0522461 41.4166C0.0522461 41.3887 0.078447 41.3329 0.104648 41.3329L3.06535 39.8544L0.864473 37.9854C0.838273 37.9575 0.838273 37.9296 0.838273 37.9017C0.838273 37.8738 0.864473 37.8459 0.890674 37.818L3.37976 37.0091L1.6767 35.3632C1.6505 35.3353 1.6505 35.3074 1.6505 35.2795C1.6505 35.2516 1.6767 35.2237 1.7029 35.1958C2.22692 35.0285 3.09155 35.1958 3.92998 35.3632C4.6898 35.5027 5.50203 35.6701 5.99985 35.5585C5.84264 35.0006 5.13522 34.3869 4.5064 33.829C3.98238 33.3547 3.51076 32.9642 3.37976 32.6294C3.37976 32.6015 3.37976 32.5737 3.40596 32.5458C3.43216 32.5179 3.45836 32.5179 3.48456 32.5179C4.5064 32.7131 5.24002 32.9921 5.89504 33.2153C6.70727 33.5221 7.36229 33.7453 8.25312 33.6895C8.04351 33.2153 7.93871 32.6294 7.83391 32.0157C7.7029 31.3741 7.5981 30.7046 7.36229 30.2583C7.33609 30.2304 7.36229 30.1746 7.38849 30.1467C7.41469 30.1188 7.4671 30.1188 7.4933 30.1467L10.847 32.6573C10.6636 32.2389 10.5588 31.7368 10.4278 31.2347C10.2706 30.5931 10.1396 29.9236 9.85138 29.5051C9.82517 29.4772 9.82518 29.4214 9.87758 29.3656C9.90378 29.3378 9.95618 29.3378 10.0086 29.3656C10.6374 29.9236 11.109 30.4257 11.502 30.872C12.2095 31.6252 12.7859 32.2389 13.7029 32.7131C13.6505 32.3505 13.6505 31.9321 13.6767 31.5136C13.6767 31.0394 13.7029 30.5652 13.6243 30.1746C13.6243 30.1188 13.6505 30.0909 13.6767 30.063C13.7291 30.0351 13.7553 30.063 13.7815 30.0909C15.5632 33.3547 17.9736 37.3996 20.8819 39.7707C22.1396 40.8029 21.9824 41.5003 21.8252 42.0861C21.799 42.1977 21.7728 42.2813 21.7466 42.3929C21.6156 43.2019 21.4846 43.8435 19.5719 44.5688C19.2575 44.6804 18.8645 44.8199 18.4453 44.9872C17.6592 45.2662 16.7684 45.6009 16.0086 45.9078C15.8514 45.9636 15.6942 46.0194 15.537 46.1031C14.7247 46.4099 13.7291 46.8004 12.3143 47.5536C12.2881 47.5815 12.2357 47.5536 12.2095 47.5257C12.1833 47.4978 12.1833 47.442 12.2095 47.4141C12.4191 47.0515 12.6025 45.7962 12.6549 45.322C11.6068 45.9915 10.4016 46.6052 9.40596 47.1073C8.67234 47.4699 8.12212 47.7768 7.86011 47.9442C7.80771 48 7.78151 48 7.78151 48ZM8.88194 44.8199C8.90814 44.8199 8.93435 44.8199 8.96055 44.8477C8.98675 44.8756 8.98675 44.9035 8.98675 44.9314L7.96491 47.6373C8.27932 47.442 8.72474 47.2189 9.30116 46.9399C10.323 46.4099 11.6068 45.7683 12.6811 45.043C12.7073 45.0151 12.7597 45.0151 12.7859 45.043C12.8121 45.0709 12.8383 45.0988 12.8383 45.1267C12.8383 45.1825 12.6811 46.5494 12.4453 47.2468C13.7553 46.5773 14.6985 46.2146 15.4584 45.9078C15.6156 45.852 15.7728 45.7962 15.93 45.7125C16.6898 45.4057 17.5806 45.0709 18.3667 44.792C18.7859 44.6525 19.1527 44.513 19.4671 44.3735C21.3012 43.6761 21.406 43.1182 21.537 42.3371C21.5632 42.2256 21.5894 42.114 21.6156 42.0024C21.7728 41.4445 21.93 40.8587 20.7509 39.8823C17.9474 37.5949 15.5894 33.7453 13.8339 30.5652C13.8601 30.8441 13.8339 31.151 13.8339 31.4578C13.8339 31.932 13.8077 32.4063 13.8863 32.7968C13.8863 32.8247 13.8863 32.8805 13.8601 32.8805C13.8339 32.9084 13.8077 32.9084 13.7553 32.8805C12.7073 32.3784 12.1047 31.7368 11.3448 30.9278C11.0304 30.5931 10.6636 30.2025 10.2182 29.7841C10.3754 30.1746 10.4802 30.6488 10.585 31.1231C10.7422 31.7647 10.8732 32.4342 11.1614 32.8526C11.1876 32.8805 11.1876 32.9363 11.1614 32.9642C11.1352 32.9921 11.0828 32.9921 11.0566 32.9642L7.6505 30.4257C7.80771 30.8441 7.91251 31.3741 7.99111 31.9042C8.12212 32.5458 8.22692 33.2153 8.46273 33.6616C8.48893 33.6895 8.48893 33.7174 8.46273 33.7453C8.43653 33.7732 8.41033 33.8011 8.38413 33.8011C7.38849 33.8847 6.68107 33.6337 5.81644 33.3268C5.21382 33.1037 4.5588 32.8526 3.64177 32.6573C3.82517 32.9363 4.21819 33.271 4.6112 33.6337C5.29242 34.2474 6.07845 34.9448 6.18325 35.5585C6.18325 35.6143 6.15705 35.6422 6.13085 35.6701C5.60683 35.8374 4.7422 35.6701 3.90378 35.5027C3.17015 35.3632 2.43653 35.2237 1.91251 35.3074L3.58937 36.9254C3.61557 36.9533 3.61557 36.9812 3.61557 37.0091C3.61557 37.037 3.58937 37.0649 3.56316 37.0928L1.10028 37.9017L3.22255 39.7428C3.24875 39.7707 3.24875 39.7986 3.24875 39.8265C3.24875 39.8544 3.22255 39.8823 3.19635 39.9102L0.314255 41.3329C1.7815 41.9187 2.64613 42.5045 2.96054 42.7835C2.98674 42.8114 2.98674 42.8393 2.98674 42.8672C2.98674 42.895 2.98674 42.9229 2.96054 42.9508L1.15268 44.5409L5.58063 44.2619C5.60683 44.2619 5.65923 44.2898 5.65923 44.3177C5.68544 44.3456 5.65923 44.4014 5.63303 44.4293L4.5588 45.6288L8.88194 44.8199Z" stroke="#3B3938" stroke-width="0.2" mask="url(#path-104-outside-1_827_6084)"/>
<path d="M7.75513 40.6354C6.7333 40.3565 5.71147 40.0775 4.68963 39.7428C4.63723 39.7428 4.61103 39.687 4.63723 39.6312C4.63723 39.6033 4.66343 39.6033 4.66343 39.5754C5.39706 39.0454 6.23548 38.6827 7.10011 38.4875L7.07391 38.627C6.8643 38.4596 6.6285 38.2643 6.41889 38.0969C6.39269 38.069 6.39269 38.0411 6.41889 38.0132C6.41889 37.9854 6.44509 37.9854 6.47129 37.9854C7.07391 38.0132 7.67653 38.0411 8.25295 38.069C7.65033 38.0969 7.04771 38.1248 6.47129 38.1248L6.49749 38.0132C6.7333 38.1806 6.94291 38.348 7.17871 38.5154C7.20491 38.5433 7.23112 38.5991 7.20491 38.627C7.20491 38.6548 7.17871 38.6548 7.15251 38.6548C6.31409 38.878 5.50186 39.2407 4.76824 39.7149L4.74204 39.5475C5.76387 39.9102 6.7595 40.2728 7.75513 40.6354Z" fill="#3B3938"/>
<path d="M12.0784 35.8932C11.6068 35.7258 11.1613 35.5584 10.6897 35.3911L10.7683 35.3074C10.9779 35.7258 11.1613 36.1443 11.3709 36.5906C11.5806 37.009 11.764 37.4554 11.9474 37.8738C11.9736 37.9296 11.9474 37.9575 11.9212 37.9854C11.895 37.9854 11.895 37.9854 11.8688 37.9854C11.5019 37.9296 11.1351 37.8738 10.7421 37.818L10.7945 37.7343C10.9255 38.1248 11.0565 38.5154 11.1875 38.9059C11.0041 38.5433 10.8469 38.1527 10.6897 37.7622C10.6897 37.7343 10.6897 37.7064 10.7159 37.6785H10.7421C11.1089 37.7064 11.5019 37.7343 11.8688 37.7901L11.7902 37.9017C11.5806 37.4832 11.3971 37.0648 11.2137 36.6185C11.0303 36.2 10.8207 35.7537 10.6373 35.3353C10.6111 35.3074 10.6373 35.2516 10.6635 35.2516C10.6897 35.2516 10.6897 35.2516 10.7159 35.2516C11.1875 35.4469 11.633 35.67 12.0784 35.8932Z" fill="#3B3938"/>
<path d="M13.7293 43.1182L12.2621 43.8714C12.2359 43.8714 12.2097 43.8714 12.2097 43.8435C12.2097 43.8156 12.2097 43.8156 12.2097 43.7877L12.9171 42.8671L12.9695 42.9787C12.0787 43.1461 11.1354 43.1461 10.2446 43.0066C10.1922 43.0066 10.166 42.9508 10.166 42.895C10.166 42.8671 10.1922 42.8392 10.1922 42.8392L11.5547 41.8629C12.0001 41.5281 12.4717 41.1934 12.9171 40.8865L12.9433 41.026L11.5547 40.8028C11.5285 40.8028 11.5023 40.7749 11.5023 40.747C11.5023 40.7192 11.5285 40.6913 11.5547 40.6913L13.7293 40.3286L11.5809 40.8028V40.6913L12.9695 40.8586C12.9957 40.8586 13.0219 40.8865 13.0219 40.9423C13.0219 40.9702 13.0219 40.9702 12.9957 40.9981C12.5503 41.3329 12.1049 41.6676 11.6595 42.0024L10.297 43.0066L10.2708 42.8392C11.1616 42.9787 12.0525 42.9787 12.9433 42.8671C12.9695 42.8671 13.0219 42.895 13.0219 42.9229C13.0219 42.9508 13.0219 42.9508 12.9957 42.9787L12.2621 43.8714L12.2097 43.7877L13.7293 43.1182Z" fill="#3B3938"/>
<path d="M15.8775 39.436C15.5893 38.7386 15.3535 38.0133 15.1177 37.288C15.0915 37.2322 15.1177 37.2043 15.1701 37.1764C15.1963 37.1764 15.2225 37.1764 15.2487 37.2043C15.5107 37.4275 15.7727 37.6228 16.0609 37.7901C16.3491 37.9575 16.6374 38.1249 16.9518 38.2365L16.847 38.3201C16.847 37.818 16.8208 37.3159 16.847 36.7859C16.8994 37.288 16.9518 37.7901 16.978 38.2922C16.978 38.3201 16.9518 38.3759 16.9256 38.3759H16.8994C16.5849 38.2644 16.2705 38.1249 15.9823 37.9575C15.6941 37.7901 15.4059 37.567 15.1439 37.3438L15.2749 37.2601C15.5107 37.9575 15.6941 38.7107 15.8775 39.436Z" fill="#3B3938"/>
<path d="M15.9037 40.9982C15.5892 41.3329 15.2486 41.6677 14.9342 42.0024L14.908 41.8908C15.3272 41.9745 15.7465 42.0303 16.1657 42.114C16.2181 42.114 16.2443 42.1698 16.2181 42.2256V42.2535C15.9037 42.9788 15.563 43.7319 15.2224 44.4293L15.1176 44.3178C15.8775 44.1225 16.6635 43.9272 17.4233 43.7598C17.4233 43.7598 17.4495 43.7598 17.4495 43.7877V44.262L17.3971 43.7877L17.4233 43.8156C16.6635 44.0667 15.9037 44.2899 15.1438 44.4851C15.0914 44.4851 15.0652 44.4572 15.039 44.4293C15.039 44.4014 15.039 44.3735 15.039 44.3735C15.3534 43.6483 15.6941 42.923 16.0347 42.1977L16.0871 42.3093C15.6679 42.2256 15.2486 42.114 14.8556 42.0303C14.8294 42.0303 14.8032 42.0024 14.8032 41.9745C14.8032 41.9745 14.8032 41.9466 14.8294 41.9466C15.1962 41.6119 15.5368 41.305 15.9037 40.9982Z" fill="#3B3938"/>
</g>
<defs>
<clipPath id="clip0_827_6084">
<rect width="48" height="48" fill="white"/>
</clipPath>
</defs>
</svg>
