<svg width="48" height="48" viewBox="0 0 48 48" fill="none" xmlns="http://www.w3.org/2000/svg">
<path d="M5.11232 27.0746H4.43066V7.02359C4.43066 5.41029 5.62356 4.08508 7.04368 4.08508H9.08865C10.5088 4.08508 11.7017 5.41029 11.7017 7.02359V9.09784H11.02V7.02359C11.02 5.756 10.1679 4.7765 9.08865 4.7765H7.04368C5.96439 4.7765 5.11232 5.81362 5.11232 7.02359V27.0746Z" fill="#3B3938"/>
<path d="M37.5475 40.9605H10.4517C7.10021 40.9605 4.14637 38.5405 3.46471 35.1987L2.1582 28.976H45.7842L44.5345 35.1987C43.7961 38.5405 40.899 40.9605 37.5475 40.9605Z" fill="white"/>
<path d="M37.5477 41.3062H10.4519C8.74772 41.3062 7.10039 40.73 5.73707 39.6353C4.43057 38.5405 3.46488 36.9848 3.12406 35.3139L1.76074 28.6302H46.2388L44.8755 35.3139C44.5347 36.9848 43.569 38.5405 42.2625 39.6353C40.8992 40.73 39.2519 41.3062 37.5477 41.3062ZM2.61281 29.3217L3.80571 35.1411C4.14654 36.6968 4.94181 38.0796 6.19151 39.0591C7.38441 40.0386 8.91814 40.6148 10.4519 40.6148H37.5477C39.0815 40.6148 40.6152 40.0962 41.8081 39.0591C43.001 38.0796 43.8531 36.6968 44.1939 35.1411L45.3868 29.3217H2.61281Z" fill="#3B3938"/>
<path d="M47.6592 27.5355H0.34082V30.3588H47.6592V27.5355Z" fill="#FFDF8B"/>
<path d="M48 30.7045H0V27.1898H48V30.7045ZM0.681657 30.0131H47.2615V27.8812H0.681657V30.0131Z" fill="#3B3938"/>
<path d="M10.452 44.5904H9.14551L9.77036 40.9604H12.3266L10.452 44.5904Z" fill="white"/>
<path d="M10.6792 44.9361H8.80469L9.54315 40.6147H12.9514L10.6792 44.9361ZM9.54315 44.2447H10.2248L11.7585 41.3062H10.0544L9.54315 44.2447Z" fill="#3B3938"/>
<path d="M37.5479 44.5904H38.7976L38.2296 40.9604H35.6733L37.5479 44.5904Z" fill="white"/>
<path d="M39.2521 44.9361H37.3775L35.1621 40.6147H38.5704L39.2521 44.9361ZM37.7751 44.2447H38.4568L37.9455 41.3062H36.2414L37.7751 44.2447Z" fill="#3B3938"/>
<path d="M13.6331 13.0158H8.91831C8.57748 13.0158 8.29346 12.8429 8.17985 12.4972C8.06624 12.2091 8.12305 11.8634 8.35027 11.5754L10.7361 8.92493C10.9065 8.75208 11.1337 8.63684 11.3609 8.63684C11.5881 8.63684 11.8154 8.75208 11.9858 8.92493L14.3148 11.5754C14.542 11.8058 14.5988 12.1515 14.4284 12.4972C14.258 12.7853 13.9739 13.0158 13.6331 13.0158ZM11.3609 9.32826C11.3609 9.32826 11.3041 9.32826 11.2473 9.38587L8.86151 12.0363C8.8047 12.0939 8.8047 12.1515 8.86151 12.2091C8.86151 12.2668 8.91831 12.2668 8.97512 12.2668H13.6331C13.6899 12.2668 13.7467 12.2091 13.7467 12.2091C13.7467 12.1515 13.8035 12.0939 13.7467 12.0363L11.4177 9.38587C11.4177 9.32826 11.3609 9.32826 11.3609 9.32826Z" fill="#3B3938"/>
<path d="M14.5988 12.1516H8.12305V13.304H14.5988V12.1516Z" fill="white"/>
<path d="M14.9396 13.6497H7.78223V11.8059H14.9964V13.6497H14.9396ZM8.46388 12.9583H14.258V12.4973H8.46388V12.9583Z" fill="#3B3938"/>
<path d="M44.4779 6.10168H30.1631V20.7366H44.4779V6.10168Z" fill="white"/>
<path d="M44.8187 21.0823H29.8223V5.75598H44.8187V21.0823ZM30.5039 20.3909H44.1371V6.4474H30.5039V20.3909Z" fill="#3B3938"/>
<path d="M45.8416 5.00696H28.5161V6.85073H45.8416V5.00696Z" fill="white"/>
<path d="M45.8416 7.19644H28.5161C28.3457 7.19644 28.1753 7.02359 28.1753 6.85073V5.00696C28.1753 4.83411 28.3457 4.66125 28.5161 4.66125C28.6865 4.66125 28.857 4.83411 28.857 5.00696V6.50503H45.5007V5.00696C45.5007 4.83411 45.6712 4.66125 45.8416 4.66125C46.012 4.66125 46.1824 4.83411 46.1824 5.00696V6.85073C46.1824 7.02359 46.012 7.19644 45.8416 7.19644Z" fill="#3B3938"/>
<path d="M44.4779 6.10168H30.1631V17.2796H44.4779V6.10168Z" fill="white"/>
<path d="M44.8187 17.6253H29.8223V5.75598H44.8187V17.6253ZM30.5039 16.9338H44.1371V6.4474H30.5039V16.9338Z" fill="#3B3938"/>
<path d="M46.9775 4.83411H27.2095C27.0391 4.83411 26.8687 4.66126 26.8687 4.48841C26.8687 4.31555 27.0391 4.1427 27.2095 4.1427H46.9775C47.1479 4.1427 47.3184 4.31555 47.3184 4.48841C47.3184 4.66126 47.1479 4.83411 46.9775 4.83411Z" fill="#3B3938"/>
</svg>
