<svg width="24" height="25" viewBox="0 0 24 25" fill="none" xmlns="http://www.w3.org/2000/svg">
<path d="M10.33 17.3603L4.0293 17.3603" stroke="#777777" stroke-width="1.5" stroke-linecap="round" stroke-linejoin="round"/>
<path d="M13.1406 7.66775L19.4413 7.66775" stroke="#777777" stroke-width="1.5" stroke-linecap="round" stroke-linejoin="round"/>
<path fill-rule="evenodd" clip-rule="evenodd" d="M8.72629 7.61359C8.72629 6.31793 7.66813 5.26733 6.36314 5.26733C5.05816 5.26733 4 6.31793 4 7.61359C4 8.90924 5.05816 9.95984 6.36314 9.95984C7.66813 9.95984 8.72629 8.90924 8.72629 7.61359Z" stroke="#777777" stroke-width="1.5" stroke-linecap="round" stroke-linejoin="round"/>
<path fill-rule="evenodd" clip-rule="evenodd" d="M20.0002 17.3211C20.0002 16.0255 18.9429 14.9749 17.6379 14.9749C16.3321 14.9749 15.2739 16.0255 15.2739 17.3211C15.2739 18.6168 16.3321 19.6674 17.6379 19.6674C18.9429 19.6674 20.0002 18.6168 20.0002 17.3211Z" stroke="#777777" stroke-width="1.5" stroke-linecap="round" stroke-linejoin="round"/>
</svg>
