<svg width="31" height="32" viewBox="0 0 31 32" fill="none" xmlns="http://www.w3.org/2000/svg">
<path d="M28.4166 21.1977C28.4166 23.5416 28.4166 25.892 28.4166 28.2359C28.2009 28.6472 27.8436 28.7647 27.3852 28.7647C19.5786 28.7582 11.7787 28.7582 3.97206 28.7582C3.79004 28.7582 3.60128 28.7582 3.41926 28.7582C2.88668 28.7451 2.58331 28.4448 2.58331 27.929C2.58331 25.781 2.58331 23.6264 2.58331 21.4784C2.58331 21.0149 2.75185 20.7929 3.20353 20.6558C4.43048 20.2967 5.65743 19.9311 6.88437 19.5785C7.06639 19.5263 7.13381 19.4545 7.13381 19.2651C7.12033 17.8483 7.12707 16.4316 7.12707 15.0148C7.12707 14.943 7.12707 14.8711 7.12707 14.7732C7.00572 14.7732 6.9046 14.7732 6.81022 14.7732C5.92034 14.7732 5.03047 14.7797 4.13385 14.7667C3.64847 14.7602 3.32488 14.4402 3.33836 14.0028C3.3451 13.5915 3.68891 13.2846 4.16082 13.2846C5.03721 13.2846 5.90686 13.2846 6.78325 13.2846C6.89112 13.2846 6.99898 13.2846 7.11358 13.2846C7.11358 12.0506 7.11358 10.8428 7.11358 9.61536C7.00572 9.61536 6.91808 9.61536 6.8237 9.61536C5.92708 9.61536 5.02373 9.61536 4.12711 9.61536C3.88442 9.61536 3.68217 9.53048 3.52712 9.3542C3.33162 9.13221 3.27768 8.87759 3.39229 8.60337C3.51364 8.3161 3.74285 8.14635 4.06644 8.13982C4.98328 8.13329 5.90012 8.13329 6.81696 8.13329C6.91134 8.13329 7.01246 8.13329 7.12707 8.13329C7.12707 8.00924 7.12707 7.91783 7.12707 7.83296C7.12707 6.97767 7.12707 6.12238 7.12707 5.26709C7.12707 4.98634 7.22145 4.7513 7.4574 4.59461C7.70683 4.42485 7.97649 4.40527 8.24615 4.54237C8.54278 4.69254 8.67087 4.94717 8.67087 5.26709C8.67087 6.12891 8.67087 6.99072 8.67087 7.85907C8.67087 7.94395 8.67087 8.03535 8.67087 8.12676C10.7068 8.12676 12.7158 8.12676 14.7382 8.12676C14.7382 8.0223 14.7382 7.93089 14.7382 7.84601C14.7382 6.99725 14.7584 6.14849 14.7315 5.30626C14.718 4.797 15.0955 4.4575 15.5067 4.46403C15.9112 4.47056 16.282 4.797 16.2685 5.31932C16.2415 6.16808 16.2618 7.01031 16.2618 7.85907C16.2618 7.94395 16.2618 8.03535 16.2618 8.13329C18.2977 8.13329 20.2999 8.13329 22.3291 8.13329C22.3291 8.02882 22.3291 7.93742 22.3291 7.85254C22.3291 6.99725 22.3224 6.14196 22.3291 5.28667C22.3291 4.80353 22.6594 4.4575 23.1044 4.46403C23.5493 4.46403 23.8729 4.81006 23.8729 5.2932C23.8729 6.14849 23.8729 7.00378 23.8729 7.85907C23.8729 7.94395 23.8729 8.03535 23.8729 8.15287C23.9875 8.15287 24.0751 8.15287 24.1695 8.15287C25.0796 8.15287 25.983 8.14635 26.8931 8.1594C27.3582 8.16593 27.6751 8.49238 27.6616 8.91676C27.6481 9.32808 27.3178 9.62841 26.8661 9.62841C25.9695 9.62841 25.0661 9.62841 24.1695 9.62841C24.0819 9.62841 23.9875 9.62841 23.8931 9.62841C23.8931 10.8624 23.8931 12.0702 23.8931 13.2977C24.001 13.2977 24.0886 13.2977 24.183 13.2977C25.0796 13.2977 25.983 13.2911 26.8796 13.2977C27.3717 13.2977 27.7223 13.6894 27.6616 14.1464C27.6077 14.5186 27.2841 14.7732 26.8324 14.7797C25.9493 14.7863 25.0661 14.7797 24.183 14.7797C24.0886 14.7797 23.9875 14.7797 23.8796 14.7797C23.8796 15.7264 23.8796 16.6405 23.8864 17.5545C23.8864 17.6133 23.974 17.6982 24.0414 17.7308C25.0392 18.1421 25.9425 18.7036 26.7515 19.4022C27.3717 19.9311 27.9852 20.486 28.4166 21.1977ZM4.11363 27.2435C11.718 27.2435 19.3089 27.2435 26.8998 27.2435C26.8998 27.1325 26.8998 27.0411 26.8998 26.9562C26.8998 25.4807 26.8594 24.0051 26.92 22.5361C26.947 21.8636 26.7178 21.4001 26.2391 20.9431C24.547 19.3369 22.5448 18.4686 20.1651 18.4621C18.3718 18.4555 16.6258 18.7754 14.8865 19.1215C12.0955 19.683 9.35175 20.4207 6.62146 21.2042C5.78551 21.4393 4.95631 21.6939 4.12037 21.9354C4.11363 23.7048 4.11363 25.4611 4.11363 27.2435ZM8.69109 9.62188C8.69109 10.8493 8.69109 12.0572 8.69109 13.265C10.7135 13.265 12.7158 13.265 14.7247 13.265C14.7247 12.0441 14.7247 10.8363 14.7247 9.62188C12.709 9.62188 10.7135 9.62188 8.69109 9.62188ZM22.3089 13.2781C22.3089 12.0441 22.3089 10.8363 22.3089 9.63494C20.2864 9.63494 18.2842 9.63494 16.282 9.63494C16.282 10.8559 16.282 12.0637 16.282 13.2781C18.2977 13.2781 20.2932 13.2781 22.3089 13.2781ZM14.7382 14.7863C12.709 14.7863 10.7068 14.7863 8.69109 14.7863C8.69109 16.2161 8.69109 17.6264 8.69109 19.0497C10.7135 18.56 12.7225 18.0834 14.7382 17.6002C14.7382 16.6666 14.7382 15.7395 14.7382 14.7863ZM16.2752 17.3456C18.291 17.0257 20.2932 16.7645 22.3156 17.1889C22.3156 16.3728 22.3156 15.5828 22.3156 14.7863C20.2999 14.7863 18.291 14.7863 16.2752 14.7863C16.2752 15.635 16.2752 16.4707 16.2752 17.3456Z" fill="#3B3938"/>
<path d="M8.67762 23.9789C8.43493 23.9789 8.19224 23.9854 7.94954 23.9789C7.49112 23.9659 7.14731 23.6525 7.13382 23.2411C7.12708 22.8298 7.47764 22.4903 7.9428 22.4837C8.42145 22.4772 8.90009 22.4772 9.37874 22.4837C9.85064 22.4903 10.2012 22.8298 10.1945 23.2411C10.1877 23.6525 9.8439 23.9659 9.37874 23.9789C9.14279 23.9789 8.91358 23.9789 8.67762 23.9789Z" fill="#3B3938"/>
<path d="M22.7133 24.7101C22.4706 24.7101 22.2279 24.7167 21.9852 24.7101C21.5471 24.6971 21.2167 24.3902 21.21 23.9985C21.1965 23.5741 21.4931 23.2477 21.9448 23.2281C22.4639 23.2085 22.9897 23.2085 23.5088 23.2281C23.9605 23.2477 24.2571 23.5806 24.2504 23.9985C24.2369 24.4033 23.9066 24.7036 23.4549 24.7167C23.1987 24.7167 22.956 24.7101 22.7133 24.7101Z" fill="#3B3938"/>
<path d="M14.3539 26.1791C14.1045 26.1791 13.8483 26.1856 13.5989 26.1791C13.1809 26.1661 12.8438 25.8461 12.8303 25.4544C12.8168 25.0692 13.1202 24.7232 13.5382 24.7036C14.091 24.684 14.6438 24.684 15.1966 24.7036C15.6078 24.7232 15.9112 25.0888 15.891 25.4609C15.864 25.8461 15.5404 26.1595 15.1359 26.1726C14.873 26.1856 14.6168 26.1791 14.3539 26.1791Z" fill="#3B3938"/>
<path d="M17.3809 22.1246C17.1314 22.1246 16.8753 22.1312 16.6258 22.1246C16.2079 22.1181 15.8708 21.7786 15.8708 21.3869C15.8708 21.0017 16.1876 20.6687 16.5989 20.6556C17.1382 20.6426 17.6775 20.6426 18.2101 20.6556C18.6213 20.6687 18.9314 21.0082 18.9247 21.3934C18.9179 21.7786 18.5876 22.105 18.1831 22.1181C17.9202 22.1312 17.6505 22.1246 17.3809 22.1246Z" fill="#3B3938"/>
</svg>
