<svg width="34" height="35" viewBox="0 0 34 35" fill="none" xmlns="http://www.w3.org/2000/svg">
<g clip-path="url(#clip0_1043_9117)">
<path d="M17.0047 0.72644C17.8091 0.72644 18.5283 0.994157 19.1717 1.48178C19.8436 1.98853 20.5154 2.49528 21.1778 3.01159C21.8592 3.53746 22.6067 3.80518 23.4679 3.83386C24.3195 3.85299 25.1617 3.91035 26.0134 3.97728C27.622 4.10158 28.8617 5.19157 29.2497 6.82655C29.4578 7.70619 29.666 8.59539 29.8647 9.47503C30.0256 10.173 30.3757 10.7562 30.8867 11.2439C31.5113 11.8462 32.1453 12.4295 32.7698 13.0318C34.0757 14.2844 34.3501 15.8811 33.5458 17.5065C33.2524 18.1089 32.978 18.7208 32.6468 19.2945C32.0223 20.3462 31.8993 21.4553 32.098 22.641C32.2115 23.3102 32.2778 23.9891 32.344 24.6679C32.5049 26.2264 31.7195 27.6511 30.319 28.3204C29.4957 28.7124 28.663 29.0661 27.8208 29.4104C27.0732 29.7259 26.496 30.2135 26.0607 30.9019C25.6159 31.6095 25.1617 32.3074 24.7075 33.0054C23.7234 34.5161 22.1998 35.0706 20.4871 34.5448C19.6449 34.2866 18.7932 34.0285 17.951 33.7799C17.2981 33.5886 16.6451 33.5982 16.0017 33.7894C14.9986 34.0858 14.005 34.4492 12.983 34.6595C11.5257 34.9655 10.324 34.43 9.45338 33.2253C8.914 32.4891 8.44086 31.6955 7.94879 30.921C7.5135 30.2231 6.9268 29.7163 6.16978 29.4008C5.40329 29.0853 4.65572 28.7411 3.89869 28.416C2.26162 27.7084 1.44782 26.2264 1.68439 24.4385C1.79794 23.5971 1.89257 22.7557 1.9872 21.9143C2.07237 21.1685 1.94935 20.461 1.60869 19.7917C1.22071 19.0268 0.832734 18.2619 0.45422 17.4874C-0.340659 15.862 -0.0662366 14.2652 1.23964 13.0223C1.8358 12.4486 2.44142 11.8749 3.04704 11.3108C3.6432 10.7562 4.01225 10.087 4.18258 9.29337C4.36237 8.4711 4.56109 7.63926 4.75035 6.81699C5.15725 5.11508 6.48205 4.02509 8.20429 3.95816C9.08433 3.91992 9.97384 3.87211 10.8539 3.80518C11.5447 3.75737 12.1598 3.50878 12.7086 3.08808C13.3899 2.57177 14.0713 2.05546 14.7431 1.53915C15.415 1.02284 16.1531 0.72644 17.0047 0.72644ZM28.5873 17.7169C28.5683 11.2343 23.4111 6.01384 17.0142 5.99472C10.6268 5.98516 5.40329 11.2726 5.41275 17.736C5.43168 24.2281 10.6646 29.506 17.0237 29.4582C23.4489 29.4008 28.6062 24.1708 28.5873 17.7169Z" fill="#C4C4C4"/>
<path d="M27.4517 17.7456C27.4328 23.5971 22.7298 28.3395 16.9858 28.3108C11.204 28.2821 6.5199 23.5302 6.54829 17.7169C6.57667 11.8558 11.2702 7.12295 17.0142 7.15163C22.8055 7.17076 27.4801 11.9227 27.4517 17.7456ZM15.5758 18.6252C14.8283 17.8603 14.0618 17.0667 13.2764 16.2922C12.6424 15.6708 11.6866 15.6803 11.081 16.2922C10.4754 16.9137 10.4564 17.8699 11.081 18.5105C12.226 19.6865 13.371 20.853 14.5349 22.0099C15.1595 22.6314 16.0868 22.641 16.7019 22.0195C18.7932 19.8969 20.8845 17.7742 22.9379 15.6134C23.1745 15.3744 23.307 14.9728 23.3543 14.619C23.4395 13.988 23.042 13.3952 22.4743 13.1179C21.8781 12.8406 21.2252 12.9362 20.7426 13.4239C19.9855 14.1792 19.2474 14.9537 18.4999 15.709C17.5347 16.6938 16.56 17.65 15.5758 18.6252Z" fill="#C4C4C4"/>
</g>
<defs>
<clipPath id="clip0_1043_9117">
<rect width="34" height="34" fill="white" transform="translate(0 0.72644)"/>
</clipPath>
</defs>
</svg>
