<svg width="25" height="24" viewBox="0 0 25 24" fill="none" xmlns="http://www.w3.org/2000/svg">
<g clip-path="url(#clip0_513_2005)">
<path d="M12.7026 24C6.07624 24 0.702637 18.6264 0.702637 12C0.702637 5.3736 6.07624 0 12.7026 0C19.329 0 24.7026 5.3736 24.7026 12C24.7026 18.6264 19.329 24 12.7026 24Z" fill="url(#paint0_linear_513_2005)"/>
<path d="M12.7026 5.28484C14.8891 5.28484 15.1483 5.29204 16.0123 5.33284C16.8115 5.36884 17.2459 5.50324 17.5339 5.61604C17.9155 5.76484 18.1891 5.94244 18.4747 6.22804C18.7603 6.51364 18.9379 6.78724 19.0867 7.16884C19.1995 7.45683 19.3315 7.89123 19.3699 8.69043C19.4083 9.55443 19.4179 9.81363 19.4179 12C19.4179 14.1864 19.4107 14.4456 19.3699 15.3096C19.3339 16.1088 19.1995 16.5432 19.0867 16.8312C18.9379 17.2128 18.7603 17.4864 18.4747 17.772C18.1891 18.0576 17.9155 18.2352 17.5339 18.384C17.2459 18.4968 16.8115 18.6288 16.0123 18.6672C15.1483 18.7056 14.8891 18.7152 12.7026 18.7152C10.5162 18.7152 10.257 18.708 9.39304 18.6672C8.59384 18.6312 8.15944 18.4968 7.87144 18.384C7.48984 18.2352 7.21624 18.0576 6.93064 17.772C6.64504 17.4864 6.46744 17.2128 6.31864 16.8312C6.20584 16.5432 6.07384 16.1088 6.03544 15.3096C5.99704 14.4456 5.98744 14.1864 5.98744 12C5.98744 9.81363 5.99464 9.55443 6.03544 8.69043C6.07144 7.89123 6.20584 7.45683 6.31864 7.16884C6.46744 6.78724 6.64504 6.51364 6.93064 6.22804C7.21624 5.94244 7.48984 5.76484 7.87144 5.61604C8.15944 5.50324 8.59384 5.37124 9.39304 5.33284C10.257 5.29204 10.5162 5.28484 12.7026 5.28484ZM12.7026 3.80884C10.4778 3.80884 10.1994 3.81844 9.32584 3.85924C8.45464 3.90004 7.85944 4.03684 7.33624 4.24084C6.79864 4.44724 6.34024 4.72804 5.88664 5.18404C5.43063 5.64004 5.15223 6.09604 4.94103 6.63604C4.73943 7.15683 4.60023 7.75203 4.55943 8.62563C4.51863 9.49923 4.50903 9.77763 4.50903 12.0024C4.50903 14.2272 4.51863 14.5056 4.55943 15.3792C4.60023 16.2504 4.73703 16.8456 4.94103 17.3688C5.14983 17.904 5.43063 18.3624 5.88664 18.816C6.34264 19.272 6.79864 19.5504 7.33864 19.7616C7.85944 19.9632 8.45464 20.1024 9.32824 20.1432C10.2018 20.184 10.4802 20.1936 12.705 20.1936C14.9299 20.1936 15.2083 20.184 16.0819 20.1432C16.9531 20.1024 17.5483 19.9656 18.0715 19.7616C18.6067 19.5528 19.0651 19.272 19.5187 18.816C19.9747 18.36 20.2531 17.904 20.4643 17.364C20.6659 16.8432 20.8051 16.248 20.8459 15.3744C20.8867 14.5008 20.8963 14.2224 20.8963 11.9976C20.8963 9.77283 20.8867 9.49443 20.8459 8.62083C20.8051 7.74963 20.6683 7.15443 20.4643 6.63124C20.2555 6.09604 19.9747 5.63764 19.5187 5.18404C19.0627 4.72804 18.6067 4.44964 18.0667 4.23844C17.5459 4.03684 16.9507 3.89764 16.0771 3.85684C15.2059 3.81844 14.9275 3.80884 12.7026 3.80884Z" fill="white"/>
<path d="M12.7026 7.79285C10.3794 7.79285 8.49536 9.67685 8.49536 12C8.49536 14.3232 10.3794 16.2072 12.7026 16.2072C15.0258 16.2072 16.9098 14.3232 16.9098 12C16.9098 9.67685 15.0258 7.79285 12.7026 7.79285ZM12.7026 14.7312C11.1954 14.7312 9.97136 13.5096 9.97136 12C9.97136 10.4904 11.1954 9.26885 12.7026 9.26885C14.2098 9.26885 15.4338 10.4904 15.4338 12C15.4338 13.5096 14.2098 14.7312 12.7026 14.7312Z" fill="white"/>
<path d="M17.0756 8.61119C17.619 8.61119 18.0596 8.17064 18.0596 7.62719C18.0596 7.08374 17.619 6.64319 17.0756 6.64319C16.5321 6.64319 16.0916 7.08374 16.0916 7.62719C16.0916 8.17064 16.5321 8.61119 17.0756 8.61119Z" fill="white"/>
</g>
<defs>
<linearGradient id="paint0_linear_513_2005" x1="4.21735" y1="20.4853" x2="21.1879" y2="3.51472" gradientUnits="userSpaceOnUse">
<stop stop-color="#FFD521"/>
<stop offset="0.0551048" stop-color="#FFD020"/>
<stop offset="0.1241" stop-color="#FEC01E"/>
<stop offset="0.2004" stop-color="#FCA71B"/>
<stop offset="0.2821" stop-color="#FA8316"/>
<stop offset="0.3681" stop-color="#F85510"/>
<stop offset="0.4563" stop-color="#F51E09"/>
<stop offset="0.5" stop-color="#F30005"/>
<stop offset="0.5035" stop-color="#F20007"/>
<stop offset="0.5966" stop-color="#E1003B"/>
<stop offset="0.6879" stop-color="#D30067"/>
<stop offset="0.7757" stop-color="#C70088"/>
<stop offset="0.8589" stop-color="#BF00A0"/>
<stop offset="0.9357" stop-color="#BB00AF"/>
<stop offset="1" stop-color="#B900B4"/>
</linearGradient>
<clipPath id="clip0_513_2005">
<rect width="24" height="24" fill="white" transform="translate(0.702637)"/>
</clipPath>
</defs>
</svg>
