<svg width="302" height="72" viewBox="0 0 302 72" fill="none" xmlns="http://www.w3.org/2000/svg">
<g clip-path="url(#clip0_513_2485)">
<path d="M230.103 0C237.084 3.93038 237.957 6.55063 236.211 14.7025C235.775 16.4493 236.357 18.4873 236.939 20.2342C239.557 27.0759 239.993 33.9177 236.793 40.7594C235.048 44.2531 223.994 46.7278 221.23 44.2531C220.503 43.6708 220.212 42.3607 220.212 41.3417C220.066 38.867 219.776 36.2468 220.212 33.7721C220.939 28.9683 219.776 25.7658 215.121 23.4367C210.612 21.2531 211.194 18.6329 214.394 14.9937C218.321 10.481 221.376 5.09493 224.721 0.145569C226.466 0 228.212 0 230.103 0ZM236.793 32.7531C236.648 30.2784 236.502 28.8228 236.357 27.3671C235.921 23.7278 234.175 20.3797 230.393 21.1076C227.921 21.5443 225.303 24.4557 223.848 26.7848C222.539 28.9683 222.83 32.0253 222.539 34.6455C222.248 37.7025 222.685 40.6139 226.466 41.1962C230.103 41.7784 233.593 41.6329 235.339 37.8481C236.357 36.1012 236.502 33.9177 236.793 32.7531ZM223.703 9.46201C226.757 12.2278 228.357 14.4114 230.393 14.9937C231.412 15.2848 234.175 12.6645 234.612 10.9177C235.339 8.29746 234.757 4.94936 230.975 5.2405C229.084 5.2405 227.194 7.27847 223.703 9.46201Z" fill="black"/>
<path d="M0 38.1392C6.25437 36.1013 7.56342 31.5886 6.98162 25.4747C6.54527 19.2152 6.83617 12.8102 7.41797 6.55067C7.56342 4.9494 9.89063 2.62029 11.4906 2.32915C15.1268 1.74687 18.9086 2.18358 23.1266 2.18358C23.7084 12.9557 24.2902 23.2912 25.0175 33.6266C25.1629 35.519 26.9083 37.1202 27.1992 39.0126C27.6356 41.6329 27.1992 44.2532 27.1992 46.8734C26.9083 46.8734 26.472 46.8734 26.1811 46.8734C23.7084 42.5063 20.3631 39.8861 14.9814 40.3228C13.6723 40.4683 12.5087 40.3228 11.1997 40.3228C6.54527 40.1772 4.50896 42.0696 5.38167 46.8734C3.63626 46.8734 1.74541 46.8734 0 46.8734C0 43.8164 0 40.9051 0 38.1392ZM19.4904 36.8291C19.4904 27.6582 19.6358 18.7785 19.3449 9.89876C19.3449 8.2975 17.0177 6.8418 15.7086 5.38611C14.2541 6.69624 12.2178 7.71522 11.3451 9.31648C10.4724 10.7722 10.4724 12.8102 10.4724 14.557C10.327 21.8355 10.4724 29.2595 10.4724 36.8291C12.2178 36.8291 15.2723 36.8291 19.4904 36.8291Z" fill="black"/>
<path d="M54.5438 46.7277C52.6529 42.0695 51.7802 37.848 57.5982 34.9366C59.0528 34.2088 59.78 31.0062 59.78 28.8227C60.0709 21.9809 60.0709 15.1392 59.78 8.29741C59.6346 3.63919 61.2345 1.60122 66.0344 2.03792C69.0888 2.32906 72.1433 2.03792 75.7796 2.03792C76.2159 10.6265 76.6523 19.2151 77.3795 27.8037C77.6704 32.0252 76.0705 36.829 81.0158 40.0316C81.743 40.4683 79.9976 44.3986 79.4158 46.7277C79.1249 46.7277 78.6886 46.7277 78.3977 46.7277C76.7977 42.5062 74.1796 40.0316 69.3797 40.3227C67.9252 40.4683 66.4707 40.3227 65.0162 40.1771C60.3618 39.886 57.1619 41.3417 57.5982 46.7277C56.7255 46.7277 55.5619 46.7277 54.5438 46.7277ZM63.2708 36.6835C65.7435 36.6835 68.6525 36.6835 72.2887 36.6835C72.2887 27.5126 72.4342 18.7784 72.1433 10.0442C72.1433 8.44298 69.9615 6.98729 68.7979 5.53159C67.198 6.69615 65.3071 7.71513 64.289 9.17083C63.4163 10.6265 63.4163 12.6645 63.4163 14.4113C63.1254 21.6898 63.2708 29.1138 63.2708 36.6835Z" fill="black"/>
<path d="M302.101 4.36714C298.028 9.17093 293.665 13.8292 290.174 18.9241C289.156 20.5253 289.446 23.8734 290.319 25.7658C292.065 29.2595 294.828 32.3165 296.719 35.8101C297.883 37.8481 298.319 40.1772 298.464 42.7975C291.337 41.1962 289.01 35.6646 287.119 29.8418C286.683 29.8418 286.101 29.8418 285.665 29.8418C285.665 34.7912 285.665 39.5949 285.665 44.5443C284.937 44.6899 284.356 44.8354 283.628 44.981C282.901 43.8165 281.738 42.6519 281.738 41.6329C281.738 29.4051 281.738 17.0317 281.883 4.80385C281.883 3.93043 282.756 3.05701 283.628 1.31018C287.556 6.84182 283.774 12.3735 285.81 18.7785C288.137 15.8671 289.737 13.6836 291.628 11.7912C294.974 8.44308 298.61 5.38613 302.101 2.1836C302.101 2.91144 302.101 3.63929 302.101 4.36714Z" fill="black"/>
<path d="M39.2717 0C43.6352 1.01899 47.8533 1.8924 52.2168 2.91139C52.3622 3.3481 52.5077 3.93038 52.6531 4.36708C50.1805 4.94936 47.7078 6.11392 45.2352 6.11392C42.4716 6.11392 38.9808 4.22152 38.5444 8.73417C38.1081 12.9557 34.6173 18.1962 41.1625 20.962C41.8898 21.2531 42.6171 21.981 44.5079 23.4367C41.4535 24.7468 39.2717 25.7658 36.5081 26.9304C36.3627 28.0949 36.0718 29.5506 36.0718 31.1519C35.9263 38.1392 36.5081 38.5759 43.6352 39.1582C46.2533 39.3038 49.8896 37.5569 51.1986 43.2341C45.9624 43.2341 41.1625 43.5253 36.3627 43.0886C35.3445 42.943 33.7446 40.3227 33.7446 38.7215C33.5991 30.1329 33.7446 21.3987 33.89 12.6645C33.89 8.44303 33.89 4.22152 33.89 0C35.6354 0 37.3808 0 39.2717 0Z" fill="black"/>
<path d="M186.613 24.8925C188.067 18.7786 189.085 12.6646 191.122 6.84186C192.722 2.32921 196.94 1.31022 201.594 2.18364C206.249 3.05706 207.703 6.69629 208.139 10.6267C209.012 20.671 207.267 30.5697 202.467 39.4494C201.012 42.0697 196.94 44.3988 194.031 44.3988C192.285 44.5443 189.376 40.3228 188.649 37.557C187.485 33.6266 187.922 29.4051 187.631 25.1836C187.195 25.038 186.904 24.8925 186.613 24.8925ZM193.304 30.8608C193.304 31.8798 193.013 33.1899 193.304 34.0633C194.031 35.9557 195.194 37.557 196.213 39.4494C197.667 38.1393 199.849 37.1203 200.14 35.6646C201.594 29.2596 202.612 22.7089 203.485 16.1583C203.63 14.9938 202.031 12.9558 201.012 12.6646C199.994 12.3735 197.812 13.8292 197.376 14.8482C195.485 19.9431 192.867 30.7152 193.304 30.8608Z" fill="black"/>
<path d="M263.411 20.0885C260.502 25.9113 257.593 31.7341 254.393 37.5569C253.084 40.0315 251.193 42.3606 249.447 44.6898C248.72 41.9239 247.557 39.1581 247.411 36.5379C247.411 26.2024 247.702 15.867 247.993 5.67714C247.993 4.51258 248.284 3.4936 249.157 2.32904C252.502 6.55056 250.466 11.3543 250.611 15.867C250.902 20.6708 250.611 25.4746 250.611 30.2784C251.193 30.5695 251.629 30.8607 252.211 31.1518C253.52 29.405 255.265 27.6581 256.138 25.6202C259.193 19.0695 261.811 12.3733 264.865 5.82271C265.592 4.22145 267.338 3.20246 268.501 1.89233C269.083 2.18347 269.52 2.47461 270.101 2.76575C270.101 16.3037 270.101 29.8417 270.101 43.8163C263.992 42.6518 264.865 37.848 264.865 33.772C264.865 29.5505 265.302 25.329 265.592 21.1075C265.011 20.6708 264.283 20.3797 263.411 20.0885Z" fill="black"/>
<path d="M158.25 26.7848C159.559 20.8164 160.286 14.7025 162.177 8.87971C164.068 3.20251 175.704 -0.72787 180.649 2.47466C181.668 3.20251 182.54 5.82276 182.104 6.98731C181.377 8.87971 179.777 11.5 178.177 11.9367C166.686 14.5569 164.359 17.0316 163.923 28.9683C163.777 31.443 163.632 34.0632 164.213 36.5379C165.232 41.3417 168.432 42.3607 171.922 39.0126C172.359 38.5759 172.504 37.9936 172.941 37.7025C174.686 36.6835 176.577 35.8101 178.468 34.9366C177.886 37.2658 178.031 40.0316 176.722 41.6328C173.668 45.4177 168.722 46.2911 164.795 43.962C162.177 42.5063 160.286 38.7215 159.268 35.5189C158.395 32.8987 159.123 29.8417 159.123 26.9303C158.686 26.7848 158.395 26.7848 158.25 26.7848Z" fill="black"/>
<path d="M102.834 2.32912C107.343 2.32912 112.288 2.18355 117.379 2.47469C118.251 2.47469 119.851 4.51266 119.851 5.67721C120.433 16.3038 120.869 26.9304 121.16 37.7025C121.16 39.3038 119.706 40.905 118.833 42.5063C117.815 40.905 115.924 39.4493 115.779 37.8481C115.488 29.405 115.779 20.8164 115.779 12.3734C115.779 9.75316 116.07 6.11392 112.142 6.55063C110.397 6.84177 108.07 9.89873 107.779 11.9367C106.906 18.1962 107.197 24.6012 106.615 30.8607C106.324 34.2088 105.597 37.7025 104.288 40.7594C103.706 42.0696 101.088 42.6519 99.3428 43.0886C98.9064 43.2341 97.4519 41.7784 97.4519 41.6329C98.3246 40.3227 99.3428 39.3038 100.215 37.9936C101.525 35.9557 103.415 33.9177 103.706 31.7341C104.434 25.7658 104.579 19.7975 104.434 13.8291C104.579 10.0443 103.415 6.40506 102.834 2.32912Z" fill="black"/>
<path d="M142.105 26.6392C135.415 28.2405 133.524 31.2974 135.56 37.5569C135.996 39.0126 138.905 40.0316 140.942 40.7594C143.269 41.6329 145.887 42.0696 148.214 42.6518C148.069 43.3797 148.069 44.2531 147.923 44.981C143.705 44.981 139.487 45.2721 135.269 44.8354C134.251 44.6898 132.796 42.0696 132.651 40.6139C132.36 33.9177 132.651 27.2215 132.506 20.5253C132.506 16.1582 131.924 11.9367 132.069 7.5696C132.069 5.82277 133.524 2.62024 134.251 2.62024C141.087 2.91138 148.069 3.7848 154.905 4.65821C154.905 5.24049 155.05 5.96834 155.05 6.55061C153.596 6.98732 152.141 7.42403 150.687 8.00631C147.342 9.462 143.414 10.3354 140.796 12.6645C134.978 17.905 135.269 19.943 141.378 25.1835C141.669 25.0379 141.669 25.6202 142.105 26.6392Z" fill="black"/>
<path opacity="0.5" d="M3.05471 65.7802C2.54416 65.7802 2.07689 65.6893 1.65287 65.5076C1.23752 65.3172 0.874078 65.0576 0.562559 64.7288C0.259694 64.4 0.0217284 64.0236 -0.151338 63.5996C-0.31575 63.1755 -0.397956 62.7256 -0.397956 62.2496C-0.397956 61.6093 -0.255177 61.0252 0.0303817 60.4974C0.31594 59.9695 0.718319 59.5498 1.23752 59.2383C1.75671 58.9181 2.35812 58.758 3.04173 58.758C3.70803 58.758 4.2878 58.9095 4.78104 59.2123C5.28293 59.5066 5.65502 59.9046 5.89732 60.4065L4.78104 60.757C4.60797 60.4368 4.36568 60.1902 4.05416 60.0171C3.74265 59.8354 3.39651 59.7445 3.01577 59.7445C2.60041 59.7445 2.21967 59.8527 1.87353 60.069C1.53606 60.2853 1.2678 60.5839 1.06878 60.9646C0.869751 61.3367 0.770238 61.7651 0.770238 62.2496C0.770238 62.7256 0.869751 63.1582 1.06878 63.5476C1.27646 63.9284 1.54904 64.2313 1.88651 64.4562C2.23265 64.6812 2.61339 64.7937 3.02875 64.7937C3.297 64.7937 3.55227 64.7461 3.79457 64.6509C4.04551 64.5557 4.26184 64.4303 4.44356 64.2745C4.63393 64.1101 4.76373 63.9327 4.83296 63.7423L5.94924 64.0798C5.81078 64.4086 5.59878 64.7029 5.31322 64.9625C5.03631 65.2134 4.70316 65.4124 4.31376 65.5595C3.93302 65.7066 3.51333 65.7802 3.05471 65.7802ZM12.7859 65.6504V59.8873H10.4495V58.8749H16.2645V59.8873H13.9281V65.6504H12.7859ZM24.9533 65.7802C24.3995 65.7802 23.9062 65.6417 23.4736 65.3648C23.0409 65.0879 22.6991 64.7375 22.4482 64.3135V68.4151H21.3059V58.8749H22.3184V60.1469C22.5866 59.7315 22.9371 59.3984 23.3697 59.1474C23.8024 58.8878 24.274 58.758 24.7846 58.758C25.2518 58.758 25.6802 58.8532 26.0696 59.0436C26.459 59.234 26.7964 59.4936 27.082 59.8224C27.3676 60.1512 27.5882 60.5276 27.744 60.9517C27.9084 61.367 27.9906 61.804 27.9906 62.2626C27.9906 62.903 27.8608 63.4914 27.6012 64.0279C27.3503 64.5644 26.9955 64.9927 26.5368 65.3129C26.0782 65.6244 25.5504 65.7802 24.9533 65.7802ZM24.6028 64.7937C24.9403 64.7937 25.2432 64.7245 25.5114 64.586C25.7883 64.4389 26.022 64.2486 26.2123 64.0149C26.4114 63.7726 26.5628 63.5 26.6666 63.1972C26.7705 62.8943 26.8224 62.5828 26.8224 62.2626C26.8224 61.9251 26.7618 61.605 26.6407 61.3021C26.5282 60.9992 26.3638 60.731 26.1474 60.4974C25.9398 60.2637 25.6931 60.082 25.4076 59.9522C25.1307 59.8137 24.8278 59.7445 24.499 59.7445C24.2913 59.7445 24.075 59.7835 23.85 59.8613C23.6337 59.9392 23.426 60.0517 23.227 60.1988C23.0279 60.3373 22.8592 60.4974 22.7207 60.6791C22.5823 60.8608 22.4914 61.0555 22.4482 61.2632V63.1972C22.578 63.4914 22.751 63.7596 22.9674 64.0019C23.1837 64.2442 23.4346 64.4389 23.7202 64.586C24.0058 64.7245 24.3 64.7937 24.6028 64.7937ZM36.2464 65.7802C35.7359 65.7802 35.273 65.6893 34.8576 65.5076C34.4422 65.3172 34.0831 65.062 33.7803 64.7418C33.4774 64.413 33.2438 64.0366 33.0793 63.6125C32.9149 63.1885 32.8327 62.7429 32.8327 62.2756C32.8327 61.7997 32.9149 61.3497 33.0793 60.9257C33.2438 60.5017 33.4774 60.1296 33.7803 59.8094C34.0831 59.4806 34.4422 59.2253 34.8576 59.0436C35.2816 58.8532 35.7446 58.758 36.2464 58.758C36.757 58.758 37.2199 58.8532 37.6353 59.0436C38.0507 59.2253 38.4098 59.4806 38.7126 59.8094C39.0242 60.1296 39.2621 60.5017 39.4265 60.9257C39.5909 61.3497 39.6732 61.7997 39.6732 62.2756C39.6732 62.7429 39.5909 63.1885 39.4265 63.6125C39.2621 64.0366 39.0285 64.413 38.7256 64.7418C38.4228 65.062 38.0593 65.3172 37.6353 65.5076C37.2199 65.6893 36.757 65.7802 36.2464 65.7802ZM34.0009 62.2886C34.0009 62.7559 34.1004 63.1799 34.2995 63.5606C34.5071 63.9414 34.7797 64.2442 35.1172 64.4692C35.4547 64.6855 35.8311 64.7937 36.2464 64.7937C36.6618 64.7937 37.0382 64.6812 37.3757 64.4562C37.7218 64.2313 37.9944 63.9284 38.1934 63.5476C38.4011 63.1582 38.505 62.7299 38.505 62.2626C38.505 61.7953 38.4011 61.3713 38.1934 60.9906C37.9944 60.6098 37.7218 60.307 37.3757 60.082C37.0382 59.857 36.6618 59.7445 36.2464 59.7445C35.8311 59.7445 35.4547 59.8613 35.1172 60.095C34.7797 60.32 34.5071 60.6228 34.2995 61.0036C34.1004 61.3843 34.0009 61.8127 34.0009 62.2886ZM44.9382 65.6504V58.8878H46.0805V64.1188L49.8706 58.8749H50.909V65.6504H49.7668V60.5233L46.0286 65.6504H44.9382ZM58.2766 65.6504V59.8873H55.9402V58.8749H61.7552V59.8873H59.4188V65.6504H58.2766ZM69.7949 65.7802C69.2844 65.7802 68.8171 65.6893 68.3931 65.5076C67.9777 65.3172 67.6143 65.062 67.3028 64.7418C66.9999 64.413 66.762 64.0366 66.5889 63.6125C66.4245 63.1885 66.3423 62.7386 66.3423 62.2626C66.3423 61.6223 66.4894 61.0382 66.7836 60.5103C67.0778 59.9825 67.4845 59.5585 68.0037 59.2383C68.5316 58.9181 69.133 58.758 69.8079 58.758C70.4915 58.758 71.0843 58.9225 71.5862 59.2513C72.0967 59.5715 72.4904 59.9955 72.7673 60.5233C73.0529 61.0425 73.1957 61.605 73.1957 62.2107C73.1957 62.2972 73.1914 62.3838 73.1827 62.4703C73.1827 62.5482 73.1784 62.6088 73.1697 62.652H67.5494C67.584 63.0933 67.7052 63.4871 67.9128 63.8332C68.1292 64.1707 68.4061 64.4389 68.7436 64.638C69.081 64.8283 69.4445 64.9235 69.8339 64.9235C70.2492 64.9235 70.6386 64.8197 71.0021 64.612C71.3742 64.4043 71.6294 64.1317 71.7679 63.7943L72.7544 64.0668C72.6073 64.3957 72.3866 64.6899 72.0924 64.9495C71.8068 65.2091 71.465 65.4124 71.067 65.5595C70.6776 65.7066 70.2536 65.7802 69.7949 65.7802ZM67.5105 61.8602H72.1313C72.0967 61.4189 71.9712 61.0295 71.7549 60.6921C71.5386 60.3546 71.2617 60.0906 70.9242 59.9003C70.5867 59.7099 70.2146 59.6147 69.8079 59.6147C69.4099 59.6147 69.0421 59.7099 68.7046 59.9003C68.3671 60.0906 68.0902 60.3546 67.8739 60.6921C67.6662 61.0295 67.5451 61.4189 67.5105 61.8602ZM77.7623 65.7023V64.6769C77.9873 64.6769 78.1863 64.6206 78.3594 64.5082C78.5411 64.387 78.7012 64.188 78.8396 63.9111C78.9781 63.6255 79.0862 63.2361 79.1641 62.7429C79.2507 62.241 79.3069 61.605 79.3329 60.8348L79.4107 58.8749H84.0186V65.6504H82.8764V59.8873H80.4232L80.3972 60.9387C80.3626 61.8646 80.2847 62.6347 80.1636 63.2491C80.0424 63.8635 79.8737 64.3481 79.6574 64.7029C79.441 65.0576 79.1728 65.3129 78.8526 65.4687C78.5411 65.6244 78.1776 65.7023 77.7623 65.7023ZM89.7444 65.6504V58.8749H90.8866V61.1853H92.574C93.3701 61.1853 93.9715 61.3886 94.3782 61.7953C94.7936 62.1934 95.0013 62.7169 95.0013 63.3659C95.0013 63.7986 94.9104 64.188 94.7287 64.5341C94.5556 64.8802 94.296 65.1528 93.9499 65.3519C93.6038 65.5509 93.1711 65.6504 92.6519 65.6504H89.7444ZM90.8866 64.7548H92.4961C92.8163 64.7548 93.0716 64.6942 93.262 64.5731C93.461 64.4433 93.6081 64.2745 93.7033 64.0668C93.7985 63.8592 93.8461 63.6342 93.8461 63.3919C93.8461 63.1582 93.8028 62.9419 93.7163 62.7429C93.6297 62.5439 93.4869 62.3838 93.2879 62.2626C93.0889 62.1415 92.8163 62.0809 92.4702 62.0809H90.8866V64.7548ZM103.14 65.7802C102.629 65.7802 102.162 65.6893 101.738 65.5076C101.323 65.3172 100.959 65.0576 100.648 64.7288C100.345 64.4 100.107 64.0236 99.9337 63.5996C99.7692 63.1755 99.687 62.7256 99.687 62.2496C99.687 61.6093 99.8298 61.0252 100.115 60.4974C100.401 59.9695 100.803 59.5498 101.323 59.2383C101.842 58.9181 102.443 58.758 103.127 58.758C103.793 58.758 104.373 58.9095 104.866 59.2123C105.368 59.5066 105.74 59.9046 105.982 60.4065L104.866 60.757C104.693 60.4368 104.451 60.1902 104.139 60.0171C103.828 59.8354 103.482 59.7445 103.101 59.7445C102.685 59.7445 102.305 59.8527 101.959 60.069C101.621 60.2853 101.353 60.5839 101.154 60.9646C100.955 61.3367 100.855 61.7651 100.855 62.2496C100.855 62.7256 100.955 63.1582 101.154 63.5476C101.361 63.9284 101.634 64.2313 101.972 64.4562C102.318 64.6812 102.698 64.7937 103.114 64.7937C103.382 64.7937 103.637 64.7461 103.88 64.6509C104.131 64.5557 104.347 64.4303 104.529 64.2745C104.719 64.1101 104.849 63.9327 104.918 63.7423L106.034 64.0798C105.896 64.4086 105.684 64.7029 105.398 64.9625C105.121 65.2134 104.788 65.4124 104.399 65.5595C104.018 65.7066 103.598 65.7802 103.14 65.7802ZM112.871 65.6504V59.8873H110.535V58.8749H116.35V59.8873H114.013V65.6504H112.871ZM121.378 65.6504V58.8749H124.883C125.289 58.8749 125.627 58.9571 125.895 59.1215C126.163 59.2772 126.362 59.4806 126.492 59.7315C126.63 59.9825 126.7 60.2507 126.7 60.5363C126.7 60.8997 126.613 61.2286 126.44 61.5228C126.267 61.8083 126.016 62.0247 125.687 62.1718C126.077 62.2843 126.393 62.4876 126.635 62.7818C126.877 63.0674 126.998 63.4222 126.998 63.8462C126.998 64.2269 126.907 64.5514 126.726 64.8197C126.544 65.0879 126.289 65.2956 125.96 65.4427C125.631 65.5812 125.25 65.6504 124.818 65.6504H121.378ZM122.468 64.8456H124.792C124.999 64.8456 125.185 64.7937 125.35 64.6899C125.523 64.586 125.657 64.4476 125.752 64.2745C125.847 64.1015 125.895 63.9197 125.895 63.7294C125.895 63.5217 125.847 63.3356 125.752 63.1712C125.666 62.9982 125.54 62.864 125.376 62.7688C125.22 62.665 125.038 62.6131 124.831 62.6131H122.468V64.8456ZM122.468 61.8602H124.584C124.792 61.8602 124.973 61.8083 125.129 61.7045C125.285 61.592 125.406 61.4492 125.493 61.2761C125.579 61.1031 125.622 60.9214 125.622 60.731C125.622 60.4454 125.527 60.1988 125.337 59.9911C125.155 59.7835 124.917 59.6796 124.623 59.6796H122.468V61.8602ZM135.305 65.7802C134.794 65.7802 134.331 65.6893 133.916 65.5076C133.5 65.3172 133.141 65.062 132.839 64.7418C132.536 64.413 132.302 64.0366 132.138 63.6125C131.973 63.1885 131.891 62.7429 131.891 62.2756C131.891 61.7997 131.973 61.3497 132.138 60.9257C132.302 60.5017 132.536 60.1296 132.839 59.8094C133.141 59.4806 133.5 59.2253 133.916 59.0436C134.34 58.8532 134.803 58.758 135.305 58.758C135.815 58.758 136.278 58.8532 136.694 59.0436C137.109 59.2253 137.468 59.4806 137.771 59.8094C138.082 60.1296 138.32 60.5017 138.485 60.9257C138.649 61.3497 138.731 61.7997 138.731 62.2756C138.731 62.7429 138.649 63.1885 138.485 63.6125C138.32 64.0366 138.087 64.413 137.784 64.7418C137.481 65.062 137.118 65.3172 136.694 65.5076C136.278 65.6893 135.815 65.7802 135.305 65.7802ZM133.059 62.2886C133.059 62.7559 133.159 63.1799 133.358 63.5606C133.565 63.9414 133.838 64.2442 134.175 64.4692C134.513 64.6855 134.889 64.7937 135.305 64.7937C135.72 64.7937 136.096 64.6812 136.434 64.4562C136.78 64.2313 137.053 63.9284 137.252 63.5476C137.459 63.1582 137.563 62.7299 137.563 62.2626C137.563 61.7953 137.459 61.3713 137.252 60.9906C137.053 60.6098 136.78 60.307 136.434 60.082C136.096 59.857 135.72 59.7445 135.305 59.7445C134.889 59.7445 134.513 59.8613 134.175 60.095C133.838 60.32 133.565 60.6228 133.358 61.0036C133.159 61.3843 133.059 61.8127 133.059 62.2886ZM150.434 67.2469V64.638H150.576C150.767 64.638 150.94 64.5817 151.096 64.4692C151.26 64.3567 151.403 64.162 151.524 63.8851C151.654 63.5996 151.758 63.2102 151.835 62.7169C151.913 62.2237 151.965 61.5963 151.991 60.8348L152.056 58.8749H156.664V64.638H157.586V67.2469H156.573V65.6504H151.446V67.2469H150.434ZM152.173 64.638H155.522V59.8873H153.069L153.03 60.9387C153.004 61.6742 152.952 62.2929 152.874 62.7948C152.805 63.288 152.709 63.6818 152.588 63.976C152.476 64.2702 152.337 64.4908 152.173 64.638ZM165.709 65.7802C165.198 65.7802 164.735 65.6893 164.32 65.5076C163.904 65.3172 163.545 65.062 163.243 64.7418C162.94 64.413 162.706 64.0366 162.542 63.6125C162.377 63.1885 162.295 62.7429 162.295 62.2756C162.295 61.7997 162.377 61.3497 162.542 60.9257C162.706 60.5017 162.94 60.1296 163.243 59.8094C163.545 59.4806 163.904 59.2253 164.32 59.0436C164.744 58.8532 165.207 58.758 165.709 58.758C166.219 58.758 166.682 58.8532 167.098 59.0436C167.513 59.2253 167.872 59.4806 168.175 59.8094C168.486 60.1296 168.724 60.5017 168.889 60.9257C169.053 61.3497 169.135 61.7997 169.135 62.2756C169.135 62.7429 169.053 63.1885 168.889 63.6125C168.724 64.0366 168.491 64.413 168.188 64.7418C167.885 65.062 167.522 65.3172 167.098 65.5076C166.682 65.6893 166.219 65.7802 165.709 65.7802ZM163.463 62.2886C163.463 62.7559 163.563 63.1799 163.762 63.5606C163.969 63.9414 164.242 64.2442 164.579 64.4692C164.917 64.6855 165.293 64.7937 165.709 64.7937C166.124 64.7937 166.5 64.6812 166.838 64.4562C167.184 64.2313 167.457 63.9284 167.656 63.5476C167.863 63.1582 167.967 62.7299 167.967 62.2626C167.967 61.7953 167.863 61.3713 167.656 60.9906C167.457 60.6098 167.184 60.307 166.838 60.082C166.5 59.857 166.124 59.7445 165.709 59.7445C165.293 59.7445 164.917 59.8613 164.579 60.095C164.242 60.32 163.969 60.6228 163.762 61.0036C163.563 61.3843 163.463 61.8127 163.463 62.2886ZM174.4 65.6504V58.8749H175.582L178.1 63.314L180.631 58.8749H181.786V65.6504H180.696V60.5233L178.463 64.4433H177.736L175.491 60.5233V65.6504H174.4ZM190.482 65.7802C189.972 65.7802 189.509 65.6893 189.093 65.5076C188.678 65.3172 188.319 65.062 188.016 64.7418C187.713 64.413 187.479 64.0366 187.315 63.6125C187.151 63.1885 187.068 62.7429 187.068 62.2756C187.068 61.7997 187.151 61.3497 187.315 60.9257C187.479 60.5017 187.713 60.1296 188.016 59.8094C188.319 59.4806 188.678 59.2253 189.093 59.0436C189.517 58.8532 189.98 58.758 190.482 58.758C190.993 58.758 191.456 58.8532 191.871 59.0436C192.286 59.2253 192.645 59.4806 192.948 59.8094C193.26 60.1296 193.498 60.5017 193.662 60.9257C193.827 61.3497 193.909 61.7997 193.909 62.2756C193.909 62.7429 193.827 63.1885 193.662 63.6125C193.498 64.0366 193.264 64.413 192.961 64.7418C192.658 65.062 192.295 65.3172 191.871 65.5076C191.456 65.6893 190.993 65.7802 190.482 65.7802ZM188.237 62.2886C188.237 62.7559 188.336 63.1799 188.535 63.5606C188.743 63.9414 189.015 64.2442 189.353 64.4692C189.69 64.6855 190.067 64.7937 190.482 64.7937C190.897 64.7937 191.274 64.6812 191.611 64.4562C191.958 64.2313 192.23 63.9284 192.429 63.5476C192.637 63.1582 192.741 62.7299 192.741 62.2626C192.741 61.7953 192.637 61.3713 192.429 60.9906C192.23 60.6098 191.958 60.307 191.611 60.082C191.274 59.857 190.897 59.7445 190.482 59.7445C190.067 59.7445 189.69 59.8613 189.353 60.095C189.015 60.32 188.743 60.6228 188.535 61.0036C188.336 61.3843 188.237 61.8127 188.237 62.2886ZM199.174 65.6504V58.8749H202.679C203.085 58.8749 203.423 58.9571 203.691 59.1215C203.959 59.2772 204.158 59.4806 204.288 59.7315C204.426 59.9825 204.496 60.2507 204.496 60.5363C204.496 60.8997 204.409 61.2286 204.236 61.5228C204.063 61.8083 203.812 62.0247 203.483 62.1718C203.873 62.2843 204.189 62.4876 204.431 62.7818C204.673 63.0674 204.794 63.4222 204.794 63.8462C204.794 64.2269 204.703 64.5514 204.522 64.8197C204.34 65.0879 204.085 65.2956 203.756 65.4427C203.427 65.5812 203.046 65.6504 202.614 65.6504H199.174ZM200.264 64.8456H202.588C202.795 64.8456 202.981 64.7937 203.146 64.6899C203.319 64.586 203.453 64.4476 203.548 64.2745C203.643 64.1015 203.691 63.9197 203.691 63.7294C203.691 63.5217 203.643 63.3356 203.548 63.1712C203.462 62.9982 203.336 62.864 203.172 62.7688C203.016 62.665 202.834 62.6131 202.627 62.6131H200.264V64.8456ZM200.264 61.8602H202.38C202.588 61.8602 202.769 61.8083 202.925 61.7045C203.081 61.592 203.202 61.4492 203.289 61.2761C203.375 61.1031 203.418 60.9214 203.418 60.731C203.418 60.4454 203.323 60.1988 203.133 59.9911C202.951 59.7835 202.713 59.6796 202.419 59.6796H200.264V61.8602ZM217.305 65.6504V58.8878H218.448V64.1188L222.238 58.8749H223.276V65.6504H222.134V60.5233L218.396 65.6504H217.305ZM231.111 65.7413C230.453 65.7413 229.895 65.6201 229.436 65.3778C228.986 65.1269 228.64 64.7807 228.398 64.3394L229.333 63.9241C229.488 64.201 229.709 64.4173 229.995 64.5731C230.289 64.7288 230.644 64.8067 231.059 64.8067C231.552 64.8067 231.942 64.6985 232.227 64.4822C232.513 64.2659 232.655 63.976 232.655 63.6125C232.655 63.2837 232.539 63.0198 232.305 62.8208C232.08 62.6131 231.76 62.5049 231.345 62.4963H230.657V61.7434H231.383C231.565 61.7434 231.725 61.7002 231.864 61.6136C232.011 61.5184 232.123 61.393 232.201 61.2372C232.288 61.0815 232.331 60.9084 232.331 60.718C232.331 60.4151 232.223 60.1729 232.006 59.9911C231.79 59.8008 231.466 59.7056 231.033 59.7056C230.678 59.7056 230.38 59.7748 230.137 59.9133C229.904 60.0517 229.713 60.2594 229.566 60.5363L228.697 60.069C228.913 59.6623 229.224 59.3465 229.631 59.1215C230.047 58.8878 230.531 58.771 231.085 58.771C231.526 58.771 231.916 58.8446 232.253 58.9917C232.599 59.1301 232.867 59.3335 233.058 59.6017C233.257 59.87 233.356 60.1945 233.356 60.5752C233.356 60.8954 233.279 61.1939 233.123 61.4708C232.976 61.7391 232.755 61.9425 232.461 62.0809C232.867 62.2021 233.179 62.4141 233.395 62.7169C233.612 63.0111 233.72 63.3616 233.72 63.7683C233.72 64.1837 233.607 64.5384 233.382 64.8327C233.157 65.1269 232.85 65.3519 232.461 65.5076C232.071 65.6634 231.621 65.7413 231.111 65.7413ZM249.356 65.7802C248.24 65.7802 247.396 65.4427 246.825 64.7678C246.254 64.0928 245.968 63.1409 245.968 61.9122C245.968 61.0728 246.038 60.3676 246.176 59.7964C246.315 59.2167 246.522 58.7407 246.799 58.3686C247.076 57.9879 247.418 57.6807 247.825 57.4471C248.231 57.2048 248.699 57.0057 249.226 56.85L252.095 55.9803L252.16 56.9668L249.369 57.8105C248.893 57.9663 248.495 58.1653 248.175 58.4076C247.855 58.6499 247.604 58.9614 247.422 59.3421C247.24 59.7229 247.119 60.2118 247.059 60.8089C247.284 60.3502 247.621 59.9955 248.071 59.7445C248.521 59.4849 249.045 59.3551 249.642 59.3551C250.282 59.3551 250.832 59.4892 251.29 59.7575C251.757 60.0171 252.112 60.3849 252.355 60.8608C252.606 61.3281 252.731 61.8689 252.731 62.4833C252.731 63.1409 252.601 63.7164 252.342 64.2096C252.082 64.7029 251.701 65.0879 251.199 65.3648C250.697 65.6417 250.083 65.7802 249.356 65.7802ZM249.356 64.7937C250.057 64.7937 250.598 64.5904 250.979 64.1837C251.368 63.7683 251.563 63.2188 251.563 62.5352C251.563 61.8689 251.372 61.3281 250.992 60.9127C250.611 60.4974 250.066 60.2897 249.356 60.2897C248.941 60.2897 248.564 60.3762 248.227 60.5493C247.898 60.7223 247.634 60.9776 247.435 61.3151C247.245 61.6439 247.15 62.0506 247.15 62.5352C247.15 62.9679 247.232 63.3573 247.396 63.7034C247.569 64.0409 247.82 64.3091 248.149 64.5082C248.478 64.6985 248.88 64.7937 249.356 64.7937ZM261.665 65.7802C261.111 65.7802 260.618 65.6417 260.185 65.3648C259.752 65.0879 259.411 64.7375 259.16 64.3135V68.4151H258.017V58.8749H259.03V60.1469C259.298 59.7315 259.649 59.3984 260.081 59.1474C260.514 58.8878 260.986 58.758 261.496 58.758C261.963 58.758 262.392 58.8532 262.781 59.0436C263.171 59.234 263.508 59.4936 263.794 59.8224C264.079 60.1512 264.3 60.5276 264.456 60.9517C264.62 61.367 264.702 61.804 264.702 62.2626C264.702 62.903 264.572 63.4914 264.313 64.0279C264.062 64.5644 263.707 64.9927 263.248 65.3129C262.79 65.6244 262.262 65.7802 261.665 65.7802ZM261.314 64.7937C261.652 64.7937 261.955 64.7245 262.223 64.586C262.5 64.4389 262.734 64.2486 262.924 64.0149C263.123 63.7726 263.274 63.5 263.378 63.1972C263.482 62.8943 263.534 62.5828 263.534 62.2626C263.534 61.9251 263.473 61.605 263.352 61.3021C263.24 60.9992 263.075 60.731 262.859 60.4974C262.651 60.2637 262.405 60.082 262.119 59.9522C261.842 59.8137 261.539 59.7445 261.211 59.7445C261.003 59.7445 260.787 59.7835 260.562 59.8613C260.345 59.9392 260.138 60.0517 259.939 60.1988C259.739 60.3373 259.571 60.4974 259.432 60.6791C259.294 60.8608 259.203 61.0555 259.16 61.2632V63.1972C259.29 63.4914 259.463 63.7596 259.679 64.0019C259.895 64.2442 260.146 64.4389 260.432 64.586C260.717 64.7245 261.012 64.7937 261.314 64.7937ZM270.614 68.493C270.467 68.493 270.316 68.4714 270.16 68.4281C270.013 68.3848 269.861 68.3199 269.706 68.2334L270.095 67.4546C270.173 67.4979 270.246 67.5282 270.316 67.5455C270.393 67.5714 270.467 67.5844 270.536 67.5844C270.744 67.5844 270.939 67.4849 271.12 67.2859C271.311 67.0955 271.488 66.8013 271.653 66.4032L271.977 65.5855L269.005 58.8749H270.212L272.496 64.4952L274.56 58.8749H275.689L272.522 66.7537C272.366 67.1431 272.189 67.4633 271.99 67.7142C271.791 67.9738 271.575 68.1685 271.341 68.2983C271.107 68.4281 270.865 68.493 270.614 68.493ZM283.495 65.7802C282.984 65.7802 282.517 65.6893 282.093 65.5076C281.678 65.3172 281.314 65.0576 281.003 64.7288C280.7 64.4 280.462 64.0236 280.289 63.5996C280.125 63.1755 280.042 62.7256 280.042 62.2496C280.042 61.6093 280.185 61.0252 280.471 60.4974C280.756 59.9695 281.159 59.5498 281.678 59.2383C282.197 58.9181 282.798 58.758 283.482 58.758C284.148 58.758 284.728 58.9095 285.221 59.2123C285.723 59.5066 286.095 59.9046 286.338 60.4065L285.221 60.757C285.048 60.4368 284.806 60.1902 284.494 60.0171C284.183 59.8354 283.837 59.7445 283.456 59.7445C283.041 59.7445 282.66 59.8527 282.314 60.069C281.976 60.2853 281.708 60.5839 281.509 60.9646C281.31 61.3367 281.211 61.7651 281.211 62.2496C281.211 62.7256 281.31 63.1582 281.509 63.5476C281.717 63.9284 281.989 64.2313 282.327 64.4562C282.673 64.6812 283.054 64.7937 283.469 64.7937C283.737 64.7937 283.993 64.7461 284.235 64.6509C284.486 64.5557 284.702 64.4303 284.884 64.2745C285.074 64.1101 285.204 63.9327 285.273 63.7423L286.39 64.0798C286.251 64.4086 286.039 64.7029 285.753 64.9625C285.477 65.2134 285.143 65.4124 284.754 65.5595C284.373 65.7066 283.954 65.7802 283.495 65.7802ZM291.046 63.6904C291.046 63.2578 291.167 62.8857 291.409 62.5741C291.66 62.254 292.002 62.0074 292.434 61.8343C292.867 61.6612 293.369 61.5747 293.94 61.5747C294.243 61.5747 294.563 61.6006 294.901 61.6526C295.238 61.6958 295.537 61.7651 295.796 61.8602V61.367C295.796 60.8478 295.64 60.4411 295.329 60.1469C295.017 59.844 294.576 59.6926 294.005 59.6926C293.633 59.6926 293.274 59.7618 292.928 59.9003C292.59 60.0301 292.231 60.2204 291.85 60.4714L291.435 59.6666C291.876 59.3638 292.318 59.1388 292.759 58.9917C293.2 58.8359 293.659 58.758 294.135 58.758C295 58.758 295.684 59.0003 296.186 59.4849C296.688 59.9608 296.938 60.6272 296.938 61.4838V64.3524C296.938 64.4908 296.964 64.5947 297.016 64.6639C297.077 64.7245 297.172 64.7591 297.302 64.7678V65.6504C297.189 65.6677 297.09 65.6807 297.003 65.6893C296.925 65.698 296.861 65.7023 296.809 65.7023C296.54 65.7023 296.337 65.6288 296.199 65.4817C296.069 65.3345 295.995 65.1788 295.978 65.0144L295.952 64.586C295.658 64.9668 295.273 65.261 294.797 65.4687C294.321 65.6764 293.849 65.7802 293.382 65.7802C292.932 65.7802 292.53 65.6893 292.175 65.5076C291.82 65.3172 291.543 65.0663 291.344 64.7548C291.145 64.4346 291.046 64.0798 291.046 63.6904ZM295.459 64.1707C295.563 64.0495 295.645 63.9284 295.705 63.8072C295.766 63.6774 295.796 63.5693 295.796 63.4827V62.639C295.528 62.5352 295.247 62.4573 294.953 62.4054C294.658 62.3448 294.368 62.3145 294.083 62.3145C293.503 62.3145 293.031 62.4314 292.668 62.665C292.313 62.89 292.136 63.2015 292.136 63.5996C292.136 63.8159 292.192 64.0279 292.305 64.2356C292.426 64.4346 292.599 64.599 292.824 64.7288C293.057 64.8586 293.343 64.9235 293.68 64.9235C294.035 64.9235 294.373 64.8543 294.693 64.7158C295.013 64.5687 295.268 64.387 295.459 64.1707Z" fill="black"/>
</g>
<defs>
<clipPath id="clip0_513_2485">
<rect width="302" height="71.8223" fill="white"/>
</clipPath>
</defs>
</svg>
