<svg width="24" height="24" viewBox="0 0 24 24" fill="none" xmlns="http://www.w3.org/2000/svg">
<path d="M11.5352 12.135C11.6689 12.2434 11.8357 12.3026 12.0077 12.3026C12.1798 12.3026 12.3466 12.2434 12.4802 12.135L19.4477 6.135C19.2239 6.05335 18.9884 6.00778 18.7502 6H5.25023C5.01286 6.00295 4.77745 6.04345 4.55273 6.12L11.5352 12.135Z" fill="#FFDF8B"/>
<path d="M20.9995 8.24994C20.9972 7.83051 20.8777 7.42006 20.6545 7.06494L14.5645 12.3149L20.7745 17.4749C20.9217 17.1709 20.9986 16.8377 20.9995 16.4999V8.24994Z" fill="#FFDF8B"/>
<path d="M3.345 7.06494C3.12179 7.42006 3.0023 7.83051 3 8.24994V16.4999C3.00199 16.8352 3.07886 17.1657 3.225 17.4674L9.435 12.3074L3.345 7.06494Z" fill="#FFDF8B"/>
<path d="M13.4091 13.2975C13.0102 13.621 12.5126 13.7983 11.9991 13.8C11.4855 13.7983 10.9879 13.621 10.5891 13.2975L4.28906 18.5475C4.59027 18.6848 4.91806 18.7539 5.24906 18.75H18.7491C19.0818 18.7469 19.4096 18.67 19.7091 18.525L13.4091 13.2975Z" fill="#FFDF8B"/>
</svg>
