<svg width="49" height="48" viewBox="0 0 49 48" fill="none" xmlns="http://www.w3.org/2000/svg">
<path d="M10.4426 37.4098V26.7869C11.6229 26.7869 13.1967 26.3934 13.1967 28.7541V34.6557H15.5573C16.3442 34.6557 17.1311 35.0492 17.1311 35.8361V37.4098H10.4426Z" fill="white"/>
<path d="M40.7376 37.4098V26.7869C39.5573 26.7869 37.9835 26.3934 37.9835 28.7541V34.6557H35.6229C34.836 34.6557 34.0491 35.0492 34.0491 35.8361V37.4098H40.7376Z" fill="white"/>
<rect x="1.78682" y="12.2295" width="47.2131" height="4.72131" fill="white"/>
<rect x="4.14748" y="16.164" width="3.14754" height="24.3934" fill="white"/>
<rect x="43.4917" y="16.164" width="3.14754" height="24.3934" fill="white"/>
<rect x="0.999939" y="39.7705" width="48" height="3.14754" fill="white"/>
<rect x="3.3606" y="42.1312" width="44.0656" height="5.50819" fill="white"/>
<path d="M48.9999 13.0164H1.78682L25.3934 2.00003L48.9999 13.0164Z" fill="white"/>
<path d="M25.3934 18.5246C22.4557 18.5246 21.0218 21.1476 20.6721 22.4591H30.1147C29.765 21.1476 28.3311 18.5246 25.3934 18.5246Z" fill="white"/>
<path d="M25.3934 24.0328C23.8196 24.0328 23.1639 22.7213 23.0327 22.0656H27.754C27.6229 22.7213 26.9672 24.0328 25.3934 24.0328Z" fill="#FFDF8B"/>
<rect x="16.7376" y="30.3279" width="17.3115" height="3.14754" rx="1.57377" fill="#FFDF8B"/>
<path fill-rule="evenodd" clip-rule="evenodd" d="M32.4753 31.1148H18.3114C17.8768 31.1148 17.5245 31.4671 17.5245 31.9017C17.5245 32.3363 17.8768 32.6886 18.3114 32.6886H32.4753C32.9099 32.6886 33.2622 32.3363 33.2622 31.9017C33.2622 31.4671 32.9099 31.1148 32.4753 31.1148ZM18.3114 30.3279C17.4422 30.3279 16.7376 31.0325 16.7376 31.9017C16.7376 32.7709 17.4422 33.4755 18.3114 33.4755H32.4753C33.3445 33.4755 34.0491 32.7709 34.0491 31.9017C34.0491 31.0325 33.3445 30.3279 32.4753 30.3279H18.3114Z" fill="#3B3938"/>
<path fill-rule="evenodd" clip-rule="evenodd" d="M1.34143 16.9508H3.70208V41.7705H0.554541V44.9181H2.9152V47.6394H46.9808V44.9181H48.5545V41.7705H46.1939V16.9508H48.5545V12.2295H46.8683L24.948 2.00003L3.02763 12.2295H1.34143V16.9508ZM47.7677 13.0164H2.12831V16.164H47.7677V13.0164ZM45.0076 12.2295L26.8817 3.7708L35.3405 12.2295H45.0076ZM25.3414 12.2295V3.34332L34.2277 12.2295H25.3414ZM23.7519 3.42654L4.88837 12.2295H14.9489L23.7519 3.42654ZM16.0618 12.2295H24.5545V3.73676L16.0618 12.2295ZM6.84962 41.7705V16.9508H24.5545V18.5407C22.3711 18.7212 21.0897 20.3862 20.5117 21.6722C20.3821 21.9605 20.2878 22.2298 20.2267 22.459H22.2873C22.4036 22.8032 22.6118 23.2079 22.9371 23.5615C23.3791 24.042 24.0377 24.4263 24.948 24.4263C25.8582 24.4263 26.5168 24.042 26.9588 23.5615C27.2841 23.2079 27.4923 22.8032 27.6086 22.459H29.6693C29.6082 22.2298 29.5139 21.9605 29.3843 21.6722C28.8063 20.3862 27.5249 18.7212 25.3414 18.5407V16.9508H43.0464V41.7705H39.5054V39.4099H40.2922V26.7869C40.147 26.7869 39.9957 26.781 39.8421 26.7749C38.7483 26.7318 37.5382 26.6841 37.5382 28.7541V34.6558H35.1775C34.3906 34.6558 33.6037 35.0492 33.6037 35.8361V39.4099H34.7841V41.7705H31.2431V33.082H30.4562V36.6558H19.4398V33.082H18.6529V41.7705H15.5054V39.4099H16.6857V35.8361C16.6857 35.0492 15.8988 34.6558 15.1119 34.6558H12.7513V28.7541C12.7513 26.6841 11.5411 26.7318 10.4473 26.7749C10.3847 26.7774 10.3225 26.7798 10.2609 26.7819C10.1714 26.7848 10.0832 26.7869 9.99716 26.7869V39.4099H10.784V41.7705H6.84962ZM1.34143 42.5574V44.1312H47.7677V42.5574H1.34143ZM14.7185 41.7705H11.5709V39.4099H14.7185V41.7705ZM19.4398 41.7705H30.4562V35.8033H19.4398V41.7705ZM35.5709 41.7705H38.7185V39.4099H35.5709V41.7705ZM21.3873 21.6722C21.5871 21.2957 21.8533 20.8979 22.1906 20.5386C22.8443 19.8421 23.7405 19.3115 24.948 19.3115C26.1555 19.3115 27.0517 19.8421 27.7054 20.5386C28.0427 20.8979 28.3089 21.2957 28.5086 21.6722H21.3873ZM23.5162 23.0287C23.3499 22.848 23.2247 22.6475 23.1351 22.459H26.7608C26.6713 22.6475 26.546 22.848 26.3797 23.0287C26.0677 23.3679 25.6115 23.6394 24.948 23.6394C24.2844 23.6394 23.8283 23.3679 23.5162 23.0287ZM6.06274 41.7705V16.9508H4.48897V41.7705H6.06274ZM3.70208 46.8525V44.9181H46.1939V46.8525H3.70208ZM45.407 41.7705V16.9508H43.8332V41.7705H45.407ZM11.9644 28.7541V35.4426H15.1119C15.3887 35.4426 15.6203 35.5142 15.7574 35.6056C15.8711 35.6814 15.8988 35.7479 15.8988 35.8361V38.623H10.784V27.5509C10.8099 27.5503 10.8354 27.5499 10.8608 27.5496L10.8843 27.5494L10.9254 27.5492C11.2107 27.5492 11.4079 27.5739 11.5479 27.6248C11.6621 27.6663 11.7374 27.7235 11.8011 27.8366C11.8774 27.9723 11.9644 28.2416 11.9644 28.7541ZM38.325 28.7541V35.4426H35.1775C34.9008 35.4426 34.6691 35.5142 34.532 35.6056C34.4183 35.6814 34.3906 35.7479 34.3906 35.8361V38.623H39.5054V27.5509C39.4575 27.5498 39.4105 27.5492 39.364 27.5492C39.0787 27.5492 38.8815 27.5739 38.7415 27.6248C38.6273 27.6663 38.552 27.7235 38.4883 27.8366C38.412 27.9723 38.325 28.2416 38.325 28.7541ZM30.4562 37.4426V35.0164H19.4398V37.4426H30.4562Z" fill="#3B3938"/>
</svg>
