<svg width="48" height="48" viewBox="0 0 48 48" fill="none" xmlns="http://www.w3.org/2000/svg">
<g clip-path="url(#clip0_1908_7509)">
<path d="M41.1841 18.4809H22.6425C21.1407 18.4809 19.9277 19.8055 19.9277 21.4455V38.5388H43.8989V21.5085C43.8989 19.8055 42.6859 18.4809 41.1841 18.4809Z" fill="#FFDF8B"/>
<path d="M44.3032 38.9803H19.5812V21.5085C19.5812 19.6794 20.9674 18.1656 22.6425 18.1656H41.1841C42.8591 18.1656 44.2454 19.6794 44.2454 21.5085V38.9803H44.3032ZM20.2743 38.2234H43.5523V21.5085C43.5523 20.0578 42.4548 18.9225 41.1841 18.9225H22.6425C21.314 18.9225 20.2743 20.1209 20.2743 21.5085V38.2234Z" fill="#3B3938"/>
<path d="M47.6534 33.682H16.231V42.8909H47.6534V33.682Z" fill="white"/>
<path d="M47.9999 43.3325H15.8844V33.3036H47.9999V43.3325ZM16.5776 42.5756H47.3068V34.0605H16.5776V42.5756Z" fill="#3B3938"/>
<path d="M47.6534 38.3495H16.231V47.5585H47.6534V38.3495Z" fill="white"/>
<path d="M47.9999 47.9369H15.8844V37.908H47.9999V47.9369ZM16.5776 47.18H47.3068V38.728H16.5776V47.18Z" fill="#3B3938"/>
<path d="M47.6534 47.3062V32.4205C47.6534 30.9067 46.4981 29.6452 45.1119 29.6452H42.8014C41.4151 29.6452 40.2599 30.9067 40.2599 32.4205V47.3062H47.6534Z" fill="white"/>
<path d="M47.9999 47.7477H39.8555V32.4205C39.8555 30.6544 41.1263 29.2668 42.7436 29.2668H45.0541C46.6714 29.2668 47.9422 30.6544 47.9422 32.4205V47.7477H47.9999ZM40.5487 46.9277H47.249V32.4205C47.249 31.0959 46.2671 30.0237 45.0541 30.0237H42.7436C41.5306 30.0237 40.5487 31.0959 40.5487 32.4205V46.9277Z" fill="#3B3938"/>
<path d="M23.6245 47.3062V32.4205C23.6245 30.9067 22.4693 29.6452 21.083 29.6452H18.7725C17.3862 29.6452 16.231 30.9067 16.231 32.4205V47.3062H23.6245Z" fill="white"/>
<path d="M23.9711 47.7477H15.8844V32.4205C15.8844 30.6544 17.1552 29.2668 18.7725 29.2668H21.083C22.7003 29.2668 23.9711 30.6544 23.9711 32.4205V47.7477ZM16.5776 46.9277H23.2779V32.4205C23.2779 31.0959 22.296 30.0237 21.083 30.0237H18.7725C17.5595 30.0237 16.5776 31.0959 16.5776 32.4205V46.9277Z" fill="#3B3938"/>
<path d="M20.2743 32.1682H19.5812V47.5585H20.2743V32.1682Z" fill="#3B3938"/>
<path d="M23.6245 31.7897H16.231V32.5466H23.6245V31.7897Z" fill="#3B3938"/>
<path d="M44.2454 32.1682H43.5523V47.5585H44.2454V32.1682Z" fill="#3B3938"/>
<path d="M47.5956 31.7897H40.2021V32.5466H47.5956V31.7897Z" fill="#3B3938"/>
<path d="M13.0541 46.1078H0.866364V47.5585H13.0541V46.1078Z" fill="white"/>
<path d="M13.4007 48H0.519791V45.7293H13.4007V48ZM1.21293 47.2431H12.7075V46.5493H1.21293V47.2431Z" fill="#3B3938"/>
<path d="M7.33567 11.5427H6.64253V46.1077H7.33567V11.5427Z" fill="#3B3938"/>
<path d="M10.5126 0.378448H6.93135H3.29236L0.462036 13.1827H6.93135H13.4007L10.5126 0.378448Z" fill="white"/>
<path d="M13.8628 13.5611H-6.10352e-05L3.00355 0H10.8014L13.8628 13.5611ZM0.866365 12.8042H12.9386L10.2815 0.756899H3.58117L0.866365 12.8042Z" fill="#3B3938"/>
<path d="M3.9855 13.1827H3.29236V22.3285H3.9855V13.1827Z" fill="#3B3938"/>
<path d="M3.63893 22.0762C3.63893 22.0762 2.71474 24.5992 3.63893 24.5992C4.56312 24.5992 3.63893 22.0762 3.63893 22.0762Z" fill="white"/>
<path d="M3.63894 24.9777C3.40789 24.9777 3.17684 24.8515 3.00356 24.6623C2.59922 23.9685 3.11908 22.3916 3.29237 21.9501C3.35013 21.8239 3.46565 21.6978 3.63894 21.6978C3.75446 21.6978 3.92774 21.7608 3.98551 21.9501C4.15879 22.3916 4.67865 23.9685 4.27432 24.6623C4.10103 24.8515 3.92774 24.9777 3.63894 24.9777ZM3.63894 24.2208C3.6967 24.2208 3.6967 24.2208 3.6967 24.2208C3.75446 24.1577 3.75446 23.7792 3.63894 23.3377C3.58117 23.7792 3.52341 24.1577 3.63894 24.2208Z" fill="#3B3938"/>
</g>
<defs>
<clipPath id="clip0_1908_7509">
<rect width="48" height="48" fill="white"/>
</clipPath>
</defs>
</svg>
