<svg width="48" height="48" viewBox="0 0 48 48" fill="none" xmlns="http://www.w3.org/2000/svg">
<g clip-path="url(#clip0_1908_7507)">
<path d="M5.11235 27.0746H4.43069V7.02362C4.43069 5.41032 5.62359 4.08511 7.04371 4.08511H9.08868C10.5088 4.08511 11.7017 5.41032 11.7017 7.02362V9.09786H11.02V7.02362C11.02 5.75602 10.168 4.77652 9.08868 4.77652H7.04371C5.96442 4.77652 5.11235 5.81364 5.11235 7.02362V27.0746Z" fill="#3B3938"/>
<path d="M37.5479 40.9605H10.452C7.10055 40.9605 4.1467 38.5406 3.46505 35.1987L2.15854 28.976H45.7846L44.5349 35.1987C43.7964 38.5406 40.8994 40.9605 37.5479 40.9605Z" fill="white"/>
<path d="M37.5479 41.3062H10.452C8.74788 41.3062 7.10054 40.7301 5.73723 39.6353C4.43072 38.5406 3.46504 36.9849 3.12421 35.314L1.76089 28.6303H46.239L44.8757 35.314C44.5349 36.9849 43.5692 38.5406 42.2627 39.6353C40.8994 40.7301 39.252 41.3062 37.5479 41.3062ZM2.61297 29.3217L3.80587 35.1411C4.14669 36.6968 4.94196 38.0796 6.19166 39.0591C7.38456 40.0386 8.91829 40.6148 10.452 40.6148H37.5479C39.0816 40.6148 40.6153 40.0963 41.8082 39.0591C43.0011 38.0796 43.8532 36.6968 44.194 35.1411L45.3869 29.3217H2.61297Z" fill="#3B3938"/>
<path d="M47.6591 27.5356H0.340759V30.3588H47.6591V27.5356Z" fill="#FFDF8B"/>
<path d="M47.9999 30.7046H-6.10352e-05V27.1899H47.9999V30.7046ZM0.681596 30.0131H47.2615V27.8813H0.681596V30.0131V30.0131Z" fill="#3B3938"/>
<path d="M10.452 44.5905H9.14551L9.77036 40.9605H12.3266L10.452 44.5905Z" fill="white"/>
<path d="M10.6792 44.9362H8.80469L9.54315 40.6148H12.9514L10.6792 44.9362ZM9.54315 44.2448H10.2248L11.7585 41.3063H10.0544L9.54315 44.2448Z" fill="#3B3938"/>
<path d="M37.5479 44.5905H38.7976L38.2295 40.9605H35.6733L37.5479 44.5905Z" fill="white"/>
<path d="M39.252 44.9362H37.3775L35.1621 40.6148H38.5704L39.252 44.9362ZM37.7751 44.2448H38.4568L37.9455 41.3063H36.2414L37.7751 44.2448Z" fill="#3B3938"/>
<path d="M13.6331 13.0159H8.91828C8.57745 13.0159 8.29343 12.843 8.17982 12.4973C8.06621 12.2092 8.12302 11.8635 8.35024 11.5754L10.736 8.92501C10.9064 8.75215 11.1337 8.63692 11.3609 8.63692C11.5881 8.63692 11.8153 8.75215 11.9857 8.92501L14.3147 11.5754C14.542 11.8059 14.5988 12.1516 14.4283 12.4973C14.2579 12.7854 13.9739 13.0159 13.6331 13.0159ZM11.3609 9.32833C11.3609 9.32833 11.3041 9.32833 11.2473 9.38595L8.86148 12.0364C8.80467 12.094 8.80467 12.1516 8.86148 12.2092C8.86148 12.2668 8.91828 12.2668 8.97509 12.2668H13.6331C13.6899 12.2668 13.7467 12.2092 13.7467 12.2092C13.7467 12.1516 13.8035 12.094 13.7467 12.0364L11.4177 9.38595C11.4177 9.32833 11.3609 9.32833 11.3609 9.32833Z" fill="#3B3938"/>
<path d="M14.5988 12.1516H8.12302V13.304H14.5988V12.1516Z" fill="white"/>
<path d="M14.9396 13.6497H7.7822V11.8059H14.9964V13.6497H14.9396ZM8.46385 12.9583H14.2579V12.4973H8.46385V12.9583Z" fill="#3B3938"/>
<path d="M44.478 6.10173H30.1632V20.7367H44.478V6.10173Z" fill="white"/>
<path d="M44.8189 21.0824H29.8224V5.75602H44.8189V21.0824ZM30.5041 20.391H44.1372V6.44743H30.5041V20.391Z" fill="#3B3938"/>
<path d="M45.8413 5.00699H28.5159V6.85076H45.8413V5.00699Z" fill="white"/>
<path d="M45.8414 7.19647H28.5159C28.3455 7.19647 28.1751 7.02362 28.1751 6.85076V5.00699C28.1751 4.83414 28.3455 4.66129 28.5159 4.66129C28.6863 4.66129 28.8567 4.83414 28.8567 5.00699V6.50506H45.5005V5.00699C45.5005 4.83414 45.6709 4.66129 45.8414 4.66129C46.0118 4.66129 46.1822 4.83414 46.1822 5.00699V6.85076C46.1822 7.02362 46.0118 7.19647 45.8414 7.19647Z" fill="#3B3938"/>
<path d="M44.478 6.10173H30.1632V17.2796H44.478V6.10173Z" fill="white"/>
<path d="M44.8189 17.6253H29.8224V5.75602H44.8189V17.6253ZM30.5041 16.9339H44.1372V6.44743H30.5041V16.9339Z" fill="#3B3938"/>
<path d="M46.9775 4.83414H27.2094C27.039 4.83414 26.8686 4.66128 26.8686 4.48843C26.8686 4.31558 27.039 4.14272 27.2094 4.14272H46.9775C47.1479 4.14272 47.3183 4.31558 47.3183 4.48843C47.3183 4.66128 47.1479 4.83414 46.9775 4.83414Z" fill="#3B3938"/>
</g>
<defs>
<clipPath id="clip0_1908_7507">
<rect width="48" height="48" fill="white"/>
</clipPath>
</defs>
</svg>
