<svg width="150" height="36" viewBox="0 0 150 36" fill="none" xmlns="http://www.w3.org/2000/svg">
<g clip-path="url(#clip0_1908_7478)">
<path d="M114.289 0C117.757 1.94635 118.191 3.24392 117.324 7.28081C117.107 8.14585 117.396 9.15507 117.685 10.0201C118.985 13.4082 119.202 16.7963 117.613 20.1844C116.746 21.9145 111.255 23.14 109.883 21.9145C109.521 21.6262 109.377 20.9774 109.377 20.4728C109.305 19.2473 109.16 17.9497 109.377 16.7242C109.738 14.3453 109.16 12.7594 106.848 11.606C104.609 10.5247 104.898 9.22716 106.487 7.42498C108.438 5.19028 109.955 2.52305 111.616 0.0720872C112.483 0 113.35 0 114.289 0ZM117.613 16.2196C117.54 14.9941 117.468 14.2733 117.396 13.5524C117.179 11.7502 116.312 10.0922 114.434 10.4526C113.206 10.6689 111.905 12.1106 111.183 13.264C110.533 14.3453 110.677 15.8592 110.533 17.1567C110.388 18.6706 110.605 20.1123 112.483 20.4007C114.289 20.689 116.023 20.6169 116.89 18.7427C117.396 17.8776 117.468 16.7963 117.613 16.2196ZM111.111 4.68567C112.628 6.05532 113.422 7.13663 114.434 7.42498C114.94 7.56915 116.312 6.27158 116.529 5.40654C116.89 4.10897 116.601 2.45096 114.723 2.59514C113.784 2.59514 112.845 3.60436 111.111 4.68567Z" fill="#E2E2E2"/>
<path d="M0 18.8868C3.10648 17.8776 3.75667 15.6429 3.46769 12.6152C3.25096 9.5155 3.39545 6.34367 3.68442 3.24392C3.75667 2.45096 4.91257 1.29756 5.70724 1.15339C7.51334 0.865041 9.39167 1.0813 11.4867 1.0813C11.7757 6.41575 12.0647 11.5339 12.4259 16.6521C12.4981 17.5893 13.3651 18.3822 13.5096 19.3194C13.7263 20.6169 13.5096 21.9145 13.5096 23.2121C13.3651 23.2121 13.1483 23.2121 13.0038 23.2121C11.7757 21.0494 10.1141 19.7519 7.44109 19.9681C6.7909 20.0402 6.21295 19.9681 5.56276 19.9681C3.25096 19.8961 2.23955 20.8332 2.67301 23.2121C1.80609 23.2121 0.866923 23.2121 0 23.2121C0 21.6982 0 20.2565 0 18.8868ZM9.68064 18.238C9.68064 13.6966 9.75289 9.29924 9.6084 4.90192C9.6084 4.10896 8.4525 3.38809 7.80231 2.66722C7.07987 3.316 6.06846 3.82061 5.635 4.61357C5.20154 5.33444 5.20154 6.34367 5.20154 7.20871C5.1293 10.8131 5.20154 14.4895 5.20154 18.238C6.06846 18.238 7.58558 18.238 9.68064 18.238Z" fill="#E2E2E2"/>
<path d="M27.0914 23.14C26.1522 20.8332 25.7187 18.7427 28.6085 17.3009C29.3309 16.9405 29.6921 15.3546 29.6921 14.2733C29.8366 10.8852 29.8366 7.49707 29.6921 4.10897C29.6199 1.80218 30.4146 0.792964 32.7986 1.00923C34.3157 1.1534 35.8328 1.00923 37.6389 1.00923C37.8557 5.26237 38.0724 9.51551 38.4336 13.7687C38.5781 15.8592 37.7834 18.2381 40.2397 19.824C40.6009 20.0402 39.734 21.9866 39.445 23.14C39.3005 23.14 39.0838 23.14 38.9393 23.14C38.1446 21.0495 36.8442 19.824 34.4602 19.9682C33.7378 20.0402 33.0153 19.9682 32.2929 19.8961C29.9811 19.7519 28.3917 20.4728 28.6085 23.14C28.175 23.14 27.5971 23.14 27.0914 23.14ZM31.426 18.166C32.6541 18.166 34.099 18.166 35.9051 18.166C35.9051 13.6245 35.9773 9.29925 35.8328 4.97402C35.8328 4.18106 34.7492 3.46019 34.1712 2.73932C33.3766 3.31602 32.4374 3.82063 31.9317 4.5415C31.4982 5.26237 31.4982 6.27159 31.4982 7.13664C31.3537 10.741 31.426 14.4174 31.426 18.166Z" fill="#E2E2E2"/>
<path d="M150.05 2.16262C148.027 4.5415 145.86 6.84828 144.126 9.37134C143.62 10.1643 143.765 11.8223 144.198 12.7594C145.065 14.4895 146.438 16.0034 147.377 17.7334C147.955 18.7427 148.172 19.8961 148.244 21.1936C144.704 20.4007 143.548 17.6614 142.609 14.7779C142.392 14.7779 142.103 14.7779 141.886 14.7779C141.886 17.2288 141.886 19.6077 141.886 22.0587C141.525 22.1308 141.236 22.2029 140.875 22.2749C140.514 21.6982 139.936 21.1215 139.936 20.6169C139.936 14.5616 139.936 8.4342 140.008 2.37888C140.008 1.94636 140.442 1.51383 140.875 0.648788C142.826 3.3881 140.947 6.12741 141.959 9.29925C143.115 7.8575 143.909 6.7762 144.848 5.83906C146.51 4.18106 148.316 2.66723 150.05 1.08131C150.05 1.44175 150.05 1.80218 150.05 2.16262Z" fill="#E2E2E2"/>
<path d="M19.5058 0C21.6731 0.50461 23.7682 0.937133 25.9355 1.44174C26.0077 1.65801 26.0799 1.94635 26.1522 2.16262C24.924 2.45096 23.6959 3.02766 22.4678 3.02766C21.0951 3.02766 19.3613 2.09053 19.1446 4.32523C18.9278 6.41576 17.194 9.0109 20.4449 10.3806C20.8062 10.5247 21.1674 10.8852 22.1065 11.606C20.5894 12.2548 19.5058 12.7594 18.1331 13.3361C18.0609 13.9128 17.9164 14.6337 17.9164 15.4267C17.8442 18.8868 18.1331 19.1031 21.6731 19.3915C22.9735 19.4635 24.7796 18.5985 25.4298 21.4099C22.829 21.4099 20.4449 21.5541 18.0609 21.3378C17.5552 21.2657 16.7605 19.9682 16.7605 19.1752C16.6883 14.922 16.7605 10.5968 16.8328 6.27158C16.8328 4.18106 16.8328 2.09053 16.8328 0C17.6997 0 18.5666 0 19.5058 0Z" fill="#E2E2E2"/>
<path d="M92.6886 12.3269C93.411 9.29925 93.9167 6.27159 94.9281 3.3881C95.7228 1.1534 97.8178 0.648791 100.13 1.08131C102.441 1.51384 103.164 3.31602 103.381 5.26237C103.814 10.2364 102.947 15.1383 100.563 19.5356C99.8407 20.8332 97.8178 21.9866 96.373 21.9866C95.506 22.0587 94.0612 19.9681 93.7 18.5985C93.122 16.6521 93.3387 14.5616 93.1943 12.4711C92.9775 12.399 92.833 12.3269 92.6886 12.3269ZM96.0117 15.2825C96.0117 15.7871 95.8673 16.4359 96.0117 16.8684C96.373 17.8055 96.9509 18.5985 97.4566 19.5356C98.1791 18.8868 99.2627 18.3822 99.4072 17.6614C100.13 14.4895 100.635 11.2456 101.069 8.00168C101.141 7.42498 100.346 6.41576 99.8407 6.27159C99.335 6.12741 98.2513 6.84829 98.0346 7.3529C97.0954 9.87595 95.795 15.2104 96.0117 15.2825Z" fill="#E2E2E2"/>
<path d="M130.833 9.94803C129.388 12.8315 127.943 15.715 126.354 18.5985C125.704 19.824 124.765 20.9774 123.898 22.1308C123.537 20.7611 122.959 19.3914 122.886 18.0939C122.886 12.9757 123.031 7.8575 123.175 2.8114C123.175 2.2347 123.32 1.73009 123.753 1.1534C125.415 3.24392 124.403 5.6228 124.476 7.8575C124.62 10.2364 124.476 12.6153 124.476 14.9941C124.765 15.1383 124.981 15.2825 125.27 15.4267C125.921 14.5616 126.788 13.6966 127.221 12.6873C128.738 9.44342 130.039 6.12741 131.556 2.88349C131.917 2.09053 132.784 1.58592 133.362 0.937134C133.651 1.08131 133.867 1.22548 134.156 1.36966C134.156 8.07376 134.156 14.7779 134.156 21.6982C131.122 21.1215 131.556 18.7427 131.556 16.7242C131.556 14.6337 131.772 12.5432 131.917 10.4526C131.628 10.2364 131.267 10.0922 130.833 9.94803Z" fill="#E2E2E2"/>
<path d="M78.601 13.264C79.2512 10.3085 79.6125 7.2808 80.5516 4.39731C81.4908 1.58591 87.2703 -0.360441 89.7266 1.22548C90.2323 1.58591 90.6657 2.88348 90.449 3.46018C90.0878 4.39731 89.2931 5.69488 88.4984 5.91114C82.7912 7.20871 81.6353 8.43419 81.4185 14.3453C81.3463 15.5708 81.2741 16.8684 81.563 18.0939C82.0687 20.4728 83.6581 20.9774 85.3919 19.3194C85.6087 19.1031 85.6809 18.8147 85.8977 18.6706C86.7646 18.166 87.7037 17.7334 88.6429 17.3009C88.3539 18.4543 88.4262 19.824 87.776 20.6169C86.2589 22.4912 83.8026 22.9237 81.852 21.7703C80.5516 21.0494 79.6125 19.1752 79.1067 17.5893C78.6733 16.2917 79.0345 14.7779 79.0345 13.3361C78.8178 13.264 78.6733 13.264 78.601 13.264Z" fill="#E2E2E2"/>
<path d="M51.0762 1.1534C53.3158 1.1534 55.7721 1.08131 58.3006 1.22548C58.7341 1.22548 59.5287 2.23471 59.5287 2.8114C59.8177 8.07377 60.0344 13.3361 60.1789 18.6706C60.1789 19.4635 59.4565 20.2565 59.023 21.0495C58.5173 20.2565 57.5782 19.5356 57.5059 18.7427C57.3614 14.5616 57.5059 10.3085 57.5059 6.12741C57.5059 4.82984 57.6504 3.02766 55.6998 3.24393C54.8329 3.3881 53.677 4.90193 53.5325 5.91115C53.0991 9.0109 53.2435 12.1827 52.9546 15.2825C52.8101 16.9405 52.4489 18.6706 51.7987 20.1844C51.5097 20.8332 50.2093 21.1215 49.3424 21.3378C49.1257 21.4099 48.4032 20.689 48.4032 20.6169C48.8367 19.9681 49.3424 19.4635 49.7758 18.8148C50.426 17.8055 51.3652 16.7963 51.5097 15.715C51.8709 12.7594 51.9432 9.80386 51.8709 6.84828C51.9432 4.97402 51.3652 3.17184 51.0762 1.1534Z" fill="#E2E2E2"/>
<path d="M70.582 13.1919C67.2588 13.9849 66.3196 15.4987 67.331 18.5985C67.5478 19.3194 68.9926 19.824 70.0041 20.1844C71.16 20.6169 72.4603 20.8332 73.6162 21.1215C73.544 21.482 73.544 21.9145 73.4717 22.2749C71.3767 22.2749 69.2816 22.4191 67.1866 22.2028C66.6808 22.1308 65.9584 20.8332 65.8862 20.1123C65.7417 16.7963 65.8862 13.4803 65.8139 10.1643C65.8139 8.00167 65.525 5.91114 65.5972 3.74853C65.5972 2.88348 66.3196 1.29756 66.6809 1.29756C70.0763 1.44174 73.544 1.87426 76.9394 2.30678C76.9394 2.59513 77.0117 2.95557 77.0117 3.24392C76.2892 3.46018 75.5668 3.67644 74.8444 3.96479C73.1828 4.68566 71.2322 5.11818 69.9318 6.27158C67.0421 8.86671 67.1866 9.87593 70.2208 12.4711C70.3653 12.399 70.3653 12.6873 70.582 13.1919Z" fill="#E2E2E2"/>
</g>
<defs>
<clipPath id="clip0_1908_7478">
<rect width="150" height="35.567" fill="white"/>
</clipPath>
</defs>
</svg>
