<svg width="48" height="48" viewBox="0 0 48 48" fill="none" xmlns="http://www.w3.org/2000/svg">
<g clip-path="url(#clip0_1908_7510)">
<path d="M36.8646 30.6768C35.1353 30.6768 33.5109 30.2584 32.2794 29.5052C32.2532 29.4773 32.227 29.3657 32.227 29.282C32.2008 29.1704 32.1746 29.1146 32.1746 29.0867H32.2008C32.227 29.0589 32.2532 29.0589 32.2794 29.031C33.7467 28.1104 35.3187 27.6641 36.917 27.6641C38.3842 27.6641 39.9039 28.0546 41.4497 28.8078C41.4759 28.8357 41.5283 28.8357 41.5546 28.8636C41.5546 28.8636 41.5807 28.8636 41.5807 28.8915C41.5545 28.9473 41.5545 29.031 41.5283 29.1983C41.5021 29.3099 41.5021 29.4773 41.4759 29.5052C40.2183 30.2584 38.5938 30.6768 36.8646 30.6768Z" fill="white"/>
<path d="M36.8908 27.692C38.358 27.692 39.8515 28.0825 41.3973 28.8357C41.4235 28.8636 41.4497 28.8636 41.4759 28.8915C41.4497 28.9473 41.4497 29.0309 41.4235 29.1704C41.4235 29.2541 41.3973 29.3936 41.3711 29.4494C40.1659 30.2026 38.5414 30.5931 36.8384 30.5931C35.1091 30.5931 33.5109 30.1747 32.2794 29.4494C32.2532 29.4215 32.2532 29.3099 32.227 29.2541C32.2008 29.1704 32.2008 29.1146 32.1746 29.0867C32.2008 29.0867 32.2008 29.0588 32.227 29.0588C33.7205 28.1662 35.2925 27.692 36.8908 27.692ZM36.8908 27.6083C35.1615 27.6083 33.6157 28.1383 32.227 29.0031C32.1746 29.0309 32.1484 29.0588 32.096 29.0867C32.1484 29.1146 32.2008 29.5331 32.2532 29.561C33.5371 30.342 35.1877 30.7326 36.8646 30.7326C38.5414 30.7326 40.1921 30.342 41.4759 29.561C41.5283 29.5331 41.5545 28.9194 41.6069 28.8915C41.5545 28.8636 41.5021 28.8078 41.4497 28.7799C39.7991 27.9709 38.3056 27.6083 36.8908 27.6083Z" fill="#3B3938"/>
<path d="M35.4235 23.145C35.6331 23.1171 35.8689 23.0892 36.1047 23.0613C36.3144 23.0334 36.5502 23.0334 36.786 23.0334V27.5525C36.5502 27.5525 36.3144 27.5525 36.1047 27.5804C35.8689 27.6083 35.6593 27.6362 35.4235 27.6641V23.145Z" fill="#3B3938"/>
<path d="M36.7598 23.0892V27.4967C36.5502 27.4967 36.3406 27.4967 36.1309 27.5246C35.9213 27.5525 35.7117 27.5525 35.5021 27.5804V23.2008C35.7117 23.1729 35.9213 23.145 36.1309 23.1171C36.3144 23.1171 36.524 23.0892 36.7598 23.0892ZM36.8122 23.0055C36.5764 23.0055 36.3406 23.0055 36.1047 23.0334C35.8689 23.0613 35.6069 23.0892 35.3711 23.1171V27.7199C35.6069 27.692 35.8427 27.6641 36.1047 27.6362C36.3406 27.6083 36.5764 27.6083 36.8122 27.6083H36.8384L36.8122 23.0055C36.8384 23.0055 36.8122 23.0055 36.8122 23.0055Z" fill="#FFDF8B"/>
<path d="M33.9825 23.5076C34.1921 23.4239 34.4279 23.3681 34.6637 23.3123C34.8733 23.2565 35.1091 23.2008 35.3449 23.1729V27.6641C35.1091 27.692 34.8733 27.7478 34.6637 27.8035C34.4279 27.8593 34.2183 27.9151 33.9825 27.9988V23.5076Z" fill="#3B3938"/>
<path d="M35.2925 23.2286V27.6362C35.0829 27.6641 34.8471 27.7199 34.6375 27.7756C34.4279 27.8314 34.2183 27.8872 34.0349 27.943V23.5355C34.2445 23.4518 34.4541 23.396 34.6899 23.3402C34.8733 23.2844 35.0829 23.2565 35.2925 23.2286ZM35.3973 23.1171C35.1615 23.145 34.8995 23.2008 34.6637 23.2565C34.4279 23.3123 34.1659 23.396 33.9301 23.4797V28.0825C34.1659 27.9988 34.4017 27.9151 34.6637 27.8593C34.8995 27.8035 35.1353 27.7478 35.3973 27.7199V23.1171Z" fill="#FFDF8B"/>
<path d="M31.6768 29.4494C31.441 29.4494 31.1004 28.1104 31.0218 27.0225C30.9956 26.1298 31.2052 25.544 31.8078 24.8466C31.9912 24.6513 32.2008 24.4561 32.4628 24.2608V28.7799C32.2008 28.9752 31.9388 29.1704 31.7554 29.3936C31.703 29.4215 31.6768 29.4494 31.6768 29.4494Z" fill="#3B3938"/>
<path d="M32.4104 24.3724V28.752C32.1484 28.9473 31.9126 29.1425 31.703 29.3657C31.6768 29.3936 31.6768 29.3936 31.6768 29.3936C31.4934 29.3936 31.179 28.222 31.0742 27.0225C31.048 26.1577 31.2576 25.544 31.8602 24.9024C31.9912 24.7071 32.2008 24.5397 32.4104 24.3724ZM32.489 24.205C32.2008 24.4003 31.965 24.6234 31.7554 24.8466C31.1528 25.5161 30.917 26.1577 30.9432 27.0504C31.0218 27.9988 31.3362 29.5052 31.6506 29.5052C31.6768 29.5052 31.7292 29.4773 31.7554 29.4494C31.965 29.2262 32.2008 29.0031 32.489 28.8078V24.205Z" fill="#FFDF8B"/>
<path d="M32.5414 24.2329C32.62 24.1771 32.6724 24.1492 32.751 24.0934C32.9082 24.0097 33.0655 23.8982 33.2227 23.8145C33.4323 23.7029 33.6419 23.6192 33.8777 23.5355V28.0546C33.6419 28.1383 33.4061 28.2499 33.1703 28.3615C32.9868 28.4452 32.8296 28.5288 32.6724 28.6404C32.62 28.6683 32.5676 28.7241 32.5152 28.752V24.2329H32.5414Z" fill="#3B3938"/>
<path d="M33.8515 23.5913V27.9988C33.6157 28.0825 33.3799 28.1941 33.1703 28.2778C32.9868 28.3615 32.8296 28.4451 32.6724 28.5567C32.6462 28.5846 32.5938 28.6125 32.5676 28.6125V24.2608C32.62 24.205 32.6986 24.1771 32.751 24.1492C32.9082 24.0655 33.0654 23.9818 33.2227 23.8981C33.4323 23.7587 33.6419 23.675 33.8515 23.5913ZM33.9301 23.4797C33.6681 23.5634 33.4323 23.675 33.1965 23.7866C33.0392 23.8703 32.8558 23.9539 32.6986 24.0655C32.62 24.1213 32.5414 24.1771 32.4628 24.2329V28.8357C32.5414 28.7799 32.62 28.7241 32.6986 28.6683C32.8558 28.5846 33.013 28.473 33.1965 28.3894C33.4323 28.2778 33.6681 28.1662 33.9301 28.0825V23.4797Z" fill="#FFDF8B"/>
<path d="M38.2532 27.6641C38.0174 27.6362 37.8078 27.6083 37.572 27.5804C37.3362 27.5525 37.1266 27.5525 36.8908 27.5525V23.0334C37.1266 23.0334 37.3362 23.0334 37.572 23.0613C37.8078 23.0892 38.0436 23.1171 38.2532 23.145V27.6641Z" fill="#FFDF8B"/>
<path d="M36.917 23.0892C37.1266 23.0892 37.3362 23.0892 37.5458 23.1171C37.7554 23.145 37.965 23.1729 38.1746 23.2008V27.6083C37.965 27.5804 37.7554 27.5525 37.5458 27.5246C37.3362 27.4967 37.1266 27.4967 36.917 27.4967V23.0892ZM36.8384 23.0055V27.6083C37.0742 27.6083 37.31 27.6083 37.572 27.6362C37.8078 27.6641 38.0698 27.692 38.3056 27.7199V23.1171C38.0698 23.0892 37.834 23.0613 37.572 23.0334C37.31 23.0055 37.0742 23.0055 36.8384 23.0055Z" fill="#3B3938"/>
<path d="M39.5895 27.9988C39.4061 27.943 39.2226 27.8872 39.013 27.8314C38.7772 27.7756 38.5676 27.7199 38.3318 27.692V23.1729C38.5676 23.2008 38.7772 23.2565 39.013 23.3123C39.2226 23.3681 39.4061 23.4239 39.5895 23.4797V27.9988Z" fill="#FFDF8B"/>
<path d="M38.3842 23.2286C38.5938 23.2565 38.8034 23.3123 38.9868 23.3681C39.1702 23.4239 39.3536 23.4797 39.537 23.5355V27.943C39.3798 27.8872 39.1964 27.8314 39.0392 27.8035C38.8296 27.7478 38.62 27.692 38.3842 27.6641V23.2286ZM38.2794 23.1171V27.7199C38.5152 27.7478 38.7772 27.8035 39.013 27.8593C39.2226 27.9151 39.4322 27.9709 39.6418 28.0546V23.4518C39.4322 23.396 39.2226 23.3123 39.013 23.2565C38.7772 23.2008 38.5414 23.145 38.2794 23.1171Z" fill="#3B3938"/>
<path d="M42.5763 30.5094C42.4715 30.1189 42.2357 29.7562 41.9475 29.4215C41.7379 29.1983 41.5021 28.9752 41.2401 28.8078V24.3166L41.3187 24.3724C41.5283 24.5119 41.7117 24.6513 41.8951 24.7908C43.1528 25.9066 42.8122 29.1983 42.5763 30.5094Z" fill="#FFDF8B"/>
<path d="M41.2663 24.4003C41.4759 24.5398 41.6593 24.6792 41.8427 24.8466C43.0479 25.9066 42.7859 28.9473 42.5501 30.342C42.4191 30.0073 42.2357 29.7004 41.9737 29.3936C41.7903 29.1704 41.5545 28.9752 41.2663 28.7799V24.4003ZM41.1877 24.205V28.8078C41.4759 29.0031 41.7117 29.2262 41.9213 29.4494C42.2619 29.8399 42.4977 30.2584 42.6025 30.7047C42.7597 29.9515 43.3886 26.0461 41.9213 24.735C41.6855 24.5676 41.4759 24.4282 41.1877 24.205Z" fill="#3B3938"/>
<path d="M41.1353 28.7241C41.0829 28.6683 41.0043 28.6404 40.9519 28.5846C40.7947 28.5009 40.6375 28.4172 40.4803 28.3336C40.2183 28.1941 39.9563 28.0825 39.6681 27.9988V23.5076C39.9301 23.5913 40.1921 23.7029 40.4279 23.8423C40.5851 23.926 40.7423 24.0097 40.8733 24.0934C40.9519 24.1492 41.0305 24.205 41.1091 24.2608V28.7241H41.1353Z" fill="#FFDF8B"/>
<path d="M39.7205 23.5913C39.9563 23.675 40.1921 23.7866 40.4279 23.8981C40.6113 23.9818 40.7423 24.0655 40.8733 24.1492C40.9519 24.205 41.0305 24.2329 41.0829 24.2887V28.6683C41.0305 28.6404 41.0043 28.6125 40.9519 28.5846C40.8209 28.5009 40.6637 28.4172 40.4803 28.3336C40.2183 28.222 39.9563 28.1104 39.6942 27.9988V23.5913H39.7205ZM39.6418 23.4518V28.0546C39.9301 28.1662 40.2183 28.2778 40.4803 28.3893C40.6375 28.473 40.7947 28.5567 40.9519 28.6404C41.0567 28.6962 41.1353 28.752 41.2139 28.8078V24.205C41.1353 24.1492 41.0305 24.0934 40.9519 24.0376C40.7947 23.9539 40.6375 23.8702 40.4803 23.7866C40.1921 23.6471 39.9301 23.5355 39.6418 23.4518Z" fill="#3B3938"/>
<path d="M37.5982 30.621C37.834 30.5931 38.0436 30.5931 38.2794 30.5373C38.5152 30.5094 38.7248 30.4536 38.9606 30.4258V35.447C38.7248 35.5028 38.5152 35.5307 38.2794 35.5586C38.0698 35.5865 37.834 35.6144 37.5982 35.6423V30.621Z" fill="#3B3938"/>
<path d="M38.9083 30.4815V35.3912C38.6986 35.447 38.489 35.4749 38.2532 35.5028C38.0436 35.5307 37.834 35.5586 37.6244 35.5586V30.6489C37.834 30.621 38.0698 30.621 38.2794 30.5931C38.5152 30.5652 38.7248 30.5094 38.9083 30.4815ZM39.0131 30.37C38.7772 30.4258 38.5414 30.4537 38.2794 30.5094C38.0436 30.5373 37.8078 30.5652 37.5458 30.5931V35.698C37.7816 35.6701 38.0436 35.6701 38.2794 35.6144C38.5152 35.5865 38.7772 35.5307 39.0131 35.4749V30.37Z" fill="#FFDF8B"/>
<path d="M41.9475 29.1425C42.2095 28.9473 42.4716 28.6962 42.655 28.473C42.9694 28.1104 43.179 27.692 43.31 27.2735V31.7089C43.31 32.3226 43.0742 32.9364 42.6026 33.4943C42.4192 33.7174 42.2095 33.9127 41.9475 34.108V29.1425Z" fill="#3B3938"/>
<path d="M43.2576 27.5525V31.7089C43.2576 32.3226 43.0218 32.9085 42.5764 33.4664C42.4192 33.6616 42.2358 33.8569 41.9999 34.0243V29.1425C42.262 28.9473 42.4978 28.7241 42.7074 28.473C42.9432 28.1941 43.1266 27.8593 43.2576 27.5525ZM43.3624 26.5761C43.3624 27.2177 43.1266 27.8314 42.6288 28.4173C42.4192 28.6683 42.1834 28.8915 41.8951 29.0867V34.1917C42.1834 33.9685 42.4192 33.7453 42.6288 33.4943C43.1004 32.9363 43.3362 32.2947 43.3362 31.681L43.3624 26.5761Z" fill="#FFDF8B"/>
<path d="M39.0655 30.3979C39.2751 30.3421 39.4847 30.3142 39.6681 30.2305C39.9301 30.1468 40.1659 30.0631 40.4017 29.9794V34.9727C40.1659 35.0843 39.9039 35.168 39.6419 35.2517C39.4585 35.3075 39.2489 35.3633 39.0655 35.3912V30.3979Z" fill="#3B3938"/>
<path d="M40.3755 30.0631V34.9728C40.1397 35.0565 39.8777 35.168 39.6419 35.2238C39.4847 35.2796 39.3013 35.3075 39.1179 35.3633V30.4536C39.3275 30.3979 39.5109 30.37 39.6943 30.3142C39.9039 30.2305 40.1397 30.1468 40.3755 30.0631ZM40.4541 29.9236C40.1921 30.0352 39.9301 30.1189 39.6419 30.2026C39.4323 30.2584 39.2227 30.3142 38.9868 30.37V35.4749C39.1965 35.4191 39.4323 35.3633 39.6419 35.3075C39.9301 35.2238 40.1921 35.1401 40.4541 35.0286V29.9236Z" fill="#FFDF8B"/>
<path d="M40.5065 29.9515C40.7423 29.8399 40.9781 29.7284 41.2139 29.6168C41.3187 29.561 41.3973 29.5052 41.5022 29.4494C41.6332 29.3657 41.7642 29.282 41.869 29.1983V34.1917C41.738 34.3033 41.5808 34.3869 41.4235 34.4985C41.3449 34.5543 41.2401 34.6101 41.1615 34.638C40.9519 34.7496 40.7423 34.8612 40.5065 34.9449V29.9515Z" fill="#3B3938"/>
<path d="M41.8166 29.282V34.1638C41.6856 34.2754 41.5546 34.359 41.3973 34.4427C41.3187 34.4985 41.2139 34.5543 41.1353 34.5822C40.9519 34.6938 40.7423 34.7775 40.5327 34.8612V29.9515C40.7685 29.8399 41.0043 29.7563 41.2139 29.6168C41.3187 29.561 41.3973 29.5052 41.5021 29.4494C41.607 29.4215 41.7118 29.3657 41.8166 29.282ZM41.8952 29.1147C41.7642 29.2262 41.607 29.3099 41.4497 29.4215C41.3711 29.4773 41.2663 29.5331 41.1615 29.5889C40.9257 29.7284 40.6899 29.8399 40.4279 29.9236V35.0285C40.6899 34.917 40.9257 34.8054 41.1615 34.6938C41.2401 34.638 41.3449 34.5822 41.4235 34.5264C41.5808 34.4148 41.738 34.3312 41.8952 34.2196V29.1147Z" fill="#FFDF8B"/>
<path d="M43.179 27.1341V31.709C43.179 32.2948 42.9432 32.8806 42.524 33.4106C42.3406 33.6338 42.1047 33.8569 41.8427 34.0801C41.7117 34.1917 41.5545 34.3033 41.3973 34.3869C41.3187 34.4427 41.2139 34.4985 41.1353 34.5264C40.9257 34.638 40.6637 34.7496 40.4279 34.8612C40.1659 34.9728 39.9039 35.0564 39.6419 35.1401C39.4323 35.1959 39.2227 35.2517 39.013 35.3075C38.7772 35.3633 38.5414 35.3912 38.3056 35.447C38.0698 35.4749 37.834 35.5028 37.5982 35.5307L36.6026 35.4191L36.6288 30.5931L37.7292 30.5094C39.1441 30.3979 40.6113 29.812 42.0261 28.7241L42.0785 28.6683C42.1048 28.6683 42.1047 28.6404 42.1047 28.6404L43.179 27.1341ZM43.3624 26.5761L41.9475 28.4452L41.8951 28.5009C40.6375 29.4494 39.2227 30.1189 37.703 30.2584L36.4454 30.3421L36.4192 35.5028L37.5982 35.6423C37.834 35.6144 38.096 35.6144 38.3318 35.5586C38.5676 35.5307 38.8296 35.4749 39.0654 35.4191C39.2751 35.3633 39.5109 35.3075 39.7205 35.2517C40.0087 35.168 40.2707 35.0843 40.5327 34.9728C40.7947 34.8612 41.0305 34.7496 41.2663 34.638C41.3449 34.5822 41.4497 34.5264 41.5283 34.4706C41.6855 34.3591 41.8427 34.2754 41.9999 34.1638C42.2882 33.9406 42.524 33.7175 42.7336 33.4664C43.2052 32.9085 43.441 32.2669 43.441 31.6532L43.3624 26.5761Z" fill="#3B3938"/>
<path d="M34.6113 35.4191C34.3755 35.3633 34.1659 35.3075 33.9563 35.2517C33.7205 35.168 33.4847 35.0843 33.2751 35.0007V29.9794C33.4847 30.0631 33.7205 30.1468 33.9301 30.2026C34.1397 30.2584 34.3755 30.3421 34.6113 30.3979V35.4191Z" fill="#FFDF8B"/>
<path d="M33.3012 30.0352C33.5109 30.1189 33.6943 30.1747 33.9039 30.2584C34.1135 30.3142 34.3493 30.3699 34.5589 30.4257V35.3354C34.3493 35.2796 34.1397 35.2238 33.9563 35.168C33.7205 35.1122 33.5109 35.0285 33.3012 34.9449V30.0352ZM33.2226 29.8957V35.0006C33.4585 35.0843 33.6943 35.1959 33.9563 35.2517C34.1921 35.3354 34.4279 35.3912 34.6899 35.447V30.3421C34.4541 30.2863 34.1921 30.2305 33.9563 30.1468C33.6943 30.091 33.4585 30.0073 33.2226 29.8957Z" fill="#3B3938"/>
<path d="M36.0785 35.6143C35.8427 35.5865 35.6331 35.5865 35.3973 35.5307C35.1615 35.5028 34.9257 35.447 34.7161 35.4191V30.3979C34.9257 30.4536 35.1615 30.4815 35.3973 30.5094C35.6331 30.5373 35.8427 30.5652 36.0785 30.5931V35.6143Z" fill="#FFDF8B"/>
<path d="M34.7423 30.4815C34.9519 30.5373 35.1615 30.5652 35.3711 30.5931C35.5807 30.621 35.7903 30.6489 36.0261 30.6768V35.5864C35.8165 35.5586 35.6069 35.5586 35.3973 35.5307C35.1877 35.5028 34.9519 35.4749 34.7423 35.4191V30.4815ZM34.6637 30.3421V35.4749C34.8995 35.5307 35.1353 35.5586 35.3973 35.6143C35.6331 35.6422 35.8689 35.6701 36.1309 35.698V30.5931C35.8951 30.5652 35.6331 30.5373 35.3973 30.5094C35.1353 30.4536 34.8995 30.3978 34.6637 30.3421Z" fill="#3B3938"/>
<path d="M31.7292 34.158H31.868L31.7611 34.0695C31.7584 34.0672 31.7557 34.065 31.753 34.0628V29.0868V29.0617L31.7329 29.0467C31.474 28.8537 31.2411 28.6333 31.034 28.3852L31.034 28.3852L31.0334 28.3845C30.723 28.0265 30.4916 27.6149 30.3891 27.2056L30.2906 27.2178V31.6532C30.2906 32.3086 30.5581 32.9611 31.0358 33.5263C31.211 33.7394 31.4325 33.9269 31.653 34.1098V34.158H31.703H31.7292Z" fill="#3B3938" stroke="#3B3938" stroke-width="0.1"/>
<path d="M30.4192 27.4967C30.5502 27.8314 30.7336 28.1383 30.9956 28.4452C31.2052 28.6683 31.441 28.9194 31.703 29.1146V33.9964C31.4934 33.829 31.31 33.6337 31.1266 33.4385C30.655 32.8806 30.4192 32.2669 30.4192 31.6532V27.4967ZM30.3143 26.5482V31.6532C30.3143 32.2948 30.5502 32.9364 31.048 33.5222C31.2576 33.7732 31.4934 33.9964 31.7816 34.1917V29.0868C31.4934 28.8636 31.2576 28.6404 31.048 28.3894C30.5502 27.8314 30.3143 27.1898 30.3143 26.5482Z" fill="#3B3938"/>
<path d="M33.1703 34.9449C32.9344 34.8612 32.7248 34.7496 32.5152 34.638C32.4366 34.5822 32.3318 34.5264 32.2532 34.4985C32.096 34.4148 31.9388 34.3033 31.8078 34.1917V29.1705C31.9388 29.2541 32.0698 29.3657 32.227 29.4494C32.3056 29.5052 32.3842 29.561 32.489 29.5889C32.6986 29.7005 32.9344 29.84 33.1965 29.9236V34.9449H33.1703Z" fill="#FFDF8B"/>
<path d="M31.8602 29.2541C31.965 29.3378 32.096 29.4215 32.2008 29.4773C32.2794 29.5331 32.358 29.5889 32.4628 29.6168C32.6724 29.7284 32.9082 29.8399 33.144 29.9515V34.8612C32.9344 34.7775 32.751 34.6659 32.5414 34.5822C32.4628 34.5264 32.358 34.4985 32.2794 34.4427C32.1222 34.3591 31.9912 34.2475 31.8602 34.1638V29.2541ZM31.7554 29.0868V34.2196C31.9126 34.3312 32.0436 34.4427 32.227 34.5264C32.3056 34.5822 32.4104 34.638 32.489 34.6659C32.7248 34.8054 32.9606 34.917 33.2226 35.0007V29.8957C32.9606 29.7842 32.7248 29.6726 32.489 29.5331C32.4104 29.4773 32.3318 29.4494 32.2532 29.3936C32.0698 29.3099 31.9126 29.1983 31.7554 29.0868Z" fill="#3B3938"/>
<path d="M36.8384 35.6423C36.6026 35.6423 36.393 35.6423 36.1572 35.6144V30.5931C36.393 30.621 36.6026 30.621 36.8384 30.621C37.0742 30.621 37.31 30.621 37.5196 30.5931V35.6144C37.2838 35.6423 37.0742 35.6423 36.8384 35.6423Z" fill="#FFDF8B"/>
<path d="M36.2096 30.6489C36.4192 30.6489 36.6288 30.6768 36.8384 30.6768H36.8646C37.0742 30.6768 37.2838 30.6768 37.4672 30.6489V35.5586C37.2576 35.5586 37.048 35.5865 36.8384 35.5865C36.6288 35.5865 36.4192 35.5865 36.2096 35.5586V30.6489ZM36.1048 30.5652V35.6701C36.3406 35.698 36.5764 35.698 36.8384 35.698C37.0742 35.698 37.31 35.698 37.5458 35.6701V30.5652C37.31 30.5931 37.0742 30.5931 36.8384 30.5931H36.8122C36.6026 30.5931 36.3406 30.5652 36.1048 30.5652Z" fill="#3B3938"/>
<path d="M41.4235 23.7308C38.882 22.1686 34.7423 22.1686 32.2008 23.7308C29.6593 25.2929 29.6855 27.8315 32.227 29.4215C34.7685 30.9837 38.9082 30.9837 41.4497 29.4215C43.9912 27.8315 43.9912 25.2929 41.4235 23.7308ZM40.9519 29.0868C38.6986 30.4815 35.0305 30.4815 32.751 29.0868C30.4715 27.692 30.4715 25.4324 32.7248 24.0376C34.9781 22.6428 38.6462 22.6428 40.9257 24.0376C43.179 25.4324 43.2052 27.692 40.9519 29.0868Z" fill="white"/>
<path d="M32.2006 29.4919L32.201 29.4921C33.4944 30.279 35.1808 30.671 36.8646 30.671C38.5482 30.671 40.2347 30.2791 41.5022 29.492C42.7431 28.7329 43.4386 27.6868 43.4386 26.5761C43.4386 25.4371 42.7426 24.4191 41.4761 23.6325L41.4759 23.6324C40.1955 22.8454 38.509 22.4534 36.8253 22.4534C35.1416 22.4534 33.4551 22.8453 32.1747 23.6324C30.9336 24.3914 30.2381 25.4375 30.2381 26.5482C30.2381 27.6872 30.9341 28.7053 32.2006 29.4919ZM32.3056 29.3231L32.3055 29.3231C31.0829 28.5753 30.4168 27.5849 30.4168 26.5482C30.4168 25.5113 31.0571 24.5488 32.2534 23.8011C33.5013 23.0261 35.1684 22.6371 36.8122 22.6371C38.4821 22.6371 40.123 23.0261 41.371 23.8011L41.3712 23.8013C42.5938 24.5491 43.26 25.5395 43.26 26.5761C43.26 27.6131 42.6196 28.5757 41.4232 29.3233C40.1753 30.0983 38.5279 30.4873 36.8744 30.4873C35.2209 30.4873 33.5667 30.0983 32.3056 29.3231ZM32.6985 23.9393L32.6985 23.9393L32.6981 23.9396C31.589 24.6424 30.9718 25.5488 30.9718 26.5482C30.9718 27.5479 31.5893 28.4543 32.7247 29.1572C33.8609 29.8604 35.3639 30.2247 36.8646 30.2247C38.3648 30.2247 39.842 29.8885 41.0047 29.157L41.0049 29.1569C42.1139 28.454 42.7312 27.5477 42.7312 26.5482C42.7312 25.5486 42.1137 24.6422 40.9782 23.9393L40.978 23.9392C39.8287 23.2359 38.3257 22.8857 36.8285 22.8857C35.3315 22.8857 33.8349 23.2359 32.6985 23.9393ZM32.7775 24.108L32.7778 24.1078C33.868 23.4169 35.3513 23.0834 36.8122 23.0834C38.298 23.0834 39.7559 23.4443 40.8735 24.1082C41.9392 24.7725 42.5264 25.6235 42.5264 26.5482C42.5264 27.4737 41.9644 28.3247 40.8993 28.9885C39.7823 29.6799 38.3182 30.0271 36.8515 30.0271C35.3847 30.0271 33.9206 29.6799 32.8036 28.9885C31.7377 28.3241 31.1504 27.473 31.1504 26.5482C31.1504 25.6227 31.7123 24.7718 32.7775 24.108Z" fill="#3B3938" stroke="#3B3938" stroke-width="0.1"/>
<path d="M30.3167 29.5889H30.3167L30.3168 29.5901C30.3435 30.6443 31.0123 31.6621 32.2533 32.4211C33.494 33.1799 35.1278 33.6001 36.8646 33.6001C38.6013 33.6001 40.2352 33.1799 41.4758 32.4211L41.4762 32.4208C42.6903 31.6621 43.36 30.672 43.36 29.5889V29.0031L43.2619 28.9895C43.0304 29.811 42.4118 30.5551 41.4495 31.1644C40.2274 31.9118 38.6125 32.3284 36.8646 32.3284C35.1164 32.3284 33.4752 31.9116 32.2531 31.1642L32.2531 31.1642L32.2524 31.1637C31.2654 30.583 30.6465 29.8114 30.4149 28.9895L30.3167 29.0031V29.5889Z" fill="#3B3938" stroke="#3B3938" stroke-width="0.1"/>
<path d="M30.4192 29.282C30.7074 30.0352 31.31 30.7047 32.2008 31.2626C33.4585 32.0437 35.1091 32.4621 36.8646 32.4621C38.62 32.4621 40.2707 32.0437 41.5021 31.2626C42.3668 30.7326 42.9694 30.0631 43.2576 29.3099V29.5889C43.2576 30.621 42.6026 31.5974 41.3973 32.3505C40.1921 33.1037 38.5676 33.5222 36.8384 33.5222C35.1091 33.5222 33.4847 33.1037 32.2794 32.3505C31.0742 31.5974 30.4192 30.621 30.3929 29.5889V29.282H30.4192ZM30.3143 28.3336V29.5889C30.3143 30.621 30.9694 31.6532 32.227 32.4342C33.5109 33.2153 35.1615 33.6059 36.8384 33.6059C38.5152 33.6059 40.1659 33.2153 41.4497 32.4342C42.7074 31.6532 43.3362 30.621 43.3362 29.5889V28.3615C43.3362 29.3936 42.7074 30.3978 41.4497 31.1789C40.1921 31.96 38.5152 32.3505 36.8384 32.3505C35.1615 32.3505 33.5109 31.96 32.227 31.1789C30.9694 30.3699 30.3143 29.3378 30.3143 28.3336Z" fill="#3B3938"/>
<path d="M41.0567 34.7217V28.6962L42.2096 12.7399C42.3144 12.433 42.4454 12.182 42.6026 12.0146C42.8122 11.7914 43.1004 11.6798 43.4148 11.6798C43.7816 11.6798 44.1484 11.8472 44.3842 12.1262C46.4017 14.5531 46.8209 16.4779 46.8995 16.98C45.9563 16.1431 45.1965 15.7247 44.6201 15.7247C43.7554 15.7247 43.6244 16.7011 43.6244 16.7011V28.1383L42.1572 35.4191L41.0567 34.7217ZM43.5196 13.0746C43.3362 13.0746 43.2314 13.2141 43.2314 13.4094C43.2314 13.7162 43.4672 14.1068 43.7292 14.2741C43.834 14.3299 43.9126 14.3578 43.9912 14.3578C44.1746 14.3578 44.2794 14.2183 44.2794 14.0231C44.2794 13.7162 44.0436 13.3257 43.7816 13.1583C43.703 13.1025 43.5982 13.0746 43.5196 13.0746Z" fill="#FFDF8B"/>
<path d="M44.2919 12.1841L44.2918 12.1841L44.2934 12.1861C46.0211 14.2586 46.5685 15.9674 46.74 16.7044C46.336 16.3599 45.9587 16.091 45.6133 15.9039C45.2361 15.6996 44.8936 15.591 44.5939 15.591C44.1126 15.591 43.8363 15.8563 43.6827 16.1216C43.6062 16.2536 43.5598 16.3861 43.5324 16.487C43.5186 16.5376 43.5096 16.5806 43.504 16.612C43.5012 16.6278 43.4992 16.6407 43.498 16.6504C43.4969 16.6585 43.4958 16.6675 43.4958 16.6732V28.1054L42.0438 35.2553L41.1329 34.6938V28.7259L42.2852 12.7778C42.3874 12.4805 42.5145 12.2645 42.6665 12.0753C42.8659 11.8639 43.1399 11.7577 43.4148 11.7577C43.741 11.7577 44.0925 11.9187 44.2919 12.1841ZM46.9781 17.0637L47.0279 17.0594L47.0279 17.0593L47.0279 17.0589L47.0278 17.0575L47.0273 17.0524L47.0252 17.0331C47.0232 17.0161 47.02 16.9911 47.0151 16.9585C47.0053 16.8931 46.9887 16.797 46.9615 16.6729C46.9069 16.4248 46.8096 16.065 46.6384 15.6162C46.2959 14.7186 45.6578 13.4655 44.4751 12.0385L44.4752 12.0384L44.4731 12.0361C44.1767 11.7206 43.7972 11.5462 43.4148 11.5462C43.0873 11.5462 42.7857 11.6629 42.5399 11.9246C42.3772 12.0978 42.2164 12.3556 42.1095 12.697L42.1081 12.6966L42.1073 12.7084L40.9545 28.6926L40.9543 28.6926V28.6962V34.7496C40.9543 34.7671 40.9635 34.7833 40.9785 34.7924L42.1313 35.4898C42.1452 35.4982 42.1624 35.4993 42.1773 35.4928C42.1922 35.4862 42.2029 35.4729 42.2062 35.4569L43.6996 28.0925L43.7006 28.0927V28.0825V16.6492L43.7016 16.6434C43.7026 16.6372 43.7044 16.6279 43.7068 16.6159C43.7118 16.5918 43.7199 16.5572 43.7322 16.5155C43.7567 16.432 43.7978 16.3211 43.8638 16.2106C43.9953 15.9908 44.2234 15.7747 44.6201 15.7747C45.0978 15.7747 45.8191 16.0976 46.9449 17.101C46.9601 17.1147 46.9822 17.1176 47.0005 17.1084C47.0188 17.0993 47.0297 17.0799 47.028 17.0595L46.9781 17.0637ZM43.8591 13.0872L43.8592 13.0872L43.8575 13.0863C43.7476 13.0277 43.6347 12.9967 43.5458 12.9967C43.4266 12.9967 43.3274 13.0448 43.2587 13.126C43.1908 13.2064 43.1552 13.3162 43.1552 13.4373C43.1552 13.6157 43.2178 13.8057 43.3161 13.9718C43.4145 14.138 43.5512 14.2843 43.7041 14.3732L43.7041 14.3732L43.7057 14.3741C43.8144 14.4319 43.9013 14.4636 44.0174 14.4636C44.1367 14.4636 44.2359 14.4155 44.3045 14.3343C44.3725 14.2539 44.408 14.1441 44.408 14.0231C44.408 13.8447 44.3455 13.6546 44.2471 13.4885C44.1488 13.3223 44.0121 13.176 43.8591 13.0872ZM43.8106 14.1776L43.8106 14.1775L43.8085 14.1762C43.6849 14.0972 43.5654 13.9705 43.4768 13.8292C43.388 13.6873 43.3338 13.5361 43.3338 13.4094C43.3338 13.3204 43.3577 13.2557 43.3914 13.2143C43.4246 13.1735 43.4693 13.1525 43.5196 13.1525C43.5857 13.1525 43.6544 13.1758 43.7265 13.227L43.7265 13.227L43.7285 13.2283C43.8522 13.3073 43.9717 13.434 44.0602 13.5754C44.1491 13.7173 44.2032 13.8684 44.2032 13.9952C44.2032 14.0997 44.1787 14.1629 44.1468 14.1994C44.1158 14.235 44.072 14.252 44.0174 14.252C43.9514 14.252 43.8827 14.2287 43.8106 14.1776Z" fill="#3B3938" stroke="#3B3938" stroke-width="0.1" stroke-linejoin="round"/>
<path d="M43.6506 16.6732V28.1104L42.1572 35.4749L43.2052 34.8333L44.6987 27.4688V16.0316C44.6987 16.0316 44.7249 15.92 44.7773 15.7526C43.7816 15.641 43.6506 16.6732 43.6506 16.6732Z" fill="#3B3938"/>
<path d="M46.9548 17.0146L46.9653 17.093L47.0316 17.0498L47.9748 16.4361L48.0005 16.4194L47.9973 16.389C47.9701 16.1287 47.6259 14.055 45.4446 11.4248L45.4446 11.4248L45.4443 11.4244C45.2003 11.1358 44.8726 10.9603 44.4891 10.9603C44.2741 10.9603 44.0853 11.0166 43.8988 11.1277H43.8602H43.8461L43.8341 11.1351L43.1528 11.5535L43.1957 11.6433C43.2648 11.6188 43.3344 11.6183 43.441 11.6183C43.8198 11.6183 44.1715 11.7794 44.397 12.0729L44.397 12.073L44.3981 12.0743C46.514 14.633 46.9035 16.6326 46.9548 17.0146Z" fill="#3B3938" stroke="#3B3938" stroke-width="0.1"/>
<path d="M44.4891 11.0661C44.8297 11.0661 45.1441 11.2335 45.3799 11.4846C47.476 14.0231 47.8428 16.0037 47.8952 16.3663L47.0305 16.8963C46.9519 16.3663 46.5065 14.4415 44.4629 11.9867C44.2008 11.6798 43.834 11.4846 43.441 11.4846C43.4148 11.4846 43.4148 11.4846 43.3886 11.4846L43.8602 11.2056L43.8864 11.2335L43.9388 11.2056C44.096 11.1219 44.2794 11.0661 44.4891 11.0661ZM44.4891 10.9824C44.2794 10.9824 44.0698 11.0382 43.8864 11.1498L43.8602 11.1219L42.8122 11.7635L42.8384 11.7914C43.0218 11.6798 43.2314 11.624 43.441 11.624C43.7816 11.624 44.1484 11.7914 44.4104 12.0704C46.7685 14.9157 46.9519 17.0637 46.9519 17.0637L48 16.4221C48 16.4221 47.8166 14.2741 45.4585 11.4288C45.1965 11.1498 44.8559 10.9824 44.4891 10.9824Z" fill="#3B3938"/>
<path d="M3.95626 11.094C3.77285 11.094 3.58945 10.9267 3.58945 10.7035V8.0534C3.58945 6.65861 4.29687 5.34752 5.42351 4.65012L9.32744 2.25109C9.53705 2.11162 9.79906 2.05582 10.0349 2.05582C10.2969 2.05582 10.5327 2.13951 10.7423 2.25109C11.2663 2.53005 11.5283 3.03217 11.5283 3.59009V6.29597C11.5283 6.49124 11.3711 6.68651 11.1615 6.68651C10.9519 6.68651 10.7947 6.51913 10.7947 6.29597V3.59009C10.7947 3.31113 10.6637 3.06007 10.4279 2.92059C10.3493 2.8369 10.2183 2.80901 10.0873 2.80901C9.95626 2.80901 9.82526 2.8369 9.72046 2.92059L5.81652 5.31962C4.89949 5.87753 4.32307 6.93757 4.32307 8.0534V10.7035C4.32307 10.9267 4.16587 11.094 3.95626 11.094Z" fill="white"/>
<path d="M10.8231 2.18202C10.6301 2.03599 10.358 1.95003 10.0873 1.95003C9.81377 1.95003 9.56918 2.03761 9.32819 2.18016L9.32818 2.18016L9.32759 2.18052L5.39763 4.57944C4.22856 5.28666 3.51325 6.64264 3.51325 8.0534V10.7035C3.51325 10.9513 3.71613 11.1719 3.95626 11.1719C4.19639 11.1719 4.39927 10.9513 4.39927 10.7035V8.0534C4.39927 6.95369 4.9415 5.9384 5.84251 5.39023L5.8427 5.39011L9.7453 2.9919C9.84953 2.93654 9.97019 2.8869 10.0611 2.8869C10.1583 2.8869 10.2771 2.91297 10.3705 2.98756L10.3704 2.9877L10.374 2.99011C10.5701 3.12063 10.6923 3.32842 10.6923 3.59009V6.29597C10.6923 6.54375 10.8952 6.7644 11.1353 6.7644C11.3754 6.7644 11.5783 6.54375 11.5783 6.29597V3.59009C11.5783 2.98829 11.2824 2.47057 10.8231 2.18202ZM10.0873 2.70321C9.94861 2.70321 9.80802 2.73291 9.66778 2.82238L5.73807 5.22115L5.73774 5.22135C4.77925 5.81664 4.19447 6.89307 4.19447 8.0534V10.7035C4.19447 10.8741 4.08295 10.9882 3.93006 10.9882C3.77717 10.9882 3.66565 10.8741 3.66565 10.7035V8.0534C3.66565 6.67506 4.36478 5.40879 5.47525 4.7489L5.47526 4.7489L5.47589 4.74851L9.3785 2.3503C9.63693 2.21287 9.86377 2.13372 10.0873 2.13372C10.3144 2.13372 10.5412 2.18726 10.7687 2.3217C11.1991 2.59149 11.4521 3.04949 11.4521 3.56219V6.26807C11.4521 6.43873 11.3406 6.55282 11.1877 6.55282C11.0348 6.55282 10.9233 6.43873 10.9233 6.26807V3.59009C10.9233 3.2644 10.7559 2.99914 10.5092 2.82402L10.5093 2.82398L10.5072 2.82266C10.3668 2.73297 10.2261 2.70321 10.0873 2.70321Z" fill="#3B3938" stroke="#3B3938" stroke-width="0.1"/>
<path d="M17.4759 20.8296C17.9213 20.8017 18.3929 20.7459 18.8384 20.6901C19.2838 20.6344 19.7292 20.5507 20.1746 20.467V36.7302C19.7292 36.8139 19.2838 36.8975 18.8122 36.9812C18.3667 37.037 17.9213 37.0928 17.4759 37.1207V20.8296Z" fill="#FFDF8B"/>
<path d="M20.0698 20.5786V36.6465C19.6506 36.7302 19.2314 36.8139 18.786 36.8696C18.3929 36.9254 17.9737 36.9812 17.5545 37.0091V20.9412C17.9737 20.9133 18.4191 20.8575 18.8384 20.8017C19.2576 20.7459 19.6768 20.6623 20.0698 20.5786ZM20.2532 20.3554C19.7816 20.467 19.31 20.5507 18.8122 20.6065C18.3405 20.6623 17.8689 20.718 17.3711 20.7459V37.2044C17.8427 37.1765 18.3405 37.1207 18.8122 37.0649C19.2838 37.0091 19.7816 36.9254 20.2532 36.8139V20.3554Z" fill="#FFDF8B"/>
<path d="M28.6375 14.8042L28.6113 29.3657C28.6113 30.5652 28.1397 31.7647 27.2488 32.8248C26.9344 33.2153 26.5676 33.578 26.1484 33.9406V17.9843C26.6724 17.5658 27.144 17.1195 27.537 16.6732C28.0349 16.0595 28.4017 15.4458 28.6375 14.8042ZM28.8209 12.9072C28.8209 14.1625 28.3493 15.39 27.406 16.5337C27.013 17.0079 26.5414 17.4542 25.965 17.8727V34.3312C26.5152 33.9127 27.013 33.4385 27.406 32.9643C28.3493 31.8484 28.7947 30.621 28.8209 29.3657V12.9072Z" fill="#FFDF8B"/>
<path d="M20.358 20.4391C20.7772 20.3554 21.1702 20.2438 21.5632 20.1322C22.0611 19.9928 22.5589 19.8254 23.0305 19.6301V35.8933C22.5327 36.0886 22.0349 36.2839 21.5108 36.4233C21.144 36.5349 20.751 36.6465 20.358 36.7302V20.4391Z" fill="#FFDF8B"/>
<path d="M22.9257 19.7417V35.7817C22.4541 35.977 21.9563 36.1444 21.4846 36.2838C21.144 36.3954 20.8034 36.4791 20.4366 36.5628V20.5228C20.8296 20.4391 21.2226 20.3275 21.5895 20.2159C22.0349 20.0764 22.4803 19.937 22.9257 19.7417ZM23.1091 19.4906C22.5851 19.7138 22.0611 19.8812 21.5108 20.0485C21.0916 20.1601 20.6724 20.2717 20.227 20.3833V36.8418C20.6462 36.7581 21.0916 36.6465 21.5108 36.507C22.0611 36.3396 22.5851 36.1723 23.1091 35.9491V19.4906Z" fill="#FFDF8B"/>
<path d="M23.2139 19.5464C23.6855 19.3512 24.1571 19.128 24.6026 18.8769C24.786 18.7653 24.9694 18.6817 25.1528 18.5701C25.4148 18.4027 25.6506 18.2353 25.8864 18.0679V34.2753C25.6244 34.4706 25.3362 34.6938 25.0218 34.8612C24.8646 34.9727 24.6812 35.0564 24.4978 35.168C24.0785 35.3912 23.6593 35.6143 23.1877 35.8096V19.5464H23.2139Z" fill="#FFDF8B"/>
<path d="M28.6637 13.5209L28.6375 29.3936C28.6375 30.5931 28.1659 31.7926 27.275 32.8527C26.882 33.3269 26.4104 33.7732 25.8864 34.1917C25.5982 34.4148 25.31 34.6101 24.9956 34.8054C24.8384 34.8891 24.6811 35.0006 24.4715 35.1122C24.0261 35.3633 23.5545 35.5864 23.0567 35.7817C22.5589 36.0049 22.0087 36.1723 21.4846 36.3396C21.0916 36.4512 20.6724 36.5628 20.227 36.6744C19.7554 36.786 19.2838 36.8696 18.8122 36.9254C18.3405 36.9812 17.8689 37.037 17.4235 37.0649L15.275 36.8139L15.3536 19.8533L26.6724 16.4779C26.7248 16.4779 26.751 16.45 26.7772 16.3942L28.6637 13.5209ZM28.8209 12.9072L26.5938 16.2547L15.144 19.658L15.0654 36.9533L17.3973 37.2323C17.8689 37.2044 18.3667 37.1486 18.8384 37.0928C19.31 37.037 19.8078 36.9533 20.2794 36.8418C20.6986 36.7581 21.144 36.6465 21.5632 36.507C22.1135 36.3396 22.6375 36.1723 23.1615 35.9491C23.6593 35.7538 24.1309 35.5028 24.6025 35.2517C24.786 35.1401 24.9432 35.0564 25.1266 34.9448C25.441 34.7496 25.7554 34.5264 26.0436 34.3311C26.5938 33.9127 27.0916 33.4385 27.4846 32.9642C28.4279 31.8484 28.8733 30.621 28.8995 29.3657L28.8209 12.9072Z" fill="#3B3938"/>
<path d="M11.5807 36.7023C11.1353 36.5907 10.6899 36.4791 10.2707 36.3675C9.79905 36.2281 9.35363 36.0607 8.90822 35.8933V19.6022C9.32743 19.7696 9.77285 19.937 10.2183 20.0764C10.6637 20.2159 11.1091 20.3275 11.5807 20.4391V36.7023Z" fill="#FFDF8B"/>
<path d="M9.01303 19.7417C9.40604 19.8812 9.79905 20.0485 10.2183 20.1601C10.6375 20.2996 11.0829 20.4112 11.5283 20.4949V36.5628C11.1091 36.4791 10.7161 36.3675 10.3231 36.2559C9.87766 36.1165 9.43224 35.977 9.01303 35.8096V19.7417ZM8.82962 19.4627V35.9491C9.30124 36.1444 9.77285 36.3117 10.2707 36.4512C10.7423 36.5907 11.2139 36.7302 11.7117 36.8139V20.3554C11.2139 20.2438 10.7423 20.1322 10.2707 19.9927C9.74665 19.8254 9.27504 19.6301 8.82962 19.4627Z" fill="#3B3938"/>
<path d="M14.4366 37.1207C13.9912 37.0928 13.5458 37.037 13.1004 36.9812C12.6549 36.9254 12.1833 36.8418 11.7379 36.7302V20.467C12.1833 20.5507 12.6287 20.6344 13.0742 20.6901C13.5196 20.7459 13.965 20.8017 14.4366 20.8296V37.1207Z" fill="#FFDF8B"/>
<path d="M11.8689 20.5786C12.2619 20.6622 12.6812 20.7459 13.1004 20.8017C13.5196 20.8575 13.9388 20.9133 14.3842 20.9412V37.037C13.965 37.0091 13.572 36.9533 13.1528 36.8975C12.7336 36.8418 12.2881 36.7581 11.8689 36.6744V20.5786ZM11.6855 20.3275V36.786C12.1571 36.8975 12.6287 36.9812 13.1266 37.037C13.5982 37.0928 14.0698 37.1486 14.5676 37.1765V20.718C14.096 20.6901 13.5982 20.6344 13.1266 20.5786C12.6287 20.5228 12.1571 20.4391 11.6855 20.3275Z" fill="#3B3938"/>
<path d="M5.86892 34.1359C5.3973 33.7453 4.95189 33.3548 4.58508 32.9085C3.64184 31.7926 3.14403 30.5373 3.14403 29.282L3.17023 14.1626C3.40604 14.9994 3.82525 15.7805 4.45407 16.5337C4.84709 17.0079 5.3187 17.4542 5.86892 17.8727V34.1359Z" fill="#FFDF8B"/>
<path d="M3.14163 12.8515L3.04163 12.8514L3.04163 12.8515L3.01543 29.3098V29.3099C3.01543 30.5781 3.49195 31.8725 4.46818 33.0243C4.86393 33.5018 5.33858 33.9509 5.91815 34.3716L5.99753 34.4292V34.3312V17.8448V17.82L5.97779 17.805C5.4314 17.3895 4.96244 16.9181 4.54474 16.4457C3.63365 15.309 3.14163 14.0648 3.14163 12.8515ZM3.29884 29.3099L3.32457 15.0081C3.56682 15.5741 3.92508 16.1337 4.36337 16.6495C4.75395 17.1208 5.22139 17.5644 5.74032 17.9535V33.8358C5.35746 33.5217 5.01834 33.1832 4.70166 32.8202C3.79091 31.7396 3.29884 30.5233 3.29884 29.3099Z" fill="#3B3938" stroke="#3B3938" stroke-width="0.1"/>
<path d="M8.72481 35.7817C8.2794 35.5864 7.83398 35.3912 7.41477 35.1401C7.23136 35.0564 7.07416 34.9448 6.91695 34.8333C6.60254 34.638 6.31433 34.4427 6.05232 34.2475V18.0122C6.31433 18.2074 6.57634 18.3748 6.86455 18.5422C7.02176 18.6538 7.17896 18.7374 7.36237 18.8211C7.80778 19.0722 8.2532 19.2954 8.75101 19.4906V35.7817H8.72481Z" fill="#FFDF8B"/>
<path d="M6.13093 18.2074C6.34054 18.3748 6.57635 18.5143 6.81215 18.6538C6.96936 18.7374 7.12656 18.8211 7.30997 18.9327C7.72918 19.1559 8.1746 19.3791 8.64621 19.5743V35.6422C8.2532 35.4749 7.86019 35.2796 7.49338 35.0564C7.28377 34.9448 7.12656 34.8612 6.99556 34.7775C6.70735 34.6101 6.41914 34.4148 6.15713 34.2196V18.2074H6.13093ZM5.94753 17.8448V34.3311C6.23573 34.5543 6.55014 34.7496 6.86456 34.9448C7.02176 35.0564 7.20517 35.1401 7.38857 35.2517C7.83399 35.5028 8.3318 35.7259 8.82962 35.9491V19.4627C8.3318 19.2675 7.86019 19.0164 7.38857 18.7653C7.23137 18.6817 7.04796 18.5701 6.89076 18.4864C6.57635 18.2632 6.26194 18.068 5.94753 17.8448Z" fill="#3B3938"/>
<path d="M15.9563 37.1765C15.5108 37.1765 15.0654 37.1486 14.62 37.1207V20.8575C15.0654 20.8854 15.5108 20.9133 15.9563 20.9133C16.4279 20.9133 16.8733 20.9133 17.2925 20.8854V37.1486C16.8733 37.1486 16.4279 37.1765 15.9563 37.1765Z" fill="#FFDF8B"/>
<path d="M14.7248 20.9412C15.144 20.9691 15.5632 20.9691 15.9825 20.9691H16.0349C16.4279 20.9691 16.8471 20.9691 17.2401 20.9412V37.0091C16.8209 37.037 16.4279 37.037 15.9825 37.037C15.5632 37.037 15.144 37.037 14.7248 37.0091V20.9412ZM14.5414 20.7459V37.2044C15.013 37.2323 15.4846 37.2602 15.9825 37.2602C15.9825 37.2602 15.9825 37.2602 16.0087 37.2602C16.4803 37.2602 16.9519 37.2323 17.4235 37.2044V20.7459C16.9519 20.7738 16.5065 20.8017 16.0349 20.8017H16.0087C15.4846 20.8017 15.013 20.7738 14.5414 20.7459Z" fill="#3B3938"/>
<path d="M13.2052 6.12859C13.6506 6.0728 14.096 6.01701 14.5414 5.98911C14.9868 5.96121 15.4323 5.93332 15.8777 5.93332V7.63496C15.4323 7.63496 14.9868 7.66285 14.5414 7.69075C14.096 7.71864 13.6506 7.77443 13.2052 7.83023V6.12859Z" fill="#3B3938"/>
<path d="M15.7991 6.01701V7.52338C15.3799 7.52338 14.9606 7.55127 14.5414 7.57917C14.1222 7.60706 13.703 7.66286 13.31 7.71865V6.21228C13.7292 6.15649 14.1484 6.1007 14.5676 6.0728C14.9606 6.0449 15.3799 6.01701 15.7991 6.01701ZM15.9301 5.82174C15.4585 5.82174 15.013 5.84963 14.5414 5.87753C14.0698 5.90543 13.572 5.96122 13.1004 6.0449V7.94181C13.572 7.85812 14.0436 7.80233 14.5414 7.77444C15.013 7.74654 15.4585 7.71865 15.9301 7.71865C15.9563 7.71865 15.9563 7.71865 15.9825 7.71865V5.82174C15.9563 5.82174 15.9301 5.82174 15.9301 5.82174Z" fill="#FFDF8B"/>
<path d="M10.3493 6.82598C10.7947 6.6865 11.2401 6.54703 11.7117 6.43544C12.1309 6.32386 12.5764 6.24017 13.0218 6.15649V7.85812C12.5764 7.94181 12.1047 8.0255 11.6593 8.13708C11.2139 8.24866 10.7685 8.38814 10.3493 8.52762V6.82598Z" fill="#3B3938"/>
<path d="M12.917 6.26807V7.77444C12.4716 7.85813 12.0523 7.94182 11.6331 8.0534C11.2139 8.16498 10.8209 8.27656 10.4279 8.41604V6.93757C10.8471 6.79809 11.2663 6.65861 11.7117 6.54703C12.1047 6.40755 12.524 6.32386 12.917 6.26807ZM13.1004 6.04491C12.6288 6.12859 12.1309 6.21228 11.6593 6.32386C11.1615 6.43545 10.6899 6.57493 10.2183 6.7423V8.63921C10.6899 8.47183 11.1615 8.33236 11.6593 8.22077C12.1309 8.10919 12.6026 7.99761 13.1004 7.94182V6.04491Z" fill="#FFDF8B"/>
<path d="M4.66369 13.3536C4.50648 12.0146 4.9781 10.6756 6.02613 9.50397C6.39295 9.08553 6.81216 8.72289 7.30998 8.36024V10.0061C6.75976 10.3966 6.28814 10.7872 5.89513 11.2335C5.29251 11.903 4.8995 12.6283 4.66369 13.3536Z" fill="#3B3938"/>
<path d="M7.20517 8.55551V9.9782C6.68115 10.3408 6.20954 10.7593 5.81653 11.2056C5.31871 11.7635 4.9519 12.3493 4.71609 12.9351C4.68989 11.7635 5.1615 10.6198 6.07853 9.58766C6.41915 9.19712 6.78596 8.86237 7.20517 8.55551ZM7.38858 8.19287C6.83836 8.58341 6.36674 9.00185 5.94753 9.44818C4.74229 10.7872 4.29688 12.3214 4.63749 13.7999C4.82089 12.9351 5.26631 12.0983 5.94753 11.3451C6.34054 10.8988 6.81216 10.4803 7.38858 10.0898V8.19287Z" fill="#FFDF8B"/>
<path d="M7.49338 8.24866C7.62438 8.16498 7.78159 8.05339 7.91259 7.96971C8.2008 7.80233 8.51521 7.60706 8.85582 7.43969C9.27504 7.24442 9.69425 7.04915 10.1659 6.88177V8.55552C9.69425 8.72289 9.22264 8.91816 8.77722 9.14133C8.43661 9.3087 8.096 9.50397 7.80779 9.67134C7.70299 9.75503 7.57198 9.81082 7.46718 9.89451V8.24866H7.49338Z" fill="#3B3938"/>
<path d="M10.0611 7.02125V8.49972C9.58946 8.6671 9.14404 8.86237 8.72483 9.05764C8.38421 9.22501 8.0436 9.42028 7.75539 9.58766C7.70299 9.61555 7.62439 9.67135 7.57199 9.69924V8.27656C7.70299 8.19287 7.8078 8.10918 7.9388 8.0255C8.22701 7.85812 8.54142 7.66285 8.88203 7.49548C9.27505 7.3281 9.66806 7.16073 10.0611 7.02125ZM10.2445 6.74229C9.74666 6.90967 9.27504 7.10494 8.80343 7.356C8.46282 7.52337 8.14841 7.69075 7.834 7.88602C7.67679 7.9976 7.51959 8.08129 7.36238 8.19287V10.0898C7.51959 9.9782 7.67679 9.89451 7.834 9.78293C8.14841 9.58766 8.46282 9.42028 8.80343 9.25291C9.24884 9.02974 9.74666 8.83447 10.2445 8.6392V6.74229Z" fill="#FFDF8B"/>
<path d="M18.7336 7.83023C18.2882 7.77444 17.8427 7.71864 17.3973 7.66285C16.9519 7.63496 16.5065 7.60706 16.0611 7.60706V5.90543C16.5065 5.90543 16.9519 5.93332 17.3973 5.96122C17.8427 5.98911 18.3144 6.0449 18.7336 6.12859V7.83023Z" fill="#FFDF8B"/>
<path d="M16.1397 6.01701C16.5589 6.01701 16.9781 6.0449 17.3711 6.0728C17.7903 6.1007 18.2095 6.15649 18.6288 6.21228V7.71865C18.2357 7.66286 17.8165 7.60706 17.3973 7.57917C16.9781 7.55127 16.5589 7.52338 16.1397 7.52338V6.01701ZM15.9563 5.82174V7.71865C16.4279 7.71865 16.8995 7.74654 17.3973 7.77444C17.8689 7.80233 18.3667 7.85812 18.8384 7.94181V6.0449C18.3667 5.96122 17.8951 5.90543 17.3973 5.87753C16.9257 5.84963 16.4541 5.82174 15.9563 5.82174Z" fill="#3B3938"/>
<path d="M21.406 8.44394C21.0392 8.33235 20.6724 8.22077 20.2794 8.10919C19.834 7.99761 19.3886 7.91392 18.917 7.83023V6.12859C19.3624 6.21228 19.8078 6.29597 20.227 6.40755C20.62 6.51913 21.013 6.63072 21.3798 6.7423V8.44394H21.406Z" fill="#FFDF8B"/>
<path d="M18.9956 6.26807C19.4148 6.35176 19.8078 6.43545 20.2008 6.51913C20.5676 6.60282 20.9344 6.7144 21.3012 6.82598V8.30445C20.9868 8.19287 20.6462 8.10918 20.3056 8.0255C19.8864 7.91391 19.4672 7.83023 19.0218 7.74654V6.26807H18.9956ZM18.8384 6.04491V7.94181C19.31 8.0255 19.8078 8.10918 20.2794 8.22077C20.6986 8.33235 21.1178 8.44393 21.5109 8.58341V6.68651C21.1178 6.54703 20.6986 6.43545 20.2794 6.32386C19.7816 6.21228 19.31 6.12859 18.8384 6.04491Z" fill="#3B3938"/>
<path d="M27.275 13.4094C27.0392 12.6562 26.62 11.9588 26.0436 11.2893C25.6506 10.843 25.179 10.4245 24.6288 10.0619V8.41605C25.1004 8.77869 25.5458 9.14133 25.9126 9.55977C26.9606 10.7314 27.4322 12.0704 27.275 13.4094Z" fill="#FFDF8B"/>
<path d="M24.7336 8.58342C25.1528 8.89027 25.5196 9.25291 25.8602 9.61556C26.8034 10.6477 27.275 11.8193 27.2488 12.9909C27.013 12.3772 26.62 11.7914 26.1222 11.2335C25.7292 10.7872 25.2838 10.3966 24.7336 10.0061V8.58342ZM24.5502 8.22077V10.1177C25.1004 10.5082 25.5982 10.9267 25.9912 11.373C26.6986 12.1541 27.1178 12.9909 27.3012 13.8557C27.6157 12.3772 27.1702 10.843 25.9912 9.50397C25.572 9.02975 25.1004 8.61131 24.5502 8.22077Z" fill="#3B3938"/>
<path d="M24.4453 9.9224C24.3143 9.83872 24.1833 9.75503 24.0523 9.67134C23.7903 9.50397 23.5021 9.33659 23.1353 9.16922C22.6113 8.91816 22.0873 8.69499 21.5632 8.49972V6.82598C22.061 6.99336 22.5851 7.21652 23.0567 7.46758C23.4235 7.63496 23.7117 7.80233 23.9475 7.9697C24.1047 8.08129 24.2619 8.16497 24.4191 8.27656V9.9224H24.4453Z" fill="#FFDF8B"/>
<path d="M21.6681 6.96546C22.1397 7.13284 22.5851 7.32811 23.0305 7.55127C23.3711 7.71865 23.6593 7.88602 23.9213 8.05339C24.0523 8.13708 24.2095 8.22077 24.3405 8.33235V9.75503C24.2619 9.69924 24.1833 9.64345 24.1047 9.58766C23.8427 9.42028 23.5545 9.25291 23.1877 9.08554C22.6899 8.83447 22.1659 8.61131 21.6681 8.44393V6.96546ZM21.4846 6.7144V8.61131C22.0611 8.80658 22.5851 9.02974 23.1091 9.28081C23.4235 9.44818 23.7379 9.58766 24.0261 9.78293C24.2095 9.89451 24.3667 10.0061 24.5502 10.1177V8.22077C24.3929 8.10919 24.2095 7.9976 24.0261 7.88602C23.7379 7.71865 23.4235 7.55127 23.1091 7.3839C22.5851 7.13284 22.0611 6.90967 21.4846 6.7144Z" fill="#3B3938"/>
<path d="M16.0087 20.7459C12.5763 20.7459 9.35363 19.9091 6.91695 18.4306C4.48027 16.9521 3.14403 14.9436 3.14403 12.8515C3.14403 10.7593 4.45407 8.77869 6.86455 7.30021C9.27503 5.79385 12.4977 4.98487 15.9301 4.98487C19.3624 4.98487 22.5851 5.82174 25.0218 7.30021C27.4584 8.80658 28.7947 10.7872 28.7947 12.8794C28.7947 14.9715 27.4846 16.9521 25.0742 18.4306C22.6637 19.937 19.441 20.7459 16.0087 20.7459ZM15.9301 5.76595C12.8646 5.76595 9.98246 6.49124 7.83398 7.83023C5.68551 9.16922 4.48027 10.9545 4.48027 12.8515C4.48027 14.7484 5.68551 16.5616 7.88639 17.9006C10.0611 19.2396 12.9432 19.9649 16.0087 19.9649C19.0742 19.9649 21.9563 19.2396 24.1047 17.9006C26.2532 16.5616 27.4584 14.7763 27.4584 12.8794C27.4584 10.9824 26.2532 9.16922 24.0523 7.83023C21.8777 6.49124 18.9956 5.76595 15.9301 5.76595Z" fill="white"/>
<path d="M24.9693 7.39853L24.9694 7.39862C27.3709 8.87158 28.6923 10.8383 28.6923 12.9072C28.6923 14.9485 27.3968 16.9152 25.022 18.36L25.0218 18.3601C22.6205 19.8329 19.4334 20.668 16.0087 20.668C12.5836 20.668 9.39669 19.8607 6.96945 18.3602L6.9693 18.3601C4.56781 16.8871 3.24643 14.9204 3.24643 12.8515C3.24643 10.8102 4.54195 8.84352 6.91674 7.39872L6.91674 7.39872L6.91725 7.3984C9.31815 5.89802 12.505 5.09066 15.9301 5.09066C19.3551 5.09066 22.542 5.898 24.9693 7.39853ZM6.81231 7.20173L6.81231 7.20173L6.81187 7.20201C4.29996 8.77024 3.04152 10.8207 3.05145 12.8761C3.06139 14.9314 4.33956 16.9748 6.86454 18.529C9.38969 20.0972 12.7007 20.8517 16.0087 20.8517C19.3171 20.8517 22.6017 20.0691 25.1264 18.5291L25.1267 18.5289C27.6387 16.9746 28.8972 14.9311 28.8873 12.8791C28.8773 10.8272 27.5991 8.78391 25.0742 7.22974L25.0741 7.22972C22.5232 5.66172 19.2123 4.87908 15.9301 4.87908C12.6216 4.87908 9.33704 5.66171 6.81231 7.20173ZM7.93874 17.8022L7.93863 17.8021C5.7082 16.4412 4.59565 14.6558 4.58595 12.8756C4.57625 11.0954 5.66921 9.30333 7.88646 7.92856C10.104 6.56754 13.0027 5.87174 15.9301 5.87174C18.8575 5.87174 21.7824 6.5676 24 7.92863C26.2304 9.30352 27.3431 11.0958 27.3528 12.8796C27.3625 14.6633 26.2695 16.4553 24.0523 17.8301C21.835 19.191 18.9364 19.8591 16.0087 19.8591C13.0812 19.8591 10.1563 19.1632 7.93874 17.8022ZM16.0087 20.0706C19.0813 20.0706 21.9731 19.3438 24.1573 17.9709C26.3411 16.6263 27.5608 14.7992 27.5608 12.8794C27.5608 10.9315 26.341 9.10437 24.1045 7.75962C21.9206 6.41502 19.003 5.66016 15.9301 5.66016C12.8574 5.66016 9.96566 6.38701 7.78137 7.75988C5.59797 9.10431 4.3777 10.9035 4.40407 12.8518C4.40421 14.7995 5.62396 16.6265 7.86028 17.9711C10.0181 19.3158 12.9359 20.0706 16.0087 20.0706Z" fill="#3B3938" stroke="#3B3938" stroke-width="0.1"/>
<path d="M24.1049 17.8873L24.105 17.8872C25.9466 16.7387 27.0321 15.3339 27.3501 13.8382L27.3524 13.8278L27.3501 13.8174C27.0321 12.3219 25.9206 10.8611 24.0523 9.71244L24.0522 9.71235C21.8024 8.33962 18.8649 7.6547 15.9333 7.6547C13.0017 7.6547 10.0707 8.33962 7.83403 9.71242L7.83373 9.7126C5.99207 10.8611 4.90665 12.2659 4.58858 13.7616L4.58638 13.7719L4.58854 13.7822C4.90658 15.306 6.01838 16.7389 7.8864 17.8874C10.1362 19.2741 13.0737 19.966 16.0054 19.966C18.9371 19.966 21.8681 19.2741 24.1049 17.8873Z" fill="white" stroke="#3B3938" stroke-width="0.1"/>
<path d="M6.86467 24.1508L6.86508 24.151C9.31991 25.6405 12.5612 26.4809 16.0087 26.4809C19.4559 26.4809 22.6979 25.6406 25.1272 24.1224C27.5556 22.6048 28.8947 20.5966 28.8947 18.4585V17.789C28.8947 17.7374 28.8554 17.6943 28.8041 17.6894C28.7527 17.6846 28.7061 17.7196 28.6965 17.7702C28.3626 19.5199 27.1281 21.1169 25.074 22.3904C22.6559 23.8853 19.426 24.7187 16.0087 24.7187C12.565 24.7187 9.33513 23.8852 6.91714 22.3904L6.91676 22.3902C4.83652 21.1167 3.57602 19.4918 3.24226 17.7424C3.23259 17.6917 3.18597 17.6567 3.13462 17.6615C3.08326 17.6664 3.04403 17.7095 3.04403 17.7611V18.4864C3.04403 20.6534 4.43665 22.6615 6.86467 24.1508Z" fill="white" stroke="#3B3938" stroke-width="0.2" stroke-linejoin="round"/>
<path d="M6.86396 30.929L6.86395 30.929L6.86508 30.9297C9.31991 32.4191 12.5612 33.2595 16.0087 33.2595C19.4559 33.2595 22.6979 32.4192 25.1272 30.9011C27.5556 29.3835 28.8947 27.3752 28.8947 25.2371V24.5677C28.8947 24.5161 28.8554 24.473 28.8041 24.4681C28.7527 24.4632 28.7061 24.4982 28.6965 24.5489C28.3626 26.2986 27.1281 27.8956 25.074 29.1691C22.6559 30.6639 19.426 31.4974 16.0087 31.4974C12.565 31.4974 9.33513 30.6639 6.91714 29.1691L6.91676 29.1688C4.83652 27.8953 3.57602 26.2705 3.24226 24.521C3.23259 24.4703 3.18597 24.4353 3.13462 24.4402C3.08326 24.4451 3.04403 24.4882 3.04403 24.5398V25.265H3.04402L3.04404 25.2663C3.07081 27.404 4.43595 29.4117 6.86396 30.929Z" fill="white" stroke="#3B3938" stroke-width="0.2" stroke-linejoin="round"/>
<path d="M8.2794 13.1304C8.2532 12.5725 8.51521 11.9867 8.96062 11.6519C9.40604 11.2893 10.0087 11.2614 10.5327 11.373C11.0567 11.4846 11.5545 11.7077 12.0523 11.8472C12.5501 11.9867 13.1004 12.0146 13.572 11.7356C13.3624 11.903 13.1004 11.9867 12.8384 12.0146C12.5763 12.0425 12.2881 12.0146 12.0261 11.9588C11.5021 11.8472 11.0043 11.624 10.5065 11.5404C10.0087 11.4288 9.45844 11.4567 9.03922 11.7635C8.62001 12.0425 8.3318 12.5725 8.2794 13.1304Z" fill="#3B3938"/>
<path d="M14.4628 15.6131C14.6462 15.4179 14.882 15.2784 15.144 15.2226C15.406 15.1668 15.6681 15.1668 15.9301 15.2226C16.4541 15.3342 16.9257 15.6131 17.3973 15.8363C17.8689 16.0595 18.3667 16.1989 18.8646 16.1989C19.3624 16.1989 19.8864 16.0874 20.358 15.8363C19.9126 16.1431 19.3886 16.3105 18.8646 16.3384C18.3405 16.3663 17.7903 16.2268 17.3187 16.0037C16.8471 15.7805 16.4017 15.5015 15.9039 15.3621C15.4322 15.2226 14.8558 15.2505 14.4628 15.6131Z" fill="#3B3938"/>
<path d="M18.7859 12.8236C18.8908 12.6004 19.1266 12.433 19.3624 12.3214C19.5982 12.2377 19.8602 12.2099 20.096 12.2099C20.358 12.2099 20.5938 12.2656 20.8296 12.2377C21.0654 12.2099 21.275 12.0983 21.4846 11.9867C21.9039 11.7356 22.3493 11.4288 22.8471 11.3451C23.3449 11.2335 23.8427 11.2893 24.3143 11.373C23.8165 11.3451 23.3449 11.3451 22.8733 11.4846C22.4017 11.5961 22.0087 11.8751 21.5632 12.1541C21.3536 12.2935 21.1178 12.4051 20.8558 12.433C20.5938 12.4609 20.358 12.4051 20.1222 12.3772C19.6244 12.3214 19.1004 12.4051 18.7859 12.8236Z" fill="#3B3938"/>
<path d="M9.24884 15.1947C9.43225 14.8321 9.85146 14.6089 10.2445 14.6368C10.6375 14.6647 11.0043 14.86 11.2925 15.111C11.1091 15.0552 10.9257 14.9994 10.7685 14.9436C10.5851 14.8879 10.4279 14.86 10.2445 14.8321C9.87766 14.8042 9.53705 14.9436 9.24884 15.1947Z" fill="#3B3938"/>
<path d="M16.2969 10.6198C16.3493 10.3966 16.5589 10.2014 16.7685 10.1177C17.0043 10.034 17.2401 10.034 17.4497 10.0619C17.6593 10.0898 17.8689 10.1456 18.1047 10.2014C18.3143 10.2572 18.5239 10.313 18.7335 10.3966C18.2881 10.3966 17.8689 10.313 17.4235 10.2293C17.2139 10.2014 17.0043 10.1735 16.8209 10.2293C16.6113 10.313 16.4017 10.4245 16.2969 10.6198Z" fill="#3B3938"/>
<path d="M21.4323 16.98C21.4323 16.7011 21.6943 16.45 21.9563 16.3942C22.2183 16.3105 22.5065 16.3663 22.7423 16.45C22.9781 16.5337 23.2139 16.6174 23.4497 16.6732C23.6855 16.7011 23.9475 16.7011 24.1571 16.5337C23.9999 16.7569 23.7117 16.8405 23.4497 16.8127C23.1877 16.8127 22.9257 16.7011 22.6899 16.6453C22.4541 16.5616 22.2183 16.5337 21.9825 16.5616C21.7729 16.5616 21.5371 16.7011 21.4323 16.98Z" fill="#3B3938"/>
<path d="M14.3056 17.9006C14.3056 17.5658 14.0174 17.2869 13.7554 17.3427C13.4672 17.3985 13.2314 17.6216 12.917 17.7332C12.2881 17.9285 11.5545 17.7332 11.1353 17.2311C11.6331 17.6216 12.2881 17.7332 12.8646 17.5379C13.1528 17.4543 13.3886 17.2032 13.7554 17.1753C14.1222 17.1753 14.4104 17.5658 14.3056 17.9006Z" fill="#3B3938"/>
<path d="M11.3973 9.61555C11.6331 9.50397 11.8951 9.44818 12.1571 9.42028C12.4191 9.39238 12.6812 9.47607 12.917 9.50397C13.1528 9.53186 13.3886 9.50397 13.6244 9.44818C13.8602 9.39238 14.096 9.2808 14.3318 9.19711C14.1222 9.36449 13.9126 9.50397 13.6506 9.58766C13.4148 9.69924 13.1266 9.72713 12.8646 9.69924C12.6025 9.67134 12.3667 9.58766 12.1309 9.58766C11.9213 9.55976 11.6593 9.58765 11.3973 9.61555Z" fill="#3B3938"/>
<path d="M20.7772 21.4154C20.5938 21.4154 20.4104 21.2481 20.4104 21.0249V18.3748C20.4104 16.98 21.1178 15.6689 22.2445 14.9715L26.1484 12.5725C26.358 12.433 26.62 12.3772 26.8558 12.3772C27.1178 12.3772 27.3536 12.4609 27.5633 12.5725C28.0087 12.8515 28.2969 13.3536 28.2969 13.9115V16.6174C28.2969 16.8127 28.1397 17.0079 27.9301 17.0079C27.7467 17.0079 27.5633 16.8405 27.5633 16.6174V13.9115C27.5633 13.6325 27.4323 13.3815 27.1964 13.242C27.0916 13.1862 26.9606 13.1304 26.8296 13.1304C26.6986 13.1304 26.5676 13.1583 26.4628 13.242L22.5589 15.641C21.6419 16.1989 21.0654 17.259 21.0654 18.3748V21.0249C21.1178 21.2481 20.9606 21.4154 20.7772 21.4154Z" fill="white"/>
<path d="M22.6637 15.7115L26.5663 13.3133C26.6705 13.2579 26.7911 13.2083 26.882 13.2083C26.9792 13.2083 27.098 13.2344 27.1914 13.309L27.1913 13.3091L27.1949 13.3115C27.3911 13.442 27.5132 13.6498 27.5132 13.9115V16.6174C27.5132 16.8652 27.7161 17.0858 27.9563 17.0858C28.1964 17.0858 28.3993 16.8652 28.3993 16.6174V13.9115C28.3993 13.3091 28.1028 12.791 27.6428 12.5026C27.4254 12.3581 27.154 12.2714 26.882 12.2714C26.6085 12.2714 26.3639 12.359 26.1229 12.5016L26.1229 12.5016L26.1222 12.502L22.2186 14.9009C22.2185 14.9009 22.2185 14.9009 22.2184 14.9009C21.0495 15.6082 20.3342 16.9641 20.3342 18.3748V21.0249C20.3342 21.2727 20.5371 21.4933 20.7772 21.4933C21.0173 21.4933 21.2202 21.2727 21.2202 21.0249V18.3748C21.2202 17.2751 21.7625 16.2598 22.6635 15.7116L22.6637 15.7115ZM26.882 12.483C27.1057 12.483 27.3325 12.5622 27.5654 12.6722C27.9946 12.9422 28.2469 13.3996 28.2469 13.9115V16.6174C28.2469 16.788 28.1354 16.9021 27.9825 16.9021C27.8296 16.9021 27.7181 16.788 27.7181 16.6174V13.9115C27.7181 13.5858 27.5507 13.3205 27.304 13.1454L27.304 13.1454L27.302 13.1441C27.1616 13.0544 27.0208 13.0246 26.882 13.0246C26.7433 13.0246 26.6027 13.0543 26.4625 13.1438L22.5589 15.5426L22.5587 15.5428C21.6002 16.1381 21.0154 17.2145 21.0154 18.3748V21.0249C21.0154 21.1956 20.9039 21.3096 20.751 21.3096C20.5981 21.3096 20.4866 21.1956 20.4866 21.0249V18.3748C20.4866 16.9965 21.1857 15.7302 22.2962 15.0703L22.2962 15.0703L22.2968 15.0699L26.2001 12.6713C26.2002 12.6713 26.2003 12.6712 26.2004 12.6711C26.428 12.5366 26.6548 12.483 26.882 12.483Z" fill="#3B3938" stroke="#3B3938" stroke-width="0.1"/>
<path d="M20.2008 41.4445L28.9781 43.0346L20.2008 41.4445Z" fill="white"/>
<path d="M28.9781 43.4251C28.9519 43.4251 28.9257 43.4251 28.9257 43.4251L20.1484 41.8351C19.9388 41.8072 19.8078 41.6119 19.8602 41.3887C19.8864 41.1656 20.0698 41.0261 20.2794 41.0819L29.0567 42.672C29.2663 42.6999 29.3973 42.8951 29.3449 43.1183C29.3187 43.3136 29.1615 43.4251 28.9781 43.4251Z" fill="#3B3938"/>
<path d="M20.0698 42.8951L28.7423 40.6913L20.0698 42.8951Z" fill="white"/>
<path d="M20.0698 43.2857C19.9126 43.2857 19.7554 43.1741 19.7292 42.9788C19.6768 42.7835 19.8078 42.5604 19.9912 42.5046L28.6637 40.3008C28.8471 40.245 29.0567 40.3845 29.1091 40.5798C29.1615 40.775 29.0305 40.9982 28.8471 41.054L20.1484 43.2857C20.1222 43.2857 20.096 43.2857 20.0698 43.2857Z" fill="#3B3938"/>
<path d="M19.572 41.0261L27.6942 44.9036L19.572 41.0261Z" fill="white"/>
<path d="M27.6943 45.2941C27.6419 45.2941 27.5895 45.2941 27.5371 45.2662L19.4148 41.3887C19.2314 41.3051 19.1528 41.0819 19.2314 40.8866C19.31 40.6914 19.5196 40.6077 19.703 40.6914L27.8253 44.5689C28.0087 44.6525 28.0873 44.8757 28.0087 45.071C27.9563 45.2104 27.8253 45.2941 27.6943 45.2941Z" fill="#3B3938"/>
<path d="M13.6768 30.1468C13.834 30.9278 13.6506 32.0716 13.8078 32.8527C12.2095 32.0995 11.6855 31.0115 9.93006 29.4215C10.5065 30.3141 10.5327 32.0716 11.1091 32.9642C9.87766 32.0437 8.64622 31.1231 7.44098 30.2026C7.9126 31.1231 7.9388 32.8248 8.41041 33.7453C6.70736 33.8848 5.89513 33.02 3.48465 32.5737C3.77286 33.3269 5.94753 34.5822 6.13094 35.6143C5.1091 35.9212 2.77723 34.9727 1.75539 35.2796C2.35801 35.8654 2.96063 36.4512 3.56325 37.037C2.67242 37.316 1.80779 37.5949 0.916963 37.9018C1.67679 38.5434 2.41041 39.185 3.17024 39.8545C2.1484 40.3566 1.12657 40.8866 0.104736 41.3887C1.80779 42.0582 2.69862 42.6998 2.90823 42.8951C2.22701 43.4809 1.54578 44.0667 0.890762 44.6804C2.46281 44.5967 4.00867 44.4852 5.58072 44.4015C5.1615 44.8757 4.74229 45.3499 4.32308 45.7963C5.84273 45.4894 7.36238 45.2105 8.90823 44.9036C8.54142 45.9078 8.1746 46.8842 7.80779 47.8884C8.41041 47.4421 10.8995 46.3542 12.7598 45.1268C12.7598 45.1268 12.5501 46.9679 12.2619 47.4421C13.965 46.5773 15.0392 46.1868 15.9563 45.8242C17.1091 45.3778 18.5763 44.8478 19.5196 44.4852C21.3798 43.7878 21.5108 43.202 21.6418 42.3651C21.7729 41.6956 22.2707 41.0261 20.8034 39.8266C17.9213 37.5112 15.4846 33.4943 13.6768 30.1468Z" fill="#FFDF8B"/>
<mask id="path-104-outside-1_1908_7510" maskUnits="userSpaceOnUse" x="-0.947662" y="28.3448" width="23" height="20" fill="black">
<rect fill="white" x="-0.947662" y="28.3448" width="23" height="20"/>
<path d="M7.7816 48C7.7554 48 7.7292 48 7.7292 47.9721C7.70299 47.9442 7.67679 47.8884 7.70299 47.8606L8.75103 45.0431L4.34928 45.9079C4.32308 45.9079 4.27068 45.9079 4.24448 45.8521C4.21828 45.8242 4.24448 45.7684 4.27068 45.7405L5.37112 44.5131L0.916967 44.792C0.890766 44.792 0.838364 44.7641 0.838364 44.7362C0.812163 44.7083 0.838364 44.6526 0.864565 44.6247L2.80343 42.923C2.54142 42.7278 1.72919 42.114 0.104739 41.5003C0.0785385 41.5003 0.0523376 41.4446 0.0523376 41.4167C0.0523376 41.3888 0.0785385 41.333 0.104739 41.333L3.06544 39.8545L0.864565 37.9855C0.838364 37.9576 0.838364 37.9297 0.838364 37.9018C0.838364 37.8739 0.864565 37.846 0.890766 37.8181L3.37985 37.0091L1.67679 35.3633C1.65059 35.3354 1.65059 35.3075 1.65059 35.2796C1.65059 35.2517 1.67679 35.2238 1.70299 35.1959C2.22701 35.0285 3.09164 35.1959 3.93007 35.3633C4.68989 35.5028 5.50212 35.6701 5.99994 35.5586C5.84273 35.0007 5.13531 34.3869 4.50649 33.829C3.98247 33.3548 3.51085 32.9643 3.37985 32.6295C3.37985 32.6016 3.37985 32.5737 3.40605 32.5458C3.43225 32.5179 3.45845 32.5179 3.48465 32.5179C4.50649 32.7132 5.24011 32.9922 5.89513 33.2153C6.70736 33.5222 7.36238 33.7453 8.25321 33.6896C8.04361 33.2153 7.9388 32.6295 7.834 32.0158C7.70299 31.3742 7.59819 30.7047 7.36238 30.2584C7.33618 30.2305 7.36238 30.1747 7.38858 30.1468C7.41479 30.1189 7.46719 30.1189 7.49339 30.1468L10.8471 32.6574C10.6637 32.239 10.5589 31.7369 10.4279 31.2347C10.2707 30.5931 10.1397 29.9236 9.85147 29.5052C9.82527 29.4773 9.82527 29.4215 9.87767 29.3657C9.90387 29.3378 9.95627 29.3378 10.0087 29.3657C10.6375 29.9236 11.1091 30.4258 11.5021 30.8721C12.2095 31.6253 12.786 32.239 13.703 32.7132C13.6506 32.3506 13.6506 31.9321 13.6768 31.5137C13.6768 31.0395 13.703 30.5652 13.6244 30.1747C13.6244 30.1189 13.6506 30.091 13.6768 30.0631C13.7292 30.0352 13.7554 30.0631 13.7816 30.091C15.5633 33.3548 17.9737 37.3997 20.882 39.7708C22.1397 40.8029 21.9825 41.5003 21.8253 42.0862C21.7991 42.1977 21.7729 42.2814 21.7467 42.393C21.6157 43.202 21.4847 43.8436 19.572 44.5689C19.2576 44.6805 18.8646 44.8199 18.4454 44.9873C17.6593 45.2663 16.7685 45.601 16.0087 45.9079C15.8515 45.9636 15.6943 46.0194 15.5371 46.1031C14.7248 46.41 13.7292 46.8005 12.3144 47.5537C12.2881 47.5816 12.2357 47.5537 12.2095 47.5258C12.1833 47.4979 12.1833 47.4421 12.2095 47.4142C12.4192 47.0516 12.6026 45.7963 12.655 45.3221C11.6069 45.9915 10.4017 46.6052 9.40605 47.1074C8.67243 47.47 8.12221 47.7769 7.8602 47.9442C7.8078 48 7.7816 48 7.7816 48ZM8.88204 44.8199C8.90824 44.8199 8.93444 44.8199 8.96064 44.8478C8.98684 44.8757 8.98684 44.9036 8.98684 44.9315L7.965 47.6374C8.27941 47.4421 8.72483 47.219 9.30125 46.94C10.3231 46.41 11.6069 45.7684 12.6812 45.0431C12.7074 45.0152 12.7598 45.0152 12.786 45.0431C12.8122 45.071 12.8384 45.0989 12.8384 45.1268C12.8384 45.1826 12.6812 46.5495 12.4454 47.2468C13.7554 46.5774 14.6986 46.2147 15.4585 45.9079C15.6157 45.8521 15.7729 45.7963 15.9301 45.7126C16.6899 45.4057 17.5807 45.071 18.3668 44.792C18.786 44.6526 19.1528 44.5131 19.4672 44.3736C21.3013 43.6762 21.4061 43.1183 21.5371 42.3372C21.5633 42.2256 21.5895 42.114 21.6157 42.0025C21.7729 41.4445 21.9301 40.8587 20.751 39.8824C17.9475 37.5949 15.5895 33.7453 13.834 30.5652C13.8602 30.8442 13.834 31.151 13.834 31.4579C13.834 31.9321 13.8078 32.4064 13.8864 32.7969C13.8864 32.8248 13.8864 32.8806 13.8602 32.8806C13.834 32.9085 13.8078 32.9085 13.7554 32.8806C12.7074 32.3785 12.1047 31.7369 11.3449 30.9279C11.0305 30.5931 10.6637 30.2026 10.2183 29.7842C10.3755 30.1747 10.4803 30.6489 10.5851 31.1232C10.7423 31.7648 10.8733 32.4342 11.1615 32.8527C11.1877 32.8806 11.1877 32.9364 11.1615 32.9643C11.1353 32.9922 11.0829 32.9922 11.0567 32.9643L7.65059 30.4258C7.8078 30.8442 7.9126 31.3742 7.9912 31.9042C8.12221 32.5458 8.22701 33.2153 8.46282 33.6617C8.48902 33.6896 8.48902 33.7175 8.46282 33.7453C8.43662 33.7732 8.41042 33.8011 8.38422 33.8011C7.38858 33.8848 6.68116 33.6338 5.81653 33.3269C5.21391 33.1037 4.55889 32.8527 3.64186 32.6574C3.82526 32.9364 4.21828 33.2711 4.61129 33.6338C5.29251 34.2475 6.07854 34.9449 6.18334 35.5586C6.18334 35.6144 6.15714 35.6423 6.13094 35.6701C5.60692 35.8375 4.7423 35.6701 3.90387 35.5028C3.17024 35.3633 2.43662 35.2238 1.9126 35.3075L3.58946 36.9255C3.61566 36.9533 3.61566 36.9812 3.61566 37.0091C3.61566 37.037 3.58946 37.0649 3.56326 37.0928L1.10037 37.9018L3.22264 39.7429C3.24885 39.7708 3.24885 39.7987 3.24885 39.8266C3.24885 39.8545 3.22264 39.8824 3.19644 39.9103L0.314346 41.333C1.7816 41.9188 2.64622 42.5046 2.96064 42.7835C2.98684 42.8114 2.98684 42.8393 2.98684 42.8672C2.98684 42.8951 2.98684 42.923 2.96064 42.9509L1.15277 44.541L5.58072 44.262C5.60692 44.262 5.65933 44.2899 5.65933 44.3178C5.68553 44.3457 5.65933 44.4015 5.63313 44.4294L4.55889 45.6289L8.88204 44.8199Z"/>
</mask>
<path d="M7.7816 48C7.7554 48 7.7292 48 7.7292 47.9721C7.70299 47.9442 7.67679 47.8884 7.70299 47.8606L8.75103 45.0431L4.34928 45.9079C4.32308 45.9079 4.27068 45.9079 4.24448 45.8521C4.21828 45.8242 4.24448 45.7684 4.27068 45.7405L5.37112 44.5131L0.916967 44.792C0.890766 44.792 0.838364 44.7641 0.838364 44.7362C0.812163 44.7083 0.838364 44.6526 0.864565 44.6247L2.80343 42.923C2.54142 42.7278 1.72919 42.114 0.104739 41.5003C0.0785385 41.5003 0.0523376 41.4446 0.0523376 41.4167C0.0523376 41.3888 0.0785385 41.333 0.104739 41.333L3.06544 39.8545L0.864565 37.9855C0.838364 37.9576 0.838364 37.9297 0.838364 37.9018C0.838364 37.8739 0.864565 37.846 0.890766 37.8181L3.37985 37.0091L1.67679 35.3633C1.65059 35.3354 1.65059 35.3075 1.65059 35.2796C1.65059 35.2517 1.67679 35.2238 1.70299 35.1959C2.22701 35.0285 3.09164 35.1959 3.93007 35.3633C4.68989 35.5028 5.50212 35.6701 5.99994 35.5586C5.84273 35.0007 5.13531 34.3869 4.50649 33.829C3.98247 33.3548 3.51085 32.9643 3.37985 32.6295C3.37985 32.6016 3.37985 32.5737 3.40605 32.5458C3.43225 32.5179 3.45845 32.5179 3.48465 32.5179C4.50649 32.7132 5.24011 32.9922 5.89513 33.2153C6.70736 33.5222 7.36238 33.7453 8.25321 33.6896C8.04361 33.2153 7.9388 32.6295 7.834 32.0158C7.70299 31.3742 7.59819 30.7047 7.36238 30.2584C7.33618 30.2305 7.36238 30.1747 7.38858 30.1468C7.41479 30.1189 7.46719 30.1189 7.49339 30.1468L10.8471 32.6574C10.6637 32.239 10.5589 31.7369 10.4279 31.2347C10.2707 30.5931 10.1397 29.9236 9.85147 29.5052C9.82527 29.4773 9.82527 29.4215 9.87767 29.3657C9.90387 29.3378 9.95627 29.3378 10.0087 29.3657C10.6375 29.9236 11.1091 30.4258 11.5021 30.8721C12.2095 31.6253 12.786 32.239 13.703 32.7132C13.6506 32.3506 13.6506 31.9321 13.6768 31.5137C13.6768 31.0395 13.703 30.5652 13.6244 30.1747C13.6244 30.1189 13.6506 30.091 13.6768 30.0631C13.7292 30.0352 13.7554 30.0631 13.7816 30.091C15.5633 33.3548 17.9737 37.3997 20.882 39.7708C22.1397 40.8029 21.9825 41.5003 21.8253 42.0862C21.7991 42.1977 21.7729 42.2814 21.7467 42.393C21.6157 43.202 21.4847 43.8436 19.572 44.5689C19.2576 44.6805 18.8646 44.8199 18.4454 44.9873C17.6593 45.2663 16.7685 45.601 16.0087 45.9079C15.8515 45.9636 15.6943 46.0194 15.5371 46.1031C14.7248 46.41 13.7292 46.8005 12.3144 47.5537C12.2881 47.5816 12.2357 47.5537 12.2095 47.5258C12.1833 47.4979 12.1833 47.4421 12.2095 47.4142C12.4192 47.0516 12.6026 45.7963 12.655 45.3221C11.6069 45.9915 10.4017 46.6052 9.40605 47.1074C8.67243 47.47 8.12221 47.7769 7.8602 47.9442C7.8078 48 7.7816 48 7.7816 48ZM8.88204 44.8199C8.90824 44.8199 8.93444 44.8199 8.96064 44.8478C8.98684 44.8757 8.98684 44.9036 8.98684 44.9315L7.965 47.6374C8.27941 47.4421 8.72483 47.219 9.30125 46.94C10.3231 46.41 11.6069 45.7684 12.6812 45.0431C12.7074 45.0152 12.7598 45.0152 12.786 45.0431C12.8122 45.071 12.8384 45.0989 12.8384 45.1268C12.8384 45.1826 12.6812 46.5495 12.4454 47.2468C13.7554 46.5774 14.6986 46.2147 15.4585 45.9079C15.6157 45.8521 15.7729 45.7963 15.9301 45.7126C16.6899 45.4057 17.5807 45.071 18.3668 44.792C18.786 44.6526 19.1528 44.5131 19.4672 44.3736C21.3013 43.6762 21.4061 43.1183 21.5371 42.3372C21.5633 42.2256 21.5895 42.114 21.6157 42.0025C21.7729 41.4445 21.9301 40.8587 20.751 39.8824C17.9475 37.5949 15.5895 33.7453 13.834 30.5652C13.8602 30.8442 13.834 31.151 13.834 31.4579C13.834 31.9321 13.8078 32.4064 13.8864 32.7969C13.8864 32.8248 13.8864 32.8806 13.8602 32.8806C13.834 32.9085 13.8078 32.9085 13.7554 32.8806C12.7074 32.3785 12.1047 31.7369 11.3449 30.9279C11.0305 30.5931 10.6637 30.2026 10.2183 29.7842C10.3755 30.1747 10.4803 30.6489 10.5851 31.1232C10.7423 31.7648 10.8733 32.4342 11.1615 32.8527C11.1877 32.8806 11.1877 32.9364 11.1615 32.9643C11.1353 32.9922 11.0829 32.9922 11.0567 32.9643L7.65059 30.4258C7.8078 30.8442 7.9126 31.3742 7.9912 31.9042C8.12221 32.5458 8.22701 33.2153 8.46282 33.6617C8.48902 33.6896 8.48902 33.7175 8.46282 33.7453C8.43662 33.7732 8.41042 33.8011 8.38422 33.8011C7.38858 33.8848 6.68116 33.6338 5.81653 33.3269C5.21391 33.1037 4.55889 32.8527 3.64186 32.6574C3.82526 32.9364 4.21828 33.2711 4.61129 33.6338C5.29251 34.2475 6.07854 34.9449 6.18334 35.5586C6.18334 35.6144 6.15714 35.6423 6.13094 35.6701C5.60692 35.8375 4.7423 35.6701 3.90387 35.5028C3.17024 35.3633 2.43662 35.2238 1.9126 35.3075L3.58946 36.9255C3.61566 36.9533 3.61566 36.9812 3.61566 37.0091C3.61566 37.037 3.58946 37.0649 3.56326 37.0928L1.10037 37.9018L3.22264 39.7429C3.24885 39.7708 3.24885 39.7987 3.24885 39.8266C3.24885 39.8545 3.22264 39.8824 3.19644 39.9103L0.314346 41.333C1.7816 41.9188 2.64622 42.5046 2.96064 42.7835C2.98684 42.8114 2.98684 42.8393 2.98684 42.8672C2.98684 42.8951 2.98684 42.923 2.96064 42.9509L1.15277 44.541L5.58072 44.262C5.60692 44.262 5.65933 44.2899 5.65933 44.3178C5.68553 44.3457 5.65933 44.4015 5.63313 44.4294L4.55889 45.6289L8.88204 44.8199Z" fill="#3B3938"/>
<path d="M7.7816 48C7.7554 48 7.7292 48 7.7292 47.9721C7.70299 47.9442 7.67679 47.8884 7.70299 47.8606L8.75103 45.0431L4.34928 45.9079C4.32308 45.9079 4.27068 45.9079 4.24448 45.8521C4.21828 45.8242 4.24448 45.7684 4.27068 45.7405L5.37112 44.5131L0.916967 44.792C0.890766 44.792 0.838364 44.7641 0.838364 44.7362C0.812163 44.7083 0.838364 44.6526 0.864565 44.6247L2.80343 42.923C2.54142 42.7278 1.72919 42.114 0.104739 41.5003C0.0785385 41.5003 0.0523376 41.4446 0.0523376 41.4167C0.0523376 41.3888 0.0785385 41.333 0.104739 41.333L3.06544 39.8545L0.864565 37.9855C0.838364 37.9576 0.838364 37.9297 0.838364 37.9018C0.838364 37.8739 0.864565 37.846 0.890766 37.8181L3.37985 37.0091L1.67679 35.3633C1.65059 35.3354 1.65059 35.3075 1.65059 35.2796C1.65059 35.2517 1.67679 35.2238 1.70299 35.1959C2.22701 35.0285 3.09164 35.1959 3.93007 35.3633C4.68989 35.5028 5.50212 35.6701 5.99994 35.5586C5.84273 35.0007 5.13531 34.3869 4.50649 33.829C3.98247 33.3548 3.51085 32.9643 3.37985 32.6295C3.37985 32.6016 3.37985 32.5737 3.40605 32.5458C3.43225 32.5179 3.45845 32.5179 3.48465 32.5179C4.50649 32.7132 5.24011 32.9922 5.89513 33.2153C6.70736 33.5222 7.36238 33.7453 8.25321 33.6896C8.04361 33.2153 7.9388 32.6295 7.834 32.0158C7.70299 31.3742 7.59819 30.7047 7.36238 30.2584C7.33618 30.2305 7.36238 30.1747 7.38858 30.1468C7.41479 30.1189 7.46719 30.1189 7.49339 30.1468L10.8471 32.6574C10.6637 32.239 10.5589 31.7369 10.4279 31.2347C10.2707 30.5931 10.1397 29.9236 9.85147 29.5052C9.82527 29.4773 9.82527 29.4215 9.87767 29.3657C9.90387 29.3378 9.95627 29.3378 10.0087 29.3657C10.6375 29.9236 11.1091 30.4258 11.5021 30.8721C12.2095 31.6253 12.786 32.239 13.703 32.7132C13.6506 32.3506 13.6506 31.9321 13.6768 31.5137C13.6768 31.0395 13.703 30.5652 13.6244 30.1747C13.6244 30.1189 13.6506 30.091 13.6768 30.0631C13.7292 30.0352 13.7554 30.0631 13.7816 30.091C15.5633 33.3548 17.9737 37.3997 20.882 39.7708C22.1397 40.8029 21.9825 41.5003 21.8253 42.0862C21.7991 42.1977 21.7729 42.2814 21.7467 42.393C21.6157 43.202 21.4847 43.8436 19.572 44.5689C19.2576 44.6805 18.8646 44.8199 18.4454 44.9873C17.6593 45.2663 16.7685 45.601 16.0087 45.9079C15.8515 45.9636 15.6943 46.0194 15.5371 46.1031C14.7248 46.41 13.7292 46.8005 12.3144 47.5537C12.2881 47.5816 12.2357 47.5537 12.2095 47.5258C12.1833 47.4979 12.1833 47.4421 12.2095 47.4142C12.4192 47.0516 12.6026 45.7963 12.655 45.3221C11.6069 45.9915 10.4017 46.6052 9.40605 47.1074C8.67243 47.47 8.12221 47.7769 7.8602 47.9442C7.8078 48 7.7816 48 7.7816 48ZM8.88204 44.8199C8.90824 44.8199 8.93444 44.8199 8.96064 44.8478C8.98684 44.8757 8.98684 44.9036 8.98684 44.9315L7.965 47.6374C8.27941 47.4421 8.72483 47.219 9.30125 46.94C10.3231 46.41 11.6069 45.7684 12.6812 45.0431C12.7074 45.0152 12.7598 45.0152 12.786 45.0431C12.8122 45.071 12.8384 45.0989 12.8384 45.1268C12.8384 45.1826 12.6812 46.5495 12.4454 47.2468C13.7554 46.5774 14.6986 46.2147 15.4585 45.9079C15.6157 45.8521 15.7729 45.7963 15.9301 45.7126C16.6899 45.4057 17.5807 45.071 18.3668 44.792C18.786 44.6526 19.1528 44.5131 19.4672 44.3736C21.3013 43.6762 21.4061 43.1183 21.5371 42.3372C21.5633 42.2256 21.5895 42.114 21.6157 42.0025C21.7729 41.4445 21.9301 40.8587 20.751 39.8824C17.9475 37.5949 15.5895 33.7453 13.834 30.5652C13.8602 30.8442 13.834 31.151 13.834 31.4579C13.834 31.9321 13.8078 32.4064 13.8864 32.7969C13.8864 32.8248 13.8864 32.8806 13.8602 32.8806C13.834 32.9085 13.8078 32.9085 13.7554 32.8806C12.7074 32.3785 12.1047 31.7369 11.3449 30.9279C11.0305 30.5931 10.6637 30.2026 10.2183 29.7842C10.3755 30.1747 10.4803 30.6489 10.5851 31.1232C10.7423 31.7648 10.8733 32.4342 11.1615 32.8527C11.1877 32.8806 11.1877 32.9364 11.1615 32.9643C11.1353 32.9922 11.0829 32.9922 11.0567 32.9643L7.65059 30.4258C7.8078 30.8442 7.9126 31.3742 7.9912 31.9042C8.12221 32.5458 8.22701 33.2153 8.46282 33.6617C8.48902 33.6896 8.48902 33.7175 8.46282 33.7453C8.43662 33.7732 8.41042 33.8011 8.38422 33.8011C7.38858 33.8848 6.68116 33.6338 5.81653 33.3269C5.21391 33.1037 4.55889 32.8527 3.64186 32.6574C3.82526 32.9364 4.21828 33.2711 4.61129 33.6338C5.29251 34.2475 6.07854 34.9449 6.18334 35.5586C6.18334 35.6144 6.15714 35.6423 6.13094 35.6701C5.60692 35.8375 4.7423 35.6701 3.90387 35.5028C3.17024 35.3633 2.43662 35.2238 1.9126 35.3075L3.58946 36.9255C3.61566 36.9533 3.61566 36.9812 3.61566 37.0091C3.61566 37.037 3.58946 37.0649 3.56326 37.0928L1.10037 37.9018L3.22264 39.7429C3.24885 39.7708 3.24885 39.7987 3.24885 39.8266C3.24885 39.8545 3.22264 39.8824 3.19644 39.9103L0.314346 41.333C1.7816 41.9188 2.64622 42.5046 2.96064 42.7835C2.98684 42.8114 2.98684 42.8393 2.98684 42.8672C2.98684 42.8951 2.98684 42.923 2.96064 42.9509L1.15277 44.541L5.58072 44.262C5.60692 44.262 5.65933 44.2899 5.65933 44.3178C5.68553 44.3457 5.65933 44.4015 5.63313 44.4294L4.55889 45.6289L8.88204 44.8199Z" stroke="#3B3938" stroke-width="0.2" mask="url(#path-104-outside-1_1908_7510)"/>
<path d="M7.75539 40.6356C6.73356 40.3566 5.71173 40.0777 4.68989 39.7429C4.63749 39.7429 4.61129 39.6871 4.63749 39.6313C4.63749 39.6034 4.66369 39.6034 4.66369 39.5755C5.39732 39.0455 6.23574 38.6829 7.10037 38.4876L7.07417 38.6271C6.86456 38.4597 6.62876 38.2644 6.41915 38.0971C6.39295 38.0692 6.39295 38.0413 6.41915 38.0134C6.41915 37.9855 6.44535 37.9855 6.47155 37.9855C7.07417 38.0134 7.67679 38.0413 8.25321 38.0692C7.65059 38.0971 7.04797 38.125 6.47155 38.125L6.49775 38.0134C6.73356 38.1807 6.94317 38.3481 7.17897 38.5155C7.20517 38.5434 7.23137 38.5992 7.20517 38.6271C7.20517 38.655 7.17897 38.655 7.15277 38.655C6.31434 38.8781 5.50212 39.2408 4.7685 39.715L4.74229 39.5476C5.76413 39.9103 6.75976 40.2729 7.75539 40.6356Z" fill="#3B3938"/>
<path d="M12.0785 35.8933C11.6069 35.7259 11.1615 35.5585 10.6899 35.3912L10.7685 35.3075C10.9781 35.7259 11.1615 36.1444 11.3711 36.5907C11.5807 37.0091 11.7641 37.4555 11.9475 37.8739C11.9737 37.9297 11.9475 37.9576 11.9213 37.9855C11.8951 37.9855 11.8951 37.9855 11.8689 37.9855C11.5021 37.9297 11.1353 37.8739 10.7423 37.8181L10.7947 37.7344C10.9257 38.125 11.0567 38.5155 11.1877 38.906C11.0043 38.5434 10.8471 38.1528 10.6899 37.7623C10.6899 37.7344 10.6899 37.7065 10.7161 37.6786H10.7423C11.1091 37.7065 11.5021 37.7344 11.8689 37.7902L11.7903 37.9018C11.5807 37.4834 11.3973 37.0649 11.2139 36.6186C11.0305 36.2001 10.8209 35.7538 10.6375 35.3354C10.6113 35.3075 10.6375 35.2517 10.6637 35.2517C10.6899 35.2517 10.6899 35.2517 10.7161 35.2517C11.1877 35.447 11.6331 35.6701 12.0785 35.8933Z" fill="#3B3938"/>
<path d="M13.7292 43.1183L12.2619 43.8715C12.2357 43.8715 12.2095 43.8715 12.2095 43.8436C12.2095 43.8157 12.2095 43.8157 12.2095 43.7878L12.917 42.8672L12.9694 42.9788C12.0785 43.1462 11.1353 43.1462 10.2445 43.0067C10.1921 43.0067 10.1659 42.9509 10.1659 42.8951C10.1659 42.8672 10.1921 42.8393 10.1921 42.8393L11.5545 41.863C11.9999 41.5282 12.4716 41.1935 12.917 40.8866L12.9432 41.0261L11.5545 40.803C11.5283 40.803 11.5021 40.7751 11.5021 40.7472C11.5021 40.7193 11.5283 40.6914 11.5545 40.6914L13.7292 40.3287L11.5807 40.803V40.6914L12.9694 40.8587C12.9956 40.8587 13.0218 40.8866 13.0218 40.9424C13.0218 40.9703 13.0218 40.9703 12.9956 40.9982C12.5502 41.333 12.1047 41.6677 11.6593 42.0025L10.2969 43.0067L10.2707 42.8393C11.1615 42.9788 12.0523 42.9788 12.9432 42.8672C12.9694 42.8672 13.0218 42.8951 13.0218 42.923C13.0218 42.9509 13.0218 42.9509 12.9956 42.9788L12.2619 43.8715L12.2095 43.7878L13.7292 43.1183Z" fill="#3B3938"/>
<path d="M15.8777 39.4361C15.5895 38.7387 15.3536 38.0134 15.1178 37.2881C15.0916 37.2323 15.1178 37.2044 15.1702 37.1765C15.1964 37.1765 15.2226 37.1765 15.2488 37.2044C15.5109 37.4276 15.7729 37.6228 16.0611 37.7902C16.3493 37.9576 16.6375 38.125 16.9519 38.2365L16.8471 38.3202C16.8471 37.8181 16.8209 37.316 16.8471 36.786C16.8995 37.2881 16.9519 37.7902 16.9781 38.2923C16.9781 38.3202 16.9519 38.376 16.9257 38.376H16.8995C16.5851 38.2644 16.2707 38.125 15.9825 37.9576C15.6943 37.7902 15.406 37.5671 15.144 37.3439L15.275 37.2602C15.5109 37.9576 15.6943 38.7108 15.8777 39.4361Z" fill="#3B3938"/>
<path d="M15.9039 40.9982C15.5894 41.333 15.2488 41.6677 14.9344 42.0025L14.9082 41.8909C15.3274 41.9746 15.7467 42.0304 16.1659 42.114C16.2183 42.114 16.2445 42.1698 16.2183 42.2256V42.2535C15.9039 42.9788 15.5632 43.732 15.2226 44.4294L15.1178 44.3178C15.8777 44.1225 16.6637 43.9273 17.4235 43.7599C17.4235 43.7599 17.4497 43.7599 17.4497 43.7878V44.262L17.3973 43.7878L17.4235 43.8157C16.6637 44.0667 15.9039 44.2899 15.144 44.4852C15.0916 44.4852 15.0654 44.4573 15.0392 44.4294C15.0392 44.4015 15.0392 44.3736 15.0392 44.3736C15.3536 43.6483 15.6943 42.923 16.0349 42.1977L16.0873 42.3093C15.668 42.2256 15.2488 42.114 14.8558 42.0304C14.8296 42.0304 14.8034 42.0025 14.8034 41.9746C14.8034 41.9746 14.8034 41.9467 14.8296 41.9467C15.1964 41.6119 15.537 41.3051 15.9039 40.9982Z" fill="#3B3938"/>
</g>
<defs>
<clipPath id="clip0_1908_7510">
<rect width="48" height="48" fill="white"/>
</clipPath>
</defs>
</svg>
