<svg width="24" height="25" viewBox="0 0 24 25" fill="none" xmlns="http://www.w3.org/2000/svg">
<g clip-path="url(#clip0_850_6695)">
<path d="M23.1788 6.82347L17.0645 0.470082C16.9774 0.379707 16.8573 0.328613 16.7319 0.328613H7.61891C6.59905 0.328613 5.76932 1.15802 5.76932 2.17746V8.63632H2.07618C1.31315 8.63632 0.692383 9.25689 0.692383 10.0197V16.9452C0.692383 17.708 1.31315 18.3286 2.07618 18.3286H5.76932V22.483C5.76932 23.5007 6.59905 24.3286 7.61891 24.3286H21.4582C22.4781 24.3286 23.3078 23.5011 23.3078 22.484V7.14353C23.3078 7.02419 23.2615 6.90949 23.1788 6.82347ZM16.8463 1.5746L21.8656 6.79014H16.8463V1.5746ZM2.07618 17.4056C1.82212 17.4056 1.61549 17.1991 1.61549 16.9452V10.0197C1.61549 9.76591 1.82216 9.55938 2.07618 9.55938H14.5394C14.7935 9.55938 15.0001 9.76591 15.0001 10.0197V16.9452C15.0001 17.1991 14.7934 17.4056 14.5394 17.4056H2.07618ZM22.3847 22.484C22.3847 22.9922 21.969 23.4056 21.4581 23.4056H7.61891C7.10802 23.4056 6.69238 22.9917 6.69238 22.4831V18.3286H14.5394C15.3024 18.3286 15.9232 17.708 15.9232 16.9452V10.0197C15.9232 9.25689 15.3024 8.63632 14.5394 8.63632H6.69238V2.17746C6.69238 1.66694 7.10802 1.25168 7.61891 1.25168H15.9231V7.25168C15.9231 7.50658 16.1298 7.71321 16.3847 7.71321H22.3847V22.484Z" fill="#3B3938"/>
<path d="M6.20994 12.0424C6.05671 11.8432 5.86649 11.7138 5.63933 11.6543C5.49149 11.6147 5.17419 11.5948 4.68739 11.5948H3.40283V15.5594H4.20332V14.0639H4.72527C5.08766 14.0639 5.36441 14.045 5.55552 14.0071C5.69614 13.9764 5.83452 13.9138 5.97064 13.8191C6.10677 13.7245 6.21899 13.5942 6.30735 13.4284C6.39571 13.2625 6.43986 13.0579 6.43986 12.8145C6.43982 12.499 6.36317 12.2416 6.20994 12.0424ZM5.52439 13.1336C5.46402 13.222 5.38063 13.2869 5.27422 13.3283C5.16782 13.3698 4.95692 13.3905 4.64141 13.3905H4.20332V12.2655H4.59003C4.8785 12.2655 5.0705 12.2745 5.16603 12.2926C5.29583 12.316 5.40313 12.3746 5.48783 12.4684C5.57258 12.5621 5.61496 12.6811 5.61496 12.8253C5.615 12.9425 5.58477 13.0453 5.52439 13.1336Z" fill="#3B3938"/>
<path d="M10.2881 12.6779C10.2015 12.4246 10.0753 12.2106 9.90946 12.0357C9.74361 11.8608 9.54435 11.7391 9.3118 11.6706C9.13874 11.6201 8.88721 11.5948 8.5573 11.5948H7.09424V15.5594H8.60057C8.89625 15.5594 9.13241 15.5315 9.30908 15.4755C9.54528 15.3998 9.73278 15.2944 9.87158 15.1591C10.0555 14.9806 10.197 14.7472 10.2962 14.4587C10.3773 14.2225 10.4179 13.9413 10.4179 13.615C10.4179 13.2436 10.3746 12.9313 10.2881 12.6779ZM9.50919 14.306C9.4551 14.4836 9.38525 14.6111 9.29961 14.6886C9.21397 14.7661 9.10625 14.8211 8.97646 14.8536C8.87732 14.8788 8.71593 14.8914 8.49238 14.8914H7.89472V12.2655H8.25439C8.58069 12.2655 8.79979 12.2781 8.91154 12.3034C9.06116 12.3359 9.18468 12.3981 9.28203 12.49C9.37939 12.582 9.4551 12.71 9.50919 12.874C9.56329 13.0381 9.59033 13.2734 9.59033 13.5799C9.59033 13.8863 9.56329 14.1284 9.50919 14.306Z" fill="#3B3938"/>
<path d="M13.8199 12.2655V11.5948H11.1021V15.5594H11.9025V13.8746H13.5576V13.2039H11.9025V12.2655H13.8199Z" fill="#3B3938"/>
</g>
<defs>
<clipPath id="clip0_850_6695">
<rect width="24" height="24" fill="white" transform="translate(0 0.328613)"/>
</clipPath>
</defs>
</svg>
