<svg width="34" height="35" viewBox="0 0 34 35" fill="none" xmlns="http://www.w3.org/2000/svg">
<g clip-path="url(#clip0_1043_9114)">
<path d="M30.2666 0.726441C30.7366 0.886023 31.2332 0.983546 31.6677 1.20519C33.1221 1.97651 33.9557 3.20884 33.9734 4.85786C34.0177 8.08498 33.9911 11.321 33.9911 14.5481C33.9911 14.5924 33.9823 14.6367 33.9823 14.7077C33.8847 14.6811 33.7872 14.6545 33.6985 14.6279C32.9624 14.3796 32.2353 14.1225 31.4992 13.8831C31.2332 13.8034 31.1445 13.6881 31.1445 13.4044C31.1534 10.6738 31.1534 7.94312 31.1534 5.21249C31.1534 5.01744 31.1534 4.81353 31.109 4.61848C30.9583 4.00675 30.4262 3.57233 29.7788 3.57233C26.4267 3.56347 23.0746 3.56347 19.7225 3.57233C18.9155 3.57233 18.2593 3.94469 17.7094 4.52096C15.4392 6.88811 13.1602 9.25525 10.8811 11.6224C8.37142 14.2289 5.87064 16.8354 3.36099 19.4419C2.65155 20.1778 2.65155 20.958 3.37873 21.685C6.58895 24.9032 9.80804 28.1126 13.0271 31.3309C13.7632 32.0667 14.5702 32.0756 15.324 31.3309C15.5634 31.1003 15.7674 30.8344 15.9891 30.5773C16.6187 31.384 17.1862 32.1199 17.7538 32.8558C15.9358 35.2318 12.9385 35.2318 11.1737 33.4675C8.45124 30.7457 5.72875 28.0239 3.00627 25.3022C2.44759 24.7436 1.89777 24.1851 1.33908 23.6354C0.656246 22.9616 0.212845 22.1726 0.0620887 21.2151C0.0532207 21.1708 0.0266167 21.1353 0.00888062 21.0998C0.00888062 20.7452 0.00888062 20.3906 0.00888062 20.0359C0.0266167 20.0005 0.0532207 19.9562 0.0620887 19.9207C0.195109 18.9898 0.611906 18.2096 1.25927 17.5358C1.77362 17.0039 2.28796 16.4719 2.80231 15.9311C7.05896 11.4983 11.3245 7.07429 15.5811 2.64143C16.2374 1.95877 16.9645 1.40023 17.8602 1.08993C18.3125 0.930352 18.7913 0.841695 19.2614 0.717575C22.9238 0.726441 26.5952 0.726441 30.2666 0.726441Z" fill="#C4C4C4"/>
<path d="M16.9911 21.6141C16.9911 20.6122 16.9911 19.6015 16.9911 18.5997C16.9911 17.9791 17.2306 17.6511 17.8336 17.4472C20.228 16.6315 22.6223 15.8159 25.0078 15.0002C25.336 14.885 25.6463 14.885 25.9745 15.0002C28.3688 15.8159 30.7632 16.6315 33.1487 17.4472C33.7428 17.6511 33.9823 17.988 33.9823 18.6086C33.9823 20.3551 33.9557 22.1017 33.9911 23.8482C34.0355 26.4725 33.0955 28.7066 31.3839 30.6394C29.8941 32.3327 28.0762 33.5916 26.0543 34.5669C25.6641 34.7531 25.3005 34.7531 24.9103 34.558C22.374 33.3257 20.1659 31.6944 18.5785 29.3184C17.5232 27.7403 16.9823 26.0115 16.9911 24.1053C17 23.272 16.9911 22.4386 16.9911 21.6141ZM24.9369 24.8855C24.6975 24.6816 24.4669 24.4866 24.2452 24.2915C24.0146 24.0965 23.7929 23.9014 23.5623 23.7152C22.9505 23.2276 22.0991 23.2986 21.5936 23.8748C21.0882 24.46 21.1148 25.3199 21.7089 25.843C22.5425 26.5877 23.3939 27.3147 24.2541 28.024C24.8748 28.5382 25.735 28.4495 26.2316 27.8201C27.553 26.1622 28.8654 24.4954 30.1602 22.8109C30.639 22.1903 30.506 21.3215 29.903 20.8605C29.2911 20.3906 28.4575 20.4793 27.9432 21.0733C27.7037 21.3481 27.4909 21.6407 27.2603 21.9332C26.4888 22.9085 25.7173 23.8926 24.9369 24.8855Z" fill="#C4C4C4"/>
<path d="M26.9145 10.6294C25.3448 10.6294 24.0944 9.37937 24.0856 7.819C24.0767 6.25864 25.336 4.98198 26.8879 4.97311C28.4575 4.96425 29.7434 6.24091 29.7434 7.81014C29.7345 9.3705 28.4752 10.6294 26.9145 10.6294Z" fill="#C4C4C4"/>
</g>
<defs>
<clipPath id="clip0_1043_9114">
<rect width="34" height="34" fill="white" transform="translate(0 0.72644)"/>
</clipPath>
</defs>
</svg>
