<svg width="26" height="34" viewBox="0 0 26 34" fill="none" xmlns="http://www.w3.org/2000/svg">
<circle cx="13" cy="20.7266" r="13" fill="#FFDF8B"/>
<path d="M11.0645 16.4142C11.0645 15.5552 11.2043 14.8036 11.4839 14.1593C11.7849 13.4936 12.1398 12.9352 12.5484 12.4843C12.9785 12.0333 13.5376 11.4964 14.2258 10.8736C15.086 10.122 15.7204 9.47773 16.129 8.94085C16.5376 8.38249 16.7419 7.71676 16.7419 6.94365C16.7419 5.89136 16.3333 5.05383 15.5161 4.43104C14.6989 3.78679 13.5699 3.46466 12.129 3.46466C9.6129 3.46466 7.68817 4.31293 6.35484 6.00948L4 4.33441C4.90323 3.17474 6.05376 2.28352 7.45161 1.66074C8.87097 1.03795 10.5054 0.726562 12.3548 0.726562C14.6989 0.726562 16.5591 1.24197 17.9355 2.27278C19.3118 3.28212 20 4.67801 20 6.46046C20 7.34094 19.8495 8.12479 19.5484 8.812C19.2688 9.47773 18.9247 10.0361 18.5161 10.4871C18.1075 10.938 17.5591 11.4749 16.871 12.0977C15.9892 12.8923 15.3333 13.5902 14.9032 14.1915C14.4946 14.7929 14.2903 15.5338 14.2903 16.4142H11.0645ZM12.7097 23.7266C12.1075 23.7266 11.6022 23.5333 11.1935 23.1467C10.8065 22.7387 10.6129 22.2448 10.6129 21.6649C10.6129 21.0851 10.8065 20.6019 11.1935 20.2154C11.6022 19.8073 12.1075 19.6033 12.7097 19.6033C13.3118 19.6033 13.8065 19.8073 14.1935 20.2154C14.5806 20.6019 14.7742 21.0851 14.7742 21.6649C14.7742 22.2448 14.5699 22.7387 14.1613 23.1467C13.7742 23.5333 13.2903 23.7266 12.7097 23.7266Z" fill="black"/>
</svg>
