<svg width="48" height="48" viewBox="0 0 48 48" fill="none" xmlns="http://www.w3.org/2000/svg">
<path d="M29.6252 42.766H48V24.6941H37.5485C37.6448 14.4753 46.9733 12.5452 46.9733 12.5452C46.9733 12.5452 47.0225 12.2029 46.9733 6.00003C31.4209 9.04528 29.7649 20.9864 29.6301 24.6941H29.6262V24.7965C29.6055 25.4308 29.6262 25.8283 29.6262 25.8283L29.6252 42.766Z" fill="#3B3938"/>
<path d="M0.00930786 25.8293V42.766H18.3828V24.6941H7.93045C8.02682 14.4753 17.3552 12.5452 17.3552 12.5452C17.3552 12.5452 17.4043 12.2029 17.3552 6.00003C1.803 9.04528 0.146984 20.9864 0.0122604 24.6941H0.00832558V24.7965C-0.0113411 25.4308 0.00930786 25.8293 0.00930786 25.8293Z" fill="#3B3938"/>
</svg>
