<svg width="97" height="97" viewBox="0 0 97 97" fill="none" xmlns="http://www.w3.org/2000/svg">
<circle cx="48.5" cy="48.5" r="48.5" fill="#EDEFEA"/>
<path d="M78.6252 76.766H97V58.6941H86.5485C86.6448 48.4753 95.9733 46.5452 95.9733 46.5452C95.9733 46.5452 96.0225 46.2029 95.9733 40C80.4209 43.0453 78.7649 54.9864 78.6301 58.6941H78.6262V58.7965C78.6055 59.4308 78.6262 59.8283 78.6262 59.8283L78.6252 76.766Z" fill="#3B3938"/>
<path d="M49.0093 59.8293V76.766H67.3828V58.6941H56.9304C57.0268 48.4753 66.3552 46.5452 66.3552 46.5452C66.3552 46.5452 66.4043 46.2029 66.3552 40C50.803 43.0453 49.147 54.9864 49.0123 58.6941H49.0083V58.7965C48.9887 59.4308 49.0093 59.8293 49.0093 59.8293Z" fill="#3B3938"/>
</svg>
