<svg width="32" height="31" viewBox="0 0 32 31" fill="none" xmlns="http://www.w3.org/2000/svg">
<path d="M5.27861 18.2129C5.03185 18.2214 4.78509 18.0261 4.81912 17.7715C4.88719 17.3216 4.64043 17.0669 4.35113 16.8037C4.08735 16.566 3.88313 16.2435 3.43215 16.2774C3.21092 16.2944 3.05776 16.0822 3.07478 15.836C3.09179 15.5898 3.23645 15.42 3.4747 15.437C3.77251 15.4625 3.9512 15.3182 4.12138 15.1229C4.25753 14.9701 4.40218 14.8343 4.54683 14.6985C4.7085 14.5542 4.81061 14.4014 4.8021 14.1552C4.79359 13.8665 4.9893 13.6798 5.24457 13.6883C5.49984 13.6883 5.67853 13.875 5.67002 14.1722C5.66151 14.3844 5.73809 14.5287 5.89126 14.6645C6.05293 14.8088 6.19758 14.9531 6.34223 15.1144C6.52092 15.3097 6.69961 15.471 7.01444 15.4455C7.26121 15.42 7.39735 15.6068 7.41437 15.8445C7.42288 16.0907 7.27822 16.3029 7.05699 16.2859C6.62303 16.2604 6.42732 16.566 6.16354 16.7952C5.85722 17.0669 5.60195 17.3385 5.66151 17.8139C5.71257 18.0516 5.49133 18.1705 5.27861 18.2129ZM5.83169 15.8699C5.63599 15.6662 5.44879 15.4795 5.25308 15.2842C5.06588 15.4879 4.87868 15.6832 4.7 15.8699C4.87868 16.0567 5.06588 16.252 5.25308 16.4472C5.44879 16.252 5.63599 16.0652 5.83169 15.8699Z" fill="#3B3938"/>
<path d="M14.8257 13.875C14.8002 14.1127 14.6811 14.308 14.4173 14.291C14.128 14.274 13.9408 14.4014 13.7706 14.6051C13.6344 14.7579 13.4983 14.9022 13.3451 15.0295C13.1664 15.1824 13.0643 15.3436 13.0814 15.5983C13.1069 15.8615 12.9367 16.0143 12.6814 16.0397C12.4347 16.0567 12.2219 15.9124 12.2305 15.6917C12.2645 15.2163 11.9156 15.0126 11.6518 14.7324C11.4306 14.4947 11.2264 14.257 10.835 14.291C10.6137 14.308 10.4776 14.1127 10.4776 13.8835C10.4691 13.6204 10.6393 13.4421 10.8775 13.4421C11.5582 13.4421 11.7454 12.8054 12.1709 12.4828C12.2305 12.4404 12.1879 12.2791 12.2049 12.1772C12.2305 11.8886 12.4091 11.7019 12.6644 11.7019C12.9197 11.7019 13.0558 11.8971 13.0984 12.1857C13.1239 12.347 13.2005 12.5168 13.2941 12.6441C13.4217 12.8139 13.5919 12.9413 13.7366 13.1025C13.9152 13.2978 14.0939 13.4591 14.4088 13.4421C14.647 13.4166 14.8087 13.5949 14.8257 13.875ZM12.6899 13.3317C12.4857 13.51 12.273 13.6883 12.1113 13.8326C12.2985 14.0448 12.4772 14.2401 12.6389 14.4183C12.8346 14.2316 13.0218 14.0448 13.2005 13.8666C13.0218 13.6713 12.8346 13.4845 12.6899 13.3317Z" fill="#3B3938"/>
<path d="M10.0266 6.07366C10.0692 5.79353 10.2138 5.60677 10.4606 5.62375C10.7754 5.64072 10.9541 5.47943 11.1328 5.28419C11.2519 5.14836 11.3795 5.02103 11.5157 4.90218C11.6859 4.75787 11.7795 4.59658 11.771 4.35889C11.7624 4.06177 11.9667 3.87502 12.2134 3.87502C12.4602 3.87502 12.6048 4.07026 12.6559 4.35889C12.6814 4.52867 12.7665 4.70694 12.8771 4.85125C13.0048 5.02952 13.192 5.16534 13.3451 5.32663C13.5068 5.5049 13.6685 5.63224 13.9407 5.61526C14.2045 5.59828 14.3747 5.77655 14.4002 6.0482C14.4173 6.29438 14.2045 6.44718 13.9237 6.49811C13.7536 6.52358 13.5749 6.60847 13.4302 6.71034C13.243 6.84616 13.1069 7.04141 12.9282 7.19421C12.741 7.3555 12.6304 7.52528 12.6474 7.79693C12.6644 8.06009 12.4857 8.22138 12.239 8.22987C11.9667 8.23836 11.7965 8.06858 11.7795 7.79693C11.7539 7.13479 11.1413 6.93105 10.7924 6.52358C10.7414 6.46416 10.5712 6.49811 10.4521 6.48962C10.1798 6.46416 10.0692 6.28589 10.0266 6.07366ZM12.2475 5.49641C12.0347 5.70015 11.839 5.87842 11.6859 6.02273C11.8646 6.23495 12.0432 6.43869 12.1879 6.60847C12.3921 6.41322 12.5878 6.22646 12.7835 6.03122C12.6048 5.84446 12.4176 5.66619 12.2475 5.49641Z" fill="#3B3938"/>
<path d="M21.3607 6.09065C21.3182 6.31136 21.1905 6.49812 20.9268 6.48114C20.663 6.46416 20.4928 6.58301 20.3226 6.76128C20.178 6.92257 20.0333 7.06688 19.8716 7.21119C19.71 7.35551 19.6079 7.5168 19.6079 7.75449C19.6164 8.04311 19.4037 8.23836 19.1654 8.23836C18.9272 8.23836 18.774 8.03463 18.7229 7.746C18.6974 7.57622 18.6123 7.39795 18.5017 7.25364C18.3741 7.07537 18.1869 6.93955 18.0337 6.77825C17.8635 6.5915 17.6848 6.46416 17.404 6.48114C17.1403 6.49812 16.9871 6.31136 16.9786 6.06518C16.9701 5.81051 17.1318 5.63224 17.387 5.62375C18.0677 5.59829 18.2805 4.97859 18.6889 4.62205C18.7485 4.57112 18.7144 4.41832 18.7144 4.31645C18.7314 4.05329 18.8761 3.90049 19.1314 3.88351C19.3696 3.87502 19.5738 4.01084 19.5738 4.24854C19.5738 4.92765 20.195 5.13139 20.5268 5.55584C20.5779 5.62375 20.7481 5.59828 20.8587 5.60677C21.182 5.64073 21.3692 5.819 21.3607 6.09065ZM19.2079 5.49642C18.9867 5.69166 18.791 5.86993 18.6208 6.02273C18.825 6.22647 19.0122 6.42172 19.1739 6.5915C19.3526 6.40474 19.5398 6.21798 19.7185 6.03971C19.5568 5.86144 19.3696 5.6662 19.2079 5.49642Z" fill="#3B3938"/>
<path d="M7.80579 12.1263C7.58456 12.1008 7.41438 11.9396 7.43139 11.6764C7.44841 11.4048 7.32929 11.2435 7.14209 11.0822C6.98042 10.9379 6.82725 10.7935 6.69111 10.6323C6.54646 10.471 6.3933 10.3946 6.17206 10.4031C5.87425 10.4115 5.69556 10.2248 5.69556 9.97011C5.69556 9.68998 5.86574 9.56264 6.19759 9.5202C6.35075 9.50322 6.50391 9.42682 6.63155 9.33344C6.79322 9.2146 6.92085 9.05331 7.06551 8.91748C7.27823 8.72223 7.45692 8.53548 7.4399 8.19592C7.42289 7.94974 7.61859 7.79694 7.88237 7.79694C8.12913 7.80543 8.31633 7.94974 8.29931 8.18743C8.27379 8.51001 8.44397 8.69677 8.64818 8.88353C8.78433 9.01086 8.92898 9.14668 9.05661 9.291C9.20127 9.46078 9.35443 9.56264 9.60119 9.53718C9.85646 9.51171 10.0181 9.65602 10.0522 9.92767C10.0607 10.1654 9.8905 10.4115 9.63523 10.3946C9.29487 10.3691 9.10767 10.5559 8.91196 10.7681C8.79284 10.8954 8.68222 11.0143 8.55458 11.1246C8.37589 11.2774 8.28229 11.4472 8.2908 11.6934C8.30782 11.965 8.11211 12.1348 7.80579 12.1263ZM7.88237 9.40984C7.69517 9.60509 7.49947 9.79185 7.32929 9.97011C7.49947 10.1569 7.67816 10.3521 7.82281 10.5049C8.04404 10.3182 8.24826 10.1399 8.43546 9.98709C8.23124 9.76638 8.05255 9.57962 7.88237 9.40984Z" fill="#3B3938"/>
<path d="M18.306 10.785C18.2804 11.0058 18.1188 11.167 17.855 11.1586C17.5997 11.1501 17.438 11.2435 17.2849 11.4217C17.1572 11.566 17.0211 11.7019 16.8764 11.8292C16.6892 11.999 16.5616 12.1687 16.5701 12.4489C16.5871 12.729 16.3574 12.9158 16.1021 12.8903C15.8298 12.8564 15.7192 12.6951 15.6852 12.4234C15.6682 12.2536 15.5746 12.0839 15.4724 11.9395C15.3703 11.7952 15.2257 11.6849 15.098 11.5575C14.8938 11.3538 14.7151 11.1331 14.3493 11.167C14.111 11.1925 13.9493 10.9888 13.9578 10.7256C13.9663 10.4625 14.1195 10.2927 14.3833 10.3097C14.6471 10.3266 14.8173 10.2163 14.9789 10.038C15.1066 9.88521 15.2597 9.74939 15.4044 9.61357C15.5916 9.44379 15.7192 9.27401 15.7022 8.99387C15.6852 8.73071 15.8554 8.5864 16.1191 8.57791C16.3829 8.56942 16.5616 8.73071 16.5616 8.97689C16.5786 9.6645 17.2168 9.85975 17.5572 10.2842C17.5997 10.3351 17.7614 10.3012 17.8635 10.3097C18.1443 10.3097 18.3145 10.4794 18.306 10.785ZM16.1276 11.2689C16.3234 11.0906 16.5191 10.9124 16.6552 10.785C16.4765 10.5558 16.3063 10.3436 16.1532 10.1569C15.9404 10.3606 15.7532 10.5474 15.566 10.7171C15.7618 10.9039 15.949 11.0822 16.1276 11.2689Z" fill="#3B3938"/>
<path d="M28.2954 9.39286C28.2018 9.09574 27.938 9.07877 27.6742 9.07877C26.7893 9.08725 25.9129 9.07028 25.0279 9.08726C24.8237 9.09574 24.5855 9.16366 24.4238 9.2825C17.8293 14.1382 11.2433 18.9939 4.65736 23.8496C4.46166 23.9939 4.32551 24.1467 4.4106 24.4099C4.49569 24.6645 4.69991 24.7155 4.93816 24.7155C5.87415 24.707 6.81014 24.724 7.73762 24.707C7.91631 24.707 8.11202 24.6306 8.25667 24.5287C8.97994 24.0194 9.69469 23.4846 10.469 22.9073C10.469 23.7223 10.469 24.4693 10.469 25.2248C10.469 25.9124 10.452 26.6 10.486 27.2876C10.4945 27.4404 10.6392 27.6357 10.7838 27.7121C10.886 27.763 11.1327 27.6951 11.2263 27.5932C11.3284 27.4914 11.354 27.2876 11.3625 27.1263C11.371 25.5898 11.371 24.0533 11.3625 22.5168C11.3625 22.3301 11.405 22.2112 11.5667 22.0924C14.4172 19.9956 17.2677 17.8988 20.1182 15.7936C22.739 13.8666 25.3598 11.9311 27.972 10.0041C28.1763 9.85975 28.389 9.69846 28.2954 9.39286Z" fill="#3B3938"/>
<path d="M27.9159 19.375C27.9082 19.375 27.8928 19.375 27.8851 19.375C27.8543 19.375 27.8235 19.375 27.8004 19.375C26.2224 19.375 24.6521 19.375 23.0741 19.375C22.5814 19.375 22.4583 19.5004 22.4583 19.994C22.4583 22.3837 22.4583 24.7812 22.4583 27.1709C22.4583 27.2179 22.4583 27.2571 22.4659 27.2963C22.4659 27.3276 22.4583 27.3589 22.4583 27.3981C22.4583 27.9622 22.9047 28.4167 23.4589 28.4167C24.0132 28.4167 24.4596 27.9622 24.4596 27.3981C24.4596 27.3433 24.4519 27.2963 24.4442 27.2414C24.4442 27.2258 24.4442 27.2101 24.4442 27.1944C24.4442 25.3845 24.4442 23.5824 24.4442 21.7725C24.4442 21.6707 24.4442 21.561 24.4442 21.4121C24.5905 21.4121 24.6906 21.4121 24.7983 21.4121C25.7682 21.4121 26.7381 21.4121 27.7081 21.4121C27.7311 21.4121 27.7542 21.4121 27.7773 21.4121C27.8235 21.42 27.8697 21.42 27.9159 21.42C28.4701 21.42 28.9166 20.9655 28.9166 20.4014C28.9166 19.8373 28.4701 19.375 27.9159 19.375Z" fill="#3B3938"/>
</svg>
