<svg width="24" height="24" viewBox="0 0 24 24" fill="none" xmlns="http://www.w3.org/2000/svg">
<path d="M18.7531 8.99993C18.7536 9.09863 18.7347 9.19648 18.6974 9.28786C18.6601 9.37923 18.6051 9.46234 18.5356 9.53242L12.5356 15.5324C12.4658 15.6027 12.3829 15.6585 12.2915 15.6966C12.2001 15.7347 12.1021 15.7543 12.0031 15.7543C11.9041 15.7543 11.806 15.7347 11.7146 15.6966C11.6232 15.6585 11.5403 15.6027 11.4706 15.5324L5.47057 9.53242C5.32934 9.3912 5.25 9.19965 5.25 8.99992C5.25 8.8002 5.32934 8.60865 5.47057 8.46742C5.6118 8.3262 5.80334 8.24686 6.00307 8.24686C6.2028 8.24686 6.39434 8.3262 6.53557 8.46742L12.0031 13.9424L17.4706 8.46743C17.5403 8.39713 17.6232 8.34133 17.7146 8.30326C17.806 8.26518 17.9041 8.24558 18.0031 8.24558C18.1021 8.24558 18.2001 8.26518 18.2915 8.30326C18.3829 8.34133 18.4658 8.39713 18.5356 8.46743C18.6051 8.53751 18.6601 8.62062 18.6974 8.71199C18.7347 8.80337 18.7536 8.90122 18.7531 8.99993Z" fill="#777777"/>
</svg>
