<svg width="48" height="49" viewBox="0 0 48 49" fill="none" xmlns="http://www.w3.org/2000/svg">
<path d="M17.385 42.1277H14.895C14.6961 42.1277 14.5053 42.0487 14.3647 41.908C14.224 41.7674 14.145 41.5766 14.145 41.3777C14.145 41.1788 14.224 40.988 14.3647 40.8474C14.5053 40.7067 14.6961 40.6277 14.895 40.6277H17.385C17.5839 40.6277 17.7747 40.7067 17.9153 40.8474C18.056 40.988 18.135 41.1788 18.135 41.3777C18.135 41.5766 18.056 41.7674 17.9153 41.908C17.7747 42.0487 17.5839 42.1277 17.385 42.1277Z" fill="#FFDF8B"/>
<path d="M40.6873 42.1277H20.0323C19.8334 42.1277 19.6426 42.0487 19.502 41.908C19.3613 41.7674 19.2823 41.5766 19.2823 41.3777C19.2823 41.1788 19.3613 40.988 19.502 40.8474C19.6426 40.7067 19.8334 40.6277 20.0323 40.6277H39.9373V8.75269H14.0923C13.8934 8.75269 13.7026 8.67367 13.562 8.53302C13.4213 8.39236 13.3423 8.2016 13.3423 8.00269C13.3423 7.80377 13.4213 7.61301 13.562 7.47236C13.7026 7.3317 13.8934 7.25269 14.0923 7.25269H40.6873C40.8862 7.25269 41.077 7.3317 41.2176 7.47236C41.3583 7.61301 41.4373 7.80377 41.4373 8.00269V41.3777C41.4373 41.5766 41.3583 41.7674 41.2176 41.908C41.077 42.0487 40.8862 42.1277 40.6873 42.1277Z" fill="#FFDF8B"/>
<path d="M11.1975 42.1277H7.3125C7.11359 42.1277 6.92282 42.0487 6.78217 41.908C6.64152 41.7674 6.5625 41.5766 6.5625 41.3777V8.00269C6.5625 7.80377 6.64152 7.61301 6.78217 7.47236C6.92282 7.3317 7.11359 7.25269 7.3125 7.25269H9.51C9.70891 7.25269 9.89968 7.3317 10.0403 7.47236C10.181 7.61301 10.26 7.80377 10.26 8.00269C10.26 8.2016 10.181 8.39236 10.0403 8.53302C9.89968 8.67367 9.70891 8.75269 9.51 8.75269H8.0625V40.6277H11.1975C11.3964 40.6277 11.5872 40.7067 11.7278 40.8474C11.8685 40.988 11.9475 41.1788 11.9475 41.3777C11.9475 41.5766 11.8685 41.7674 11.7278 41.908C11.5872 42.0487 11.3964 42.1277 11.1975 42.1277Z" fill="#FFDF8B"/>
<path d="M15.9658 33.709C15.8671 33.7067 15.7699 33.685 15.6796 33.645C15.5894 33.605 15.5079 33.5476 15.4399 33.4761C15.3716 33.4044 15.3183 33.3198 15.2829 33.2274C15.2475 33.1349 15.2308 33.0363 15.2337 32.9374C15.2365 32.8384 15.259 32.741 15.2997 32.6507C15.3404 32.5605 15.3986 32.4792 15.4709 32.4116L20.5863 27.5862L15.0087 27.4235C14.8099 27.4177 14.6215 27.3331 14.485 27.1884C14.3485 27.0437 14.2751 26.8507 14.2809 26.6519C14.2867 26.4531 14.3712 26.2647 14.5159 26.1282C14.6606 25.9917 14.8536 25.9183 15.0524 25.9241L22.4593 26.1402C22.6086 26.1438 22.7534 26.1919 22.8752 26.2783C22.997 26.3647 23.0902 26.4856 23.1429 26.6253C23.1954 26.7642 23.2055 26.9155 23.1719 27.0601C23.1382 27.2047 23.0625 27.3361 22.9541 27.4376L16.5269 33.5078C16.4521 33.5779 16.3637 33.632 16.2672 33.6666C16.1707 33.7012 16.0681 33.7156 15.9658 33.709Z" fill="#FFDF8B"/>
<path d="M10.2177 39.1312C10.1186 39.1279 10.021 39.105 9.93078 39.0637C9.84054 39.0224 9.75939 38.9637 9.69202 38.8908C9.55649 38.7463 9.48366 38.554 9.48944 38.3559C9.49521 38.1579 9.57913 37.9701 9.72285 37.8337L12.994 34.7553C13.1418 34.6456 13.3249 34.5941 13.5083 34.6106C13.6916 34.6271 13.8625 34.7105 13.9884 34.8448C14.1143 34.9792 14.1863 35.1552 14.1908 35.3393C14.1953 35.5233 14.1319 35.7026 14.0127 35.843L10.7563 38.9293C10.6843 38.9968 10.5996 39.0493 10.5072 39.084C10.4147 39.1186 10.3164 39.1347 10.2177 39.1312Z" fill="#FFDF8B"/>
<path d="M22.6742 35.2327C22.4829 35.2275 22.3008 35.1493 22.1653 35.0142C22.0297 34.8792 21.9509 34.6974 21.945 34.5061L21.6711 26.9199C21.664 26.7207 21.7363 26.5268 21.8721 26.3809C22.0079 26.235 22.1962 26.1491 22.3954 26.1419C22.5946 26.1348 22.7884 26.2071 22.9343 26.3429C23.0802 26.4788 23.1662 26.667 23.1733 26.8662L23.4547 34.4526C23.458 34.5513 23.4417 34.6496 23.4068 34.742C23.3719 34.8343 23.3192 34.9189 23.2515 34.9908C23.1839 35.0627 23.1027 35.1206 23.0127 35.1611C22.9227 35.2016 22.8255 35.2239 22.7269 35.2267L22.6742 35.2327Z" fill="#FFDF8B"/>
<path d="M17.385 42.1277H14.895C14.6961 42.1277 14.5053 42.0487 14.3647 41.908C14.224 41.7674 14.145 41.5766 14.145 41.3777C14.145 41.1788 14.224 40.988 14.3647 40.8474C14.5053 40.7067 14.6961 40.6277 14.895 40.6277H17.385C17.5839 40.6277 17.7747 40.7067 17.9153 40.8474C18.056 40.988 18.135 41.1788 18.135 41.3777C18.135 41.5766 18.056 41.7674 17.9153 41.908C17.7747 42.0487 17.5839 42.1277 17.385 42.1277Z" fill="#FFDF8B"/>
<path d="M32.2498 23.3851L25.3948 23.3851C25.2465 23.3845 25.1017 23.3399 24.9787 23.257C24.8557 23.1741 24.76 23.0566 24.7039 22.9193C24.6477 22.782 24.6334 22.6311 24.663 22.4858C24.6925 22.3404 24.7645 22.2071 24.8698 22.1026L35.8198 11.1901C35.9603 11.0505 36.1504 10.972 36.3486 10.972C36.5467 10.972 36.7368 11.0505 36.8773 11.1901C36.9476 11.2599 37.0034 11.3428 37.0415 11.4342C37.0796 11.5256 37.0992 11.6236 37.0992 11.7226C37.0992 11.8217 37.0796 11.9197 37.0415 12.0111C37.0034 12.1025 36.9476 12.1854 36.8773 12.2551L27.2098 21.8851L32.2498 21.8851C32.4487 21.8851 32.6395 21.9642 32.7801 22.1048C32.9208 22.2455 32.9998 22.4362 32.9998 22.6351C32.9998 22.8341 32.9208 23.0248 32.7801 23.1655C32.6395 23.3061 32.4487 23.3851 32.2498 23.3851Z" fill="#FFDF8B"/>
<path d="M25.3951 23.3852C25.205 23.3857 25.0218 23.3139 24.8825 23.1844C24.7433 23.0549 24.6584 22.8774 24.6451 22.6877L24.1876 15.6902C24.1747 15.4913 24.2413 15.2954 24.3728 15.1456C24.5043 14.9958 24.69 14.9044 24.8889 14.8915C25.0878 14.8785 25.2837 14.9452 25.4335 15.0767C25.5833 15.2082 25.6747 15.3938 25.6876 15.5927L26.1451 22.6052C26.1575 22.803 26.091 22.9976 25.9603 23.1466C25.8297 23.2956 25.6453 23.3867 25.4476 23.4002L25.3951 23.3852Z" fill="#FFDF8B"/>
</svg>
