<svg width="31" height="32" viewBox="0 0 31 32" fill="none" xmlns="http://www.w3.org/2000/svg">
<path d="M3.57696 28.9167C3.57696 28.9167 3.43502 28.9167 3.43502 28.7747C2.86726 28.6328 2.58337 28.207 2.58337 27.6392C2.58337 26.7875 2.58337 25.9359 2.58337 25.0843C2.58337 24.2326 3.15114 23.6648 4.00279 23.6648C4.85444 23.6648 5.56414 23.6648 6.41579 23.6648C6.55773 23.6648 6.55773 23.6648 6.69967 23.6648C6.69967 23.5229 6.69967 23.5229 6.69967 23.381C6.69967 22.5293 6.69967 21.8196 6.69967 20.968C6.69967 20.1163 7.26744 19.5485 8.11909 19.5485C8.97074 19.5485 9.68044 19.5485 10.5321 19.5485C10.674 19.5485 10.674 19.5485 10.816 19.5485C10.816 18.6969 10.816 17.8452 10.816 16.9936C10.816 16.7097 10.816 16.5678 10.9579 16.2839C11.0999 15.5742 11.5257 15.4322 12.0934 15.4322C14.3645 15.4322 16.6356 15.4322 18.9066 15.4322C19.7583 15.4322 20.1841 16 20.1841 16.8516C20.1841 17.7033 20.1841 18.5549 20.1841 19.5485C20.326 19.5485 20.326 19.5485 20.468 19.5485C21.3196 19.5485 22.0293 19.5485 22.881 19.5485C23.7326 19.5485 24.3004 20.1163 24.3004 20.968C24.3004 21.8196 24.3004 22.5293 24.3004 23.381C24.3004 23.5229 24.3004 23.5229 24.3004 23.6648C24.5843 23.6648 24.7262 23.6648 25.0101 23.6648C25.7198 23.6648 26.4295 23.6648 27.2812 23.6648C27.8489 23.6648 28.2748 24.0907 28.4167 24.5165V24.6584C28.4167 25.794 28.4167 26.7875 28.4167 27.9231C28.2748 28.4908 27.8489 28.7747 27.4231 28.9167C19.4744 28.9167 11.5257 28.9167 3.57696 28.9167ZM12.0934 16.7097C12.0934 17.5614 12.0934 18.413 12.0934 19.2647C12.0934 19.4066 12.2354 19.4066 12.3773 19.4066C14.5065 19.4066 16.6356 19.4066 18.7647 19.4066C18.9066 19.4066 19.0486 19.4066 19.0486 19.1227C19.0486 18.413 19.0486 17.5614 19.0486 16.8516C19.0486 16.7097 19.0486 16.7097 19.0486 16.5678C16.6356 16.7097 14.3645 16.7097 12.0934 16.7097ZM18.9066 27.6392C18.9066 26.7875 18.9066 25.794 18.9066 24.9423C16.6356 24.9423 14.3645 24.9423 12.0934 24.9423C12.0934 25.794 12.0934 26.7875 12.0934 27.6392C14.3645 27.6392 16.6356 27.6392 18.9066 27.6392ZM14.7903 20.826C12.5193 20.826 10.2482 20.826 7.97715 20.826C7.97715 21.6777 7.97715 22.6712 7.97715 23.5229C10.2482 23.5229 12.5193 23.5229 14.7903 23.5229C14.7903 22.5293 14.7903 21.6777 14.7903 20.826ZM16.2097 23.5229C18.4808 23.5229 20.7519 23.5229 23.0229 23.5229C23.0229 22.6712 23.0229 21.6777 23.0229 20.826C20.7519 20.826 18.4808 20.826 16.2097 20.826C16.2097 21.6777 16.2097 22.5293 16.2097 23.5229ZM10.674 27.6392C10.674 26.7875 10.674 25.794 10.674 24.9423C8.40297 24.9423 6.13191 24.9423 3.86085 24.9423C3.86085 25.794 3.86085 26.7875 3.86085 27.6392C6.13191 27.6392 8.40297 27.6392 10.674 27.6392ZM20.326 24.9423C20.326 25.794 20.326 26.7875 20.326 27.6392C22.5971 27.6392 24.8682 27.6392 27.1392 27.6392C27.1392 26.7875 27.1392 25.794 27.1392 24.9423C24.8682 24.9423 22.5971 24.9423 20.326 24.9423Z" fill="#3B3938"/>
<path d="M13.9387 11.174C13.6548 11.4579 13.3709 11.7417 13.087 12.0256C12.9451 12.3095 12.6612 12.3095 12.2354 12.3095C11.3837 12.1676 10.674 12.0256 9.82238 11.8837C9.68044 11.8837 9.68044 11.8837 9.5385 12.0256C9.25462 12.1676 9.11268 12.3095 8.82879 12.5934C9.11268 13.0192 9.25462 13.445 9.11268 13.8709C9.11268 14.0128 8.97074 14.2967 8.82879 14.4386C7.83521 15.4322 6.84162 16.5678 5.84803 17.5613C5.28026 18.1291 4.42861 18.1291 3.86085 17.5613C3.57696 17.2775 3.29308 16.9936 3.0092 16.7097C2.44143 16.1419 2.44143 15.4322 3.0092 14.8645C4.00279 13.7289 5.13832 12.7353 6.13191 11.7417C6.69967 11.174 7.26744 11.174 7.97715 11.7417C8.26103 11.3159 8.54491 11.032 8.82879 10.7482C8.97074 10.6062 9.25462 10.4643 9.5385 10.4643C10.3902 10.6062 11.2418 10.7482 12.0934 10.8901C12.2354 10.8901 12.3773 10.8901 12.3773 10.7482C12.5193 10.6062 12.6612 10.4643 12.9451 10.1804C12.9451 10.1804 12.9451 10.1804 12.8032 10.1804C12.3773 9.61263 11.8096 9.04486 11.2418 8.61904C10.5321 7.76739 10.674 6.7738 11.6676 6.34798C14.2226 5.35439 16.7775 4.21886 19.1905 3.22527C20.1841 2.79944 21.0358 3.50915 21.0358 4.50274C21.0358 4.64468 21.0358 4.78662 20.8938 4.92856C19.9002 7.48351 18.7647 9.89651 17.7711 12.4515C17.3453 13.445 16.3517 13.7289 15.5 12.8773C15.0742 12.3095 14.5064 11.7417 13.9387 11.174ZM19.7583 4.50274C19.7583 4.50274 19.7583 4.3608 19.7583 4.50274C17.2033 5.49633 14.6484 6.48992 12.0934 7.62545C12.8032 8.19321 13.3709 8.76098 13.9387 9.32875L14.0806 9.1868C14.5065 8.76098 14.9323 8.4771 15.2162 8.05127C15.3581 7.90933 15.642 7.76739 15.9259 7.90933C16.2097 8.05127 16.3517 8.19321 16.3517 8.4771C16.3517 8.76098 16.3517 8.90292 16.0678 9.04486C15.7839 9.47069 15.2162 9.89651 14.9323 10.3223C15.5 10.8901 16.0678 11.4579 16.7775 12.1676C17.7711 9.61263 18.7647 7.05768 19.7583 4.50274ZM7.1255 12.5934C5.98997 13.7289 4.99638 14.7225 4.00279 15.7161C4.28667 16 4.57055 16.2839 4.85444 16.5678C5.84803 15.5742 6.84162 14.5806 7.97715 13.445C7.69326 13.1612 7.40938 12.8773 7.1255 12.5934Z" fill="#3B3938"/>
</svg>
