<svg width="24" height="24" viewBox="0 0 24 24" fill="none" xmlns="http://www.w3.org/2000/svg">
<g clip-path="url(#clip0_1393_7024)">
<path d="M0 12C0 18.6274 5.37258 24 12 24C18.6274 24 24 18.6274 24 12C24 5.37258 18.6274 0 12 0C5.37258 0 0 5.37258 0 12Z" fill="#0088CC"/>
<path d="M5.89368 11.7355C9.38334 10.1831 11.7103 9.15973 12.8746 8.66527C16.199 7.2535 16.8897 7.00826 17.34 7.00008C17.439 6.99838 17.6604 7.02344 17.8038 7.14226C17.9249 7.2426 17.9583 7.37813 17.9742 7.47325C17.9901 7.56838 18.01 7.78508 17.9942 7.9544C17.8141 9.88701 17.0346 14.5769 16.638 16.7415C16.4702 17.6574 16.1398 17.9645 15.8199 17.9945C15.1248 18.0599 14.5969 17.5255 13.9236 17.0749C12.8701 16.3697 12.2749 15.9308 11.2522 15.2427C10.0703 14.4475 10.8365 14.0104 11.51 13.2962C11.6863 13.1092 14.7492 10.2648 14.8084 10.0067C14.8159 9.97446 14.8227 9.85417 14.7527 9.79065C14.6828 9.72713 14.5794 9.74885 14.5049 9.76612C14.3992 9.79061 12.7162 10.9264 9.45566 13.1736C8.97792 13.5086 8.54521 13.6718 8.1575 13.6632C7.73009 13.6538 6.90793 13.4165 6.29673 13.2136C5.54708 12.9648 4.95127 12.8333 5.00315 12.4107C5.03017 12.1906 5.32702 11.9656 5.89368 11.7355Z" fill="white"/>
</g>
<defs>
<clipPath id="clip0_1393_7024">
<rect width="24" height="24" fill="white"/>
</clipPath>
</defs>
</svg>
