<svg width="24" height="24" viewBox="0 0 24 24" fill="none" xmlns="http://www.w3.org/2000/svg">
<path fill-rule="evenodd" clip-rule="evenodd" d="M3 12C3 16.9712 7.0289 21 12 21C16.9712 21 21 16.9712 21 12C21 7.02879 16.9712 3 12 3C7.0289 3.00004 3 7.02879 3 12ZM11.0426 5.87242C11.0426 5.34399 11.4716 4.915 12 4.915C12.5285 4.915 12.9575 5.34399 12.9575 5.87242C12.9575 6.40085 12.5285 6.82983 12 6.82983C11.4716 6.82983 11.0426 6.40085 11.0426 5.87242ZM4.91484 12C4.91484 11.4716 5.34383 11.0426 5.8723 11.0426C6.40073 11.0426 6.82973 11.4716 6.82973 12C6.82973 12.5285 6.40073 12.9575 5.8723 12.9575C5.34387 12.9576 4.91484 12.5285 4.91484 12ZM17.1703 12C17.1703 11.4716 17.5992 11.0426 18.1276 11.0426C18.6562 11.0426 19.0851 11.4716 19.0851 12C19.0851 12.5285 18.6562 12.9575 18.1276 12.9575C17.5992 12.9576 17.1703 12.5285 17.1703 12ZM11.0426 18.1277C11.0426 17.5992 11.4716 17.1703 12 17.1703C12.5285 17.1703 12.9575 17.5992 12.9575 18.1277C12.9575 18.6562 12.5285 19.0852 12 19.0852C11.4716 19.0852 11.0426 18.6562 11.0426 18.1277ZM10.5945 12.4555C10.3914 12.2567 7.81417 9.63337 7.81417 9.63337C7.52297 9.34239 7.52297 8.87112 7.81417 8.58019C8.10511 8.28925 8.57617 8.28925 8.86736 8.58019L11.3949 11.1152C11.6208 11.3373 11.9923 11.3373 12.2147 11.1152L15.8987 7.43123C16.1895 7.14029 16.6608 7.14029 16.9519 7.43123C17.2427 7.72217 17.2427 8.19348 16.9519 8.48442C16.9519 8.48442 13.2141 12.2682 13.015 12.4676C12.7047 12.7698 12.2761 12.9576 11.8085 12.9576C11.3335 12.9576 10.9047 12.7661 10.5945 12.4555Z" fill="#FFDF8B"/>
</svg>
