<svg width="39" height="53" viewBox="0 0 39 53" fill="none" xmlns="http://www.w3.org/2000/svg">
<g clip-path="url(#clip0_1043_9150)">
<path d="M16.5553 52.9999C15.4562 52.5847 14.6691 51.8787 14.642 50.6191C14.6148 49.7194 14.642 48.8197 14.7505 47.9338C15.0898 45.2485 15.4969 42.5771 15.8633 39.8918C15.8768 39.8226 15.904 39.7672 15.9311 39.6288C16.4332 39.698 16.9489 39.781 17.5052 39.8641C17.3288 41.096 17.1524 42.2864 17.0031 43.4768C16.7317 45.7192 16.4603 47.9615 16.2568 50.2039C16.1754 51.0759 16.501 51.3389 17.3559 51.3389C18.8079 51.3389 20.2735 51.3389 21.7255 51.3389C22.4582 51.3389 22.7975 51.0482 22.7296 50.3146C22.5804 48.5152 22.3904 46.7158 22.1733 44.9163C21.9833 43.3799 21.739 41.8435 21.5355 40.307C21.5219 40.1686 21.5219 40.044 21.5084 39.8641C22.024 39.781 22.5125 39.7118 23.0689 39.6288C23.191 40.5008 23.3267 41.3452 23.4353 42.2033C23.7203 44.2658 24.0324 46.3282 24.2902 48.4045C24.3852 49.2073 24.3987 50.0239 24.3309 50.8268C24.2495 51.768 23.7067 52.4462 22.8382 52.82C22.7025 52.8753 22.5668 52.9445 22.4311 53.0137C20.477 52.9999 18.523 52.9999 16.5553 52.9999Z" fill="white" fill-opacity="0.46"/>
<path d="M13.7192 7.23919C13.285 6.94851 12.905 6.7132 12.5522 6.45021C12.2401 6.2149 12.0908 5.89654 12.2265 5.49513C12.3622 5.10756 12.6472 4.92762 13.0407 4.92762C14.3841 4.89994 15.524 4.33243 16.4332 3.39119C17.2474 2.54684 17.953 1.59176 18.618 0.622841C19.1879 -0.193821 19.8257 -0.235346 20.3278 0.636683C21.1284 2.02086 22.1054 3.23893 23.4489 4.1248C24.1952 4.60926 24.9958 4.89994 25.8779 4.92762C26.2985 4.94146 26.6107 5.09372 26.7464 5.50897C26.8821 5.92422 26.7056 6.25643 26.38 6.49174C26.0407 6.74089 25.6743 6.96235 25.2808 7.22535C26.3664 8.22195 27.547 8.95556 29.0261 9.0663C29.9489 9.13551 30.261 9.64765 29.8539 10.492C29.3654 11.5163 28.6054 12.2361 27.6013 12.7205C27.4656 12.7897 27.3299 12.8589 27.1942 12.9281C27.1806 12.9281 27.1806 12.9558 27.1535 12.9835C28.0084 13.5649 28.9175 13.9663 29.9624 14.077C30.2474 14.1047 30.6138 14.34 30.7359 14.5891C30.8445 14.8106 30.7631 15.2951 30.5731 15.4612C28.8904 16.9699 26.9635 17.7451 24.6837 17.1776C23.6795 16.9284 22.8925 16.3055 22.2547 15.4889C22.2004 15.4197 22.1461 15.3643 22.0919 15.2951C20.4228 18.3818 18.0887 17.7727 16.8403 15.2812C16.7317 15.4058 16.6367 15.5165 16.5418 15.6273C15.8225 16.4993 14.9134 17.053 13.8142 17.3021C13.5835 17.3575 13.3121 17.5236 13.1628 17.7174C11.643 19.6829 9.89248 21.3024 7.44989 22.1191C7.57202 22.2298 7.65344 22.3128 7.762 22.382C10.4217 24.1123 14.0042 22.9357 15.1712 19.9459C15.2797 19.6552 15.334 19.3507 15.3883 19.0462C15.4697 18.534 15.7547 18.2157 16.2025 18.2157C16.6639 18.2157 16.9896 18.5479 17.0167 19.0877C17.0574 20.1812 17.3424 21.1917 17.953 22.1052C18.9029 23.5171 20.0157 23.5171 20.9656 22.1191C21.5491 21.2609 21.834 20.2919 21.9019 19.2538C21.9426 18.5756 22.214 18.2157 22.7161 18.2157C23.191 18.2157 23.4624 18.534 23.5438 19.1846C23.761 20.8871 25.5522 22.7004 27.4113 23.0741C28.8768 23.3648 30.2203 23.0464 31.4687 22.1744C30.6545 21.7453 29.8267 21.3993 29.094 20.9148C28.3612 20.4304 27.7098 19.8352 27.0313 19.2953C27.452 18.8247 27.8048 18.4371 28.1576 18.0496C28.6461 18.4787 29.094 18.8801 29.5553 19.24C30.6545 20.0982 31.8622 20.6518 33.2735 20.721C33.5313 20.7349 33.8977 20.984 34.0063 21.2193C34.1013 21.4546 34.0198 21.8837 33.857 22.1052C32.9885 23.2818 31.8215 24.0569 30.4509 24.5137C30.3017 24.569 30.1388 24.6106 29.9217 24.6798C31.6451 26.6591 33.6399 28.0018 36.2589 28.1402C36.7067 28.1679 37.1138 28.1956 37.3038 28.6939C37.4802 29.1645 37.2495 29.5105 36.9374 29.7874C35.9875 30.6317 35.0104 31.4484 34.047 32.2789C33.9927 32.2512 33.9384 32.2235 33.8977 32.2097C34.0063 32.3619 34.1148 32.528 34.237 32.6803C35.3633 34.106 36.7203 35.2687 38.1994 36.293C38.3351 36.3899 38.4844 36.4729 38.6201 36.5837C38.9322 36.819 39.0814 37.1373 38.9593 37.5249C38.8372 37.9125 38.5522 38.1062 38.1451 38.1062C34.9833 38.0786 31.8622 37.8433 28.8361 36.7913C28.7276 36.7498 28.619 36.7221 28.4155 36.7774C28.8226 37.2481 29.2161 37.7464 29.6503 38.1893C29.9489 38.4938 30.166 38.7983 29.9896 39.2274C29.8267 39.6565 29.4739 39.7673 29.0397 39.7673C27.1942 39.7396 25.3622 39.5735 23.571 39.0336C22.024 38.563 20.6127 37.8433 19.5407 36.5698C19.5 36.5698 19.4457 36.5698 19.4321 36.5837C17.6952 38.5215 15.3883 39.2136 12.9593 39.5458C11.9687 39.6842 10.9645 39.698 9.9739 39.7673C9.52609 39.7949 9.1597 39.6842 8.98329 39.2274C8.82045 38.7845 9.03757 38.4938 9.33611 38.1893C9.77035 37.7464 10.1774 37.2481 10.6524 36.7082C9.49895 36.9989 8.48121 37.3034 7.44989 37.5249C5.30584 37.9817 3.12108 38.1062 0.936317 38.1201C0.502079 38.1201 0.16283 37.9678 0.0271307 37.5387C-0.122139 37.0681 0.12212 36.7498 0.488509 36.5006C2.03548 35.4625 3.46033 34.2859 4.65448 32.8187C4.77661 32.6665 4.88517 32.5142 4.99373 32.3619C5.02087 32.3204 5.03444 32.2789 5.0073 32.3343C4.00312 31.4899 3.03966 30.6594 2.07619 29.8427C1.96763 29.7458 1.85907 29.6213 1.77765 29.4967C1.41127 28.9292 1.7098 28.2233 2.36116 28.1956C4.69519 28.0848 6.68997 27.199 8.33194 25.5241C8.7119 25.8978 9.07828 26.2577 9.47181 26.6591C8.0334 28.1817 6.31002 29.123 4.26095 29.6628C5.06158 30.3826 5.93006 30.8393 6.87995 31.1439C10.5981 32.3619 14.2891 29.8151 14.6013 25.8148C14.6555 25.1919 14.9676 24.8459 15.4426 24.8597C15.9311 24.8736 16.2025 25.2334 16.2296 25.8702C16.3111 27.4481 16.786 28.8738 17.6681 30.1749C17.7766 30.3272 17.8987 30.4795 18.0209 30.6179C19.0251 31.7667 19.9749 31.7667 20.952 30.5902C22.0511 29.2752 22.5804 27.7111 22.7161 25.9947C22.7296 25.8978 22.7161 25.7871 22.7296 25.6902C22.7704 25.1919 23.096 24.8597 23.5303 24.8597C23.9781 24.8597 24.3038 25.1781 24.3445 25.6764C24.4666 27.2405 25.1315 28.5555 26.1493 29.6905C27.8048 31.5453 30.1253 31.9744 32.6221 30.9224C33.0292 30.7563 33.4228 30.5348 33.7892 30.3134C34.0741 30.1473 34.3455 29.9258 34.6848 29.6766C34.5491 29.6213 34.4948 29.5936 34.4134 29.5659C31.8079 28.8877 29.8132 27.3097 28.1848 25.1781C28.0626 25.012 27.8727 24.832 27.6827 24.8043C25.715 24.5275 24.1545 23.5724 22.9468 21.9391C22.1597 23.4063 21.2912 24.8182 19.4593 24.8182C17.6273 24.8182 16.7453 23.4202 15.9582 21.9391C14.9948 23.2541 13.7871 24.1399 12.2672 24.5829C9.67536 25.3303 6.63569 24.306 5.06158 22.1052C4.89874 21.8837 4.83089 21.4685 4.92588 21.2193C5.0073 20.9979 5.36012 20.7349 5.60438 20.7349C7.30062 20.6657 8.68476 19.8905 9.93319 18.797C10.4624 18.3264 10.9645 17.8143 11.5752 17.2468C10.3267 16.8869 9.34968 16.4024 8.50835 15.655C8.19624 15.392 7.99269 15.1013 8.11482 14.6722C8.25052 14.2293 8.5762 14.0908 9.01043 14.0632C10.0417 14.0078 10.9238 13.5649 11.738 13.0112C11.2088 12.6651 10.6253 12.3883 10.1774 11.9592C9.77035 11.4886 9.39039 10.9488 9.07828 10.3813C8.69833 9.68918 9.06471 9.12166 9.85177 9.0663C11.3716 8.98325 12.5793 8.23579 13.7192 7.23919ZM27.8184 10.5889C27.7505 10.5474 27.7098 10.5058 27.6691 10.492C26.1493 9.96601 24.833 9.13551 23.6931 7.98664C23.5846 7.87591 23.3267 7.84823 23.1503 7.87591C20.7077 8.34653 18.2787 8.34653 15.8361 7.87591C15.6461 7.83438 15.3883 7.94512 15.2255 8.06969C14.6148 8.52647 14.0585 9.0663 13.4207 9.48155C12.7286 9.91064 11.9687 10.229 11.2223 10.6027C11.7516 11.1149 12.4029 11.4056 13.1086 11.5024C13.3392 11.5301 13.6106 11.4056 13.8142 11.2671C14.2077 10.9903 14.547 10.6719 14.9541 10.3259C15.239 10.5612 15.6326 10.8934 16.0532 11.2256C14.6962 12.9835 13.0271 14.2569 11.0866 15.2397C13.3528 16.4578 15.9447 15.0736 16.2432 12.5406C16.3246 11.8762 16.5825 11.5578 17.0574 11.5578C17.5595 11.5578 17.763 11.9315 17.8987 12.5821C18.0616 13.3849 18.2651 14.2016 18.6315 14.9214C19.1608 15.9595 19.7714 15.9318 20.382 14.949C20.8434 14.2293 21.0741 13.4126 21.1284 12.5544C21.1691 11.9177 21.4405 11.5578 21.9155 11.544C22.3904 11.5301 22.6889 11.8623 22.7568 12.499C23.0418 15.0459 25.7557 16.5131 27.8998 15.2259C25.9729 14.2569 24.3038 12.9697 22.9332 11.2394C23.3674 10.8796 23.7745 10.5474 24.0595 10.3121C24.4802 10.6858 24.8466 11.018 25.2265 11.3363C25.3486 11.4332 25.5115 11.544 25.6608 11.5301C26.475 11.4748 27.2077 11.1841 27.8184 10.5889ZM11.6701 38.0094C13.3121 37.8709 14.8048 37.6079 16.2025 36.9435C17.3288 36.4037 18.2923 35.6978 18.7944 34.452C18.8894 34.2167 19.2965 33.9814 19.5407 33.9953C19.7985 34.0091 20.0699 34.2859 20.2599 34.5212C20.5856 34.9365 20.7756 35.4763 21.142 35.8224C22.8653 37.4142 25.023 37.774 27.262 38.0232C27.2349 37.9125 27.2349 37.8571 27.2077 37.8156C25.9322 35.8362 25.2672 33.6631 25.1858 31.2961C25.1858 31.1854 25.1451 31.0608 25.0772 30.9639C24.6294 30.3687 24.1681 29.7735 23.6931 29.1783C23.6253 29.3444 23.5438 29.5244 23.4624 29.7043C23.001 30.7148 22.404 31.6283 21.5355 32.3343C20.3413 33.3032 18.9979 33.4554 17.8445 32.5696C17.1524 32.0436 16.596 31.3238 16.0532 30.6317C15.714 30.2026 15.524 29.6628 15.2662 29.1645C14.9405 29.6351 14.6691 30.1057 14.3027 30.5071C13.9363 30.8947 13.7871 31.2961 13.7735 31.8359C13.7599 32.4035 13.6514 32.971 13.5428 33.5246C13.2443 35.0888 12.6065 36.5421 11.6701 38.0094ZM12.0772 32.3619C9.68893 33.1094 9.68893 33.0955 6.83924 32.8326C6.71711 32.8187 6.56784 32.971 6.45928 33.0817C5.5501 34.0783 4.65448 35.0749 3.75887 36.0715C3.70459 36.1407 3.65031 36.2099 3.54175 36.3345C5.91649 36.1407 8.18267 35.8085 10.3403 34.9227C11.358 34.5074 12.023 33.8984 12.0094 32.7218C12.023 32.6249 12.0501 32.528 12.0772 32.3619ZM26.9363 32.4173C26.9906 32.7357 27.0856 33.0679 27.1127 33.4001C27.167 33.9814 27.4791 34.3136 27.9676 34.5628C29.4196 35.3379 30.9937 35.7393 32.595 36.0023C33.5178 36.1546 34.4541 36.2376 35.4175 36.3622C35.3768 36.2376 35.3768 36.1961 35.3633 36.1822C34.2641 35.2549 33.3006 34.189 32.4729 32.9987C32.405 32.9018 32.1743 32.8741 32.0115 32.8741C31.0616 32.9156 30.0981 33.054 29.1482 32.9848C28.4155 32.9433 27.6962 32.6249 26.9363 32.4173ZM15.5104 6.02112C17.5595 6.82394 22.1868 6.7132 23.4353 5.97959C21.8205 5.13525 20.5313 3.93101 19.5 2.38074C18.4551 3.98638 17.1524 5.14909 15.5104 6.02112Z" fill="white" fill-opacity="0.46"/>
</g>
<defs>
<clipPath id="clip0_1043_9150">
<rect width="39" height="53" fill="white"/>
</clipPath>
</defs>
</svg>
