<svg width="24" height="24" viewBox="0 0 24 24" fill="none" xmlns="http://www.w3.org/2000/svg">
<g clip-path="url(#clip0_1393_7018)">
<path d="M0 12C0 18.6274 5.37258 24 12 24C18.6274 24 24 18.6274 24 12C24 5.37258 18.6274 0 12 0C5.37258 0 0 5.37258 0 12Z" fill="#0077FF"/>
<path fill-rule="evenodd" clip-rule="evenodd" d="M19.3899 8.18569C19.1902 8.03429 18.4727 8.03429 17.7625 8.03429C17.0375 8.04941 16.3123 8.04941 16.1421 8.11769C15.9872 8.17822 15.6393 9.04222 15.1882 9.92864C14.6699 10.9295 14.0415 11.8994 13.6418 11.8837C13.1167 11.8837 13.2427 10.2393 13.2795 9.01952C13.2867 8.22351 13.161 7.96567 13.0501 7.89795C12.7763 7.70063 12.0219 7.5117 12.0219 7.5117C12.0219 7.5117 9.75772 7.33703 9.43998 8.33743C9.87633 8.39812 10.6162 8.26133 10.3277 11.3609C10.3055 11.5128 9.97984 12.7858 8.92935 11.0653C8.66296 10.6337 7.65719 8.04941 7.30203 8.03429C6.14006 8.01136 4.9865 7.95842 4.58735 8.18569C4.20975 8.41324 5.09007 10.1864 6.57718 12.5663C7.78264 14.5214 9.06266 16.0374 11.282 16.416C11.7036 16.4619 12.784 16.5067 13.1318 16.3404C13.3607 16.2265 13.0722 14.5444 13.864 14.3772C14.2118 14.3093 15.5651 16.1358 16.0754 16.3404C16.3869 16.4692 17.0672 16.5221 17.7625 16.4916C18.5172 16.4691 19.3748 16.5677 19.4562 16.0373C19.6415 14.8777 17.171 13.3615 17.1041 12.6494C17.0448 12.1341 18.0068 11.1869 18.4948 10.4592C19.1011 9.5801 19.7675 8.51929 19.3899 8.18569Z" fill="white"/>
</g>
<defs>
<clipPath id="clip0_1393_7018">
<rect width="24" height="24" fill="white"/>
</clipPath>
</defs>
</svg>
