<svg width="26" height="41" viewBox="0 0 26 41" fill="none" xmlns="http://www.w3.org/2000/svg">
<circle cx="13" cy="28" r="13" fill="#FFDF8B"/>
<path d="M10.14 8H16.92L15.78 21.35H11.25L10.14 8ZM13.53 29.27C12.53 29.27 11.71 28.97 11.07 28.37C10.43 27.75 10.11 27 10.11 26.12C10.11 25.22 10.43 24.48 11.07 23.9C11.71 23.32 12.53 23.03 13.53 23.03C14.53 23.03 15.34 23.32 15.96 23.9C16.6 24.48 16.92 25.22 16.92 26.12C16.92 27 16.6 27.75 15.96 28.37C15.32 28.97 14.51 29.27 13.53 29.27Z" fill="black"/>
</svg>
