<svg width="24" height="24" viewBox="0 0 24 24" fill="none" xmlns="http://www.w3.org/2000/svg">
<path d="M12 24C5.3736 24 0 18.6264 0 12C0 5.3736 5.3736 0 12 0C18.6264 0 24 5.3736 24 12C24 18.6264 18.6264 24 12 24Z" fill="#FF0000"/>
<path d="M19.6361 8.13843C19.4537 7.44723 18.9137 6.90483 18.2273 6.72003C16.9841 6.38403 12.0017 6.38403 12.0017 6.38403C12.0017 6.38403 7.01685 6.38403 5.77605 6.72003C5.08965 6.90483 4.54965 7.44723 4.36725 8.13843C4.03125 9.38883 4.03125 12 4.03125 12C4.03125 12 4.03125 14.6112 4.36485 15.8616C4.54725 16.5528 5.08725 17.0952 5.77365 17.28C7.01685 17.616 11.9993 17.616 11.9993 17.616C11.9993 17.616 16.9841 17.616 18.2249 17.28C18.9113 17.0952 19.4513 16.5528 19.6337 15.8616C19.9673 14.6112 19.9673 12 19.9673 12C19.9673 12 19.9673 9.38883 19.6361 8.13843ZM10.3697 14.3688V9.63123L14.5337 12L10.3697 14.3688Z" fill="white"/>
</svg>
