<svg width="256" height="256" viewBox="0 0 256 256" fill="none" xmlns="http://www.w3.org/2000/svg">
<rect width="256" height="256" fill="#FFDF8B"/>
<path d="M71 184.581C97.0283 176.083 102.476 157.267 100.055 131.773C98.2389 105.673 99.4496 78.9655 101.871 52.8651C102.476 46.1883 112.161 36.4765 118.819 35.2625C133.952 32.8346 149.69 34.6555 167.244 34.6555C169.665 79.5724 172.087 122.668 175.113 165.764C175.719 173.655 182.982 180.332 184.193 188.223C186.009 199.149 184.193 210.074 184.193 221C182.982 221 181.166 221 179.956 221C169.665 202.79 155.743 191.865 133.347 193.686C127.899 194.293 123.057 193.686 117.609 193.686C98.2389 193.079 89.7646 200.969 93.3965 221C86.1327 221 78.2637 221 71 221C71 208.253 71 196.114 71 184.581ZM152.112 179.118C152.112 140.878 152.717 103.852 151.506 66.8258C151.506 60.1489 141.821 54.0791 136.373 48.0092C130.32 53.4721 121.846 57.721 118.214 64.3978C114.582 70.4677 114.582 78.9655 114.582 86.2493C113.977 116.599 114.582 147.555 114.582 179.118C121.846 179.118 134.558 179.118 152.112 179.118Z" fill="black"/>
</svg>
